<?xml version="1.0" encoding="UTF-8"?>
<svg width="87px" height="27px" viewBox="0 0 87 27" version="1.1" xmlns="http://www.w3.org/2000/svg" xmlns:xlink="http://www.w3.org/1999/xlink">
    <title>logo_親子</title>
    <g id="Symbols" stroke="none" stroke-width="1" fill="none" fill-rule="evenodd">
        <g id="Slicing" transform="translate(-272.000000, -175.000000)">
            <g id="logo_親子" transform="translate(272.000000, 175.000000)">
                <path d="M61.7921311,11.1207002 L68.1824815,11.1207002 L68.1824815,9.59297794 L52.2989124,9.59297794 L52.2989124,11.1207002 L58.6875691,11.1207002 L58.6875691,14.5148858 C58.6875691,14.657157 58.6926502,14.801122 58.699425,14.9400058 C58.6926502,15.0331596 58.6875691,15.1246197 58.6774069,15.2143861 L52.2989124,15.2143861 L52.2989124,16.5693504 L58.4267385,16.5693504 C57.7238507,19.3165406 55.796414,22.148416 52.2989124,25.154743 L52.2989124,26.5960863 C52.2989124,26.5960863 57.5477054,24.0402849 60.2390032,19.6620565 C62.9303011,24.045366 68.1824815,26.5960863 68.1824815,26.5960863 L68.1824815,25.154743 C64.6866736,22.148416 62.6982635,18.6543018 62.0546554,16.5693504 L68.1824815,16.5693504 L68.1824815,15.2143861 L61.8056807,15.2143861 C61.7972122,15.1297008 61.78705,15.0500967 61.7802751,14.9654114 C61.78705,14.8180591 61.7921311,14.6656256 61.7921311,14.5148858 L61.7921311,11.1207002 Z" id="Fill-2" fill="#E3007E"></path>
                <path d="M1.91498991e-13,9.44274627 L4.16312784,9.44274627 L4.16312784,12.9690409 L1.91498991e-13,12.9690409 L1.91498991e-13,14.4798261 L2.93688514,14.4798261 C2.5168462,17.1728177 0.950168722,20.4450565 1.91498991e-13,21.6018572 L1.91498991e-13,23.2921752 C1.91498991e-13,23.2921752 2.60661259,21.4917664 4.16312784,17.5352706 L4.16312784,26.5559455 L6.35478261,26.5559455 L6.35478261,17.5352706 C7.90960415,21.4917664 10.5212979,23.2921752 10.5212979,23.2921752 L10.5212979,21.6018572 C9.56774173,20.4450565 7.99937054,17.1728177 7.58102531,14.4798261 L10.5212979,14.4798261 L10.5212979,12.9690409 L6.35478261,12.9690409 L6.35478261,9.44274627 L10.5212979,9.44274627 L10.5212979,8.07253861 L1.91498991e-13,8.07253861 L1.91498991e-13,9.44274627 Z M14.113647,14.4324023 L20.9054056,14.4324023 L20.9054056,11.0212797 L14.113647,11.0212797 L14.113647,14.4324023 Z M14.113647,9.56977417 L20.9054056,9.56977417 L20.9054056,6.5278793 L14.113647,6.5278793 L14.113647,9.56977417 Z M14.113647,5.02217521 L20.9054056,5.02217521 L20.9054056,1.92777547 L14.113647,1.92777547 L14.113647,5.02217521 Z M21.1408306,25.3161531 C21.1408306,25.3161531 20.5615834,25.2060623 20.5615834,24.5014809 L20.5615834,15.8635834 L23.3189358,15.8635834 L23.3189358,0.476269955 L11.7035042,0.476269955 L11.7035042,15.8635834 L14.2051071,15.8635834 C13.9849254,18.0535445 13.6919143,21.8745438 10.555172,26.5559455 L12.1337054,26.5559455 C13.7122388,24.6573018 16.0444711,21.1699624 16.6152498,15.8635834 L18.1497469,15.8635834 L18.1497469,24.1661272 C18.1497469,26.5407021 20.0788774,26.57627 20.0788774,26.57627 L23.3189358,26.57627 L23.3189358,25.3161531 L21.1408306,25.3161531 Z M6.31582738,0.476269955 L4.12756003,0.476269955 L4.12756003,1.91422583 L1.91498991e-13,1.91422583 L1.91498991e-13,3.24378456 L10.5212979,3.24378456 L10.5212979,1.91422583 L6.31582738,1.91422583 L6.31582738,0.476269955 Z" id="Fill-4" fill="#E3007E"></path>
                <path d="M30.7133147,26.596425 L30.7133147,25.1889559 L34.9204789,25.1889559 C34.9204789,25.1889559 35.9654951,25.3244523 35.9654951,24.0897411 L35.9654951,11.1362823 L25.578,11.1362823 L25.578,9.64751525 L35.9654951,9.64751525 L35.9654951,5.80957884 L42.2525295,1.77856003 L27.0311992,1.77856003 L27.0311992,0.450695003 L47.1913744,0.450695003 L47.1913744,1.73452369 L39.0802193,6.78854056 L39.0802193,9.64751525 L50.1790707,9.64751525 L50.1790707,11.1362823 L39.0802193,11.1362823 L39.0802193,23.9661006 C39.0802193,26.6963537 36.6700766,26.596425 36.6700766,26.596425 L30.7133147,26.596425 Z" id="Fill-6" fill="#E3007E"></path>
                <path d="M86.1887716,11.1207002 L86.1887716,9.59297794 L70.3052025,9.59297794 L70.3052025,11.1207002 L76.7548326,11.1207002 L76.7548326,26.5791493 L79.7408352,26.5791493 L79.7408352,14.9552492 C80.8231129,15.5683705 82.3931778,16.3034387 84.0818021,16.5693504 L84.0818021,15.3719007 C82.2373569,14.4589935 80.7468962,13.4122836 79.7408352,12.6145483 L79.7408352,11.1207002 L86.1887716,11.1207002 Z" id="Fill-8" fill="#E3007E"></path>
                <path d="M7.28259442,2.19487281 C6.19184815,2.04413303 5.52791564,2.75040818 5.21966126,3.24497015 C4.91648799,2.75040818 4.25255548,2.04413303 3.16180921,2.19487281 C1.91693576,2.36763076 1.48504088,3.34489877 1.70691629,4.41701428 C1.96944062,5.69745555 3.45312654,7.26582674 5.21966126,8.0720305 C6.99127709,7.26582674 8.4715756,5.69745555 8.73748735,4.41701428 C8.95936275,3.34489877 8.52746788,2.36763076 7.28259442,2.19487281" id="Fill-10" fill="#8EC31F"></path>
                <path d="M52.2616509,2.69197534 C52.2735068,2.56494744 52.2887502,2.42098248 52.2921376,2.25838676 C52.2972187,2.09579104 52.3022998,1.83326671 52.3022998,1.47420117 L52.3022998,1.29297469 C52.3022998,1.02028812 52.2972187,0.808574951 52.2921376,0.654447761 C52.2887502,0.502014276 52.2735068,0.36482414 52.2616509,0.242877352 C52.370048,0.246264763 52.48522,0.249652174 52.6020857,0.253039585 C52.720645,0.25473329 52.8442855,0.256426995 52.9730071,0.256426995 C53.1017287,0.256426995 53.2185944,0.25473329 53.3269916,0.253039585 C53.433695,0.249652174 53.5336236,0.246264763 53.6284711,0.242877352 C53.62339,0.283526282 53.6183089,0.315706684 53.6183089,0.337724854 C53.6166152,0.358049319 53.6166152,0.380067489 53.6166152,0.400391953 C53.6166152,0.417329007 53.6166152,0.435959766 53.6183089,0.459671642 C53.6183089,0.479996106 53.62339,0.508789098 53.6284711,0.551131733 C53.4523258,0.5409695 53.2998923,0.529113563 53.1711707,0.524032446 C53.0424491,0.517257625 52.9323582,0.510482803 52.8375107,0.508789098 C52.8324296,0.554519143 52.8290422,0.6036366 52.8256548,0.64767294 C52.8239611,0.700177807 52.8239611,0.771313433 52.8239611,0.86785464 L52.8239611,1.03891888 L52.8256548,1.28281246 C52.9018715,1.28111875 53.0272057,1.27603764 53.2084322,1.26926282 C53.3896587,1.26248799 53.5234614,1.26079429 53.6166152,1.25571317 C53.6098404,1.29297469 53.6081467,1.32007398 53.6030655,1.34378585 C53.6030655,1.36580402 53.6013718,1.38612849 53.6013718,1.40306554 C53.6013718,1.43693965 53.6030655,1.4843634 53.6132278,1.54872421 C53.6132278,1.55041791 53.6166152,1.55719273 53.6166152,1.55888644 C53.3981272,1.54533679 53.2338378,1.53517456 53.1220532,1.53348086 C53.0068812,1.52670604 52.91034,1.52501233 52.8239611,1.52501233 L52.8239611,1.95182609 C52.8239611,2.10764698 52.8239611,2.21265672 52.8256548,2.27532382 C52.8290422,2.33629721 52.8324296,2.38880208 52.8375107,2.42945101 C52.9459079,2.4277573 53.0678546,2.41928877 53.1965762,2.41082025 C53.3286853,2.40404543 53.4726502,2.39218949 53.6284711,2.37694614 C53.6250837,2.40065801 53.62339,2.42436989 53.6200026,2.44638806 C53.6183089,2.47179364 53.6183089,2.49211811 53.6183089,2.51752369 C53.6183089,2.54462297 53.6200026,2.57510967 53.6250837,2.6174523 C53.6250837,2.65640753 53.6284711,2.68181311 53.6284711,2.69197534 C53.3896587,2.68181311 53.2118196,2.6784257 53.083098,2.67503829 C52.9577638,2.67334458 52.8527541,2.67165088 52.7748436,2.67165088 C52.6698339,2.67165088 52.5749864,2.67334458 52.4919948,2.67503829 C52.4090032,2.68181311 52.3327865,2.68689422 52.2616509,2.69197534" id="Fill-12" fill="#E3007E"></path>
                <path d="M54.8188073,1.16188189 C54.6934731,1.16188189 54.5986256,1.21777417 54.544427,1.33294614 C54.4885347,1.4464244 54.458048,1.62765088 54.458048,1.87493186 C54.458048,2.09680727 54.486841,2.25940299 54.5393459,2.36102531 C54.5935445,2.45926022 54.6816171,2.51007138 54.7967891,2.51007138 C54.9119611,2.51007138 54.9949526,2.45587281 55.0576197,2.34239455 C55.1168994,2.22722258 55.1473861,2.06123945 55.1473861,1.85121999 C55.1473861,1.62087605 55.1202868,1.44981181 55.0660883,1.33463984 C55.010196,1.21777417 54.9272044,1.16188189 54.8188073,1.16188189 M55.1507735,2.69129786 C55.1541609,2.66419857 55.1541609,2.63371188 55.1541609,2.59983777 C55.1575483,2.56596366 55.1575483,2.5151525 55.1575483,2.44571058 C55.1016561,2.5456392 55.0322141,2.61846853 54.9492226,2.66927969 C54.866231,2.71331603 54.7679961,2.7370279 54.6426619,2.7370279 C54.4106243,2.7370279 54.2327852,2.66419857 54.1125321,2.5168462 C53.9939727,2.36949384 53.9346931,2.14423102 53.9346931,1.8563011 C53.9346931,1.56667748 54.0007476,1.34310837 54.1328566,1.18051265 C54.2615782,1.01622323 54.4394173,0.933231668 54.6680675,0.933231668 C54.7696898,0.933231668 54.8560688,0.953556132 54.9339792,0.990817651 C55.0135834,1.03146658 55.0830253,1.09074627 55.1439987,1.17204413 L55.1439987,0.7232122 C55.1439987,0.575859831 55.1389176,0.442057106 55.1389176,0.328578845 C55.1355302,0.211713173 55.1304491,0.103316029 55.1236742,-2.8766844e-14 C55.1626295,0.00338741077 55.2066658,0.00846852693 55.2507021,0.00846852693 C55.2947385,0.0135496431 55.3404685,0.0152433485 55.389586,0.0152433485 C55.4387034,0.0152433485 55.4895146,0.0135496431 55.5318572,0.00846852693 C55.5758936,0.00846852693 55.6216236,0.00338741077 55.6588851,-2.8766844e-14 C55.6470292,0.160902012 55.6385607,0.338741077 55.6317859,0.540292018 C55.6283984,0.741842959 55.6267047,1.01622323 55.6267047,1.36173913 C55.6267047,1.6361194 55.6283984,1.8867878 55.6351733,2.11035691 C55.6402544,2.33223232 55.6470292,2.52700844 55.6588851,2.69129786 C55.6182362,2.68791045 55.5758936,2.68113563 55.5335509,2.67605451 C55.4912083,2.6726671 55.4488657,2.6726671 55.4099104,2.6726671 C55.3641804,2.6726671 55.3218378,2.6726671 55.2778014,2.67605451 C55.2371525,2.68113563 55.1981973,2.68791045 55.1507735,2.69129786" id="Fill-14" fill="#E3007E"></path>
                <path d="M57.6737171,0.981671642 C57.6703297,1.12224919 57.6635548,1.26452044 57.6584737,1.40679169 C57.6584737,1.54906295 57.6550863,1.6930279 57.6550863,1.83191175 C57.6550863,1.974183 57.6584737,2.11814796 57.6584737,2.26380662 C57.6635548,2.40607787 57.6703297,2.54665542 57.6737171,2.69231408 C57.6296807,2.68723297 57.5873381,2.68045814 57.5466892,2.67537703 C57.5060402,2.67368332 57.467085,2.67198962 57.4315172,2.67198962 C57.3959494,2.67198962 57.3569942,2.67368332 57.3129578,2.67537703 C57.2740026,2.68045814 57.2299663,2.68723297 57.1842362,2.69231408 L57.1842362,2.4467268 C57.1080195,2.5415743 57.0250279,2.60932252 56.9352615,2.65674627 C56.8488825,2.70247631 56.7455665,2.72618819 56.6371694,2.72618819 C56.4508618,2.72618819 56.3170591,2.67368332 56.2340675,2.56867359 C56.1493822,2.46535756 56.1070396,2.30106814 56.1070396,2.07241791 L56.1070396,1.87425438 C56.1070396,1.73875795 56.1053459,1.5981804 56.1002648,1.45082803 C56.0985711,1.30008825 56.0917962,1.14596106 56.0867151,0.981671642 C56.1222829,0.985059053 56.1646256,0.988446463 56.2103556,0.991833874 C56.2526982,0.993527579 56.300122,0.993527579 56.3526269,0.993527579 C56.403438,0.993527579 56.4474744,0.993527579 56.4948981,0.991833874 C56.5338533,0.988446463 56.5778897,0.985059053 56.6168449,0.981671642 C56.6083764,1.13071772 56.5999079,1.27298897 56.5948267,1.40679169 C56.5914393,1.54567554 56.5863582,1.66931603 56.5863582,1.7861817 C56.5863582,2.05378715 56.6100701,2.22146398 56.650719,2.30276184 C56.6913679,2.3840597 56.765891,2.42301493 56.8742881,2.42301493 C56.9792979,2.42301493 57.0538209,2.3840597 57.0978572,2.30106814 C57.1435873,2.22146398 57.1656055,2.07411162 57.1656055,1.86747956 L57.1656055,1.29839455 C57.1656055,1.26282674 57.162218,1.21709669 57.162218,1.16459182 C57.162218,1.10700584 57.162218,1.04941986 57.1571369,0.981671642 C57.1977859,0.985059053 57.2418222,0.988446463 57.2824711,0.991833874 C57.3265075,0.993527579 57.3688501,0.993527579 57.4162738,0.993527579 C57.467085,0.993527579 57.5111213,0.993527579 57.553464,0.991833874 C57.5958066,0.988446463 57.6364555,0.985059053 57.6737171,0.981671642" id="Fill-16" fill="#E3007E"></path>
                <path d="M59.4632862,2.34950811 L59.4869981,2.36475146 C59.4768358,2.42572485 59.4717547,2.46806749 59.4683673,2.49516677 C59.4632862,2.52395977 59.4598988,2.54597794 59.4565114,2.56799611 C59.3769072,2.62558209 59.2888345,2.66623102 59.1990681,2.6916366 C59.1109955,2.7221233 59.0127605,2.73059182 58.9077508,2.73059182 C58.6265957,2.73059182 58.3996392,2.65268138 58.2387372,2.49177936 C58.0744478,2.33257106 57.9914562,2.11577677 57.9914562,1.8430902 C57.9914562,1.57379104 58.0744478,1.35022193 58.245512,1.18423881 C58.4131888,1.01656197 58.6367579,0.933570409 58.9145256,0.933570409 C59.0381661,0.933570409 59.1516444,0.945426347 59.2549604,0.972525633 C59.3582764,0.999624919 59.4480428,1.03858014 59.5242596,1.09447242 C59.4903855,1.17746398 59.4598988,1.24351849 59.4361869,1.29602336 C59.4192498,1.35191564 59.4006191,1.4027268 59.3853757,1.45184426 L59.3396457,1.43151979 C59.3074653,1.31634783 59.2617352,1.23166256 59.1956807,1.17915769 C59.1330136,1.12157171 59.0517158,1.09447242 58.9517872,1.09447242 C58.8095159,1.09447242 58.7011188,1.15544581 58.6198209,1.28078001 C58.5402167,1.40611421 58.4995678,1.58056587 58.4995678,1.79397274 C58.4995678,2.0327852 58.5436042,2.20893056 58.6350642,2.33087735 C58.7231369,2.45790526 58.8552459,2.51718494 59.0229228,2.51718494 C59.1025269,2.51718494 59.1753563,2.50024789 59.251573,2.47484231 C59.3244023,2.44604932 59.395538,2.40709409 59.4632862,2.34950811" id="Fill-18" fill="#E3007E"></path>
                <path d="M60.6509124,1.74908955 C60.4849293,1.78465737 60.3663699,1.83546853 60.2918469,1.90321674 C60.2207112,1.97265866 60.1851434,2.07089358 60.1851434,2.19453407 C60.1851434,2.2978501 60.2003868,2.37406684 60.2376483,2.42826541 C60.2782972,2.47738287 60.3308021,2.50278845 60.4053251,2.50278845 C60.4849293,2.50278845 60.5459027,2.47568916 60.5882453,2.41640947 C60.6322816,2.35882349 60.6509124,2.27752563 60.6509124,2.17082219 L60.6509124,1.74908955 Z M60.6678494,2.47230175 C60.6153446,2.55868073 60.5459027,2.62304153 60.4662985,2.66877158 C60.3833069,2.71619533 60.285072,2.73651979 60.1851434,2.73651979 C60.0310162,2.73651979 59.9141506,2.69417716 59.8294653,2.60271707 C59.74478,2.51464439 59.7007437,2.3926976 59.7007437,2.24026411 C59.7007437,2.12509215 59.7295367,2.03363206 59.7888164,1.95910902 C59.8514835,1.88627969 59.9480247,1.82361259 60.0767463,1.78296366 C60.1190889,1.76772031 60.1800623,1.74908955 60.2596665,1.72368397 C60.4442803,1.6694854 60.5730019,1.61698053 60.6424439,1.57125049 C60.6441376,1.56278196 60.6441376,1.55600714 60.6458313,1.54753861 L60.6458313,1.50688968 C60.6458313,1.40187995 60.6153446,1.31550097 60.5526775,1.25283387 C60.4917041,1.18847307 60.4087125,1.15290526 60.3070902,1.15290526 C60.227486,1.15290526 60.1546567,1.18000454 60.0869085,1.22404088 C60.0225477,1.26468981 59.9615743,1.33582544 59.905682,1.43236665 C59.888745,1.37647437 59.8735016,1.32905062 59.8616457,1.29687021 C59.8514835,1.2613024 59.8396275,1.22742829 59.8260779,1.20371642 C59.9327813,1.10886892 60.0394848,1.039427 60.1411071,0.99369695 C60.2444231,0.94966061 60.3511265,0.92764244 60.4646048,0.92764244 C60.6797054,0.92764244 60.8406074,0.973372485 60.9574731,1.07668851 C61.0709513,1.17831084 61.1285373,1.31719468 61.1285373,1.50180857 L61.1285373,1.51874562 L61.1166814,2.15049773 L61.1166814,2.21485853 C61.1166814,2.36390461 61.1319247,2.4570584 61.1641051,2.49770733 C61.1962855,2.54004997 61.2606463,2.56037443 61.3554938,2.56037443 L61.3639624,2.56037443 L61.3639624,2.64675341 C61.302989,2.67215899 61.2420156,2.69248345 61.1759611,2.7060331 C61.1099066,2.72127644 61.0472395,2.72635756 60.9896535,2.72635756 C60.9015808,2.72635756 60.8321389,2.70433939 60.7762466,2.66199676 C60.722048,2.61965412 60.6864802,2.55529332 60.6678494,2.47230175 L60.6678494,2.47230175 Z" id="Fill-20" fill="#E3007E"></path>
                <path d="M61.6547716,1.1767865 L61.5904108,1.1767865 L61.4820136,1.1767865 C61.4616892,1.17848021 61.4362836,1.18017391 61.4159591,1.18017391 C61.4159591,1.16662427 61.4193465,1.15476833 61.4193465,1.14121869 L61.4193465,1.08702012 C61.4193465,1.06330824 61.4193465,1.04129007 61.4159591,1.02774043 L61.4159591,0.993866321 C61.4193465,0.995560026 61.4261213,0.995560026 61.4362836,0.998947437 C61.5192751,1.00572226 61.5785548,1.00741596 61.6141226,1.00741596 L61.6547716,1.00572226 C61.658159,0.99047891 61.6598527,0.970154445 61.6598527,0.953217391 C61.6632401,0.934586632 61.6632401,0.907487346 61.6632401,0.868532122 C61.6632401,0.822802077 61.6598527,0.771990915 61.6547716,0.717792343 C61.6547716,0.668674886 61.6479968,0.604314082 61.6429156,0.524709929 C61.7259072,0.490835821 61.8105925,0.458655419 61.8901966,0.426475016 C61.9698008,0.392600909 62.0460175,0.353645685 62.1222343,0.316384166 L62.1628832,0.345177158 C62.1561084,0.484060999 62.1493335,0.594151849 62.1459461,0.688999351 C62.1425587,0.778765737 62.1391713,0.851595068 62.1391713,0.899018819 L62.1391713,1.00741596 C62.2052258,1.00741596 62.2678929,1.00741596 62.3237852,1.00572226 C62.3796775,1.00064114 62.4355698,1.00064114 62.4880746,0.995560026 C62.4863809,1.0192719 62.4829935,1.03959637 62.4812998,1.0514523 L62.4812998,1.08702012 C62.4812998,1.10734458 62.4829935,1.13444387 62.4880746,1.16831798 L62.4880746,1.18017391 C62.4609753,1.18017391 62.4237138,1.17848021 62.3796775,1.1767865 L62.1340902,1.1767865 C62.1340902,1.19372356 62.1307028,1.22251655 62.1307028,1.25977807 C62.1222343,1.50536535 62.1205406,1.68489812 62.1205406,1.78990785 L62.1205406,1.9304854 C62.1205406,2.20825308 62.1340902,2.37931733 62.1628832,2.44706554 C62.1865951,2.51312005 62.2390999,2.54360675 62.3170104,2.54360675 C62.3508845,2.54360675 62.4237138,2.53175081 62.5219487,2.50465152 L62.5236424,2.50295782 L62.5236424,2.63676055 C62.445732,2.67232836 62.3745964,2.69604023 62.3051544,2.71297729 C62.2390999,2.72991434 62.1730454,2.73668916 62.112072,2.73668916 C61.9613323,2.73668916 61.8427729,2.69604023 61.7597813,2.61812979 C61.6818709,2.53175081 61.6429156,2.41488514 61.6429156,2.26075795 C61.6429156,2.25567683 61.6446093,2.15405451 61.6479968,1.95419727 C61.6547716,1.75434004 61.6547716,1.55956392 61.6547716,1.36648151 L61.6547716,1.1767865 Z" id="Fill-22" fill="#E3007E"></path>
                <path d="M62.7695685,2.69197534 C62.7797307,2.50905516 62.7881992,2.35154056 62.7932803,2.21604413 C62.7966677,2.07885399 62.7983615,1.9552135 62.7983615,1.83665412 C62.7983615,1.7045451 62.7966677,1.56227385 62.7881992,1.4216963 C62.7881992,1.28281246 62.7797307,1.1388475 62.7695685,0.981332901 C62.8102174,0.984720311 62.8559474,0.988107722 62.8982901,0.991495133 C62.9457138,0.993188838 62.9931376,0.993188838 63.0405613,0.993188838 C63.0862914,0.993188838 63.1320214,0.993188838 63.1777515,0.991495133 C63.2234815,0.988107722 63.2675178,0.984720311 63.3081668,0.981332901 C63.2980045,1.1388475 63.2912297,1.28281246 63.2878423,1.4216963 C63.2844549,1.56227385 63.2810675,1.7045451 63.2810675,1.83665412 C63.2810675,1.9552135 63.2844549,2.0822414 63.2878423,2.21604413 C63.2912297,2.35154056 63.2980045,2.51074886 63.3081668,2.69197534 C63.2590493,2.68689422 63.215013,2.68181311 63.1692829,2.67503829 C63.1269403,2.67334458 63.0845977,2.67165088 63.0405613,2.67165088 C62.996525,2.67165088 62.9507949,2.67334458 62.9067586,2.67503829 C62.864416,2.68181311 62.8169922,2.68689422 62.7695685,2.69197534 M62.7695685,0.332643738 C62.7695685,0.256426995 62.7966677,0.192066191 62.8491726,0.141255029 C62.9016775,0.0870564568 62.9643446,0.0599571707 63.0456424,0.0599571707 C63.1201655,0.0599571707 63.1845263,0.0870564568 63.2336437,0.141255029 C63.2878423,0.195453602 63.3149416,0.258120701 63.3149416,0.332643738 C63.3149416,0.40886048 63.2878423,0.473221285 63.2336437,0.525726152 C63.1845263,0.576537313 63.1167781,0.60702401 63.042255,0.60702401 C62.9643446,0.60702401 62.9016775,0.576537313 62.8491726,0.525726152 C62.7966677,0.473221285 62.7695685,0.40886048 62.7695685,0.332643738" id="Fill-24" fill="#E3007E"></path>
                <path d="M64.1689079,1.8385172 C64.1689079,2.11120376 64.1960071,2.30089877 64.2535931,2.41098962 C64.3077917,2.51938676 64.4060266,2.57527904 64.5364419,2.57527904 C64.6702446,2.57527904 64.7650921,2.51938676 64.8226781,2.40929591 C64.875183,2.30089877 64.9056697,2.10951006 64.9056697,1.8385172 C64.9056697,1.56752433 64.875183,1.37613563 64.8226781,1.26265737 C64.7650921,1.15595393 64.6702446,1.09498053 64.5364419,1.09498053 C64.4060266,1.09498053 64.3077917,1.15087281 64.2535931,1.26265737 C64.1960071,1.37105451 64.1689079,1.56244322 64.1689079,1.8385172 M63.6387781,1.8385172 C63.6387781,1.55397469 63.7149948,1.33040558 63.8775905,1.17289098 C64.0367988,1.01368267 64.2586742,0.93407852 64.5398293,0.93407852 C64.8260655,0.93407852 65.0513284,1.01198897 65.2054555,1.16780986 C65.3595827,1.32701817 65.4357995,1.54889358 65.4357995,1.8385172 C65.4357995,2.1230597 65.3561953,2.3432414 65.196987,2.500756 C65.0428598,2.6582706 64.8209844,2.73618105 64.5364419,2.73618105 C64.2518994,2.73618105 64.0317177,2.6582706 63.8725094,2.500756 C63.7149948,2.34493511 63.6387781,2.1230597 63.6387781,1.8385172" id="Fill-26" fill="#E3007E"></path>
                <path d="M65.7550629,2.69197534 C65.7601441,2.53107333 65.772,2.38372096 65.772,2.24314341 C65.7787748,2.10256587 65.7804685,1.96876314 65.7804685,1.83834783 C65.7804685,1.69268916 65.7787748,1.54872421 65.772,1.40645295 C65.772,1.26248799 65.7601441,1.12191045 65.7550629,0.981332901 C65.7906308,0.984720311 65.8278923,0.988107722 65.8668475,0.991495133 C65.9091901,0.993188838 65.9515328,0.993188838 65.9989565,0.993188838 C66.048074,0.993188838 66.0870292,0.993188838 66.1276781,0.991495133 C66.1632459,0.988107722 66.2038949,0.984720311 66.2360753,0.981332901 L66.2360753,1.22692018 C66.312292,1.12699156 66.3918962,1.05585594 66.48505,1.01012589 C66.5731226,0.962702141 66.6781324,0.942377677 66.7882232,0.942377677 C66.8762959,0.942377677 66.9592875,0.95592732 67.0304231,0.984720311 C67.1032524,1.01520701 67.1591447,1.05754964 67.2133433,1.11513563 C67.2539922,1.16255938 67.2793978,1.22183907 67.2963348,1.28619987 C67.3149656,1.35564179 67.3234341,1.47420117 67.3234341,1.63510318 L67.3234341,1.82479818 C67.3200467,1.9230331 67.3200467,2.01110578 67.3200467,2.08901622 C67.3200467,2.19741337 67.3234341,2.3024231 67.3234341,2.40404543 C67.3319027,2.50058663 67.3369838,2.60051525 67.3420649,2.69197534 C67.2929474,2.68689422 67.2455237,2.68181311 67.2014873,2.67503829 C67.1591447,2.67334458 67.1184958,2.67165088 67.0761531,2.67165088 C67.0355042,2.67165088 66.9931616,2.67334458 66.9525127,2.67503829 C66.91017,2.68181311 66.8610526,2.68689422 66.8119351,2.69197534 C66.8220973,2.58865931 66.8288722,2.47179364 66.8322596,2.32952239 C66.8373407,2.18725114 66.8424218,2.03312395 66.8424218,1.85697859 C66.8424218,1.59784166 66.8170162,1.43185853 66.778061,1.35394809 C66.7374121,1.28111875 66.662889,1.24216353 66.5544919,1.24216353 C66.444401,1.24216353 66.3681843,1.28619987 66.3207605,1.37935367 C66.2750305,1.46742635 66.2479312,1.61985983 66.2479312,1.831573 C66.2479312,1.93150162 66.2513186,2.05514212 66.254706,2.19402596 C66.2597872,2.33968462 66.266562,2.50397404 66.2699494,2.69197534 C66.225913,2.68689422 66.1852641,2.68181311 66.1429215,2.67503829 C66.0954977,2.67334458 66.0531551,2.67165088 66.0141999,2.67165088 C65.9735509,2.67165088 65.9312083,2.67334458 65.8888657,2.67503829 C65.8482167,2.68181311 65.800793,2.68689422 65.7550629,2.69197534" id="Fill-28" fill="#E3007E"></path>
                <polygon id="Fill-30" fill="#E3007E" points="69.132989 1.62155354 69.5936768 1.62155354 69.5936768 1.16255938 69.132989 1.16255938"></polygon>
                <path d="M71.972486,1.43660091 C72.1655685,1.43660091 72.3010649,1.39256457 72.3874439,1.31296042 C72.4687417,1.22658144 72.5110844,1.09108501 72.5110844,0.901390006 C72.5110844,0.743875406 72.4772103,0.628703439 72.4077683,0.550792992 C72.3434075,0.476269955 72.2434789,0.435621025 72.1045951,0.435621025 C72.0842706,0.435621025 72.0520902,0.439008436 72.0080539,0.444089552 C72.001279,0.444089552 71.9961979,0.444089552 71.9961979,0.444089552 C71.9911168,0.510144062 71.9809546,0.577892278 71.9792609,0.647334199 C71.9741798,0.711695003 71.972486,0.777749513 71.972486,0.843804023 L71.972486,1.43660091 Z M71.4237255,2.6916366 C71.4389689,2.53073459 71.4457437,2.35628293 71.4525185,2.16320052 C71.460987,1.97181181 71.4643744,1.74316158 71.4643744,1.47216872 C71.4643744,1.21811291 71.460987,0.991156392 71.4525185,0.791299156 C71.4457437,0.591441921 71.4389689,0.408521739 71.4237255,0.242538611 C71.4643744,0.245926022 71.5101045,0.249313433 71.5490597,0.252700844 C71.593096,0.252700844 71.633745,0.25778196 71.6727002,0.25778196 C71.7218177,0.25778196 71.811584,0.252700844 71.9436931,0.249313433 C72.0758021,0.244232317 72.1841992,0.242538611 72.2638034,0.242538611 C72.5517333,0.242538611 72.7566716,0.295043478 72.8853933,0.400053212 C73.0158086,0.49998183 73.076782,0.664271252 73.076782,0.884452953 C73.076782,1.13850876 73.0005652,1.32481635 72.8379695,1.44676314 C72.6753738,1.57040363 72.4263991,1.63137703 72.0927391,1.63137703 C72.0774958,1.63137703 72.058865,1.63137703 72.030072,1.62968332 C72.0080539,1.62968332 71.9860357,1.62968332 71.972486,1.62968332 L71.972486,2.1564257 C71.972486,2.18521869 71.9775672,2.23941726 71.9809546,2.31732771 C71.9911168,2.39862557 72.001279,2.52226606 72.013135,2.6916366 C71.9572427,2.68824919 71.9030441,2.68147437 71.8573141,2.67639325 C71.8098903,2.67300584 71.7624666,2.67131213 71.7150428,2.67131213 C71.6676191,2.67131213 71.6235827,2.67300584 71.576159,2.67639325 C71.5270415,2.68147437 71.4762304,2.68824919 71.4237255,2.6916366 L71.4237255,2.6916366 Z" id="Fill-32" fill="#E3007E"></path>
                <path d="M74.2352764,1.74908955 C74.0692933,1.78465737 73.9473465,1.83546853 73.8779046,1.90321674 C73.8016879,1.97265866 73.7661201,2.07089358 73.7661201,2.19453407 C73.7661201,2.2978501 73.7847508,2.37406684 73.823706,2.42826541 C73.8558864,2.47738287 73.9185535,2.50278845 73.9879955,2.50278845 C74.0675996,2.50278845 74.1268793,2.47568916 74.1709156,2.41640947 C74.214952,2.35882349 74.2352764,2.27752563 74.2352764,2.17082219 L74.2352764,1.74908955 Z M74.2539072,2.47230175 C74.1997086,2.55868073 74.1302667,2.62304153 74.0523563,2.66877158 C73.9659773,2.71619533 73.8728235,2.73651979 73.7661201,2.73651979 C73.6153803,2.73651979 73.4968209,2.69417716 73.4138293,2.60271707 C73.3274504,2.51464439 73.283414,2.3926976 73.283414,2.24026411 C73.283414,2.12509215 73.312207,2.03363206 73.3748741,1.95910902 C73.4341538,1.88627969 73.5290013,1.82361259 73.662804,1.78296366 C73.7017592,1.76772031 73.7627326,1.74908955 73.8423368,1.72368397 C74.0269507,1.6694854 74.1556723,1.61698053 74.2251142,1.57125049 C74.2251142,1.56278196 74.2285016,1.55600714 74.2285016,1.54753861 L74.2285016,1.50688968 C74.2285016,1.40187995 74.1997086,1.31550097 74.1353478,1.25283387 C74.0743744,1.18847307 73.9913829,1.15290526 73.8914543,1.15290526 C73.8118501,1.15290526 73.7356334,1.18000454 73.6678851,1.22404088 C73.6069117,1.26468981 73.5442446,1.33582544 73.4900461,1.43236665 C73.4714153,1.37647437 73.456172,1.32905062 73.4477034,1.29687021 C73.4324601,1.2613024 73.4222979,1.22742829 73.4138293,1.20371642 C73.5154517,1.10886892 73.6187677,1.039427 73.7220837,0.99369695 C73.8270934,0.94966061 73.9354906,0.92764244 74.0455814,0.92764244 C74.2657631,0.92764244 74.4283589,0.973372485 74.5418371,1.07668851 C74.6553154,1.17831084 74.709514,1.31719468 74.709514,1.50180857 L74.709514,1.51874562 L74.6959643,2.15049773 L74.6959643,2.21485853 C74.6959643,2.36390461 74.7162888,2.4570584 74.7467755,2.49770733 C74.7789559,2.54004997 74.8399293,2.56037443 74.9347768,2.56037443 L74.9466327,2.56037443 L74.9466327,2.64675341 C74.8890467,2.67215899 74.8212985,2.69248345 74.7603251,2.7060331 C74.6942706,2.72127644 74.6316035,2.72635756 74.5706301,2.72635756 C74.4842511,2.72635756 74.4165029,2.70433939 74.3606106,2.66199676 C74.3064121,2.61965412 74.2708443,2.55529332 74.2539072,2.47230175 L74.2539072,2.47230175 Z" id="Fill-33" fill="#E3007E"></path>
                <path d="M75.1845983,2.69197534 C75.1930668,2.57510967 75.1998417,2.44469435 75.2083102,2.3024231 C75.2116976,2.16184555 75.215085,2.00263725 75.215085,1.83326671 C75.215085,1.62155354 75.2116976,1.452183 75.2083102,1.32007398 C75.1998417,1.19304607 75.1930668,1.07956781 75.1845983,0.981332901 C75.2252472,0.984720311 75.2625088,0.988107722 75.3048514,0.991495133 C75.3438066,0.993188838 75.3912304,0.993188838 75.4369604,0.993188838 C75.4809968,0.993188838 75.5250331,0.993188838 75.5673757,0.991495133 C75.6080247,0.988107722 75.6452862,0.984720311 75.6842414,0.981332901 C75.6757729,1.09311746 75.6740792,1.18288384 75.6723855,1.25401947 C75.6656106,1.33023621 75.6656106,1.3895159 75.6656106,1.43863335 L75.6842414,1.43863335 C75.7231966,1.27265023 75.7943323,1.14900973 75.887486,1.06263076 C75.9823335,0.972864374 76.0991992,0.93390915 76.2397768,0.93390915 L76.2550201,0.93390915 C76.2482453,0.972864374 76.2414705,1.02028812 76.2397768,1.06601817 C76.2346957,1.1066671 76.2330019,1.15409085 76.2330019,1.19643348 C76.2330019,1.23877612 76.2346957,1.28281246 76.2397768,1.33023621 C76.2414705,1.37596626 76.2482453,1.4216963 76.2550201,1.46403894 C76.2059027,1.44710188 76.1601726,1.43355224 76.1229111,1.4216963 C76.0839559,1.41661518 76.0500818,1.41153407 76.0195951,1.41153407 C75.899342,1.41153407 75.8180441,1.45048929 75.7638456,1.53009345 C75.709647,1.60800389 75.6842414,1.74011291 75.6842414,1.91625827 C75.6842414,2.05514212 75.6842414,2.18894484 75.6944036,2.31766645 C75.6944036,2.44808177 75.7079533,2.57510967 75.7147281,2.69197534 C75.6689981,2.68689422 75.623268,2.68181311 75.577538,2.68181311 C75.536889,2.6801194 75.4945464,2.6784257 75.4505101,2.6784257 C75.4132485,2.6784257 75.3709059,2.6801194 75.3268696,2.68181311 C75.2845269,2.68520052 75.2371032,2.68689422 75.1845983,2.69197534" id="Fill-34" fill="#E3007E"></path>
                <path d="M76.9626502,1.66558988 L77.5656093,1.66558988 C77.5656093,1.65373394 77.5689968,1.63340947 77.5689968,1.61816613 C77.5723842,1.59784166 77.5723842,1.58429202 77.5723842,1.58090461 C77.5723842,1.4200026 77.5469786,1.2946684 77.5012485,1.20998313 C77.4572122,1.12699156 77.3809955,1.08803634 77.2929228,1.08803634 C77.1862193,1.08803634 77.1049215,1.1371538 77.0490292,1.22861389 C76.9914432,1.32515509 76.9626502,1.45895782 76.9626502,1.63340947 L76.9626502,1.66558988 Z M76.9626502,1.84173524 C76.9626502,2.04667359 77.0083803,2.21265672 77.1100026,2.3346035 C77.2082375,2.458244 77.3420402,2.51582998 77.5063297,2.51582998 C77.5910149,2.51582998 77.6689254,2.50228034 77.7451421,2.47687476 C77.8247463,2.44808177 77.8941882,2.40573913 77.9653238,2.34984685 L77.9991979,2.37355873 L77.9212875,2.57510967 C77.8467644,2.62592083 77.7569981,2.66995717 77.6604568,2.69536275 C77.5605282,2.72584945 77.4487437,2.73770539 77.3284906,2.73770539 C77.0524166,2.73770539 76.8322349,2.65640753 76.6747203,2.48873069 C76.515512,2.32782868 76.4376016,2.09917846 76.4376016,1.80955483 C76.4376016,1.54872421 76.515512,1.33701103 76.6730266,1.17610902 C76.8305412,1.01520701 77.0422544,0.93390915 77.2980039,0.93390915 C77.5452849,0.93390915 77.7315925,0.99996366 77.8620078,1.1371538 C77.9975042,1.27265023 78.0635587,1.47250746 78.0635587,1.72317586 C78.0635587,1.75535626 78.0635587,1.77568073 78.061865,1.79431149 C78.061865,1.80955483 78.0584776,1.82479818 78.0584776,1.84004153 L76.9626502,1.84173524 Z" id="Fill-35" fill="#E3007E"></path>
                <path d="M78.381806,2.69197534 C78.3936619,2.53107333 78.3970493,2.38372096 78.4038241,2.24314341 C78.4089053,2.10256587 78.410599,1.96876314 78.410599,1.83834783 C78.410599,1.69268916 78.4089053,1.54872421 78.4038241,1.40645295 C78.3970493,1.26248799 78.3936619,1.12191045 78.381806,0.981332901 C78.4190675,0.984720311 78.4580227,0.988107722 78.5003653,0.991495133 C78.5410143,0.993188838 78.5816632,0.993188838 78.6273933,0.993188838 C78.6765107,0.993188838 78.7171596,0.993188838 78.7544212,0.991495133 C78.7950701,0.988107722 78.8323316,0.984720311 78.8662057,0.981332901 L78.8662057,1.22692018 C78.9424225,1.12699156 79.0203329,1.05585594 79.1151804,1.01012589 C79.2032531,0.962702141 79.3065691,0.942377677 79.4183537,0.942377677 C79.5064263,0.942377677 79.5860305,0.95592732 79.6588598,0.984720311 C79.7283018,1.01520701 79.7926626,1.05754964 79.84178,1.11513563 C79.8841226,1.16255938 79.9095282,1.22183907 79.9264653,1.28619987 C79.9417086,1.35564179 79.9535646,1.47420117 79.9535646,1.63510318 L79.9535646,1.82479818 C79.9535646,1.9230331 79.9484835,2.01110578 79.9484835,2.08901622 C79.9484835,2.19741337 79.9535646,2.3024231 79.9535646,2.40404543 C79.9620331,2.50058663 79.9654205,2.60051525 79.9721953,2.69197534 C79.9213842,2.68689422 79.8756541,2.68181311 79.8333115,2.67503829 C79.7892751,2.67334458 79.7452388,2.67165088 79.7062836,2.67165088 C79.6656347,2.67165088 79.6215983,2.67334458 79.5826431,2.67503829 C79.536913,2.68181311 79.4928767,2.68689422 79.4420655,2.69197534 C79.4522278,2.58865931 79.4573089,2.47179364 79.46239,2.32952239 C79.4674711,2.18725114 79.4725522,2.03312395 79.4725522,1.85697859 C79.4725522,1.59784166 79.4471467,1.43185853 79.4064977,1.35394809 C79.3675425,1.28111875 79.2913258,1.24216353 79.1846223,1.24216353 C79.0745315,1.24216353 78.9983147,1.28619987 78.9491973,1.37935367 C78.9017735,1.46742635 78.8797554,1.61985983 78.8797554,1.831573 C78.8797554,1.93150162 78.8797554,2.05514212 78.8848365,2.19402596 C78.8882239,2.33968462 78.8916113,2.50397404 78.8966924,2.69197534 C78.8509624,2.68689422 78.8103134,2.68181311 78.7696645,2.67503829 C78.7256282,2.67334458 78.6832855,2.67165088 78.6392492,2.67165088 C78.6036814,2.67165088 78.5579513,2.67334458 78.5173024,2.67503829 C78.4766535,2.68181311 78.427536,2.68689422 78.381806,2.69197534" id="Fill-36" fill="#E3007E"></path>
                <path d="M80.4691285,1.1767865 L80.3996866,1.1767865 L80.2929831,1.1767865 C80.270965,1.17848021 80.2472531,1.18017391 80.2252349,1.18017391 C80.2269286,1.16662427 80.2320097,1.15476833 80.2320097,1.14121869 L80.2320097,1.08702012 C80.2320097,1.06330824 80.2320097,1.04129007 80.2269286,1.02774043 C80.2269286,1.0175782 80.2269286,1.00572226 80.2252349,0.993866321 C80.2320097,0.995560026 80.2387846,0.995560026 80.2472531,0.998947437 C80.3302446,1.00572226 80.3895243,1.00741596 80.4267859,1.00741596 L80.4691285,1.00572226 L80.4691285,0.953217391 C80.4742096,0.934586632 80.4742096,0.907487346 80.4742096,0.868532122 C80.4742096,0.822802077 80.4691285,0.771990915 80.4674348,0.717792343 C80.4640474,0.668674886 80.4589663,0.604314082 80.4555788,0.524709929 C80.535183,0.490835821 80.6181746,0.458655419 80.7011661,0.426475016 C80.7807703,0.392600909 80.8586807,0.353645685 80.9348975,0.316384166 L80.9738527,0.345177158 C80.9619968,0.484060999 80.9586093,0.594151849 80.9569156,0.688999351 C80.9518345,0.778765737 80.9518345,0.851595068 80.9518345,0.899018819 L80.9518345,1.00741596 C81.0145016,1.00741596 81.0788624,1.00741596 81.1347547,1.00572226 C81.1940344,1.00064114 81.2431518,1.00064114 81.3024315,0.995560026 C81.2956567,1.0192719 81.2956567,1.03959637 81.2956567,1.0514523 C81.2922693,1.06500195 81.2922693,1.07685788 81.2922693,1.08702012 C81.2922693,1.10734458 81.2956567,1.13444387 81.2973504,1.16831798 C81.3024315,1.1767865 81.3024315,1.1767865 81.3024315,1.18017391 C81.2736385,1.18017391 81.2346833,1.17848021 81.1889533,1.1767865 L80.9450597,1.1767865 C80.9450597,1.19372356 80.9450597,1.22251655 80.9399786,1.25977807 C80.9348975,1.50536535 80.9315101,1.68489812 80.9315101,1.78990785 L80.9315101,1.9304854 C80.9315101,2.20825308 80.9450597,2.37931733 80.9738527,2.44706554 C80.9975646,2.51312005 81.0500694,2.54360675 81.1262862,2.54360675 C81.1635477,2.54360675 81.2346833,2.53175081 81.3312245,2.50465152 L81.3329182,2.50295782 L81.3329182,2.63676055 C81.2550078,2.67232836 81.1821785,2.69604023 81.1178177,2.71297729 C81.0500694,2.72991434 80.9857086,2.73668916 80.9247352,2.73668916 C80.770608,2.73668916 80.6520487,2.69604023 80.5724445,2.61812979 C80.4945341,2.53175081 80.4538851,2.41488514 80.4538851,2.26075795 C80.4538851,2.25567683 80.4555788,2.15405451 80.46066,1.95419727 C80.4674348,1.75434004 80.4691285,1.55956392 80.4691285,1.36648151 L80.4691285,1.1767865 Z" id="Fill-37" fill="#E3007E"></path>
                <path d="M81.5790136,2.69197534 C81.5925633,2.50905516 81.5976444,2.35154056 81.6010318,2.21604413 C81.6061129,2.07885399 81.6128877,1.9552135 81.6128877,1.83665412 C81.6128877,1.7045451 81.6061129,1.56227385 81.6010318,1.4216963 C81.5976444,1.28281246 81.5925633,1.1388475 81.5790136,0.981332901 C81.62305,0.984720311 81.6653926,0.988107722 81.7094289,0.991495133 C81.755159,0.993188838 81.8025827,0.993188838 81.8466191,0.993188838 C81.8957365,0.993188838 81.944854,0.993188838 81.990584,0.991495133 C82.0363141,0.988107722 82.076963,0.984720311 82.1176119,0.981332901 C82.1108371,1.1388475 82.1006749,1.28281246 82.0989812,1.4216963 C82.0939001,1.56227385 82.0922064,1.7045451 82.0922064,1.83665412 C82.0922064,1.9552135 82.0939001,2.0822414 82.0989812,2.21604413 C82.1006749,2.35154056 82.1108371,2.51074886 82.1176119,2.69197534 C82.0701882,2.68689422 82.0261518,2.68181311 81.9821155,2.67503829 C81.9380792,2.67334458 81.8957365,2.67165088 81.8466191,2.67165088 C81.8076639,2.67165088 81.7636275,2.67334458 81.7212849,2.67503829 C81.6772485,2.68181311 81.6264374,2.68689422 81.5790136,2.69197534 M81.5790136,0.332643738 C81.5790136,0.256426995 81.6078066,0.192066191 81.6603115,0.141255029 C81.7145101,0.0870564568 81.7754835,0.0599571707 81.8550876,0.0599571707 C81.9313043,0.0599571707 81.9939714,0.0870564568 82.0430889,0.141255029 C82.0989812,0.195453602 82.1260805,0.258120701 82.1260805,0.332643738 C82.1260805,0.40886048 82.0989812,0.473221285 82.0430889,0.525726152 C81.990584,0.576537313 81.9296106,0.60702401 81.8500065,0.60702401 C81.7754835,0.60702401 81.7145101,0.576537313 81.6603115,0.525726152 C81.6078066,0.473221285 81.5790136,0.40886048 81.5790136,0.332643738" id="Fill-38" fill="#E3007E"></path>
                <path d="M82.5713556,2.69197534 C82.5798241,2.53107333 82.586599,2.38372096 82.5933738,2.24314341 C82.5933738,2.10256587 82.5984549,1.96876314 82.5984549,1.83834783 C82.5984549,1.69268916 82.5933738,1.54872421 82.5933738,1.40645295 C82.586599,1.26248799 82.5798241,1.12191045 82.5713556,0.981332901 C82.6069234,0.984720311 82.6475724,0.988107722 82.6848339,0.991495133 C82.7271765,0.993188838 82.7661317,0.993188838 82.8186366,0.993188838 C82.8609792,0.993188838 82.908403,0.993188838 82.9456645,0.991495133 C82.9812323,0.988107722 83.0201875,0.984720311 83.0540616,0.981332901 L83.0540616,1.22692018 C83.126891,1.12699156 83.2115762,1.05585594 83.2979552,1.01012589 C83.391109,0.962702141 83.494425,0.942377677 83.6045159,0.942377677 C83.6942823,0.942377677 83.7738864,0.95592732 83.8484095,0.984720311 C83.9195451,1.01520701 83.9822122,1.05754964 84.0313297,1.11513563 C84.0702849,1.16255938 84.0956905,1.22183907 84.1160149,1.28619987 C84.1312583,1.35564179 84.1414205,1.47420117 84.1414205,1.63510318 C84.1414205,1.66220247 84.1414205,1.72317586 84.1380331,1.82479818 L84.1380331,2.08901622 C84.1380331,2.19741337 84.1380331,2.3024231 84.1431142,2.40404543 C84.1465016,2.50058663 84.1532764,2.60051525 84.1583576,2.69197534 C84.1109338,2.68689422 84.0635101,2.68181311 84.0194737,2.67503829 C83.9771311,2.67334458 83.9381759,2.67165088 83.8924458,2.67165088 C83.8534906,2.67165088 83.8094543,2.67334458 83.7671116,2.67503829 C83.7264627,2.68181311 83.6790389,2.68689422 83.6299215,2.69197534 C83.63839,2.58865931 83.6451648,2.47179364 83.6502459,2.32952239 C83.6536334,2.18725114 83.6553271,2.03312395 83.6553271,1.85697859 C83.6553271,1.59784166 83.63839,1.43185853 83.5943537,1.35394809 C83.552011,1.28111875 83.4757943,1.24216353 83.3707846,1.24216353 C83.2640811,1.24216353 83.184477,1.28619987 83.1387469,1.37935367 C83.0913232,1.46742635 83.0676113,1.61985983 83.0676113,1.831573 C83.0676113,1.93150162 83.0709987,2.05514212 83.0743861,2.19402596 C83.0760798,2.33968462 83.0828546,2.50397404 83.0896295,2.69197534 C83.040512,2.68689422 82.9998631,2.68181311 82.9592141,2.67503829 C82.9117904,2.67334458 82.8745289,2.67165088 82.8321862,2.67165088 C82.7864562,2.67165088 82.7508884,2.67334458 82.7034646,2.67503829 C82.6628157,2.68181311 82.6204731,2.68689422 82.5713556,2.69197534" id="Fill-39" fill="#E3007E"></path>
                <path d="M85.01605,1.50180857 C85.01605,1.64916093 85.0414555,1.75925178 85.0787171,1.827 C85.1244471,1.89813563 85.1921953,1.93031603 85.280268,1.93031603 C85.3785029,1.93031603 85.4462511,1.89813563 85.4869001,1.82361259 C85.527549,1.74908955 85.5478735,1.63222388 85.5478735,1.45946593 C85.5478735,1.33074432 85.527549,1.2308157 85.4869001,1.16984231 C85.4428637,1.10717521 85.3801966,1.0733011 85.2921239,1.0733011 C85.2040513,1.0733011 85.1396905,1.11225633 85.090573,1.18339195 C85.044843,1.2596087 85.01605,1.36631213 85.01605,1.50180857 L85.01605,1.50180857 Z M85.01605,2.80765542 C84.958464,2.83644841 84.9127339,2.87879104 84.8788598,2.93468332 C84.8483731,2.98718819 84.8331298,3.05154899 84.8331298,3.12099091 C84.8331298,3.24463141 84.872085,3.33947891 84.9550766,3.41400195 C85.0363744,3.48852498 85.1447716,3.52070539 85.2819617,3.52070539 C85.4479448,3.52070539 85.5715853,3.48852498 85.6664328,3.42416418 C85.7561992,3.35980337 85.8053167,3.26326217 85.8053167,3.15147761 C85.8053167,3.04477417 85.77483,2.96855743 85.7155503,2.91774627 C85.6511895,2.8635477 85.556342,2.83644841 85.4276204,2.82797988 L85.01605,2.80765542 Z M84.8619228,2.78394354 L84.8619228,2.75853796 C84.7873997,2.73313238 84.7332012,2.69587086 84.6942459,2.65014082 C84.653597,2.59932966 84.6332726,2.54174367 84.6332726,2.47060805 C84.6332726,2.38931019 84.6637592,2.31309345 84.7230389,2.24534523 C84.7873997,2.17590331 84.8788598,2.11662362 84.9923381,2.06750616 L84.9923381,2.02516353 C84.8399046,1.99467683 84.7230389,1.93370344 84.6451285,1.84901817 C84.5689117,1.7643329 84.5299565,1.65085464 84.5299565,1.5136645 C84.5299565,1.33751914 84.596011,1.1986353 84.7281201,1.09362557 C84.8619228,0.985228423 85.044843,0.934417262 85.2667184,0.934417262 C85.2887365,0.934417262 85.3683407,0.937804672 85.5072245,0.947966905 C85.6461084,0.956435432 85.77483,0.959822842 85.8900019,0.959822842 C85.9391194,0.959822842 85.9882369,0.959822842 86.0424354,0.956435432 C86.0983277,0.956435432 86.1525263,0.956435432 86.211806,0.951354315 L86.211806,1.12241856 C86.1389766,1.12072485 86.0407417,1.11395003 85.9137138,1.10717521 L85.8595152,1.10717521 C85.9204886,1.14951785 85.9679124,1.1986353 85.9983991,1.2596087 C86.0305795,1.32058209 86.0441291,1.39341142 86.0441291,1.47470928 C86.0441291,1.66609799 85.9729935,1.81175665 85.832416,1.91846009 C85.688451,2.02008241 85.4919812,2.07258728 85.2396191,2.07258728 L85.1786457,2.07258728 C85.1295282,2.0776684 85.0956541,2.09629916 85.0634737,2.12847956 C85.0363744,2.15896626 85.0245185,2.19961518 85.0245185,2.24534523 C85.0245185,2.35543608 85.1921953,2.41640947 85.527549,2.42826541 L85.5478735,2.42826541 C85.556342,2.43334653 85.5715853,2.43334653 85.5919098,2.43334653 C85.8103978,2.44181506 85.9509753,2.46891434 86.0119487,2.49940104 C86.0830844,2.54343738 86.1389766,2.59932966 86.1762382,2.67215899 C86.211806,2.74329461 86.2355178,2.82797988 86.2355178,2.92282738 C86.2355178,3.14131538 86.142364,3.31915445 85.9628313,3.4631194 C85.7816048,3.60030954 85.544486,3.67144517 85.2548624,3.67144517 C85.01605,3.67144517 84.8331298,3.63079624 84.6942459,3.54949838 C84.5638306,3.46820052 84.4977761,3.35641596 84.4977761,3.21583842 C84.4977761,3.11082868 84.5265691,3.022756 84.5841551,2.95162038 C84.6451285,2.88048475 84.739976,2.82459247 84.8619228,2.78394354 L84.8619228,2.78394354 Z" id="Fill-40" fill="#E3007E"></path>
                <path d="M52.2535211,7.41250162 C52.2670707,7.25668073 52.277233,7.08561648 52.2857015,6.89253407 C52.2924763,6.70622648 52.2924763,6.47080143 52.2924763,6.19472745 C52.2924763,5.97623945 52.2924763,5.76113887 52.2890889,5.55958793 C52.2806204,5.35634328 52.2755393,5.15817975 52.2636833,4.96679104 C52.3669994,4.97187216 52.4720091,4.97695328 52.5804062,4.97695328 C52.6972719,4.97695328 52.8141376,4.97695328 52.9462466,4.97695328 C53.0749682,4.97695328 53.1986087,4.97695328 53.3103933,4.97695328 C53.4238715,4.97695328 53.5339624,4.97187216 53.6355847,4.96679104 C53.6305036,4.99389033 53.6288099,5.0142148 53.6288099,5.03623297 C53.6254225,5.06333225 53.6254225,5.08535042 53.6254225,5.11583712 C53.6254225,5.13785529 53.6254225,5.16834199 53.6288099,5.19036016 C53.6288099,5.21915315 53.6305036,5.24455873 53.6355847,5.27335172 C53.5136379,5.25980208 53.3984659,5.25133355 53.2917625,5.24455873 C53.1833653,5.23778391 53.0783556,5.2343965 52.9818144,5.2343965 C52.9631836,5.2343965 52.9428592,5.2343965 52.9089851,5.23778391 C52.8734173,5.23778391 52.8497054,5.23947761 52.8378494,5.23947761 C52.8310746,5.27673913 52.8242998,5.3309377 52.8209124,5.38852369 C52.8192187,5.44780337 52.8141376,5.54434458 52.8141376,5.68492213 L52.8141376,6.01519468 C52.9631836,6.00841986 53.1020675,6.00503245 53.2341765,5.99825762 C53.3662855,5.9914828 53.4916197,5.98132057 53.6101791,5.97285204 C53.6084854,5.99656392 53.6034043,6.01858209 53.6034043,6.04568138 C53.6017106,6.07108696 53.6000169,6.09818624 53.6000169,6.11851071 C53.6000169,6.1473037 53.6017106,6.17101557 53.6034043,6.19811486 C53.6034043,6.22182674 53.6084854,6.2421512 53.6118728,6.26925049 C53.4916197,6.25908825 53.3696729,6.25231343 53.2409513,6.24553861 C53.1088423,6.2421512 52.9733459,6.23876379 52.8259935,6.23198897 L52.8242998,6.85696626 C52.8242998,6.98738157 52.8259935,7.09408501 52.8327683,7.17877028 C52.8378494,7.26684296 52.8395432,7.34475341 52.8497054,7.41250162 C52.7955068,7.40911421 52.7430019,7.4040331 52.6955782,7.39895198 C52.6481544,7.39725827 52.5956496,7.39387086 52.5550006,7.39387086 C52.5058832,7.39387086 52.4584594,7.39725827 52.409342,7.39895198 C52.3619182,7.4040331 52.3111071,7.40911421 52.2535211,7.41250162" id="Fill-41" fill="#E3007E"></path>
                <path d="M54.842011,6.47300324 C54.6794153,6.50687735 54.5591622,6.55768851 54.4829455,6.62882414 C54.4135036,6.69826606 54.3745483,6.79141986 54.3745483,6.91844776 C54.3745483,7.02007008 54.3914854,7.09798053 54.4287469,7.14879169 C54.4660084,7.20129656 54.5235944,7.22670214 54.59473,7.22670214 C54.6743342,7.22670214 54.7370013,7.19621544 54.7810376,7.14032317 C54.8216866,7.08443089 54.842011,7.00143933 54.842011,6.89304218 L54.842011,6.47300324 Z M54.8606418,7.19452174 C54.8064432,7.27920701 54.738695,7.34695522 54.6590909,7.39099156 C54.5744056,7.43841531 54.4795581,7.46043348 54.3745483,7.46043348 C54.2255023,7.46043348 54.1052492,7.41809085 54.0205639,7.32663076 C53.9341849,7.23686437 53.8901486,7.11661129 53.8901486,6.96417781 C53.8901486,6.84900584 53.922329,6.75585204 53.9816087,6.68132901 C54.0408884,6.61019338 54.1374296,6.54752628 54.2661512,6.50687735 C54.3118812,6.49332771 54.3711609,6.47300324 54.4507651,6.44759766 C54.6370727,6.39339909 54.7657943,6.33750681 54.8335425,6.29347047 C54.8335425,6.28669565 54.8352362,6.27822713 54.8352362,6.26806489 L54.8352362,6.23249708 C54.8352362,6.12240623 54.8064432,6.03941467 54.7420824,5.97674757 C54.681109,5.90899935 54.5981175,5.87681895 54.4964951,5.87681895 C54.416891,5.87681895 54.3457554,5.90222453 54.2797008,5.94626087 C54.2136463,5.99199091 54.1526729,6.05973913 54.0984744,6.15289293 C54.0781499,6.09869435 54.0679877,6.0512706 54.054438,6.0190902 C54.0408884,5.98521609 54.0307262,5.9547294 54.0205639,5.9259364 C54.1221862,5.8310889 54.2288897,5.76503439 54.3322057,5.71761064 C54.4372154,5.6735743 54.5439189,5.64986243 54.6557034,5.64986243 C54.870804,5.64986243 55.0300123,5.69728618 55.1485717,5.80060221 C55.2637437,5.90053082 55.319636,6.04280208 55.319636,6.22572226 L55.319636,6.24265931 L55.3060863,6.87271772 L55.3060863,6.94046593 C55.3060863,7.08612459 55.3230234,7.17758469 55.3568975,7.22162103 C55.3873842,7.26396366 55.4500513,7.28259442 55.5448988,7.28259442 L55.5567547,7.28259442 L55.5567547,7.3706671 C55.4957813,7.39776639 55.4331142,7.41639714 55.3670597,7.42486567 C55.3010052,7.44010902 55.2383381,7.45027125 55.1790584,7.45027125 C55.0926794,7.45027125 55.0215438,7.42486567 54.9690389,7.38591045 C54.9131467,7.3384867 54.8775788,7.27920701 54.8606418,7.19452174 L54.8606418,7.19452174 Z" id="Fill-42" fill="#E3007E"></path>
                <path d="M55.7996321,7.41250162 C55.8064069,7.22280662 55.8131817,7.0585172 55.8182628,6.91116483 C55.8199565,6.77058728 55.8250376,6.6503342 55.8250376,6.5571804 C55.8250376,6.46402661 55.8199565,6.34546723 55.8182628,6.20488968 C55.8131817,6.06261843 55.8064069,5.8966353 55.7996321,5.70355289 C55.840281,5.71032771 55.8792362,5.71371512 55.9198851,5.71371512 C55.9605341,5.71540883 56.0028767,5.71879624 56.0486067,5.71879624 C56.0977242,5.71879624 56.1434543,5.71540883 56.1841032,5.71371512 C56.2264458,5.71371512 56.2603199,5.71032771 56.2975814,5.70355289 L56.2975814,5.93559053 C56.3704108,5.84243673 56.4500149,5.77299481 56.5347002,5.72726476 C56.6176918,5.68492213 56.7176204,5.66629137 56.8226301,5.66629137 C56.9445769,5.66629137 57.0445055,5.69339066 57.1308845,5.74928293 C57.2172635,5.80348151 57.2782369,5.88816677 57.3205795,5.99487021 C57.3917151,5.88139195 57.4713193,5.80009409 57.5661668,5.74420182 C57.6610143,5.69000324 57.7677177,5.66629137 57.8913582,5.66629137 C57.9777372,5.66629137 58.0573413,5.67984101 58.1250896,5.708634 C58.1962252,5.73573329 58.2588923,5.77638222 58.3046223,5.83735561 C58.3571272,5.88986048 58.3893076,5.96438352 58.4062446,6.05076249 C58.4299565,6.14052888 58.4367313,6.30312459 58.4367313,6.53854964 L58.4367313,6.76042505 C58.4367313,6.86035367 58.438425,6.9636697 58.4418125,7.07545425 C58.4468936,7.17877028 58.4519747,7.29563595 58.4587495,7.41250162 C58.4062446,7.40911421 58.3571272,7.4040331 58.3113971,7.39895198 C58.2673608,7.39725827 58.2250182,7.39387086 58.1826755,7.39387086 C58.1420266,7.39387086 58.1013777,7.39725827 58.0573413,7.39895198 C58.0166924,7.4040331 57.9709624,7.40911421 57.9218449,7.41250162 C57.9337008,7.26006814 57.9404757,7.11271577 57.9489442,6.97891304 C57.9523316,6.84511032 57.9523316,6.72316353 57.9523316,6.60629786 C57.9523316,6.33869241 57.9337008,6.16593446 57.8913582,6.08124919 C57.8490156,5.99825762 57.7744925,5.9593024 57.6660954,5.9593024 C57.5576982,5.9593024 57.4865626,5.99825762 57.4374452,6.08124919 C57.3917151,6.16593446 57.369697,6.31159312 57.369697,6.525 L57.369697,7.08561648 C57.369697,7.14150876 57.3764718,7.23974367 57.3832466,7.38032122 C57.3832466,7.39725827 57.3849403,7.4057268 57.3849403,7.41250162 C57.3341291,7.40911421 57.2883991,7.4040331 57.2443628,7.39895198 C57.2020201,7.39725827 57.1613712,7.39387086 57.1190286,7.39387086 C57.0800733,7.39387086 57.036037,7.39725827 56.9936944,7.40233939 C56.9513517,7.4040331 56.9056217,7.40911421 56.8531168,7.41250162 C56.863279,7.2786989 56.8700539,7.14828358 56.8734413,7.02464309 C56.8802161,6.9010026 56.8819098,6.78074951 56.8819098,6.66727125 C56.8819098,6.35562946 56.8615853,6.15746593 56.8209364,6.07786178 C56.7785938,5.99825762 56.702377,5.9593024 56.5973673,5.9593024 C56.4906639,5.9593024 56.4144471,5.99825762 56.3737982,6.08124919 C56.3263744,6.16254705 56.30605,6.31159312 56.30605,6.525 L56.30605,7.08561648 C56.30605,7.14150876 56.3094374,7.24143738 56.3212933,7.38201493 L56.3212933,7.41250162 C56.2704822,7.40911421 56.2298332,7.4040331 56.1874906,7.39895198 C56.145148,7.39725827 56.104499,7.39387086 56.0621564,7.39387086 C56.0232012,7.39387086 55.9825522,7.39725827 55.9419033,7.39895198 C55.8995607,7.4040331 55.8538306,7.40911421 55.7996321,7.41250162" id="Fill-43" fill="#E3007E"></path>
                <path d="M58.9174049,7.41250162 C58.9275672,7.23466256 58.9326483,7.07545425 58.9360357,6.93826411 C58.9428105,6.80446139 58.9428105,6.6808209 58.9428105,6.56056781 C58.9428105,6.42507138 58.9428105,6.28618754 58.9360357,6.1473037 C58.9275672,6.00503245 58.9241798,5.85768008 58.9174049,5.70355289 C58.9580539,5.71032771 59.0020902,5.71371512 59.0478202,5.71371512 C59.0918566,5.71540883 59.1392803,5.71879624 59.1850104,5.71879624 C59.2341278,5.71879624 59.2798579,5.71540883 59.3238942,5.71371512 C59.371318,5.71371512 59.4136606,5.71032771 59.4543095,5.70355289 C59.445841,5.85768008 59.4390662,6.00503245 59.4356788,6.1473037 C59.428904,6.28618754 59.4272103,6.42507138 59.4272103,6.56056781 C59.4272103,6.6808209 59.428904,6.80446139 59.4356788,6.93826411 C59.4390662,7.07545425 59.445841,7.23466256 59.4543095,7.41250162 C59.4068858,7.40911421 59.3628494,7.4040331 59.3154257,7.39895198 C59.2747768,7.39725827 59.2307404,7.39387086 59.1850104,7.39387086 C59.140974,7.39387086 59.0969377,7.39725827 59.0562888,7.39895198 C59.0105587,7.4040331 58.9614413,7.40911421 58.9174049,7.41250162 M58.9174049,5.05486372 C58.9174049,4.97864698 58.9428105,4.91767359 58.9953154,4.86516872 C59.0478202,4.81097015 59.1121811,4.78387086 59.1917852,4.78387086 C59.2680019,4.78387086 59.3289753,4.81097015 59.3814802,4.86516872 C59.4356788,4.91936729 59.457697,4.98034069 59.457697,5.05486372 C59.457697,5.13446788 59.4356788,5.19882868 59.3814802,5.24963984 C59.3289753,5.30214471 59.2629208,5.329244 59.1883978,5.329244 C59.1104873,5.329244 59.0478202,5.30214471 58.9953154,5.24963984 C58.9428105,5.19882868 58.9174049,5.13446788 58.9174049,5.05486372" id="Fill-44" fill="#E3007E"></path>
                <path d="M59.9048352,7.41250162 C59.9149974,7.21433809 59.9200785,7.00262492 59.928547,6.78074951 C59.9302408,6.56226152 59.9336282,6.32853018 59.9336282,6.07786178 C59.9336282,5.81025633 59.9302408,5.56636275 59.928547,5.34618105 C59.9200785,5.12769306 59.9149974,4.91936729 59.9048352,4.72628488 C59.9641149,4.73644711 60.0098449,4.73983452 60.0521875,4.74491564 C60.0928365,4.74999676 60.1334854,4.75169046 60.1690532,4.75169046 C60.2080084,4.75169046 60.2486574,4.74999676 60.2926937,4.74491564 C60.3350363,4.73983452 60.3824601,4.7330597 60.434965,4.72628488 C60.4281901,4.92444841 60.4197216,5.13446788 60.4146405,5.35803699 C60.4112531,5.57483128 60.4112531,5.81025633 60.4112531,6.06261843 C60.4112531,6.32853018 60.4112531,6.57073005 60.4146405,6.79260545 C60.4197216,7.01278715 60.4281901,7.21941921 60.434965,7.41250162 C60.3960097,7.4057268 60.3553608,7.39895198 60.3062433,7.39387086 C60.2639007,7.38709604 60.2215581,7.38709604 60.1724406,7.38709604 C60.1233232,7.38709604 60.0792868,7.38709604 60.0352505,7.39387086 C59.9912141,7.39895198 59.9488715,7.4057268 59.9048352,7.41250162" id="Fill-45" fill="#E3007E"></path>
                <path d="M61.142087,7.96075406 L61.4079987,7.41199351 L60.676318,5.70304478 C60.7186606,5.7098196 60.7610032,5.71320701 60.808427,5.71490071 C60.854157,5.71490071 60.9032745,5.71828812 60.9574731,5.71828812 C61.0116716,5.71828812 61.0574017,5.71490071 61.1065191,5.71490071 C61.1505555,5.71320701 61.1945918,5.7098196 61.2369345,5.70304478 C61.2945204,5.87919014 61.3571875,6.0570292 61.4334043,6.24164309 C61.5011525,6.42456327 61.5773692,6.61256457 61.6654419,6.80734069 L62.0803997,5.70304478 C62.1024179,5.7098196 62.1227424,5.71320701 62.148148,5.71490071 C62.1718598,5.71490071 62.1989591,5.71828812 62.2277521,5.71828812 C62.2548514,5.71828812 62.280257,5.71490071 62.3039689,5.71490071 C62.3310681,5.71320701 62.3513926,5.7098196 62.3767982,5.70304478 C62.1667787,6.16203894 61.9669215,6.61256457 61.7755328,7.0613965 C61.5875315,7.51192213 61.4029176,7.95567294 61.2250785,8.39434263 C61.2064478,8.38926152 61.1827359,8.38587411 61.1573303,8.3824867 C61.1319247,8.3824867 61.1065191,8.3824867 61.0811136,8.3824867 C61.0506269,8.3824867 61.0252213,8.3824867 60.9964283,8.3824867 C60.9710227,8.38587411 60.9422297,8.38926152 60.9100493,8.39434263 C60.9456171,8.33845036 60.9828787,8.27747696 61.0201402,8.20634134 C61.0574017,8.13689942 61.0997443,8.05390785 61.142087,7.96075406" id="Fill-46" fill="#E3007E"></path>
                <path d="M63.6313258,7.41250162 C63.6431817,7.2482122 63.6550376,7.07206684 63.6601188,6.88067813 C63.6668936,6.68928942 63.670281,6.4606392 63.670281,6.19472745 C63.670281,5.93559053 63.6668936,5.71032771 63.6601188,5.50877677 C63.6550376,5.30891953 63.6431817,5.12769306 63.6313258,4.96679104 C63.6804432,4.97695328 63.7312544,4.97695328 63.7803718,4.97864698 C63.8328767,4.9837281 63.8786067,4.9837281 63.9311116,4.9837281 C63.9802291,4.9837281 64.0327339,4.9837281 64.0835451,4.97864698 C64.1326626,4.97695328 64.18178,4.97695328 64.2342849,4.96679104 C64.2173478,5.13446788 64.2071856,5.31569435 64.2004108,5.51385788 C64.1919422,5.71371512 64.1868611,5.94067164 64.1868611,6.19472745 C64.1868611,6.44200844 64.1885548,6.63678456 64.193636,6.78074951 C64.2004108,6.92640818 64.2054919,7.05512979 64.2156541,7.16013952 C64.3596191,7.15675211 64.4985029,7.14997729 64.6339994,7.14150876 C64.7644147,7.13473394 64.8999111,7.122878 65.0252453,7.11271577 C65.0201642,7.13473394 65.0167768,7.16013952 65.0133894,7.18723881 C65.0133894,7.20925698 65.0100019,7.23635626 65.0100019,7.26345555 C65.0100019,7.28547372 65.0133894,7.30918559 65.0133894,7.33289747 C65.0167768,7.35999676 65.0201642,7.38709604 65.0252453,7.41250162 C64.8592622,7.4040331 64.7186846,7.39725827 64.6001252,7.39387086 C64.4849533,7.38709604 64.3799435,7.38709604 64.2867897,7.38709604 C64.2021045,7.38709604 64.107257,7.38709604 64.0056347,7.39387086 C63.9006249,7.39725827 63.7769844,7.4040331 63.6313258,7.41250162" id="Fill-47" fill="#E3007E"></path>
                <path d="M65.2969156,7.41250162 C65.3053842,7.23466256 65.3155464,7.07545425 65.3172401,6.93826411 C65.3223212,6.80446139 65.3240149,6.6808209 65.3240149,6.56056781 C65.3240149,6.42507138 65.3223212,6.28618754 65.3155464,6.1473037 C65.312159,6.00503245 65.3053842,5.85768008 65.2969156,5.70355289 C65.3341772,5.71032771 65.3816009,5.71371512 65.4256372,5.71371512 C65.473061,5.71540883 65.5170973,5.71879624 65.5645211,5.71879624 C65.6136385,5.71879624 65.6576749,5.71540883 65.7017112,5.71371512 C65.7508287,5.71371512 65.7931713,5.71032771 65.8321265,5.70355289 C65.8253517,5.85768008 65.8202706,6.00503245 65.8118021,6.1473037 C65.8084147,6.28618754 65.806721,6.42507138 65.806721,6.56056781 C65.806721,6.6808209 65.8084147,6.80446139 65.8118021,6.93826411 C65.8202706,7.07545425 65.8253517,7.23466256 65.8321265,7.41250162 C65.7863965,7.40911421 65.7440539,7.4040331 65.6966301,7.39895198 C65.6525938,7.39725827 65.6085574,7.39387086 65.5645211,7.39387086 C65.5238722,7.39387086 65.4764484,7.39725827 65.4341058,7.39895198 C65.3900694,7.4040331 65.340952,7.40911421 65.2969156,7.41250162 M65.2969156,5.05486372 C65.2969156,4.97864698 65.3240149,4.91767359 65.3765198,4.86516872 C65.4290247,4.81097015 65.4916918,4.78387086 65.5712959,4.78387086 C65.6475127,4.78387086 65.708486,4.81097015 65.7609909,4.86516872 C65.8118021,4.91936729 65.8405951,4.98034069 65.8405951,5.05486372 C65.8405951,5.13446788 65.8118021,5.19882868 65.7609909,5.24963984 C65.708486,5.30214471 65.6424315,5.329244 65.5679085,5.329244 C65.4899981,5.329244 65.4256372,5.30214471 65.3748261,5.24963984 C65.3240149,5.19882868 65.2969156,5.13446788 65.2969156,5.05486372" id="Fill-48" fill="#E3007E"></path>
                <path d="M66.8087171,5.73116029 L66.8934023,5.73116029 C66.9374387,5.73116029 66.981475,5.73116029 67.0272051,5.72777287 C67.0695477,5.72607917 67.1169714,5.72269176 67.1576204,5.71761064 C67.1559267,5.74470993 67.1559267,5.7667281 67.1559267,5.77858404 C67.1508456,5.79213368 67.1508456,5.80229591 67.1508456,5.81753926 C67.1508456,5.82770149 67.1508456,5.83955743 67.1559267,5.85141337 C67.1559267,5.85988189 67.1559267,5.87851265 67.1576204,5.90730565 C67.1356022,5.90391823 67.1051155,5.90222453 67.0610792,5.90222453 C67.0187365,5.90053082 66.9374387,5.90053082 66.8171856,5.90053082 L66.8171856,5.91916158 C66.8104108,6.15289293 66.8087171,6.32903829 66.8087171,6.43743543 C66.8087171,6.61866191 66.8104108,6.78803245 66.8171856,6.94893446 C66.8256541,7.11322388 66.8307352,7.26904478 66.8442849,7.41300973 C66.7934737,7.40792862 66.7494374,7.4028475 66.7037073,7.39776639 C66.6630584,7.39776639 66.6224095,7.39268527 66.5834543,7.39268527 C66.5428053,7.39268527 66.498769,7.39776639 66.4564263,7.39776639 C66.41239,7.4028475 66.36666,7.40792862 66.3175425,7.41300973 C66.3293984,7.26565737 66.3412544,7.11322388 66.3446418,6.94893446 C66.3497229,6.78803245 66.3514166,6.61866191 66.3514166,6.44251655 C66.3514166,6.33073199 66.3497229,6.15966775 66.3480292,5.92763011 L66.3480292,5.90730565 C66.3293984,5.90391823 66.3124614,5.90222453 66.2904432,5.90222453 C66.2751999,5.90053082 66.2464069,5.90053082 66.2108391,5.90053082 C66.176965,5.90053082 66.1549468,5.90053082 66.1397034,5.90222453 C66.1210727,5.90222453 66.1092167,5.90391823 66.0973608,5.90730565 C66.0990545,5.88867489 66.1024419,5.87343154 66.1041356,5.85988189 C66.1041356,5.84463855 66.1092167,5.82770149 66.1092167,5.81415185 C66.1092167,5.80060221 66.1041356,5.78197145 66.1041356,5.7667281 C66.1024419,5.74979104 66.0990545,5.73285399 66.0973608,5.71761064 C66.1295412,5.72269176 66.1617216,5.72607917 66.193902,5.72777287 C66.2243887,5.73116029 66.2531817,5.73116029 66.2819747,5.73116029 L66.3412544,5.73116029 C66.3412544,5.61429461 66.3581914,5.50251006 66.3920655,5.3907255 C66.4259396,5.27555354 66.4784445,5.1688501 66.544499,5.06553407 C66.6241032,4.94697469 66.7037073,4.85890201 66.7816178,4.80470344 C66.8629156,4.75050487 66.9594568,4.72509929 67.0610792,4.72509929 C67.096647,4.72509929 67.1356022,4.7284867 67.1762511,4.73356781 C67.2152064,4.74034263 67.2558553,4.75050487 67.2998916,4.7623608 C67.2829546,4.83349643 67.2694049,4.90801947 67.2609364,4.9808488 C67.2456931,5.05706554 67.2338371,5.13497599 67.2219812,5.21966126 C67.1660889,5.17562492 67.1101966,5.14005711 67.0559981,5.12142635 C67.0017995,5.09602077 66.952682,5.08585853 66.9035646,5.08585853 C66.8408975,5.08585853 66.7866989,5.10448929 66.74605,5.1383634 C66.7070947,5.17223751 66.6918514,5.21627385 66.6918514,5.26877872 C66.6918514,5.30604023 66.7037073,5.37717586 66.7375814,5.4838793 C66.7731493,5.58550162 66.7934737,5.66849319 66.8087171,5.73116029" id="Fill-49" fill="#E3007E"></path>
                <path d="M67.8076645,6.38696301 L68.4123173,6.38696301 L68.4123173,6.33953926 C68.4123173,6.3209085 68.4173984,6.31074627 68.4173984,6.30227774 C68.4173984,6.13968202 68.3936866,6.01604153 68.3462628,5.93474367 C68.2988391,5.85344581 68.2293971,5.80940947 68.1362433,5.80940947 C68.0329273,5.80940947 67.9482421,5.85852693 67.8923498,5.95506814 C67.8381512,6.04652823 67.8076645,6.18202466 67.8076645,6.35817002 L67.8076645,6.38696301 Z M67.8076645,6.56141467 C67.8076645,6.76974043 67.856782,6.93572356 67.9516295,7.05767034 C68.0515581,7.17622972 68.1853608,7.24059053 68.3513439,7.24059053 C68.4360292,7.24059053 68.5122459,7.22704088 68.5901564,7.19824789 C68.6663731,7.17284231 68.7392025,7.13049968 68.8103381,7.07291369 L68.8459059,7.09662557 L68.764608,7.29987021 C68.6934724,7.35237508 68.603706,7.3913303 68.5037774,7.4201233 C68.4021551,7.44722258 68.2920642,7.45907852 68.1751986,7.45907852 C67.8974309,7.45907852 67.6789429,7.37947437 67.5197346,7.21518494 C67.3605263,7.04920182 67.2809221,6.8222453 67.2809221,6.53431538 C67.2809221,6.27009734 67.3605263,6.06007787 67.5197346,5.89917586 C67.6755555,5.73827385 67.8838812,5.65697599 68.1447119,5.65697599 C68.3886055,5.65697599 68.5766067,5.72472421 68.7087158,5.85852693 C68.8408248,5.99571707 68.9051856,6.1938806 68.9051856,6.4462427 L68.9051856,6.51907203 C68.9034919,6.53431538 68.9034919,6.54786502 68.9017982,6.56141467 L67.8076645,6.56141467 Z" id="Fill-50" fill="#E3007E"></path>
                <path d="M69.2268202,6.92539195 L69.2725503,6.92539195 C69.3148929,7.04395133 69.3741726,7.13541142 69.4554705,7.19638482 C69.538462,7.26413303 69.6282284,7.29461973 69.7383193,7.29461973 C69.8230045,7.29461973 69.8873653,7.27260156 69.9347891,7.23025892 C69.9805191,7.1913037 70.0076184,7.13202401 70.0076184,7.05580727 C70.0076184,6.96095977 69.8873653,6.86103115 69.6587151,6.76618365 C69.6231473,6.752634 69.6028228,6.74077807 69.5841921,6.73569695 C69.4199027,6.66794873 69.3081181,6.5951194 69.2471447,6.52398378 C69.1827839,6.45115445 69.1522972,6.35800065 69.1522972,6.24282868 C69.1522972,6.06668332 69.2115769,5.92441207 69.33183,5.81940234 C69.4520831,5.7126989 69.6112914,5.65511291 69.8077612,5.65511291 C69.8992213,5.65511291 69.9906814,5.66866256 70.0753666,5.69745555 C70.1583582,5.72286113 70.2464309,5.75842894 70.3277287,5.8075464 C70.3023232,5.86174497 70.280305,5.92102466 70.2633679,5.97691694 C70.2464309,6.03280921 70.234575,6.08870149 70.222719,6.14798118 L70.1888449,6.14798118 C70.1346463,6.03450292 70.0719792,5.95659247 70.0008436,5.9023939 C69.9314017,5.84480792 69.8484101,5.81940234 69.7620311,5.81940234 C69.6858144,5.81940234 69.6231473,5.8380331 69.5740299,5.87868202 C69.5266061,5.92271836 69.5045879,5.97691694 69.5045879,6.04127774 C69.5045879,6.09378261 69.521525,6.13951265 69.5520117,6.17508047 C69.5909669,6.20895457 69.6756522,6.25468462 69.8077612,6.30549578 C70.0702855,6.40711811 70.234575,6.49349708 70.2955483,6.56463271 C70.3632966,6.63576833 70.3937833,6.73569695 70.3937833,6.84917521 C70.3937833,7.0337891 70.3294225,7.17944776 70.2040883,7.29123232 C70.0804478,7.40640428 69.9161583,7.45890915 69.71122,7.45890915 C69.6028228,7.45890915 69.5045879,7.45044062 69.4165152,7.42672875 C69.33183,7.40640428 69.2522258,7.37083647 69.1827839,7.32341272 C69.187865,7.27768267 69.199721,7.16928553 69.216658,6.99144646 L69.2268202,6.92539195 Z" id="Fill-51" fill="#E3007E"></path>
                <path d="M70.8412602,5.89985334 L70.773512,5.89985334 L70.6651149,5.89985334 C70.6447904,5.90154705 70.6210785,5.90154705 70.5990604,5.90154705 C70.5990604,5.88969111 70.6024478,5.87783517 70.6024478,5.86428553 C70.6024478,5.855817 70.6075289,5.83549254 70.6075289,5.80839325 C70.6075289,5.78129396 70.6024478,5.76605062 70.6024478,5.75419468 C70.5990604,5.74064504 70.5990604,5.72709539 70.5990604,5.71693316 C70.6024478,5.71862687 70.6109163,5.71862687 70.6210785,5.72201428 C70.7040701,5.72370798 70.7616561,5.7304828 70.7989176,5.7304828 L70.8412602,5.72709539 C70.8412602,5.71354575 70.8429539,5.6966087 70.8429539,5.67459053 C70.8429539,5.65765347 70.8446476,5.62886048 70.8446476,5.58990526 C70.8446476,5.54586892 70.8429539,5.49844517 70.8412602,5.44255289 C70.8378728,5.39174173 70.8327917,5.32738092 70.8277106,5.24777677 C70.9090084,5.21729007 70.992,5.18680337 71.0716042,5.15123556 C71.152902,5.11397404 71.2308125,5.08009994 71.3053355,5.0377573 L71.3442907,5.06655029 C71.3375159,5.20543413 71.3290474,5.31891239 71.3290474,5.4137599 C71.3239663,5.50352628 71.3205788,5.5729682 71.3205788,5.62039195 L71.3205788,5.7304828 C71.3883271,5.7304828 71.4493005,5.7304828 71.5085801,5.72709539 C71.5627787,5.72370798 71.6220584,5.72370798 71.6745633,5.71862687 C71.6694822,5.74403245 71.664401,5.76435691 71.664401,5.77621285 L71.664401,5.80839325 C71.664401,5.82871772 71.664401,5.855817 71.6694822,5.89138482 C71.6745633,5.89646593 71.6745633,5.89985334 71.6745633,5.90154705 C71.6440766,5.90154705 71.6051213,5.90154705 71.5627787,5.89985334 L71.3171914,5.89985334 C71.3171914,5.91340299 71.3171914,5.94388968 71.313804,5.98284491 C71.3053355,6.23012589 71.3019481,6.40796496 71.3019481,6.50958728 L71.3019481,6.65355224 C71.3019481,6.92962622 71.3171914,7.10238417 71.3442907,7.17013238 C71.3696963,7.23449319 71.4205075,7.26497988 71.4984179,7.26497988 C71.5356794,7.26497988 71.6051213,7.25481765 71.7067437,7.22941207 L71.7067437,7.22771836 L71.7067437,7.35982738 C71.6288332,7.3953952 71.5560039,7.42080078 71.4882557,7.43773783 C71.4205075,7.45467489 71.3561467,7.459756 71.296867,7.459756 C71.1444335,7.459756 71.0258741,7.42080078 70.94627,7.34119663 C70.8666658,7.25820506 70.8260169,7.13795198 70.8260169,6.98213108 C70.8260169,6.97874367 70.8277106,6.87542764 70.8327917,6.67895782 C70.8378728,6.47910058 70.8412602,6.28263076 70.8412602,6.08785464 L70.8412602,5.89985334 Z" id="Fill-52" fill="#E3007E"></path>
                <path d="M72.2041849,7.96075406 L72.4717904,7.41199351 L71.7418034,5.70304478 C71.7790649,5.7098196 71.8247949,5.71320701 71.870525,5.71490071 C71.916255,5.71490071 71.9653725,5.71828812 72.0178774,5.71828812 C72.0720759,5.71828812 72.1228871,5.71490071 72.1686171,5.71490071 C72.2126535,5.71320701 72.2617709,5.7098196 72.3024199,5.70304478 C72.3600058,5.87919014 72.4209792,6.0570292 72.4955023,6.24164309 C72.5632505,6.42456327 72.6428546,6.61256457 72.7241525,6.80734069 L73.1458851,5.70304478 C73.1662096,5.7098196 73.1882278,5.71320701 73.2153271,5.71490071 C73.2373452,5.71490071 73.2627508,5.71828812 73.2915438,5.71828812 C73.3186431,5.71828812 73.3440487,5.71490071 73.3677605,5.71490071 C73.3931661,5.71320701 73.4134906,5.7098196 73.4355088,5.70304478 C73.2305704,6.16203894 73.0307132,6.61256457 72.8410182,7.0613965 C72.6513232,7.51192213 72.4650156,7.95567294 72.2905639,8.39434263 C72.2685457,8.38926152 72.2448339,8.38587411 72.2194283,8.3824867 C72.1940227,8.3824867 72.1686171,8.3824867 72.1398241,8.3824867 C72.1161123,8.3824867 72.089013,8.3824867 72.0636074,8.3824867 C72.0331207,8.38587411 72.0043277,8.38926152 71.973841,8.39434263 C72.0094088,8.33845036 72.0449766,8.27747696 72.0822382,8.20634134 C72.1228871,8.13689942 72.1618423,8.05390785 72.2041849,7.96075406" id="Fill-53" fill="#E3007E"></path>
                <path d="M73.6661914,7.41250162 C73.6729663,7.21433809 73.6763537,7.00262492 73.6814348,6.78074951 C73.6882096,6.56226152 73.691597,6.32853018 73.691597,6.07786178 C73.691597,5.81025633 73.6882096,5.56636275 73.6814348,5.34618105 C73.6763537,5.12769306 73.6729663,4.91936729 73.6661914,4.72628488 C73.7170026,4.73644711 73.7712012,4.73983452 73.8101564,4.74491564 C73.8491116,4.74999676 73.8897605,4.75169046 73.9287158,4.75169046 C73.967671,4.75169046 74.0066262,4.74999676 74.0523563,4.74491564 C74.0930052,4.73983452 74.1404289,4.7330597 74.1946275,4.72628488 C74.1844653,4.92444841 74.1776905,5.13446788 74.1759968,5.35803699 C74.1692219,5.57483128 74.1641408,5.81025633 74.1641408,6.06261843 C74.1641408,6.32853018 74.1692219,6.57073005 74.1759968,6.79260545 C74.1776905,7.01278715 74.1844653,7.21941921 74.1946275,7.41250162 C74.1539786,7.4057268 74.1133297,7.39895198 74.0675996,7.39387086 C74.0235633,7.38709604 73.9795269,7.38709604 73.9321032,7.38709604 C73.881292,7.38709604 73.8406431,7.38709604 73.7932193,7.39387086 C73.7508767,7.39895198 73.7068404,7.4057268 73.6661914,7.41250162" id="Fill-54" fill="#E3007E"></path>
                <path d="M75.0457145,6.38696301 L75.6503673,6.38696301 C75.6503673,6.37680078 75.652061,6.35817002 75.652061,6.33953926 C75.6571421,6.3209085 75.6571421,6.31074627 75.6571421,6.30227774 C75.6571421,6.13968202 75.6317365,6.01604153 75.5843128,5.93474367 C75.5385827,5.85344581 75.4657534,5.80940947 75.375987,5.80940947 C75.2692836,5.80940947 75.186292,5.85852693 75.1303997,5.95506814 C75.0745075,6.04652823 75.0457145,6.18202466 75.0457145,6.35817002 L75.0457145,6.38696301 Z M75.0457145,6.56141467 C75.0457145,6.76974043 75.0948319,6.93572356 75.1947605,7.05767034 C75.2929955,7.17622972 75.4251045,7.24059053 75.5910876,7.24059053 C75.6757729,7.24059053 75.7536833,7.22704088 75.8299001,7.19824789 C75.9061168,7.17284231 75.9772524,7.13049968 76.0483881,7.07291369 L76.0839559,7.09662557 L76.0077391,7.29987021 C75.9315224,7.35237508 75.8451434,7.3913303 75.7435211,7.4201233 C75.6418988,7.44722258 75.5318079,7.45907852 75.4132485,7.45907852 C75.1354809,7.45907852 74.9169929,7.37947437 74.7594783,7.21518494 C74.60027,7.04920182 74.5206658,6.8222453 74.5206658,6.53431538 C74.5206658,6.27009734 74.60027,6.06007787 74.7594783,5.89917586 C74.9119117,5.73827385 75.1219312,5.65697599 75.3827618,5.65697599 C75.6300428,5.65697599 75.8180441,5.72472421 75.9467657,5.85852693 C76.0805685,5.99571707 76.1449293,6.1938806 76.1449293,6.4462427 L76.1449293,6.51907203 C76.1449293,6.53431538 76.1398482,6.54786502 76.1398482,6.56141467 L75.0457145,6.56141467 Z" id="Fill-55" fill="#E3007E"></path>
            </g>
        </g>
    </g>
</svg>