<?xml version="1.0" encoding="UTF-8"?>
<svg width="90px" height="29px" viewBox="0 0 90 29" version="1.1" xmlns="http://www.w3.org/2000/svg" xmlns:xlink="http://www.w3.org/1999/xlink">
    <title>logo_出版</title>
    <defs>
        <polygon id="path-1" points="0.293109353 0.0316410332 14.4587094 0.0316410332 14.4587094 6.37189487 0.293109353 6.37189487"></polygon>
        <polygon id="path-3" points="0.100202786 0.0779227332 24.6587728 0.0779227332 24.6587728 26.0379336 0.100202786 26.0379336"></polygon>
        <polygon id="path-5" points="0.160281609 0.193801328 8.30280487 0.193801328 8.30280487 8.72402613 0.160281609 8.72402613"></polygon>
    </defs>
    <g id="Symbols" stroke="none" stroke-width="1" fill="none" fill-rule="evenodd">
        <g id="Slicing" transform="translate(-392.000000, -174.000000)">
            <g id="logo_出版" transform="translate(392.000000, 174.000000)">
                <g id="Group-3" transform="translate(3.625535, 0.298085)">
                    <mask id="mask-2" fill="white">
                        <use xlink:href="#path-1"></use>
                    </mask>
                    <g id="Clip-2"></g>
                    <path d="M14.3762353,1.17170701 C14.902597,2.69871646 12.7753968,3.19706273 11.7925472,3.59817875 C11.4524061,3.73693786 11.1139129,3.87932251 10.7806933,4.03456133 C10.5522846,4.14069063 10.3426627,4.28703041 10.1086509,4.38096472 C9.88617491,4.46995513 9.64359365,4.50126657 9.41090022,4.55235365 C8.88552723,4.66771159 8.36410937,4.79856044 7.84499867,4.93863793 C6.80381092,5.21912251 5.77317018,5.53652162 4.73659675,5.83414509 C4.14596413,6.00388605 3.55335395,6.16736472 2.95612945,6.3140341 C2.32627513,6.46828413 1.68488502,6.29986155 1.13742923,5.97784812 C0.629195129,5.67890627 0.595906125,5.2026428 0.364201476,4.7115476 C0.246865978,4.46336325 0.264993653,4.19375528 0.492413579,3.99995395 C0.552070111,3.94919646 0.812779041,3.963369 0.896166347,3.9521628 C1.0326183,3.93337594 1.16874066,3.91195232 1.30453343,3.89019911 C1.57282303,3.8463631 1.84045343,3.79791277 2.10940221,3.7570431 C2.37769181,3.71650303 2.64697018,3.68288443 2.91789653,3.66607513 C3.21486081,3.64761786 3.46271557,3.71749181 3.72309491,3.54313653 C4.00094273,3.35757506 4.26857314,3.1766279 4.57443646,3.03688 C5.16210273,2.76859041 5.79657137,2.62752413 6.43202878,2.52732753 C6.6545048,2.49239055 6.87796959,2.46239749 7.1011048,2.43339321 C7.21745151,2.41823188 7.34500443,2.43998509 7.4583848,2.40636649 C7.59285919,2.3668152 7.62977373,2.29331572 7.73985815,2.20893963 C7.96694849,2.03524354 8.2787445,2.03161801 8.50583483,1.85759232 C9.14854332,1.34342554 10.0051584,1.15028339 10.5199844,0.50691572 C10.8901185,0.202370775 11.3611085,0.0748178598 11.8330872,0.0500983026 C12.3297855,0.024060369 12.8353829,-0.0121949815 13.28429,0.234341402 C13.7022154,0.464068487 14.2127566,0.681930185 14.3762353,1.17170701" id="Fill-1" fill="#4593D0" mask="url(#mask-2)"></path>
                </g>
                <g id="Group-6" transform="translate(22.082804, 1.946055)">
                    <mask id="mask-4" fill="white">
                        <use xlink:href="#path-3"></use>
                    </mask>
                    <g id="Clip-5"></g>
                    <path d="M13.4888361,7.44206989 C13.5557437,7.19751107 13.6127635,6.94240524 13.6121043,6.6879586 C13.6114451,6.42494251 13.4562063,6.19488583 13.4384082,5.93483609 C13.4239061,5.72587343 13.5405824,5.49845351 13.2953644,5.38507314 C12.7811976,5.02087166 12.3098781,5.59963889 11.7960409,5.68566295 C11.3748196,5.89561439 11.0603868,6.26278221 10.7064028,6.56271284 C10.4588776,6.77266428 10.1500479,6.88571506 9.88505429,7.06831018 C9.63192602,7.24299506 9.43449916,7.48359875 9.18763318,7.66850103 C8.65731628,8.06467314 8.03866816,8.31846059 7.4892348,8.68496923 C7.02450713,8.99511727 5.97606831,8.87283786 5.46387908,8.77428923 C4.5360717,8.59531963 3.72164469,8.13553587 2.85909694,7.78583653 C2.48270049,7.63356406 2.0855396,7.5139214 1.74045458,7.29375255 C1.34395289,7.03996509 1.12510241,6.59336509 0.727282332,6.32771225 C0.370331926,6.08941572 0.0146998967,5.8784755 0.118522037,5.38507314 C0.440205875,5.04262487 0.889772221,4.97802443 1.31857414,4.87123594 C2.79680366,4.59239934 4.40390447,4.80696509 5.83961635,4.31356273 C6.65305458,4.09965616 7.51032883,3.90651402 8.30399141,3.62833661 C8.51196528,3.55516672 8.73378211,3.45101498 8.95526934,3.37652672 C9.19719141,3.29577616 9.34814551,3.11746576 9.57095111,3.00573336 C10.0636943,2.75886738 10.5821458,2.90388878 11.0801625,2.76842561 C11.7792316,2.57792273 12.4717088,2.36401365 13.16089,2.14087845 C13.562006,2.01101838 13.9522454,1.84490295 14.3639085,1.74997985 C14.6902066,1.67516199 15.0323253,1.6804355 15.3223681,1.49355565 C16.0276995,1.03937498 16.921229,1.24108657 17.6674301,0.907537343 C18.2972844,0.625734391 19.010526,0.34722738 19.6809204,0.180782362 C20.0306197,0.0937695203 20.3925141,0.0496039114 20.7517716,0.0977246494 C21.3582248,0.178475203 21.9857719,0.328110923 22.5862924,0.455004649 C23.096504,0.562781919 23.6195699,0.638918155 24.0770465,0.906218967 C24.3262196,1.05189956 24.527272,1.26679491 24.6525178,1.52882221 C24.6871251,1.86270103 24.5734152,2.18240731 24.4277346,2.47772362 C24.3542351,2.62735934 24.2708478,2.77172155 24.1904268,2.91773173 C23.933673,3.38443697 23.5144293,3.49386221 23.0286076,3.62438148 C22.5417972,3.75490074 22.0355406,3.80565823 21.5388423,3.68931151 C21.2758262,3.62800701 21.0068775,3.49880613 20.7959372,3.32840598 C19.9442661,2.78358694 18.9043967,2.93717779 17.9792261,3.17580391 C17.8516732,3.20843373 17.7254386,3.24534827 17.6011817,3.2878659 C17.4657185,3.33400908 17.3421207,3.35378472 17.2284107,3.44508229 C17.122611,3.53011756 17.012197,3.59801395 16.8922248,3.6619552 C16.5827359,3.82807063 16.3144463,3.96946649 16.3170831,4.35080686 C16.3197198,4.80235077 16.2409468,5.32245026 16.423542,5.74960421 C16.8309203,6.60687845 16.2950003,7.46316391 16.680955,8.32076775 C16.8530031,9.47797262 17.1954513,11.1058379 17.1526041,12.4337725 C17.1526041,14.2768627 17.3025694,16.5685304 17.6025,18.3457018 C17.6717148,18.7557168 17.8002565,19.1565032 17.8971572,19.5605856 C17.9578025,19.8133843 17.9726342,20.0747524 18.0329499,20.3275511 C18.1624804,20.8717109 18.288715,21.2688718 18.265973,21.8377512 C18.239935,22.4857332 18.1631396,23.1304193 18.0701941,23.7718094 C17.9680199,24.4781295 17.7491694,25.1702771 17.045486,25.4817435 C16.3563048,26.238162 15.1321923,26.0937998 14.2597567,25.8030978 C13.8830307,25.677852 13.4140183,25.141932 13.2228537,24.8004725 C13.106507,24.5928283 13.1233163,24.3420072 13.069922,24.1132689 C12.9324813,23.5232954 12.6899,22.964963 12.8889749,22.3538956 C13.3171176,17.4258046 13.7449307,12.7554563 13.4888361,7.848789" id="Fill-4" fill="#4593D0" mask="url(#mask-4)"></path>
                </g>
                <path d="M11.6170053,7.29790543 C12.0454777,7.76889539 12.2379606,8.32623901 12.4953736,8.88391222 C12.7155425,9.12451591 12.9920719,9.11100255 13.2775004,9.00520285 C13.5240368,8.9129165 13.7939743,8.87204683 14.0042554,8.70296506 C14.2122293,8.53520167 14.3839478,8.31173687 14.584341,8.13243768 C15.0164388,7.74549421 15.4785298,7.38623665 16.0371918,7.20364152 C16.3687634,7.09520506 16.7108821,7.05070986 17.0592631,7.08366927 C17.6162771,7.29790543 18.323586,7.27648182 18.602093,7.85458986 C18.8588468,8.21912093 18.7939168,8.64759325 18.6657047,9.03354794 C18.1736207,10.0401283 16.952145,10.404989 16.0948707,11.0476975 C15.4089854,11.4112397 14.4877699,11.6689823 14.1449921,12.4402325 C14.1235684,13.6617082 15.109714,14.6462058 15.8806346,15.3535147 C17.0592631,16.57532 18.1518675,18.4381859 19.7372151,19.1669184 C20.2045795,19.3818138 20.5944893,19.8218219 20.9876951,20.1435057 C21.2022608,20.3188498 21.4244073,20.4882612 21.6643518,20.6273499 C21.9339597,20.7835775 22.2269689,20.8405972 22.4886666,21.0175893 C22.7490459,21.1939221 23.0849023,21.2753319 23.293865,21.522857 C23.3775819,21.6217352 23.5196369,21.6424997 23.6290622,21.7001786 C23.8601076,21.8224581 24.015676,22.070972 24.2839656,22.125355 C24.432283,22.1556777 24.5631318,22.1227183 24.7048573,22.1869891 C24.8432868,22.249612 24.9728173,22.3689251 25.1003702,22.4523124 C25.6956172,22.8428814 26.3106397,23.2130155 26.9816933,23.4585631 C27.2410839,23.5534862 27.523546,23.5676588 27.7812886,23.6662074 C28.0294729,23.7611305 28.1896557,23.9578982 28.4022439,24.1068747 C28.7674341,24.3623102 29.2614957,24.593026 29.435851,25.0336933 C29.5495609,25.3207698 29.3995956,25.7548452 29.2146933,25.9802876 C28.9500293,26.3026306 28.4661851,26.3853587 28.0782529,26.4456744 C27.6850471,26.5069789 27.2796464,26.6892445 26.8847926,26.7340693 C26.6672605,26.7584592 26.4431366,26.7554929 26.2246157,26.771643 C25.7546145,26.80658 25.2856021,26.8553599 24.8169193,26.903151 C23.8690067,26.9997221 22.9177981,27.0982707 21.9636232,27.0811319 C21.4428645,27.0719032 20.8314675,27.1510058 20.3608071,26.880409 C19.7184282,26.5106045 19.1350467,25.9552384 18.5454028,25.5056721 C17.7705271,24.915369 17.2435062,24.0973165 16.6881401,23.2983804 C16.1083841,22.4645074 15.5533476,21.6134954 14.9699661,20.7815999 C14.4989761,20.1105463 14.0283157,19.3363298 13.3869256,18.8126048 C13.1608241,18.6273729 13.011518,18.366664 12.7877236,18.175829 C12.5932631,18.0097135 12.4208853,17.8281072 12.2508148,17.6379314 C11.904741,17.2506583 11.5398803,16.9019478 10.9960501,16.8534975 C10.7930201,17.1573832 10.6529426,17.5004907 10.5718625,17.8561227 C10.5171498,18.0973856 10.5286856,18.3462291 10.4874864,18.58914 C10.4532086,18.7918403 10.3777315,18.9846529 10.3404874,19.1876828 C10.2607256,19.6253838 10.2538042,20.0980217 10.0313281,20.4951826 C9.89685376,20.7354567 9.8217063,20.9318948 9.75677627,21.2028212 C9.6934942,21.4697924 9.56165656,21.7535729 9.45585686,22.0073603 C9.39620032,22.1504042 9.30193641,22.2749907 9.23799516,22.4157274 C9.12131885,22.6737996 9.05869597,22.9476923 8.92455117,23.2034573 C8.77491545,23.4888858 8.60945922,23.7677224 8.43048962,24.0353528 C8.06991368,24.5739096 7.6559435,25.076211 7.20637715,25.542257 C6.95390807,25.8042843 6.6899032,26.0557646 6.4166697,26.2963683 C6.20342232,26.4842369 6.02082719,26.6958364 5.77231324,26.8425057 C5.51984416,26.9911527 5.23540446,27.0491612 4.95887501,27.1365037 C4.37054955,27.3230539 3.8375959,27.5863996 3.20807117,27.6160631 C2.83727782,27.6338612 2.47076918,27.530039 2.146119,27.351399 C2.00801907,27.2752628 1.76280106,27.2867986 1.60558468,27.2278012 C1.4203528,27.1579273 1.23874645,27.060697 1.08021169,26.9423727 C0.89992372,26.8075688 0.717658185,26.6608994 0.58450217,26.4776451 C0.511002686,26.3767893 0.447391026,26.269012 0.429592945,26.1444254 C0.392019218,25.8847053 0.439151173,25.7960445 0.274024531,25.5768644 C0.0614363395,25.2947319 0.176464679,25.1058744 0.114500989,24.7993519 C0.0848375203,24.6530121 0.0139747897,24.5126051 0.00145021402,24.3629693 C-0.019314214,24.1167626 0.188989255,23.92395 0.325111616,23.7426733 C0.475736118,23.5412913 0.607244162,23.3221112 0.860372428,23.2370759 C1.14744889,23.1408344 1.55317922,23.1510519 1.84618837,23.2100492 C2.01329258,23.2439974 2.17446409,23.3043131 2.31948549,23.3942923 C2.55448608,23.5399729 2.659297,23.7571754 2.95626128,23.5851273 C3.1784077,23.4559264 3.30826778,23.2169707 3.49943235,23.0525032 C3.64511294,22.9269279 3.70147354,22.718954 3.84517656,22.5788765 C4.00634807,22.4223193 4.15763176,22.2565335 4.29441331,22.0778935 C4.57489789,21.7107257 4.7861677,21.2970851 4.9318483,20.8593841 C5.70342807,20.0446275 5.78846335,18.888741 5.48919191,17.7743834 C4.69651811,17.7111013 3.86132667,18.1171612 3.02547604,17.8389838 C2.46780283,17.4322647 1.65370542,17.2183581 1.37519841,16.5967437 C0.989573314,16.1900245 0.66821907,15.6755282 0.603618627,15.0964313 C0.839608,14.454382 1.73939988,14.6462058 2.25389627,14.5404061 C2.72488623,14.347264 3.28222985,14.3040871 3.75321981,14.0684274 C4.01920224,13.9356009 4.33264623,13.8944017 4.60423176,13.7467435 C4.87186217,13.6017221 5.12235368,13.428026 5.37614114,13.2609218 C5.629599,13.0938176 5.8860232,12.9296797 6.16321184,12.804434 C6.45852815,12.671278 6.78581508,12.6287603 7.07486911,12.4722031 C7.32206468,12.3383879 7.55113258,12.1501897 7.7673463,11.9715497 C8.21625346,11.6000972 8.56430483,11.074065 8.48882778,10.468271 C8.46344903,10.2639227 8.36621877,10.0783612 8.36621877,9.85687399 C8.36654837,9.63670514 8.41005479,9.41950263 8.45487959,9.20493687 C8.49970438,8.98971193 8.55210985,8.77514617 8.57649981,8.55629569 C8.61341435,8.22801997 8.52969745,8.00719193 8.72811309,7.71385318 C8.90312756,7.45479222 9.16152933,7.23989687 9.4532201,7.12618691 C9.68756151,7.03488934 9.98155944,7.08333968 10.2264479,7.08432846 C10.4258523,7.08498765 10.6793101,6.94622853 10.8731115,7.00094115 C10.9907766,7.03390056 11.0731751,7.13937067 11.2050127,7.17233008 C11.3467382,7.20792624 11.4967035,7.20133436 11.6170053,7.29790543" id="Fill-7" fill="#4593D0"></path>
                <path d="M56.0199879,17.959813 L55.9487955,17.9693712 C55.8954013,17.79172 55.7886128,17.6536201 55.6287597,17.5550715 C55.4689065,17.4565228 55.2701613,17.4070837 55.0321944,17.4070837 C54.6716184,17.4070837 54.3914634,17.5333182 54.1907406,17.7861169 C53.9903474,18.038586 53.8904804,18.3932292 53.8904804,18.8497171 C53.8904804,19.3421306 53.9926546,19.7175383 54.1970029,19.9759401 C54.4016809,20.2343419 54.6983155,20.3635427 55.0882254,20.3635427 C55.2559888,20.3635427 55.4254001,20.3305833 55.5954707,20.2656533 C55.7658708,20.2003937 55.9204505,20.1090961 56.05888,19.9917606 L56.1205141,20.0065923 L56.0051561,20.4268248 C55.8456326,20.5052682 55.678858,20.5636064 55.5051619,20.6021689 C55.3314658,20.6400722 55.1482115,20.6591886 54.9563877,20.6591886 C54.370699,20.6591886 53.9152,20.5019723 53.5892314,20.1875395 C53.2632628,19.8727771 53.1004434,19.4334282 53.1004434,18.8694927 C53.1004434,18.3348911 53.2757874,17.9067484 53.6271347,17.5853941 C53.978482,17.2646991 54.4481536,17.1038571 55.0371383,17.1038571 C55.2226997,17.1038571 55.407602,17.124292 55.5905268,17.1651616 C55.7744403,17.2057017 55.9600017,17.2683246 56.1498479,17.3530303 C56.1205141,17.4446574 56.0944761,17.5405693 56.0727229,17.6404363 C56.0503105,17.7409625 56.032842,17.8470918 56.0199879,17.959813" id="Fill-9" fill="#4593D0"></path>
                <path d="M57.1056708,19.3976013 C57.1056708,19.7772937 57.1452221,20.0449241 57.2239951,20.1998334 C57.3037569,20.354413 57.4355945,20.4321972 57.621156,20.4321972 C57.8090246,20.4321972 57.9425102,20.3540834 58.022272,20.198515 C58.1020338,20.0429466 58.1425738,19.7756458 58.1425738,19.3976013 C58.1425738,19.0179089 58.1020338,18.7492897 58.022272,18.5920734 C57.9425102,18.4345274 57.8090246,18.3557544 57.621156,18.3557544 C57.4355945,18.3557544 57.3037569,18.4338682 57.2239951,18.5894366 C57.1452221,18.7453346 57.1056708,19.014613 57.1056708,19.3976013 M56.3693576,19.3976013 C56.3693576,18.9981333 56.4804308,18.6876556 56.7019181,18.4658388 C56.9234053,18.244022 57.2319054,18.1332784 57.6267591,18.1332784 C58.0278751,18.1332784 58.3363752,18.2430332 58.5535777,18.4618837 C58.770121,18.681723 58.8788871,18.9931894 58.8788871,19.3976013 C58.8788871,19.7937734 58.7681434,20.1026031 58.5473154,20.3234311 C58.3261578,20.5442592 58.0183169,20.6543436 57.621156,20.6543436 C57.2233359,20.6543436 56.915495,20.5442592 56.6976333,20.3244199 C56.4787828,20.1045807 56.3693576,19.7954214 56.3693576,19.3976013" id="Fill-11" fill="#4593D0"></path>
                <path d="M59.3204443,20.5933357 C59.3303321,20.3263645 59.3382423,20.0920231 59.3428567,19.8903115 C59.3478006,19.6889295 59.3501077,19.5228141 59.3501077,19.3926245 C59.3501077,19.2624348 59.3478006,19.0986265 59.3428567,18.9008701 C59.3382423,18.7034432 59.3303321,18.4694314 59.3204443,18.1991642 C59.3748273,18.2060857 59.4298695,18.2107 59.4868893,18.213996 C59.5439091,18.2172919 59.6052136,18.2189399 59.6704732,18.2189399 C59.7393584,18.2189399 59.8016516,18.2172919 59.8576826,18.213996 C59.9140432,18.2107 59.9674375,18.2060857 60.0178654,18.1991642 L60.0178654,18.5300767 C60.1206987,18.3959319 60.2307832,18.2983721 60.349437,18.2373972 C60.4671021,18.1760926 60.6022357,18.1454404 60.7541786,18.1454404 C60.9212828,18.1454404 61.0649858,18.1849917 61.1842989,18.2644239 C61.3029528,18.3435265 61.3909544,18.4585548 61.4486333,18.6101681 C61.5465228,18.4519629 61.6602328,18.3346274 61.7910816,18.25948 C61.9209417,18.1833437 62.072555,18.1454404 62.2452623,18.1454404 C62.3658937,18.1454404 62.4749894,18.1658752 62.57189,18.2057561 C62.6691203,18.245637 62.7515188,18.3052935 62.8200744,18.3853849 C62.8886299,18.4634987 62.9364211,18.5653433 62.9647662,18.6909186 C62.9921225,18.8161644 63.006295,19.0429251 63.006295,19.3705417 L63.006295,19.6810193 C63.006295,19.8214264 63.007943,19.967107 63.0118981,20.1180611 C63.0165125,20.2686856 63.0221156,20.4268907 63.0303554,20.5933357 C62.9571855,20.5854255 62.8896187,20.5791632 62.8289734,20.5748785 C62.7673393,20.5712529 62.7080124,20.5689458 62.6516518,20.5689458 C62.5943024,20.5689458 62.5359643,20.5712529 62.4766373,20.5748785 C62.4169808,20.5791632 62.3540283,20.5854255 62.2871207,20.5933357 C62.3019525,20.3748149 62.3124995,20.1727737 62.3204097,19.9868826 C62.3273312,19.8009915 62.3312863,19.6272955 62.3312863,19.4661239 C62.3312863,19.0926938 62.3019525,18.8484646 62.2429551,18.7337659 C62.1842874,18.6187375 62.0801356,18.5613881 61.9301703,18.5613881 C61.781853,18.5613881 61.6760533,18.6187375 61.6134304,18.7337659 C61.5508075,18.8484646 61.5191665,19.0528129 61.5191665,19.3461517 L61.5191665,20.1384959 C61.5191665,20.2152913 61.52444,20.3504249 61.536635,20.5445558 C61.5379533,20.5672978 61.5386125,20.5837775 61.5386125,20.5933357 C61.4687386,20.5854255 61.4028198,20.5791632 61.3421745,20.5748785 C61.2805404,20.5712529 61.221543,20.5689458 61.1651824,20.5689458 C61.1075035,20.5689458 61.0491653,20.5712529 60.9898384,20.5755377 C60.9301818,20.5804816 60.8645926,20.5860847 60.7934003,20.5933357 C60.8059249,20.4057967 60.8154831,20.22452 60.8227342,20.0501647 C60.8286668,19.8751502 60.8322924,19.7093644 60.8322924,19.5528072 C60.8322924,19.1154358 60.8036177,18.8408839 60.7465979,18.7288219 C60.6892485,18.6170895 60.5850968,18.5613881 60.4334835,18.5613881 C60.2868142,18.5613881 60.1823328,18.6184079 60.1206987,18.7324475 C60.0584054,18.846487 60.0277532,19.051165 60.0277532,19.3461517 L60.0277532,20.1384959 C60.0277532,20.2166097 60.0330267,20.3530617 60.0442329,20.546863 C60.0462105,20.567957 60.0462105,20.5837775 60.0442329,20.5933357 C59.9825988,20.5854255 59.9222831,20.5791632 59.8626266,20.5748785 C59.8032996,20.5712529 59.7439727,20.5689458 59.6849753,20.5689458 C59.6312515,20.5689458 59.5748909,20.5712529 59.5162232,20.5748785 C59.4575554,20.5791632 59.3926254,20.5854255 59.3204443,20.5933357" id="Fill-13" fill="#4593D0"></path>
                <path d="M63.6634397,20.5933357 C63.6733276,20.3263645 63.6809082,20.0920231 63.6858521,19.8903115 C63.6907961,19.6889295 63.6931032,19.5228141 63.6931032,19.3926245 C63.6931032,19.2624348 63.6907961,19.0986265 63.6858521,18.9008701 C63.6809082,18.7034432 63.6733276,18.4694314 63.6634397,18.1991642 C63.7178228,18.2060857 63.772865,18.2107 63.8298848,18.213996 C63.8869045,18.2172919 63.948209,18.2189399 64.0134687,18.2189399 C64.0820243,18.2189399 64.1443175,18.2172919 64.2003485,18.213996 C64.2570387,18.2107 64.3101034,18.2060857 64.3605313,18.1991642 L64.3605313,18.5300767 C64.4633646,18.3959319 64.5737786,18.2983721 64.6921029,18.2373972 C64.8100976,18.1760926 64.9449016,18.1454404 65.0971741,18.1454404 C65.2642783,18.1454404 65.4079813,18.1849917 65.5272944,18.2644239 C65.6459482,18.3435265 65.7339499,18.4585548 65.7916288,18.6101681 C65.8895183,18.4519629 66.0028986,18.3346274 66.1337475,18.25948 C66.2639372,18.1833437 66.4155505,18.1454404 66.5882578,18.1454404 C66.7088892,18.1454404 66.8179848,18.1658752 66.9145559,18.2057561 C67.0121158,18.245637 67.0945143,18.3052935 67.1630699,18.3853849 C67.2316254,18.4634987 67.2794166,18.5653433 67.3077617,18.6909186 C67.3347884,18.8161644 67.3489609,19.0429251 67.3489609,19.3705417 L67.3489609,19.6810193 C67.3489609,19.8214264 67.3509385,19.967107 67.3548936,20.1180611 C67.3591783,20.2686856 67.365111,20.4268907 67.3733509,20.5933357 C67.2998514,20.5854255 67.2326142,20.5791632 67.1719689,20.5748785 C67.1103348,20.5712529 67.0510079,20.5689458 66.9946473,20.5689458 C66.9372979,20.5689458 66.8789597,20.5712529 66.8196328,20.5748785 C66.7599763,20.5791632 66.6966942,20.5854255 66.6301162,20.5933357 C66.6446183,20.3748149 66.655495,20.1727737 66.6634052,19.9868826 C66.6703267,19.8009915 66.6739522,19.6272955 66.6739522,19.4661239 C66.6739522,19.0926938 66.6446183,18.8484646 66.5859506,18.7337659 C66.5272828,18.6187375 66.4228015,18.5613881 66.2731658,18.5613881 C66.1248485,18.5613881 66.0190488,18.6187375 65.9560963,18.7337659 C65.893803,18.8484646 65.862162,19.0528129 65.862162,19.3461517 L65.862162,20.1384959 C65.862162,20.2152913 65.8674355,20.3504249 65.8796305,20.5445558 C65.8809488,20.5672978 65.881608,20.5837775 65.881608,20.5933357 C65.8117341,20.5854255 65.7458152,20.5791632 65.6851699,20.5748785 C65.6235358,20.5712529 65.5645385,20.5689458 65.5078483,20.5689458 C65.4501693,20.5689458 65.3921608,20.5712529 65.3328338,20.5755377 C65.2731773,20.5804816 65.2075881,20.5860847 65.1363958,20.5933357 C65.1485907,20.4057967 65.1584786,20.22452 65.1657296,20.0501647 C65.1713327,19.8751502 65.1752879,19.7093644 65.1752879,19.5528072 C65.1752879,19.1154358 65.1466132,18.8408839 65.0892638,18.7288219 C65.032244,18.6170895 64.9280923,18.5613881 64.776479,18.5613881 C64.6298096,18.5613881 64.5253283,18.6184079 64.4633646,18.7324475 C64.4014009,18.846487 64.3707487,19.051165 64.3707487,19.3461517 L64.3707487,20.1384959 C64.3707487,20.2166097 64.3760222,20.3530617 64.3872284,20.546863 C64.3888764,20.567957 64.3888764,20.5837775 64.3872284,20.5933357 C64.3255943,20.5854255 64.264949,20.5791632 64.205622,20.5748785 C64.1462951,20.5712529 64.0869682,20.5689458 64.0279708,20.5689458 C63.974247,20.5689458 63.9178864,20.5712529 63.8592186,20.5748785 C63.8005509,20.5791632 63.7352913,20.5854255 63.6634397,20.5933357" id="Fill-15" fill="#4593D0"></path>
                <path d="M68.5764353,19.3976013 C68.5764353,19.7772937 68.6159866,20.0449241 68.6947595,20.1998334 C68.7745213,20.354413 68.906359,20.4321972 69.0919204,20.4321972 C69.2797891,20.4321972 69.4132747,20.3540834 69.4930364,20.198515 C69.5727982,20.0429466 69.6133383,19.7756458 69.6133383,19.3976013 C69.6133383,19.0179089 69.5727982,18.7492897 69.4930364,18.5920734 C69.4132747,18.4345274 69.2797891,18.3557544 69.0919204,18.3557544 C68.906359,18.3557544 68.7745213,18.4338682 68.6947595,18.5894366 C68.6159866,18.7453346 68.5764353,19.014613 68.5764353,19.3976013 M67.8404516,19.3976013 C67.8404516,18.9981333 67.9511953,18.6876556 68.1726825,18.4658388 C68.3944993,18.244022 68.7026698,18.1332784 69.0975235,18.1332784 C69.4986395,18.1332784 69.8071396,18.2430332 70.0243421,18.4618837 C70.2408854,18.681723 70.3496515,18.9931894 70.3496515,19.3976013 C70.3496515,19.7937734 70.2389079,20.1026031 70.0180798,20.3234311 C69.7969222,20.5442592 69.4890813,20.6543436 69.0919204,20.6543436 C68.6941004,20.6543436 68.3862595,20.5442592 68.1683978,20.3244199 C67.9495473,20.1045807 67.8404516,19.7954214 67.8404516,19.3976013" id="Fill-17" fill="#4593D0"></path>
                <path d="M70.7918679,20.5933357 C70.8050517,20.3721781 70.8146099,20.1628859 70.8212018,19.9664478 C70.8277937,19.7693505 70.8310896,19.5808227 70.8310896,19.4002051 C70.8310896,19.1968456 70.8277937,18.9948044 70.8212018,18.7947408 C70.8146099,18.5946772 70.8050517,18.3962615 70.7918679,18.1991642 C70.8439438,18.2060857 70.8983268,18.2107 70.955017,18.213996 C71.011048,18.2172919 71.0720229,18.2189399 71.1369529,18.2189399 C71.2022125,18.2189399 71.2621987,18.2172919 71.3169113,18.213996 C71.3712943,18.2107 71.4233702,18.2060857 71.4721501,18.1991642 L71.4721501,18.5442493 C71.5743243,18.4091157 71.6896822,18.3082599 71.8165759,18.2433298 C71.9437993,18.1780702 72.0865135,18.1454404 72.2450483,18.1454404 C72.3666685,18.1454404 72.4787305,18.1665344 72.5799159,18.2077337 C72.6807717,18.2495921 72.7661365,18.3102374 72.8363401,18.3899992 C72.8917119,18.4552588 72.9312632,18.5356798 72.9549939,18.6312621 C72.9787247,18.7261852 72.9905901,18.8896639 72.9905901,19.1210389 C72.9905901,19.1539983 72.9896013,19.2396928 72.988283,19.3791111 C72.9863054,19.5185294 72.9856462,19.6411384 72.9856462,19.7472677 C72.9856462,19.9034953 72.988283,20.0511535 72.9945452,20.189583 C72.9998187,20.3283421 73.0087178,20.4628165 73.019924,20.5933357 C72.9497204,20.5854255 72.8841312,20.5791632 72.8231563,20.5748785 C72.7618518,20.5712529 72.7025249,20.5689458 72.6461643,20.5689458 C72.5884853,20.5689458 72.5301472,20.5712529 72.4711498,20.5748785 C72.4111637,20.5791632 72.3465632,20.5854255 72.2766893,20.5933357 C72.2878955,20.4512807 72.2971241,20.2821989 72.3047048,20.0847721 C72.3116263,19.8873452 72.3155814,19.6681651 72.3155814,19.4269022 C72.3155814,19.06336 72.2869067,18.828689 72.2285686,18.723878 C72.1712192,18.6187375 72.0660787,18.5663321 71.9144654,18.5663321 C71.7628521,18.5663321 71.6544156,18.6289549 71.5881672,18.7545303 C71.5222484,18.8801056 71.4889594,19.091705 71.4889594,19.3903173 C71.4889594,19.5303948 71.4919258,19.7007949 71.4962105,19.9011881 C71.501484,20.101911 71.5077463,20.3326268 71.5156565,20.5933357 C71.4540224,20.5854255 71.3930475,20.5791632 71.3327318,20.5748785 C71.2724161,20.5712529 71.2134187,20.5689458 71.156399,20.5689458 C71.1010272,20.5689458 71.0430186,20.5712529 70.9833621,20.5748785 C70.9223872,20.5791632 70.8587755,20.5854255 70.7918679,20.5933357" id="Fill-19" fill="#4593D0"></path>
                <path d="M74.3768629,20.5933357 C74.2331599,20.0439024 74.0746251,19.4842516 73.9015882,18.914713 C73.7272329,18.3448448 73.5390347,17.7641 73.3350159,17.172149 C73.3986276,17.1790705 73.464876,17.1836848 73.5344204,17.1869808 C73.6033055,17.1902767 73.6791122,17.1919247 73.7605219,17.1919247 C73.8406133,17.1919247 73.9144424,17.1902767 73.9829979,17.1869808 C74.0515535,17.1836848 74.1178019,17.1790705 74.181084,17.172149 C74.2773255,17.5913927 74.3818068,18.009318 74.4941984,18.4269138 C74.60659,18.8438503 74.7262326,19.2588093 74.8534559,19.6714611 C75.0116611,19.2166212 75.1609672,18.7845234 75.3013743,18.3741787 C75.4411222,17.9641636 75.5755966,17.5637068 75.7041383,17.172149 C75.74336,17.1790705 75.7832409,17.1836848 75.8234514,17.1869808 C75.8630027,17.1902767 75.9065091,17.1919247 75.9543002,17.1919247 C76.0034097,17.1919247 76.0482345,17.1902767 76.0894338,17.1869808 C76.1312923,17.1836848 76.1715027,17.1790705 76.2107244,17.172149 C76.3283895,17.5683211 76.4542945,17.9717443 76.5884393,18.3817594 C76.7232432,18.7914448 76.8649687,19.2103589 77.0152636,19.6371833 C77.1553411,19.2360673 77.28619,18.8306665 77.4078102,18.4206515 C77.5291008,18.0106364 77.6421516,17.5943591 77.7466329,17.172149 C77.7805811,17.1790705 77.8168365,17.1836848 77.8540806,17.1869808 C77.8916543,17.1902767 77.9321944,17.1919247 77.97636,17.1919247 C78.0205256,17.1919247 78.0607361,17.1902767 78.0976506,17.1869808 C78.133906,17.1836848 78.1691725,17.1790705 78.2041095,17.172149 C78.0257991,17.6793943 77.8435336,18.2169623 77.6546762,18.7848529 C77.4664779,19.3530732 77.2710286,19.9559008 77.069317,20.5933357 C77.0231739,20.5854255 76.9793379,20.5791632 76.9358314,20.5748785 C76.8929842,20.5712529 76.8504666,20.5689458 76.8095969,20.5689458 C76.7723528,20.5689458 76.7324719,20.5712529 76.6902838,20.5748785 C76.6477662,20.5791632 76.6009638,20.5854255 76.5511951,20.5933357 C76.4345188,20.2070515 76.3102618,19.8125273 76.1764466,19.4097634 C76.042961,19.007329 75.8982692,18.594018 75.74336,18.1698304 C75.5933947,18.5515003 75.4473845,18.9443765 75.3046703,19.3487884 C75.161956,19.7528708 75.0225377,20.1678298 74.8854266,20.5933357 C74.839613,20.5854255 74.795777,20.5791632 74.7535889,20.5748785 C74.7110713,20.5712529 74.6705312,20.5689458 74.6309799,20.5689458 C74.5917582,20.5689458 74.5518773,20.5712529 74.5096893,20.5748785 C74.46849,20.5791632 74.4243244,20.5854255 74.3768629,20.5933357" id="Fill-21" fill="#4593D0"></path>
                <path d="M79.0423332,19.1555474 L79.8907084,19.1555474 C79.8907084,19.1374197 79.8916972,19.1153369 79.8933452,19.0879806 C79.8953227,19.0616131 79.8963115,19.043815 79.8963115,19.0359048 C79.8963115,18.809144 79.8630225,18.6380847 79.7967741,18.5220676 C79.7311849,18.40638 79.6332954,18.3487011 79.5047537,18.3487011 C79.3580844,18.3487011 79.2440448,18.4146199 79.1636239,18.5464575 C79.0825437,18.6786248 79.0423332,18.866823 79.0423332,19.1113818 L79.0423332,19.1555474 Z M79.0423332,19.4024134 C79.0423332,19.6911378 79.111548,19.9198761 79.2489887,20.0896171 C79.3870886,20.2593581 79.5723205,20.3437341 79.8053436,20.3437341 C79.9210311,20.3437341 80.0321043,20.3242881 80.137904,20.285396 C80.2440333,20.2461743 80.3465371,20.1865178 80.4460745,20.106756 L80.4948544,20.1433409 L80.3850996,20.4267919 C80.2802886,20.5002913 80.1583388,20.5566519 80.016943,20.5958736 C79.8758767,20.6347657 79.7226154,20.6545414 79.558148,20.6545414 C79.1685678,20.6545414 78.8636932,20.539513 78.6425356,20.3097859 C78.4220371,20.0797293 78.3116231,19.7620006 78.3116231,19.3559406 C78.3116231,18.9907504 78.4213779,18.6954341 78.6415468,18.4706509 C78.8613861,18.2455381 79.1527472,18.1331465 79.5149712,18.1331465 C79.8584082,18.1331465 80.1220835,18.2283992 80.3053378,18.4195638 C80.4892513,18.6103988 80.5808785,18.8839619 80.5808785,19.2412419 C80.5808785,19.2834299 80.5802193,19.3160597 80.5792305,19.3391313 C80.5785713,19.3615437 80.5769233,19.3819786 80.5752754,19.4001062 L79.0423332,19.4024134 Z" id="Fill-23" fill="#4593D0"></path>
                <path d="M82.2169506,19.275289 C81.9855755,19.3227505 81.8188009,19.3942724 81.715638,19.4905139 C81.6134638,19.5864258 81.5617175,19.7205706 81.5617175,19.8916299 C81.5617175,20.0350034 81.5877555,20.142451 81.6401609,20.2143025 C81.6922368,20.2858245 81.770021,20.3220798 81.8718656,20.3220798 C81.9829388,20.3220798 82.0683037,20.2821989 82.1279602,20.2021076 C82.1872871,20.1220162 82.2169506,20.0073174 82.2169506,19.8573521 L82.2169506,19.275289 Z M82.239363,20.2779142 C82.1671819,20.3985456 82.072918,20.4911616 81.9569009,20.5567508 C81.839895,20.6220104 81.7083869,20.6546403 81.5617175,20.6546403 C81.3514365,20.6546403 81.1863099,20.592347 81.0666672,20.4671012 C80.946695,20.3428442 80.8870384,20.1727737 80.8870384,19.9575487 C80.8870384,19.7993436 80.9292265,19.6688243 81.0142617,19.5663205 C81.0986378,19.4634872 81.2321234,19.3820774 81.4124114,19.3217617 C81.4707496,19.3023157 81.5557848,19.275289 81.6665285,19.2410112 C81.927567,19.1628974 82.106207,19.0910459 82.2024485,19.0257862 C82.2040964,19.016228 82.2050852,19.0050218 82.2064036,18.9931564 C82.2067332,18.9803022 82.2073924,18.9631634 82.2073924,18.9400918 C82.2073924,18.7884785 82.1638859,18.667847 82.0775323,18.578527 C81.990849,18.4885479 81.8764799,18.4440526 81.7327769,18.4440526 C81.6203853,18.4440526 81.5182111,18.4756937 81.4259248,18.5393053 C81.333968,18.602917 81.2486031,18.6998177 81.1704893,18.8300073 C81.1460994,18.7518935 81.125335,18.6892707 81.1091848,18.6418091 C81.0927051,18.5946772 81.076555,18.5508411 81.0600753,18.5099715 C81.2083927,18.3811002 81.3553916,18.2855179 81.500413,18.2225654 C81.6454344,18.1599425 81.7967181,18.1286311 81.9529457,18.1286311 C82.2528764,18.1286311 82.4835922,18.1975163 82.643775,18.3362754 C82.8046169,18.4747049 82.8847082,18.6731205 82.8847082,18.9305335 L82.8847082,18.9549235 L82.8695469,19.8280183 L82.8695469,19.923271 C82.8695469,20.1269601 82.8926185,20.257809 82.9374433,20.3154879 C82.9822681,20.3738261 83.0696105,20.4025008 83.2001298,20.4025008 L83.2146319,20.4025008 L83.2146319,20.5274169 C83.1302558,20.5630131 83.0419246,20.5903694 82.9509566,20.6091563 C82.8593295,20.6279431 82.7719871,20.6375014 82.6895885,20.6375014 C82.5679683,20.6375014 82.4700789,20.6068491 82.3929538,20.5455446 C82.316488,20.4845697 82.2650713,20.3952497 82.239363,20.2779142 L82.239363,20.2779142 Z" id="Fill-25" fill="#4593D0"></path>
                <path d="M83.5543116,20.5933357 C83.5668362,20.3115328 83.576724,20.0172053 83.5839751,19.7103532 C83.5895782,19.4041603 83.5935333,19.0758845 83.5935333,18.7251964 C83.5935333,18.3534143 83.5895782,18.0139324 83.5839751,17.7067507 C83.576724,17.399569 83.5668362,17.1095262 83.5543116,16.8372814 C83.6337438,16.8504652 83.7022994,16.8593642 83.7599783,16.8643081 C83.8163389,16.8689225 83.8717107,16.8715592 83.9260937,16.8715592 C83.979488,16.8715592 84.0365078,16.8685929 84.0968235,16.8629898 C84.1571392,16.8573867 84.2250356,16.8488172 84.300183,16.8372814 C84.2869993,17.119414 84.2771115,17.4137415 84.2705196,17.7199344 C84.2639277,18.0264569 84.2609613,18.3550622 84.2609613,18.7054208 C84.2609613,19.0772029 84.2639277,19.4170144 84.2705196,19.7238665 C84.2771115,20.0313778 84.2869993,20.321091 84.300183,20.5933357 C84.2448112,20.5821295 84.1858139,20.5732305 84.1241798,20.567957 C84.0618865,20.5620243 83.9972861,20.559058 83.9307081,20.559058 C83.8634709,20.559058 83.7995296,20.5620243 83.7375659,20.567957 C83.6756022,20.5732305 83.6142977,20.5821295 83.5543116,20.5933357" id="Fill-27" fill="#4593D0"></path>
                <path d="M84.9872549,18.4780338 L84.8966165,18.4780338 C84.8297089,18.4780338 84.779281,18.478693 84.7440145,18.4796818 C84.7090775,18.480341 84.6771068,18.4813297 84.647773,18.4829777 C84.6507393,18.4651796 84.6523873,18.4480407 84.6537057,18.431561 C84.6540353,18.4154109 84.6546945,18.3890434 84.6546945,18.3534472 C84.6546945,18.3178511 84.6537057,18.2904948 84.6520577,18.2713783 C84.6507393,18.2525914 84.6490914,18.2361117 84.647773,18.2216096 C84.6537057,18.2232576 84.6635935,18.2245759 84.6771068,18.2262239 C84.7954311,18.2377597 84.8804664,18.2433628 84.9312239,18.2433628 L84.9872549,18.2407261 C84.9892325,18.2179841 84.9902212,18.1939237 84.99121,18.1675562 C84.9918692,18.1415182 84.9925284,18.1013077 84.9925284,18.0475839 C84.9925284,17.9826539 84.9908804,17.9131095 84.9872549,17.8399396 C84.983959,17.7664401 84.9793446,17.6751426 84.9727528,17.5660469 C85.0884403,17.5222109 85.2024798,17.4754086 85.3148714,17.4269582 C85.4275926,17.3778487 85.5366883,17.3274208 85.6428175,17.2750154 L85.6965414,17.3168738 C85.6866536,17.5073792 85.6794025,17.6669027 85.6747882,17.7947852 C85.6691851,17.9226677 85.6672075,18.019898 85.6672075,18.0868056 L85.6672075,18.2433628 C85.7585051,18.2433628 85.8438699,18.2417148 85.9226429,18.2384189 C86.0017455,18.2354525 86.0788705,18.230179 86.154018,18.2239168 C86.1484149,18.2614905 86.1461077,18.2881876 86.1454485,18.3046673 C86.1444598,18.3208174 86.1444598,18.3369675 86.1444598,18.3534472 C86.1444598,18.3811331 86.1464373,18.4193661 86.1513812,18.4684756 C86.1546772,18.4747379 86.1553364,18.4796818 86.154018,18.4829777 C86.1144667,18.4813297 86.0627204,18.480341 85.9991088,18.4796818 C85.9351675,18.478693 85.8214575,18.4780338 85.6573197,18.4780338 C85.6573197,18.5024238 85.6563309,18.5409863 85.6550125,18.5937213 C85.6431471,18.9388063 85.6378736,19.1853427 85.6378736,19.3326713 L85.6378736,19.5337237 C85.6378736,19.916712 85.6563309,20.1540198 85.6945638,20.2453173 C85.7314784,20.3372741 85.8043187,20.3830877 85.9117663,20.3830877 C85.9654902,20.3830877 86.0617316,20.3652896 86.2004908,20.3290342 L86.2027979,20.3267271 L86.2027979,20.5126182 C86.0930431,20.5613981 85.9921873,20.5976534 85.898253,20.6200658 C85.8046483,20.6431374 85.7143395,20.6546732 85.6279858,20.6546732 C85.4144088,20.6546732 85.2515894,20.5976534 85.1388682,20.4842731 C85.0264766,20.3702335 84.9704456,20.2054365 84.9704456,19.9895523 C84.9704456,19.9816421 84.9730823,19.8389278 84.9786854,19.5614096 C84.9846181,19.284221 84.9872549,19.011317 84.9872549,18.743357 L84.9872549,18.4780338 Z" id="Fill-29" fill="#4593D0"></path>
                <path d="M86.5235589,20.5933357 C86.5377314,20.4173325 86.5479489,20.1994708 86.5542111,19.9390915 C86.5594846,19.6793713 86.5627806,19.3029749 86.5627806,18.8108909 C86.5627806,18.2891434 86.5594846,17.8820947 86.5542111,17.5904039 C86.5479489,17.2987132 86.5377314,17.0475625 86.5235589,16.8372814 C86.5921145,16.8504652 86.6553965,16.8600234 86.7153827,16.8666153 C86.7747096,16.8732072 86.8323886,16.8765031 86.8874308,16.8765031 C86.9464281,16.8765031 87.0057551,16.8732072 87.0660708,16.8666153 C87.1263865,16.8600234 87.189339,16.8504652 87.2545986,16.8372814 C87.2381189,16.9743926 87.2255943,17.1210619 87.2166953,17.2772895 C87.2077962,17.4338467 87.2031819,17.6029285 87.2031819,17.7838757 L87.2031819,18.5613881 C87.2941499,18.422629 87.4045639,18.3191365 87.5331056,18.2495921 C87.6619769,18.1803774 87.8093055,18.1454404 87.9754209,18.1454404 C88.0960523,18.1454404 88.2071255,18.1665344 88.3069925,18.2077337 C88.4075187,18.2495921 88.4918948,18.3102374 88.5604504,18.3899992 C88.6187886,18.4569068 88.6599878,18.5402941 88.6853666,18.6395019 C88.7090973,18.7390394 88.7216219,18.8995517 88.7216219,19.1210389 C88.7216219,19.1539983 88.7206331,19.2396928 88.7189852,19.3791111 C88.7173372,19.5185294 88.716678,19.6411384 88.716678,19.7472677 C88.716678,19.9315108 88.7189852,20.0903752 88.7245883,20.222872 C88.7285434,20.3556984 88.7364537,20.4789666 88.7460119,20.5933357 C88.6777859,20.5854255 88.6125263,20.5791632 88.550233,20.5748785 C88.4885989,20.5712529 88.4309199,20.5689458 88.3765369,20.5689458 C88.3195171,20.5689458 88.261179,20.5712529 88.2021816,20.5748785 C88.1421955,20.5791632 88.0779246,20.5854255 88.0077211,20.5933357 C88.0189273,20.4512807 88.0274968,20.2821989 88.0344182,20.0847721 C88.0410101,19.8873452 88.0439765,19.6681651 88.0439765,19.4269022 C88.0439765,19.06336 88.0156314,18.828689 87.9586116,18.723878 C87.9019214,18.6187375 87.7971105,18.5663321 87.6458268,18.5663321 C87.4938839,18.5663321 87.3854475,18.6289549 87.319199,18.7545303 C87.2536098,18.8801056 87.2203208,19.091705 87.2203208,19.3903173 C87.2203208,19.5465449 87.2229576,19.7268329 87.2288903,19.930522 C87.2341638,20.1342112 87.242074,20.3553688 87.2519618,20.5933357 C87.1867022,20.5854255 87.1240793,20.5791632 87.0637636,20.5748785 C87.0034479,20.5712529 86.9447801,20.5689458 86.8874308,20.5689458 C86.8323886,20.5689458 86.77438,20.5712529 86.7137347,20.5748785 C86.6537486,20.5791632 86.5898073,20.5854255 86.5235589,20.5933357" id="Fill-31" fill="#4593D0"></path>
                <path d="M49.4792919,13.6216626 C49.2261636,13.3335973 48.9539189,13.1605604 48.8088975,13.0824466 C48.7739605,13.0669557 48.7400124,13.0501464 48.7060642,13.0307003 L48.7040866,13.0300412 L48.7047458,13.0300412 C48.5419263,12.9374252 48.3889946,12.8121795 48.2090363,12.7653771 C47.9374507,12.6951735 47.6470783,12.7291217 47.372856,12.6707836 C46.9869014,12.5887147 46.6029242,12.4924732 46.2130144,12.4328166 C45.7262039,12.3576692 45.2215954,12.3382231 44.7453319,12.4806078 C44.5304366,12.544549 44.2736828,12.6292547 44.1181143,12.7999845 C43.9889135,12.9417099 43.9915502,13.1088141 43.9513397,13.2844878 C43.9131068,13.449944 43.8916832,13.6177074 43.8900352,13.7874484 C43.8844321,14.4176323 44.1280022,15.0415539 44.4401278,15.5787923 C44.6075616,15.8668575 44.8033405,16.1381135 45.0202134,16.3915713 C45.2182994,16.6236056 45.4516521,16.9304577 45.7070875,17.1011874 C45.9579086,17.2689508 46.1302863,17.3892527 46.2888211,17.6460065 C46.4002239,17.8262944 46.4134076,17.8796887 46.6246774,17.9607688 C46.9694329,18.0932657 47.3619794,18.0899697 47.7258513,18.1160076 C48.2014556,18.1499558 48.7156224,18.1581957 49.1869419,18.0744788 C49.5448811,18.0105375 49.6134367,17.7574093 49.9047979,17.5876683 C50.1780314,17.4284744 50.3158017,17.4024364 50.4420363,17.1011874 C51.0095973,15.7468853 50.3095394,14.5959427 49.4792919,13.6216626" id="Fill-33" fill="#4593D0"></path>
                <path d="M59.1575918,7.89849179 C59.0854107,7.52868722 58.878096,6.74425327 58.6885794,6.23931511 L58.9773039,6.0949529 C59.3471084,6.50068323 59.7347111,7.20436663 59.897201,7.61866641 L59.1575918,7.89849179 Z M58.0485077,13.4168857 L58.9232504,13.4168857 L58.9232504,11.8572465 L58.0485077,11.8572465 L58.0485077,13.4168857 Z M58.0485077,11.4515161 L58.9232504,11.4515161 L58.9232504,10.0448085 L58.0485077,10.0448085 L58.0485077,11.4515161 Z M58.0485077,9.63874862 L58.9232504,9.63874862 L58.9232504,8.43045666 L58.0485077,8.43045666 L58.0485077,9.63874862 Z M57.0386314,7.60976737 L53.1520578,7.60976737 L53.1520578,7.20436663 L55.1629114,7.20436663 C54.8385908,6.86158877 54.513611,6.58209297 54.1711627,6.30226759 L54.2973973,6.02310139 C54.8023354,6.16713401 55.4153805,6.42850213 55.7940841,6.69909888 L55.4335081,7.20436663 L57.0386314,7.20436663 L57.0386314,7.60976737 Z M53.2512656,10.4231826 L53.0080252,10.2158679 C53.4315536,9.53064176 53.7473047,8.54779216 53.909465,7.67271984 L54.6398455,7.84443836 C54.5946912,8.06988072 54.4954833,8.33124884 54.3784774,8.61074463 C54.7212553,8.84508604 55.0185492,9.09788471 55.2443211,9.35925283 L54.7301543,9.84606331 C54.5857921,9.55766847 54.4144032,9.25114596 54.2252162,8.95352249 C53.9546194,9.50361504 53.5940435,10.0626066 53.2512656,10.4231826 L53.2512656,10.4231826 Z M61.0784662,13.4168857 L61.0784662,13.8318447 L58.0485077,13.8318447 L58.0485077,14.5170708 L57.2551747,14.5170708 L57.2640737,9.79200987 C57.1378392,9.99042552 57.0116047,10.1888412 56.8761415,10.3691291 L56.624002,10.1799421 C56.7321089,9.95417017 56.8309871,9.73795644 56.9123968,9.51251408 L56.4885388,9.90011674 C56.3530757,9.62095054 56.1909154,9.32299748 55.9924997,9.04383128 C55.8303394,9.38627954 55.6226951,9.71982877 55.4064814,10.0177818 L55.5597427,10.0177818 L55.5597427,10.8651683 L57.0567591,10.8651683 L57.0567591,11.2708986 L55.5597427,11.2708986 L55.5597427,11.5955488 C56.1009362,11.9020713 56.6147734,12.2174928 56.9938066,12.5783984 L56.4615121,13.1736453 C56.209043,12.7946121 55.8303394,12.344057 55.5597427,12.0283058 L55.5597427,14.5711243 L54.7842078,14.5711243 L54.7842078,12.2085938 C54.4414299,12.7227606 53.8372839,13.4261144 53.0980044,13.9580792 L52.9084878,13.6967111 C53.5581177,13.0474108 54.1711627,12.2537482 54.5946912,11.2708986 L53.107233,11.2708986 L53.107233,10.8651683 L54.7842078,10.8651683 L54.7842078,10.0177818 L55.0185492,10.0177818 C55.3883537,9.35002419 55.5778703,8.52966449 55.6767486,7.70930478 L56.4074587,7.88959275 C56.3623043,8.1328332 56.2719955,8.39453091 56.1638886,8.6740267 C56.4796398,8.88134139 56.7680346,9.10678375 56.9756789,9.35002419 C57.2911005,8.43045666 57.3992073,7.45650611 57.5343409,6.14010729 L58.3550302,6.30226759 C58.3009768,6.89751452 58.1928699,7.47463379 58.03038,8.02472633 L60.9611307,8.02472633 L60.9611307,8.43045666 L59.6987853,8.43045666 L59.6987853,9.63874862 L60.7356884,9.63874862 L60.7356884,10.0448085 L59.6987853,10.0448085 L59.6987853,11.4511866 L60.7445874,11.4511866 L60.7445874,11.8572465 L59.6987853,11.8572465 L59.6987853,13.4168857 L61.0784662,13.4168857 Z" id="Fill-35" fill="#4593D0"></path>
                <path d="M70.4365325,12.9663306 L69.7239501,13.3176779 C69.4985077,12.596526 69.2641663,11.9742524 68.9665428,11.3612074 L69.2193415,11.1898184 C69.7239501,11.7125547 70.138909,12.3167006 70.4365325,12.9663306 L70.4365325,12.9663306 Z M67.2440841,10.0718353 C67.6860698,10.2610223 68.5067591,10.711907 68.8495369,11.0635839 L68.3172425,11.6677299 C68.0014913,11.2708986 67.4336007,10.6667526 67.0819238,10.3332034 L67.2440841,10.0718353 Z M69.0116972,12.2718759 C69.4266562,13.7507646 69.4985077,14.3278838 68.0921297,14.3278838 C66.7754013,14.3278838 66.5951133,14.228676 66.5951133,13.2547254 L66.5951133,10.9103226 L67.3884463,10.9103226 L67.3884463,13.1103632 C67.3884463,13.4709392 67.469856,13.5886043 68.0380763,13.5886043 C68.687047,13.5886043 68.6962757,13.4709392 68.687047,12.2718759 L69.0116972,12.2718759 Z M67.406574,8.07877976 L65.5489817,8.07877976 L65.5489817,7.67271984 L67.406574,7.67271984 L67.406574,6.15823497 L68.2183642,6.15823497 L68.2183642,7.67271984 L70.1118823,7.67271984 L70.1118823,8.07877976 L68.2183642,8.07877976 L68.2183642,9.63874862 L69.9945468,9.63874862 L69.9945468,10.0448085 L65.7384983,10.0448085 L65.7384983,9.63874862 L67.406574,9.63874862 L67.406574,8.07877976 Z M63.3486115,13.4620401 L64.3766155,13.4620401 L64.3766155,11.8209911 L63.3486115,11.8209911 L63.3486115,13.4620401 Z M66.0357921,11.3882341 L66.3515433,11.4511866 C66.2974898,12.407339 66.0898456,13.200672 65.6752162,13.7507646 L65.0710702,13.2998798 L65.0710702,14.3908363 L64.3858441,14.3908363 L64.3858441,13.8588714 L63.3486115,13.8588714 L63.3486115,14.5170708 L62.6452577,14.5170708 L62.6452577,11.4241598 L65.0710702,11.4241598 L65.0710702,13.2095711 C65.530854,12.7405587 65.8828605,12.1996947 66.0357921,11.3882341 L66.0357921,11.3882341 Z M62.6185605,10.5494171 L65.15248,10.5494171 L65.15248,10.1710431 L62.6185605,10.1710431 L62.6185605,10.5494171 Z M62.618231,9.3048698 L65.1521504,9.3048698 L65.1521504,8.92649578 L62.618231,8.92649578 L62.618231,9.3048698 Z M65.3597946,8.07877976 L62.3568628,8.07877976 L62.3568628,7.67271984 L63.7365437,7.67271984 C63.4392498,7.15921224 63.105371,6.60022065 62.8980563,6.30226759 L63.1234987,6.07715482 C63.5473567,6.35632102 64.1422741,6.84346109 64.511749,7.31247349 L64.0433958,7.67271984 L65.3597946,7.67271984 L65.3597946,8.07877976 Z" id="Fill-37" fill="#4593D0"></path>
                <polygon id="Fill-39" fill="#4593D0" points="78.9828085 10.7209708 78.9828085 14.508007 78.1713479 14.508007 78.1713479 13.723573 73.1845892 13.723573 73.1845892 14.5261347 72.3727989 14.5261347 72.3727989 10.7209708 73.1845892 10.7209708 73.1845892 13.290816 75.2405972 13.290816 75.2405972 10.0083884 72.7696302 10.0083884 72.7696302 6.95140316 73.5632928 6.95140316 73.5632928 9.57563135 75.2405972 9.57563135 75.2405972 6.2121236 76.0883132 6.2121236 76.0883132 9.57563135 77.7834156 9.57563135 77.7834156 6.95140316 78.5770782 6.95140316 78.5770782 10.0083884 76.0883132 10.0083884 76.0883132 13.290816 78.1713479 13.290816 78.1713479 10.7209708"></polygon>
                <g id="Group-43" transform="translate(80.750554, 5.901185)">
                    <mask id="mask-6" fill="white">
                        <use xlink:href="#path-5"></use>
                    </mask>
                    <g id="Clip-42"></g>
                    <path d="M8.30290375,7.75040517 L7.72578449,8.63404694 C7.31082552,8.41750362 6.63449844,7.99364561 6.03958109,7.09220576 C5.42620648,7.8044586 4.67802788,8.30939675 3.85733858,8.66997269 L3.69517829,8.3904769 C4.56069238,7.89443779 5.21922139,7.24546701 5.70570227,6.49695882 C5.31809962,5.71219528 5.00234847,4.64826554 4.89424161,3.21453122 L5.22812043,3.22375985 C5.35435497,4.37799838 5.66977652,5.2253848 6.06660781,5.86578613 C6.4634391,5.0632245 6.70667954,4.16145506 6.84181312,3.21453122 L4.74098035,3.21453122 L4.74098035,3.37669151 C4.74098035,5.59518937 4.47928264,7.41652635 3.38832618,8.3904769 L3.31614508,8.32752443 L3.31614508,8.57999351 L2.55873785,8.57999351 L2.55873785,4.97291572 L1.51260618,4.97291572 C1.39560028,7.20921166 0.86363541,8.21051852 0.421649727,8.72402613 L0.160281609,8.53483911 C0.647092089,7.56088856 0.746299911,6.30744221 0.746299911,3.59356443 L0.746299911,0.301908192 L1.5396329,0.301908192 L1.5396329,2.98018982 L2.40547659,2.98018982 L2.40547659,0.401116015 L3.14508574,0.401116015 L3.14508574,2.98018982 L3.68594965,2.98018982 L3.68594965,3.38592015 L1.5396329,3.38592015 L1.5396329,3.96303941 C1.5396329,4.17068369 1.5396329,4.37799838 1.53073386,4.56718539 L3.31614508,4.56718539 L3.31614508,7.97584753 C3.70407733,7.3354462 3.9291901,6.1182552 3.9291901,3.62949018 L3.9291901,0.797947306 L4.69615556,1.01449063 C5.57056869,0.897155129 6.4634391,0.608430701 7.20271866,0.193801328 L7.9149715,0.933080886 C6.89586655,1.17665092 5.81413873,1.3121141 4.74098035,1.34803985 L4.74098035,2.80880089 L6.79698832,2.80880089 L6.97760589,2.66443867 L7.77093888,2.94393446 C7.52736884,4.43205181 7.09461179,5.5770617 6.50859349,6.4699321 C7.13053755,7.18218494 7.84279039,7.52463321 8.30290375,7.75040517" id="Fill-41" fill="#4593D0" mask="url(#mask-6)"></path>
                </g>
                <path d="M53.0826123,26.1787362 C53.1231524,25.9242895 53.1577598,25.7057686 53.1864345,25.5238327 C53.2157683,25.3415672 53.2352144,25.2117071 53.2447726,25.1345821 L53.561183,22.7967712 C53.5938128,22.803363 53.6267722,22.8079774 53.6617092,22.8112733 C53.6963165,22.8145692 53.7338903,22.8162172 53.7741007,22.8162172 C53.8143112,22.8162172 53.8525441,22.8145692 53.8887995,22.8112733 C53.9253844,22.8079774 53.9603214,22.803363 53.9942696,22.7967712 C54.1715912,23.1916249 54.3555047,23.5812051 54.5463397,23.9655118 C54.7375043,24.3501481 54.934272,24.7314885 55.1373019,25.1105217 C55.3324216,24.7443427 55.5242454,24.368935 55.7127732,23.9839691 C55.901301,23.5986736 56.0858737,23.2031607 56.2661617,22.7967712 C56.3017579,22.803363 56.3380132,22.8079774 56.3749277,22.8112733 C56.4121719,22.8145692 56.4517232,22.8162172 56.4935816,22.8162172 C56.5354401,22.8162172 56.575321,22.8145692 56.6132243,22.8112733 C56.6511276,22.8079774 56.6870534,22.803363 56.720672,22.7967712 L57.0034637,25.1635864 C57.0341159,25.4252841 57.0614723,25.6306212 57.0858622,25.7802569 C57.1099226,25.929563 57.1349717,26.0623895 57.1606801,26.1787362 C57.0802591,26.1718147 57.0054413,26.165882 56.9368857,26.1612677 C56.8686597,26.156983 56.8030705,26.1546758 56.740118,26.1546758 C56.6771655,26.1546758 56.6115763,26.1566534 56.5430207,26.1606085 C56.4744652,26.1645636 56.403932,26.1708259 56.3314213,26.1787362 C56.330103,26.16753 56.328455,26.1503911 56.326807,26.1279787 C56.3123049,25.7815753 56.3001099,25.5673391 56.2902221,25.4852702 L56.1310281,23.9061849 C55.9457962,24.2611577 55.7602348,24.6260184 55.5750029,25.0017557 C55.389771,25.3768337 55.2002544,25.7693803 55.0071123,26.1787362 C54.9955765,26.1754402 54.9833815,26.1731331 54.9695385,26.1714851 C54.9560252,26.1701667 54.9336128,26.1691779 54.9029605,26.1691779 C54.8752746,26.1691779 54.855499,26.1701667 54.8426448,26.1714851 C54.8297906,26.1731331 54.8175956,26.1754402 54.8060599,26.1787362 C54.6142361,25.7756426 54.426697,25.3916655 54.2431131,25.0268048 C54.0595292,24.6616146 53.8789117,24.3152112 53.70159,23.9862763 L53.5832658,25.013621 L53.5783218,25.0521836 C53.5186653,25.5857964 53.4880131,25.9612041 53.4866947,26.1787362 C53.449121,26.1708259 53.4138544,26.1645636 53.3799062,26.1606085 C53.3462876,26.1566534 53.3146466,26.1546758 53.2856423,26.1546758 C53.2536717,26.1546758 53.2213714,26.1566534 53.1890712,26.1606085 C53.1571006,26.1645636 53.1215044,26.1708259 53.0826123,26.1787362" id="Fill-44" fill="#4593D0"></path>
                <path d="M58.892697,24.8758178 C58.6639587,24.9226201 58.4988321,24.9934828 58.3973171,25.0887355 C58.2954725,25.1836586 58.2450446,25.3158259 58.2450446,25.4852372 C58.2450446,25.6266331 58.270753,25.7334216 58.3224993,25.8039547 C58.3739159,25.8748175 58.4503818,25.9104136 58.5522263,25.9104136 C58.6616516,25.9104136 58.7460277,25.8711919 58.8043658,25.7917597 C58.8633632,25.7129868 58.892697,25.5992768 58.892697,25.4509595 L58.892697,24.8758178 Z M58.9144503,25.8669072 C58.8439171,25.9862203 58.750642,26.0778474 58.6356137,26.1424479 C58.5202557,26.2070483 58.3900661,26.2393485 58.2450446,26.2393485 C58.0370708,26.2393485 57.8739217,26.1773848 57.7555974,26.0541166 C57.6369435,25.9308485 57.5779462,25.7627555 57.5779462,25.5501673 C57.5779462,25.3939397 57.6198046,25.2650684 57.7035215,25.1635534 C57.7872385,25.0617088 57.9187465,24.9812879 58.0977161,24.9219609 C58.1557246,24.9025149 58.2394415,24.8758178 58.3491964,24.8418696 C58.606939,24.7647445 58.7832718,24.6935522 58.8781949,24.6292814 C58.8798429,24.6197231 58.8811613,24.6085169 58.88215,24.5966516 C58.8828092,24.5844566 58.8831388,24.5669881 58.8831388,24.5445757 C58.8831388,24.39494 58.8406212,24.2756269 58.7549267,24.1869661 C58.6695618,24.0983053 58.5561815,24.0541397 58.4141264,24.0541397 C58.3030532,24.0541397 58.2018678,24.0854511 58.1108999,24.148074 C58.0199319,24.2110265 57.9355558,24.3069383 57.8581012,24.4358096 C57.8340408,24.3586846 57.8139356,24.2963913 57.7977855,24.2499186 C57.7816354,24.2031162 57.7654852,24.1596098 57.7493351,24.1190697 C57.8963341,23.9918464 58.0410259,23.8972529 58.1847289,23.8352892 C58.3281024,23.7729959 58.4770789,23.7423437 58.6316585,23.7423437 C58.9282932,23.7423437 59.1560427,23.8108992 59.3145775,23.9476808 C59.4734418,24.0847919 59.552874,24.2802412 59.552874,24.5350175 L59.552874,24.5590778 L59.5383719,25.4219552 L59.5383719,25.5162191 C59.5383719,25.7179307 59.5601251,25.8471316 59.6046203,25.9044809 C59.6491155,25.9615007 59.7357987,25.9901754 59.86467,25.9901754 L59.8791722,25.9901754 L59.8791722,26.1134436 C59.7951257,26.1487102 59.7084424,26.1757369 59.6181337,26.1945237 C59.5278249,26.212981 59.4414712,26.2222096 59.3594023,26.2222096 C59.2400892,26.2222096 59.1425294,26.191887 59.0667227,26.1319009 C58.9912457,26.0712555 58.9404882,25.9829243 58.9144503,25.8669072 L58.9144503,25.8669072 Z" id="Fill-46" fill="#4593D0"></path>
                <path d="M60.8277769,24.5301395 C60.8277769,24.7331694 60.8574404,24.882146 60.9164378,24.9770691 C60.9747759,25.0726514 61.068051,25.1201129 61.1952744,25.1201129 C61.3274416,25.1201129 61.4226943,25.0700146 61.4803733,24.9701476 C61.5383818,24.8702806 61.5673861,24.7048243 61.5673861,24.4744381 C61.5673861,24.2957981 61.5380522,24.1629716 61.4793845,24.0756292 C61.4207167,23.9886164 61.3304079,23.9454395 61.2097765,23.9454395 C61.0888155,23.9454395 60.9952107,23.9958674 60.9283031,24.097712 C60.8613955,24.1988974 60.8277769,24.3432596 60.8277769,24.5301395 L60.8277769,24.5301395 Z M60.8277769,26.3214834 C60.747356,26.3633418 60.6844035,26.4229984 60.6395787,26.500453 C60.5940947,26.577578 60.5716823,26.6655796 60.5716823,26.7634691 C60.5716823,26.9328804 60.6287021,27.0683436 60.7420825,27.1698586 C60.8557924,27.2713736 61.0083945,27.3221311 61.2002183,27.3221311 C61.4243423,27.3221311 61.6000159,27.2763175 61.7272392,27.1843607 C61.8544626,27.092404 61.9180742,26.9651806 61.9180742,26.8026908 C61.9180742,26.6556918 61.8765454,26.5465961 61.7938172,26.4747446 C61.7107595,26.4032227 61.5785923,26.3626826 61.3983043,26.3527948 L60.8277769,26.3214834 Z M60.6102448,26.2924791 L60.6148592,26.253587 C60.5153217,26.2232643 60.4372079,26.1738252 60.3818361,26.1062584 C60.3264643,26.0383621 60.2987784,25.9572819 60.2987784,25.8620292 C60.2987784,25.750956 60.3409665,25.647793 60.4266609,25.5528699 C60.5120258,25.4576173 60.6346348,25.3762075 60.7938288,25.3083111 L60.7938288,25.248325 C60.5828885,25.206137 60.4236946,25.1260456 60.3165765,25.0073917 C60.2094584,24.8890674 60.1560642,24.7348174 60.1560642,24.5446416 C60.1560642,24.3043675 60.2480209,24.111555 60.4325936,23.9655448 C60.6171663,23.8198642 60.8646915,23.7470239 61.1761579,23.7470239 C61.2051622,23.7470239 61.3152466,23.7539454 61.5060816,23.7677883 C61.6969166,23.7813017 61.8739086,23.7878936 62.0363985,23.7878936 C62.1026469,23.7878936 62.1725209,23.7869048 62.2470091,23.784268 C62.3208382,23.7819609 62.3992816,23.7783353 62.4813505,23.7733914 L62.4813505,24.0153135 C62.3798355,24.0103696 62.2420652,24.0047665 62.0680395,23.9985042 C62.0324434,23.9968562 62.0073942,23.9958674 61.9928921,23.9958674 C62.0785865,24.0509097 62.1425278,24.1201244 62.1850454,24.2038413 C62.2278927,24.2878878 62.2489867,24.386766 62.2489867,24.5011352 C62.2489867,24.7572298 62.1514268,24.957623 61.9556479,25.1016556 C61.759869,25.2460178 61.4863059,25.318199 61.1349586,25.318199 L61.050253,25.318199 C60.9856525,25.3244612 60.9332471,25.3495104 60.8930366,25.3930168 C60.8528261,25.4365232 60.8327209,25.4905767 60.8327209,25.5548475 C60.8327209,25.7048128 61.0673919,25.7885297 61.5360747,25.8063278 L61.5624422,25.8063278 C61.5772739,25.8079758 61.5973792,25.8099533 61.6230875,25.8112717 C61.9243365,25.8261035 62.118797,25.8570853 62.2058099,25.9055356 C62.3056769,25.9638738 62.3818131,26.0426468 62.4342186,26.1425138 C62.486624,26.2423808 62.512662,26.3583979 62.512662,26.4905652 C62.512662,26.7951101 62.386757,27.0446128 62.1356063,27.2387437 C61.884126,27.4328747 61.5578279,27.5301049 61.1567119,27.5301049 C60.826129,27.5301049 60.5683864,27.4734147 60.3831545,27.3597048 C60.1979226,27.2459948 60.1053067,27.0900968 60.1053067,26.8916812 C60.1053067,26.7469894 60.1471651,26.6250395 60.2305524,26.5268205 C60.3145989,26.4286015 60.4411631,26.3501581 60.6102448,26.2924791 L60.6102448,26.2924791 Z" id="Fill-48" fill="#4593D0"></path>
                <path d="M63.0303225,25.8330579 C63.0303225,25.7203367 63.0685554,25.6260728 63.1456804,25.5502662 C63.2221462,25.4744595 63.3180581,25.4365562 63.4327568,25.4365562 C63.5458076,25.4365562 63.6410603,25.4744595 63.7175261,25.5502662 C63.7943216,25.6260728 63.8328841,25.7203367 63.8328841,25.8330579 C63.8328841,25.9444607 63.7933328,26.0397134 63.715219,26.1194752 C63.6367756,26.1992369 63.5428413,26.2391178 63.4327568,26.2391178 C63.321354,26.2391178 63.2264309,26.1992369 63.1476579,26.1194752 C63.0695441,26.0397134 63.0303225,25.9444607 63.0303225,25.8330579" id="Fill-50" fill="#4593D0"></path>
                <path d="M66.5122863,24.4454667 C66.7749728,24.4454667 66.9641598,24.3877878 67.0805065,24.2727594 C67.1961941,24.1574015 67.2545322,23.9695329 67.2545322,23.7084943 C67.2545322,23.4939286 67.208389,23.3340755 67.1167619,23.2286053 C67.0248051,23.1228056 66.8847276,23.0700706 66.6961998,23.0700706 C66.6655476,23.0700706 66.6184156,23.0723777 66.5557927,23.0773217 C66.5492009,23.0789696 66.5445865,23.0796288 66.5412906,23.0796288 C66.5317324,23.1715856 66.5244813,23.2632127 66.5195374,23.3538511 C66.5149231,23.4451487 66.5122863,23.5364462 66.5122863,23.628403 L66.5122863,24.4454667 Z M65.74598,26.1788021 C65.7650965,25.9563261 65.7795986,25.7134152 65.7894865,25.4500695 C65.7993743,25.1863943 65.8043182,24.8670176 65.8043182,24.4916099 C65.8043182,24.143229 65.7993743,23.8311034 65.7894865,23.5549035 C65.7795986,23.2783741 65.7650965,23.0255754 65.74598,22.7968371 C65.805307,22.803429 65.8639747,22.8080433 65.9213241,22.8113392 C65.9783439,22.8146352 66.0353637,22.8162831 66.0917243,22.8162831 C66.1596206,22.8162831 66.2842072,22.8129872 66.4661431,22.8063953 C66.6484087,22.800133 66.7973852,22.7968371 66.9137319,22.7968371 C67.3019938,22.7968371 67.5864335,22.868359 67.767051,23.0107436 C67.947339,23.1534579 68.0376478,23.3779115 68.0376478,23.6841044 C68.0376478,24.0338037 67.9255858,24.2935239 67.7014618,24.463924 C67.4776674,24.633665 67.1362079,24.7187003 66.6767538,24.7187003 C66.6573077,24.7187003 66.6292922,24.7177115 66.5933665,24.7160635 C66.5571111,24.7144155 66.5300844,24.7137563 66.5122863,24.7137563 L66.5122863,25.4411705 C66.5122863,25.4820402 66.5162414,25.5565284 66.5244813,25.6662833 C66.5327212,25.7757085 66.5462345,25.9467679 66.565351,26.1788021 C66.4882259,26.1705622 66.4157152,26.1646295 66.3478189,26.1606744 C66.2802521,26.1563897 66.2143333,26.1547417 66.1494032,26.1547417 C66.0867803,26.1547417 66.0225095,26.1563897 65.9562611,26.1606744 C65.8900127,26.1646295 65.8201387,26.1705622 65.74598,26.1788021 L65.74598,26.1788021 Z" id="Fill-52" fill="#4593D0"></path>
                <path d="M70.6956264,23.8123494 C70.6860682,24.0101059 70.6784875,24.2072032 70.6738732,24.40463 C70.6689293,24.6017273 70.6666221,24.7971766 70.6666221,24.9919667 C70.6666221,25.1897232 70.6689293,25.3874796 70.6738732,25.5852361 C70.6784875,25.7829925 70.6860682,25.980749 70.6956264,26.1788351 C70.6326739,26.1705952 70.573347,26.1646625 70.5179752,26.1607074 C70.4622738,26.1564227 70.4095387,26.1544451 70.3594404,26.1544451 C70.3076942,26.1544451 70.2539703,26.1564227 70.1976097,26.1607074 C70.1409196,26.1646625 70.0815926,26.1705952 70.0186401,26.1788351 L70.0186401,25.8426491 C69.9121813,25.9751459 69.7981417,26.071717 69.6765215,26.1340103 C69.5549013,26.1959739 69.4158125,26.2269558 69.2599145,26.2269558 C69.0051383,26.2269558 68.8195768,26.1554339 68.7025709,26.01239 C68.5858946,25.8690166 68.5272269,25.6396191 68.5272269,25.3241976 L68.5272269,25.0519528 C68.5272269,24.865073 68.5249197,24.6692941 68.5199758,24.4632978 C68.5153615,24.2576311 68.5077808,24.0404286 68.4982226,23.8123494 C68.5529352,23.8189413 68.6109438,23.8235556 68.6722483,23.8268516 C68.7335528,23.8301475 68.7988124,23.8317955 68.8680272,23.8317955 C68.9388899,23.8317955 69.0044791,23.8301475 69.0651244,23.8268516 C69.1254401,23.8235556 69.1821303,23.8189413 69.2355246,23.8123494 C69.2223408,24.0196641 69.2127826,24.217091 69.2061907,24.4043004 C69.1999284,24.5915099 69.1966325,24.7665244 69.1966325,24.9286846 C69.1966325,25.2951933 69.2253072,25.534149 69.2826565,25.6452222 C69.3400059,25.7556362 69.4425097,25.811008 69.590827,25.811008 C69.7374964,25.811008 69.8409889,25.7553066 69.9016342,25.6425855 C69.9616204,25.5298643 69.991943,25.3298007 69.991943,25.042065 L69.991943,24.2559831 C69.991943,24.2042368 69.9906246,24.1412844 69.9883175,24.0664665 C69.9860103,23.9919782 69.9833736,23.906943 69.9800776,23.8123494 C70.0347903,23.8189413 70.0914804,23.8235556 70.1504778,23.8268516 C70.2091455,23.8301475 70.2724276,23.8317955 70.340324,23.8317955 C70.4062428,23.8317955 70.4688657,23.8301475 70.5275334,23.8268516 C70.5862012,23.8235556 70.6422322,23.8189413 70.6956264,23.8123494" id="Fill-54" fill="#4593D0"></path>
                <path d="M72.5605357,24.0444166 C72.388158,24.0444166 72.2645602,24.1212121 72.1894128,24.2751325 C72.1142653,24.429053 72.0770212,24.6904211 72.0770212,25.0595665 C72.0770212,25.4010259 72.1119582,25.6426184 72.1811729,25.7833551 C72.2503877,25.9244214 72.365416,25.9949545 72.5265875,25.9949545 C72.7025908,25.9949545 72.8281661,25.9158519 72.9036432,25.756658 C72.9794498,25.5981232 73.0173532,25.3291744 73.0173532,24.9508004 C73.0173532,24.6205471 72.9824162,24.3868649 72.9122126,24.2497538 C72.8420091,24.1126426 72.7250032,24.0444166 72.5605357,24.0444166 L72.5605357,24.0444166 Z M71.3931134,26.178868 C71.4109115,25.9626543 71.4237657,25.709526 71.431676,25.4184944 C71.4399158,25.1274628 71.4435413,24.7622726 71.4435413,24.3222645 C71.4435413,23.8822564 71.4399158,23.5167365 71.431676,23.2260345 C71.4237657,22.9353325 71.4109115,22.6815451 71.3931134,22.4656609 C71.4751824,22.4788447 71.5447267,22.4874141 71.6020761,22.4923581 C71.6594255,22.497302 71.7138085,22.4996091 71.7652252,22.4996091 C71.8166419,22.4996091 71.8720137,22.4969724 71.931011,22.4910397 C71.9896788,22.4857662 72.0562568,22.4768671 72.1300858,22.4656609 C72.1221756,22.6172742 72.1159133,22.7563629 72.1122878,22.8829271 C72.108003,23.0091616 72.1060255,23.1311114 72.1060255,23.2491061 L72.1060255,24.0539749 C72.1963343,23.947516 72.2952125,23.8700614 72.4033194,23.8206223 C72.5114262,23.7715127 72.6402975,23.7471228 72.7899332,23.7471228 C73.0786577,23.7471228 73.3083847,23.8525929 73.4791145,24.0638627 C73.6501738,24.2748029 73.7352091,24.5592426 73.7352091,24.9168522 C73.7352091,25.3212642 73.6343533,25.6439368 73.4319825,25.8838813 C73.2296117,26.1241554 72.9593446,26.2441276 72.621181,26.2441276 C72.4758301,26.2441276 72.3472884,26.2167713 72.2342376,26.1617291 C72.1215164,26.1070165 72.0143983,26.0200037 71.9125537,25.9006906 C71.8288368,25.9412307 71.7517118,25.9840779 71.6805195,26.0298915 C71.6096568,26.0760347 71.5437379,26.1254738 71.4824334,26.178868 L71.3931134,26.178868 Z" id="Fill-56" fill="#4593D0"></path>
                <path d="M74.2950906,26.1787362 C74.3079448,25.8998996 74.317503,25.608868 74.3240949,25.3063006 C74.3303572,25.0034036 74.3336531,24.6784239 74.3336531,24.3316909 C74.3336531,23.964523 74.3303572,23.6289963 74.3240949,23.3251105 C74.317503,23.0215543 74.3079448,22.7351371 74.2950906,22.4655291 C74.3738636,22.4787129 74.4414304,22.4876119 74.497791,22.4922262 C74.5544811,22.4971701 74.6091938,22.4998069 74.6622584,22.4998069 C74.7153231,22.4998069 74.7720132,22.4968405 74.8316698,22.4912374 C74.8913263,22.4856343 74.9582339,22.4770649 75.032063,22.4655291 C75.0192088,22.7446953 75.0096506,23.0353973 75.0030587,23.3386239 C74.9967964,23.6415208 74.9935005,23.966171 74.9935005,24.3125744 C74.9935005,24.6800718 74.9967964,25.0155986 75.0030587,25.3194844 C75.0096506,25.6230405 75.0192088,25.9097874 75.032063,26.1787362 C74.9773504,26.16753 74.9196714,26.1589605 74.8580373,26.1533574 C74.7967328,26.1477543 74.7331211,26.144788 74.6672023,26.144788 C74.6012835,26.144788 74.5373422,26.1477543 74.4763673,26.1533574 C74.4147332,26.1589605 74.3547471,26.16753 74.2950906,26.1787362" id="Fill-58" fill="#4593D0"></path>
                <path d="M75.7155093,26.1787362 C75.7277043,25.9256079 75.7359441,25.7060982 75.7412176,25.5198776 C75.7464911,25.3339865 75.7491279,25.1593016 75.7491279,24.9968117 C75.7491279,24.8099319 75.745832,24.6194265 75.7398993,24.424966 C75.7342962,24.2308351 75.7257267,24.0268163 75.7155093,23.8122506 C75.7721995,23.8171945 75.8308672,23.82082 75.8925013,23.8231272 C75.9538058,23.8254343 76.0167583,23.8267527 76.0816883,23.8267527 C76.1462888,23.8267527 76.2099004,23.8254343 76.2715345,23.8231272 C76.3341574,23.82082 76.3928252,23.8171945 76.4475378,23.8122506 C76.4366612,24.0268163 76.4280917,24.2308351 76.4224886,24.424966 C76.4165559,24.6194265 76.4139192,24.8099319 76.4139192,24.9968117 C76.4139192,25.1593016 76.4165559,25.3339865 76.4224886,25.521196 C76.4280917,25.7080758 76.4366612,25.9272559 76.4475378,26.1787362 C76.3842557,26.1708259 76.3226216,26.1645636 76.2619763,26.1606085 C76.2016606,26.1566534 76.1416745,26.1546758 76.0816883,26.1546758 C76.0233502,26.1546758 75.9640232,26.1566534 75.9033779,26.1606085 C75.842403,26.1645636 75.7797801,26.1708259 75.7155093,26.1787362 M75.7102358,22.9200394 C75.7102358,22.815558 75.7464911,22.7268972 75.8190018,22.6543865 C75.8918421,22.5818758 75.9814917,22.5456205 76.087621,22.5456205 C76.1904544,22.5456205 76.2781264,22.5822054 76.3496483,22.6557049 C76.4218294,22.7288748 76.457096,22.817206 76.457096,22.9200394 C76.457096,23.0251799 76.4211703,23.1131815 76.3489892,23.185033 C76.2761489,23.2568845 76.187488,23.2924807 76.0823475,23.2924807 C75.9781958,23.2924807 75.8898646,23.2568845 75.8180131,23.185033 C75.7464911,23.1131815 75.7102358,23.0251799 75.7102358,22.9200394" id="Fill-60" fill="#4593D0"></path>
                <path d="M77.1307534,25.4996075 L77.2009569,25.4996075 C77.2540216,25.6620974 77.3364201,25.7880024 77.4484821,25.8766632 C77.5605441,25.965324 77.6907338,26.0094896 77.8387215,26.0094896 C77.9567162,26.0094896 78.0476842,25.9804853 78.1122846,25.9224768 C78.1765555,25.8644682 78.2088557,25.7830585 78.2088557,25.6782475 C78.2088557,25.5447619 78.0493321,25.4116059 77.7299555,25.2794387 C77.6867786,25.2616406 77.6534896,25.2481272 77.6310772,25.238569 C77.4036573,25.1433163 77.2471001,25.0454269 77.161076,24.9445711 C77.0747224,24.8440449 77.0315456,24.7155032 77.0315456,24.558946 C77.0315456,24.3173535 77.1139441,24.1222338 77.2794003,23.9742461 C77.444527,23.8259287 77.6640366,23.7517701 77.9379293,23.7517701 C78.0654822,23.7517701 78.1877617,23.7692385 78.3054267,23.8035163 C78.4230918,23.8384533 78.5384498,23.8901996 78.651171,23.9597439 C78.6175524,24.0355506 78.5882185,24.1120164 78.5641581,24.1891414 C78.5397681,24.266596 78.5206517,24.3456986 78.5061495,24.4261196 L78.4576992,24.4261196 C78.3855181,24.2748359 78.3001532,24.1611259 78.202923,24.0853193 C78.1053631,24.0095126 77.9952787,23.9716093 77.8726697,23.9716093 C77.7695067,23.9716093 77.6848011,24.000284 77.6178935,24.0576334 C77.5506563,24.1149827 77.5173673,24.1884822 77.5173673,24.278791 C77.5173673,24.3529497 77.5417572,24.4145838 77.5902076,24.4636933 C77.6383283,24.5128028 77.7543454,24.5727889 77.9379293,24.6436517 C78.2975165,24.7840588 78.5219701,24.904031 78.6112901,25.003898 C78.7009397,25.1040946 78.7454349,25.2359323 78.7454349,25.4003997 C78.7454349,25.65188 78.6587516,25.8552396 78.4853851,26.010808 C78.3123482,26.1660468 78.0852579,26.2441606 77.8051029,26.2441606 C77.6501937,26.2441606 77.5134121,26.2283401 77.3940991,26.1966991 C77.274786,26.1657172 77.16602,26.1166077 77.0681305,26.0506889 C77.0760408,25.9910323 77.0938388,25.8371119 77.1211952,25.5889275 L77.1307534,25.4996075 Z" id="Fill-62" fill="#4593D0"></path>
                <path d="M79.3390997,26.1787362 C79.3536019,26.0047105 79.3634897,25.789156 79.3694224,25.5320726 C79.3746959,25.2749892 79.3776623,24.903207 79.3776623,24.4163965 C79.3776623,23.9009114 79.3746959,23.4988066 79.3694224,23.2104117 C79.3634897,22.9216873 79.3536019,22.673503 79.3390997,22.4655291 C79.4066665,22.4787129 79.469619,22.4886007 79.5286164,22.494863 C79.5876137,22.5014548 79.6443039,22.5047508 79.6993461,22.5047508 C79.7573547,22.5047508 79.8160224,22.5014548 79.8756789,22.494863 C79.9353355,22.4886007 79.9972992,22.4787129 80.06157,22.4655291 C80.0457495,22.6013219 80.0328953,22.7463433 80.0243259,22.9009229 C80.0154268,23.0555025 80.0111421,23.2222771 80.0111421,23.4012467 L80.0111421,24.1698602 C80.1014509,24.0330786 80.2102169,23.9302453 80.3371107,23.8620193 C80.4646636,23.7934637 80.6103442,23.7588563 80.7748116,23.7588563 C80.8941247,23.7588563 81.0032203,23.7796208 81.1024282,23.82082 C81.2013064,23.8620193 81.2846937,23.9216758 81.3525901,24.0007784 C81.4105986,24.0670268 81.4517979,24.1490957 81.4758583,24.2473148 C81.5002482,24.3455338 81.5121136,24.5043982 81.5121136,24.7235782 C81.5121136,24.7558785 81.5114544,24.8405841 81.5098065,24.9783545 C81.5081585,25.1161248 81.5071697,25.237745 81.5071697,25.3422264 C81.5071697,25.5244919 81.5098065,25.6810491 81.5147504,25.8125571 C81.5193647,25.9437356 81.5266158,26.066015 81.536174,26.1787362 C81.4686072,26.1708259 81.4043364,26.1645636 81.3430319,26.1606085 C81.2817274,26.1566534 81.2247076,26.1546758 81.1713133,26.1546758 C81.1149527,26.1546758 81.0572738,26.1566534 80.9982764,26.1606085 C80.9396087,26.1645636 80.8756674,26.1708259 80.8061231,26.1787362 C80.8173293,26.0383291 80.8265579,25.8708953 80.8328202,25.6761052 C80.8394121,25.4809855 80.842708,25.2644422 80.842708,25.025816 C80.842708,24.6662289 80.8143629,24.4345242 80.7580023,24.3307021 C80.7016417,24.2268799 80.5984788,24.1748041 80.4485135,24.1748041 C80.2985482,24.1748041 80.1911005,24.2367678 80.1258409,24.3606951 C80.0605812,24.4849521 80.0279514,24.694574 80.0279514,24.9895607 C80.0279514,25.1441403 80.0309178,25.3221211 80.0361913,25.5238327 C80.042124,25.7252147 80.0497046,25.943406 80.0595924,26.1787362 C79.9946624,26.1708259 79.9330283,26.1645636 79.8730422,26.1606085 C79.8133857,26.1566534 79.7557067,26.1546758 79.6993461,26.1546758 C79.6443039,26.1546758 79.5872841,26.1566534 79.5276276,26.1606085 C79.467971,26.1645636 79.4050186,26.1708259 79.3390997,26.1787362" id="Fill-64" fill="#4593D0"></path>
                <path d="M82.2240369,26.1787362 C82.2362319,25.9256079 82.2448013,25.7060982 82.2500748,25.5198776 C82.2553483,25.3339865 82.2579851,25.1593016 82.2579851,24.9968117 C82.2579851,24.8099319 82.2546891,24.6194265 82.2487564,24.424966 C82.2428237,24.2308351 82.2342543,24.0268163 82.2240369,23.8122506 C82.2807271,23.8171945 82.3397244,23.82082 82.4010289,23.8231272 C82.462663,23.8254343 82.5256155,23.8267527 82.5902159,23.8267527 C82.6551459,23.8267527 82.718428,23.8254343 82.7803917,23.8231272 C82.842685,23.82082 82.9016823,23.8171945 82.956395,23.8122506 C82.9451888,24.0268163 82.9366193,24.2308351 82.9313458,24.424966 C82.9254131,24.6194265 82.9224468,24.8099319 82.9224468,24.9968117 C82.9224468,25.1593016 82.9254131,25.3339865 82.9313458,25.521196 C82.9366193,25.7080758 82.9451888,25.9272559 82.956395,26.1787362 C82.8931129,26.1708259 82.8314788,26.1645636 82.7708335,26.1606085 C82.7105178,26.1566534 82.650202,26.1546758 82.5902159,26.1546758 C82.5322074,26.1546758 82.4725508,26.1566534 82.4119055,26.1606085 C82.3512602,26.1645636 82.2886373,26.1708259 82.2240369,26.1787362 M82.219093,22.9200394 C82.219093,22.815558 82.2553483,22.7268972 82.327859,22.6543865 C82.4003697,22.5818758 82.4900193,22.5456205 82.5961486,22.5456205 C82.6993116,22.5456205 82.786654,22.5822054 82.8585055,22.6557049 C82.930357,22.7288748 82.9659532,22.817206 82.9659532,22.9200394 C82.9659532,23.0251799 82.9300274,23.1131815 82.8575167,23.185033 C82.7846764,23.2568845 82.6963452,23.2924807 82.5912047,23.2924807 C82.4867234,23.2924807 82.3983921,23.2568845 82.3268702,23.185033 C82.2550187,23.1131815 82.219093,23.0251799 82.219093,22.9200394" id="Fill-66" fill="#4593D0"></path>
                <path d="M83.6347655,26.1787362 C83.6476197,25.9602153 83.6571779,25.7532302 83.6637698,25.5587697 C83.6700321,25.3639796 83.673328,25.1777589 83.673328,24.9991189 C83.673328,24.7983961 83.6700321,24.5986621 83.6637698,24.400576 C83.6571779,24.2031492 83.6476197,24.0067111 83.6347655,23.8122506 C83.6861822,23.8188425 83.7395764,23.8234568 83.7952778,23.8267527 C83.8509792,23.8300486 83.9109654,23.8316966 83.9755658,23.8316966 C84.0398367,23.8316966 84.0991636,23.8300486 84.153217,23.8267527 C84.2069409,23.8234568 84.2583575,23.8188425 84.3068079,23.8122506 L84.3068079,24.1530509 C84.4083229,24.0195653 84.5217032,23.9200278 84.6476082,23.855757 C84.7731835,23.7914861 84.9142498,23.7588563 85.0704774,23.7588563 C85.1914384,23.7588563 85.3018525,23.7796208 85.4017195,23.82082 C85.5015865,23.8620193 85.5862922,23.9216758 85.6555069,24.0007784 C85.7102195,24.0653788 85.7494412,24.1444814 85.7725128,24.2387453 C85.7962436,24.3330092 85.8077794,24.4948399 85.8077794,24.7235782 C85.8077794,24.7558785 85.8071202,24.8405841 85.8054722,24.9783545 C85.8038243,25.1161248 85.8028355,25.237745 85.8028355,25.3422264 C85.8028355,25.4971356 85.8058018,25.6428162 85.8114049,25.7799273 C85.817008,25.9167089 85.8252479,26.0495353 85.8371133,26.1787362 C85.7675689,26.1708259 85.7026389,26.1645636 85.6423232,26.1606085 C85.5816778,26.1566534 85.5233397,26.1546758 85.4669791,26.1546758 C85.4106185,26.1546758 85.3529395,26.1566534 85.2939422,26.1606085 C85.2352745,26.1645636 85.1713332,26.1708259 85.1017888,26.1787362 C85.112995,26.0383291 85.1225533,25.8708953 85.1298043,25.6761052 C85.1370554,25.4809855 85.1406809,25.2644422 85.1406809,25.025816 C85.1406809,24.6662289 85.1120063,24.4345242 85.0549865,24.3307021 C84.9976371,24.2268799 84.8941446,24.1748041 84.7441792,24.1748041 C84.5942139,24.1748041 84.4867663,24.2367678 84.4215066,24.3606951 C84.356247,24.4849521 84.3236172,24.694574 84.3236172,24.9895607 C84.3236172,25.1279902 84.3262539,25.2964128 84.3308683,25.4948284 C84.3358122,25.6925849 84.3420745,25.9209936 84.3503143,26.1787362 C84.2886802,26.1708259 84.2286941,26.1645636 84.1690375,26.1606085 C84.1090514,26.1566534 84.0513725,26.1546758 83.9950119,26.1546758 C83.9402992,26.1546758 83.8829499,26.1566534 83.8232933,26.1606085 C83.7636368,26.1645636 83.7006843,26.1708259 83.6347655,26.1787362" id="Fill-68" fill="#4593D0"></path>
                <path d="M87.0684768,24.5301395 C87.0684768,24.7331694 87.0978107,24.882146 87.156808,24.9770691 C87.2151462,25.0726514 87.3087509,25.1201129 87.4356446,25.1201129 C87.5681415,25.1201129 87.6630646,25.0700146 87.7207435,24.9701476 C87.7790817,24.8702806 87.808086,24.7048243 87.808086,24.4744381 C87.808086,24.2957981 87.7784225,24.1629716 87.7200843,24.0756292 C87.661087,23.9886164 87.5711078,23.9454395 87.4501468,23.9454395 C87.3295153,23.9454395 87.235581,23.9958674 87.1686734,24.097712 C87.1017658,24.1988974 87.0684768,24.3432596 87.0684768,24.5301395 L87.0684768,24.5301395 Z M87.0684768,26.3214834 C86.9877263,26.3633418 86.9247738,26.4229984 86.879949,26.500453 C86.8347946,26.577578 86.8123822,26.6655796 86.8123822,26.7634691 C86.8123822,26.9328804 86.8690724,27.0683436 86.9824528,27.1698586 C87.0961627,27.2713736 87.2487648,27.3221311 87.4405885,27.3221311 C87.6647125,27.3221311 87.8403862,27.2763175 87.9676095,27.1843607 C88.0948328,27.092404 88.1587741,26.9651806 88.1587741,26.8026908 C88.1587741,26.6556918 88.1172452,26.5465961 88.0341875,26.4747446 C87.9511298,26.4032227 87.8192922,26.3626826 87.6386746,26.3527948 L87.0684768,26.3214834 Z M86.8509447,26.2924791 L86.855559,26.253587 C86.755692,26.2232643 86.6779078,26.1738252 86.6222064,26.1062584 C86.5668346,26.0383621 86.5391487,25.9572819 86.5391487,25.8620292 C86.5391487,25.750956 86.5816663,25.647793 86.6670312,25.5528699 C86.7523961,25.4576173 86.8750051,25.3762075 87.034199,25.3083111 L87.034199,25.248325 C86.8235884,25.206137 86.6640649,25.1260456 86.5569468,25.0073917 C86.4498287,24.8890674 86.3964345,24.7348174 86.3964345,24.5446416 C86.3964345,24.3043675 86.4883912,24.111555 86.6732935,23.9655448 C86.8575366,23.8198642 87.1053914,23.7470239 87.4165282,23.7470239 C87.4455325,23.7470239 87.5556169,23.7539454 87.7464519,23.7677883 C87.9376164,23.7813017 88.1142789,23.7878936 88.2770984,23.7878936 C88.3430172,23.7878936 88.4132207,23.7869048 88.4873794,23.784268 C88.5612085,23.7819609 88.6396519,23.7783353 88.7220504,23.7733914 L88.7220504,24.0153135 C88.6202058,24.0103696 88.4824355,24.0047665 88.3084098,23.9985042 C88.2728136,23.9968562 88.2480941,23.9958674 88.2335919,23.9958674 C88.3189568,24.0509097 88.3828981,24.1201244 88.4257453,24.2038413 C88.4682629,24.2878878 88.4896866,24.386766 88.4896866,24.5011352 C88.4896866,24.7572298 88.3917971,24.957623 88.1960182,25.1016556 C88.0002393,25.2460178 87.7266762,25.318199 87.3753289,25.318199 L87.2909528,25.318199 C87.2263524,25.3244612 87.1736173,25.3495104 87.1334068,25.3930168 C87.0931964,25.4365232 87.0734207,25.4905767 87.0734207,25.5548475 C87.0734207,25.7048128 87.3077621,25.7885297 87.7764449,25.8063278 L87.8031421,25.8063278 C87.8176442,25.8079758 87.8377494,25.8099533 87.8634578,25.8112717 C88.1650364,25.8261035 88.3591673,25.8570853 88.4461801,25.9055356 C88.5460471,25.9638738 88.6221834,26.0426468 88.6745888,26.1425138 C88.7269943,26.2423808 88.7530322,26.3583979 88.7530322,26.4905652 C88.7530322,26.7951101 88.6274569,27.0446128 88.3763062,27.2387437 C88.1248259,27.4328747 87.7985277,27.5301049 87.3970821,27.5301049 C87.0668288,27.5301049 86.8087567,27.4734147 86.6235248,27.3597048 C86.4382929,27.2459948 86.345677,27.0900968 86.345677,26.8916812 C86.345677,26.7469894 86.3875354,26.6250395 86.4712523,26.5268205 C86.5549692,26.4286015 86.6815333,26.3501581 86.8509447,26.2924791 L86.8509447,26.2924791 Z" id="Fill-70" fill="#4593D0"></path>
            </g>
        </g>
    </g>
</svg>