<?xml version="1.0" encoding="UTF-8"?>
<svg width="92px" height="29px" viewBox="0 0 92 29" version="1.1" xmlns="http://www.w3.org/2000/svg" xmlns:xlink="http://www.w3.org/1999/xlink">
    <title>cw_group_logo</title>
    <defs>
        <polygon id="path-1" points="0 0 14.6850786 0 14.6850786 6.64889583 0 6.64889583"></polygon>
        <polygon id="path-3" points="0 0 30.5559632 0 30.5559632 21.6338136 0 21.6338136"></polygon>
        <polygon id="path-5" points="0 0 2.30390368 0 2.30390368 3.93883669 0 3.93883669"></polygon>
        <polygon id="path-7" points="0 0 10.8519128 0 10.8519128 11.3391905 0 11.3391905"></polygon>
        <polygon id="path-9" points="0 0 2.42400365 0 2.42400365 3.91948123 0 3.91948123"></polygon>
    </defs>
    <g id="Symbols" stroke="none" stroke-width="1" fill="none" fill-rule="evenodd">
        <g id="Slicing" transform="translate(-30.000000, -66.000000)">
            <g id="cw_group_logo" transform="translate(30.000000, 66.000000)">
                <g id="Group-3" transform="translate(4.062237, 0.000000)">
                    <mask id="mask-2" fill="white">
                        <use xlink:href="#path-1"></use>
                    </mask>
                    <g id="Clip-2"></g>
                    <path d="M14.5995911,1.19564915 C15.1452516,2.79662244 12.9397172,3.31921994 11.9211737,3.73985562 C11.5685615,3.88571286 11.2173161,4.03502643 10.8722208,4.1978197 C10.6354376,4.30911361 10.4181301,4.46257478 10.1755384,4.56073462 C9.94490548,4.65440124 9.69343014,4.6872364 9.45186347,4.74080955 C8.90756968,4.8617812 8.36703436,4.9989976 7.82889079,5.14589174 C6.74952854,5.44002565 5.6811,5.77287048 4.60652125,6.08497732 C3.99423345,6.26297845 3.3795539,6.43406692 2.76077422,6.58821936 C2.10782668,6.74997573 1.4429204,6.57335713 0.875392484,6.23567343 C0.348524301,5.92218406 0.314014777,5.42274399 0.0738148206,4.90775042 C-0.0478227106,4.64748857 -0.0293720738,4.36476056 0.206386062,4.16118257 C0.268571542,4.10830068 0.538839202,4.12316291 0.625283852,4.11141138 C0.766738734,4.09171028 0.907510259,4.06924412 1.04862346,4.04608669 C1.32674973,4.0004631 1.60419264,3.94965501 1.88300226,3.90679649 C2.16112852,3.86428359 2.44027982,3.829029 2.72113952,3.81105607 C3.02899181,3.79170061 3.28593401,3.86497486 3.55585999,3.6824805 C3.84389493,3.48788897 4.12133784,3.29779067 4.43841545,3.1515878 C5.04762814,2.87024232 5.70535917,2.72196565 6.36411524,2.61723877 C6.5947482,2.58060165 6.82640619,2.54880339 7.05772251,2.51873329 C7.178335,2.50283416 7.31056457,2.52530033 7.42810196,2.49039137 C7.56750677,2.44891537 7.60577476,2.37183916 7.71955368,2.28335704 C7.95531182,2.10086268 8.27853964,2.09740634 8.5139561,1.91491198 C9.18022909,1.37537845 10.0682514,1.17318299 10.6019532,0.498506858 C10.9856581,0.179141721 11.4739166,0.0453816477 11.9632001,0.0194591528 C12.4781096,-0.00784587512 13.0022443,-0.0462111676 13.4676104,0.212668148 C13.900517,0.453574534 14.4301186,0.682038122 14.5995911,1.19564915" id="Fill-1" fill="#D70C18" mask="url(#mask-2)"></path>
                </g>
                <path d="M36.875921,9.4989699 C36.9452817,9.24285565 37.0043921,8.9753355 37.0037087,8.70816099 C37.0030253,8.43234564 36.8420948,8.19143926 36.8236441,7.91873461 C36.8086103,7.69960312 36.9295645,7.46111617 36.6753557,7.34221833 C36.1423373,6.95994793 35.6537371,7.56722558 35.1210604,7.65743586 C34.6843953,7.87760425 34.3584341,8.26263971 33.9914714,8.57716598 C33.7348709,8.79733437 33.4147182,8.91554095 33.139667,9.10736741 C32.8775996,9.29055304 32.6729342,9.54286532 32.4170171,9.73641995 C31.8672564,10.1522168 31.225926,10.4183544 30.656348,10.8023529 C30.1745814,11.1279395 29.0877022,10.9997095 28.5567339,10.8960196 C27.594909,10.7083407 26.7506215,10.2261823 25.856449,9.85981103 C25.4662522,9.69978283 25.0545297,9.57466358 24.6967923,9.34378056 C24.2854114,9.07764295 24.0588786,8.60930988 23.6464727,8.33072946 C23.276435,8.08049098 22.9077639,7.85963132 23.0153926,7.34221833 C23.3488708,6.98310536 23.8149202,6.91536124 24.2594439,6.80303043 C25.7918718,6.51062469 27.4578959,6.73563194 28.9462473,6.21856458 C29.7895097,5.99424859 30.6782154,5.7917075 31.5009771,5.49999302 C31.7165762,5.42326244 31.9465258,5.31404233 32.1761338,5.23592921 C32.4269257,5.15090342 32.5834145,4.96391583 32.8140474,4.84674615 C33.3251984,4.58821247 33.8626586,4.74029111 34.3789348,4.5978902 C35.1036348,4.39811417 35.8215012,4.17414382 36.5359509,3.93980446 C36.9514319,3.80362496 37.3563209,3.62977142 37.7830773,3.53022904 C38.1213389,3.45177029 38.4760012,3.45730042 38.7766782,3.26132636 C39.5078701,2.78504372 40.4341604,2.99622565 41.2073788,2.64644478 C41.860668,2.35127398 42.6000602,2.05921387 43.2946925,1.88466907 C43.657555,1.79307625 44.0327179,1.74710703 44.4051475,1.79756949 C45.0338358,1.881904 45.6847333,2.0388215 46.3069298,2.17223594 C46.835848,2.28525802 47.3780917,2.36475367 47.8523414,2.64540788 C48.1103087,2.79783215 48.3194159,3.02318504 48.448912,3.29830912 C48.4844466,3.64843562 48.3665675,3.98369989 48.2158873,4.29304166 C48.1393513,4.4503048 48.0529067,4.60169217 47.9698788,4.75446207 C47.7037113,5.24422441 47.2690963,5.35897465 46.7654623,5.49584542 C46.2604615,5.6327162 45.7356434,5.68594372 45.2210756,5.56393518 C44.9484162,5.49930176 44.6696066,5.36415915 44.4509324,5.18546675 C43.5680352,4.61413496 42.489698,4.77520006 41.5309483,5.02543855 C41.3987187,5.05965624 41.2678559,5.09802153 41.1390431,5.14260823 C40.9986132,5.19134252 40.8704838,5.21208051 40.7526047,5.30747529 C40.6425843,5.39699431 40.5284637,5.46784913 40.4040927,5.53524761 C40.0832566,5.70910115 39.8051304,5.85737782 39.8078638,6.25762114 C39.8105972,6.73113871 39.7289361,7.276548 39.9182259,7.72414308 C40.3405405,8.62313521 39.7849713,9.52143606 40.1850768,10.4207738 C40.363433,11.6342922 40.7180952,13.3413749 40.6740187,14.7339313 C40.6740187,16.6667126 40.8294824,19.0699006 41.1404098,20.9335552 C41.2121623,21.363523 41.3454169,21.783813 41.4458703,22.2075594 C41.5087392,22.4723145 41.5241147,22.7467473 41.5866419,23.011848 C41.7209215,23.5824886 41.8517843,23.9989766 41.8282085,24.595194 C41.8008743,25.2750547 41.7216048,25.9511133 41.6252515,26.6237157 C41.5189895,27.3640621 41.2924567,28.0902376 40.5626315,28.416861 C39.8485235,29.2100894 38.5795297,29.0583564 37.6751069,28.7538535 C37.2845684,28.6225128 36.7980183,28.0605131 36.5998448,27.7024371 C36.4795739,27.4846881 36.4969995,27.2216612 36.4416476,26.9814461 C36.2991677,26.3631082 36.0476924,25.7776054 36.2540662,25.1368013 C36.6979065,19.9685471 37.1414051,15.0712694 36.875921,9.92582698" id="Fill-4" fill="#D70C18"></path>
                <g id="Group-8" transform="translate(0.000000, 6.982541)">
                    <mask id="mask-4" fill="white">
                        <use xlink:href="#path-3"></use>
                    </mask>
                    <g id="Clip-7"></g>
                    <path d="M12.0428331,0.324491577 C12.4870151,0.818747146 12.6865553,1.403213 12.9537479,1.98767885 C13.1816474,2.24033677 13.4686573,2.2261658 13.7645509,2.11487189 C14.0201263,2.01844021 14.299961,1.97523605 14.5179519,1.79792619 C14.733551,1.62199885 14.9115654,1.38800513 15.1189643,1.19998064 C15.5669047,0.794207185 16.0459379,0.417466926 16.6254246,0.225986097 C16.9688114,0.112272752 17.3238154,0.0656122616 17.6849695,0.100175588 C18.2624061,0.324491577 18.9953064,0.302371048 19.2840247,0.908611795 C19.5501922,1.29088219 19.4832232,1.74020543 19.3503103,2.14459635 C18.8398427,3.20050598 17.5735823,3.583122 16.6852183,4.25710687 C15.9738438,4.63834036 15.0191942,4.90827994 14.6635069,5.71706178 C14.6416395,6.99832429 15.6635997,8.03073086 16.4627856,8.77245984 C17.6849695,10.0537224 18.8172919,12.0072416 20.4607653,12.7714367 C20.9452653,12.996444 21.349471,13.45821 21.7570934,13.7955481 C21.979526,13.979425 22.2098173,14.1570805 22.4589009,14.3025921 C22.7380522,14.4667679 23.0418044,14.5265624 23.3130971,14.7121675 C23.583023,14.8970813 23.9315351,14.9824527 24.1478175,15.2416777 C24.2346039,15.3457133 24.382209,15.3671425 24.4953045,15.427974 C24.7348211,15.5558583 24.8960934,15.8168114 25.1745613,15.8738409 C25.3279749,15.9056392 25.4636213,15.8710758 25.6108847,15.9384743 C25.754048,16.0041447 25.8886693,16.1292639 26.0205572,16.2163635 C26.6376285,16.6262845 27.2752005,17.0140851 27.9711995,17.2719275 C28.2397587,17.3714698 28.5325772,17.3863321 28.7997697,17.4896764 C29.0570536,17.5892188 29.223451,17.7955619 29.443492,17.9517881 C29.8224134,18.2196539 30.3342477,18.4612515 30.5149956,18.9233632 C30.6328747,19.2247554 30.4777526,19.6796088 30.286071,19.9163676 C30.0113616,20.2543969 29.5097776,20.3408052 29.107622,20.4044018 C28.6999996,20.4686895 28.2800768,20.6598247 27.8704043,20.7068309 C27.6448965,20.7324077 27.4125552,20.7289514 27.1860224,20.746233 C26.6987889,20.7828702 26.2129221,20.8340239 25.7267137,20.8841407 C24.7443881,20.9854113 23.7579624,21.0887556 22.7691449,21.0707827 C22.2289513,21.061105 21.5954794,21.1437113 21.1072209,20.8599464 C20.4412896,20.4724915 19.8368604,19.8900995 19.225256,19.4186557 C18.4219699,18.7992809 17.8756261,17.9417647 17.3002395,17.1039497 C16.6992271,16.2294975 16.1234989,15.3370724 15.5187281,14.4646941 C15.0304695,13.7606391 14.5428944,12.9490922 13.8779881,12.399881 C13.643255,12.2056351 13.4884747,11.9322392 13.256475,11.7317719 C13.0548847,11.5579183 12.8765285,11.3674744 12.6998808,11.1676984 C12.3411184,10.7619249 11.9628803,10.3962449 11.3991109,10.3454368 C11.188637,10.6641107 11.0434236,11.0239149 10.9593707,11.3968532 C10.9026521,11.6498568 10.9149525,11.9104643 10.8722427,12.165196 C10.8363665,12.3781061 10.7584638,12.5803015 10.7198541,12.7932116 C10.6368263,13.251867 10.6299927,13.7475051 10.399018,14.1639931 C10.2596132,14.4163054 10.1817105,14.6219572 10.1147416,14.9064134 C10.0487976,15.1860307 9.91212624,15.4839666 9.80244746,15.7497586 C9.74060366,15.8997634 9.64288362,16.0304128 9.57693968,16.1783438 C9.45564382,16.4489747 9.39072492,16.7361959 9.25200346,17.0044073 C9.09653976,17.3037257 8.92535886,17.5961315 8.73948577,17.8767857 C8.36603122,18.4412048 7.9365414,18.9682955 7.47083366,19.457021 C7.20876628,19.7317994 6.93508184,19.9955176 6.65217207,20.2478299 C6.43076443,20.4448408 6.24147457,20.6667374 5.98419069,20.8201986 C5.72212331,20.9764248 5.4272548,21.0372563 5.14058657,21.1288491 C4.53069052,21.3244775 3.97819646,21.6006385 3.3255906,21.6317455 C2.94154402,21.6504097 2.56125589,21.5415352 2.22470261,21.354202 C2.08153934,21.274015 1.82767224,21.2864578 1.66434994,21.2245895 C1.47232664,21.1509696 1.28406181,21.0493534 1.11971448,20.9252711 C0.932816359,20.7839071 0.74420985,20.6301003 0.605830074,20.4375825 C0.529635778,20.3318188 0.464033514,20.2191423 0.445241199,20.0881473 C0.406289855,19.8161339 0.455149874,19.7231586 0.283968967,19.4933125 C0.0635863611,19.1971048 0.183173821,18.9994025 0.118596593,18.6779636 C0.0878455316,18.5241568 0.0143846631,18.376917 0.00140088168,18.2199995 C-0.0197831827,17.9621571 0.196157603,17.7599616 0.336929128,17.5698633 C0.493076183,17.3586814 0.629405888,17.1284897 0.891814944,17.0393163 C1.18941688,16.9383914 1.61002306,16.9494516 1.91377521,17.01132 C2.08734787,17.0469202 2.25408696,17.1098255 2.40476716,17.204529 C2.64804222,17.3572989 2.75669597,17.5850712 3.06454826,17.4046506 C3.29483954,17.2691624 3.42980253,17.0185783 3.62763436,16.8457617 C3.77865624,16.7140754 3.83742493,16.4959808 3.98605506,16.3494323 C4.15313583,16.1852565 4.31030792,16.0114029 4.4517628,15.8240697 C4.74253117,15.4386886 4.96154706,15.0052645 5.11291062,14.5459179 C5.91277989,13.6918581 6.00093293,12.4797222 5.69068889,11.3111362 C4.86861052,11.244429 4.00279731,11.6705948 3.13630074,11.3788803 C2.55818079,10.9523688 1.71423499,10.7280529 1.4255167,10.0758429 C1.0257529,9.64933144 0.692958081,9.11014354 0.625647425,8.5028659 C0.87063088,7.8295723 1.80307139,8.03073086 2.33643147,7.91943695 C2.82503166,7.71724149 3.40246826,7.67196353 3.89106845,7.42449011 C4.16646129,7.2851999 4.4913975,7.24234138 4.77294055,7.08749768 C5.05038346,6.93541904 5.31005909,6.75327031 5.57349318,6.57768861 C5.83590224,6.40279818 6.10206975,6.23067281 6.38907966,6.09933217 C6.69522356,5.9593507 7.03451027,5.91510964 7.33416227,5.75093384 C7.5907628,5.61060673 7.82822933,5.41325014 8.05237039,5.22557128 C8.51773645,4.83638822 8.87854891,4.28475753 8.80030454,3.64948359 C8.77365362,3.43484533 8.67285847,3.24059944 8.67320015,3.00833388 C8.67354183,2.77745086 8.71864339,2.54933291 8.76476998,2.32467128 C8.81157993,2.09897276 8.86556513,1.8739655 8.89084933,1.64446502 C8.92911732,1.29986865 8.84267267,1.06864 9.04802142,0.760680758 C9.22945268,0.489358645 9.49732859,0.263660123 9.79971403,0.144416646 C10.0426474,0.0486762317 10.3474246,0.0998299549 10.6016334,0.100866855 C10.8080072,0.101212488 11.0707579,-0.0439534834 11.2720065,0.0134216386 C11.393644,0.0479849651 11.4794053,0.15858761 11.615735,0.193150936 C11.7626568,0.230479329 11.9181205,0.223221031 12.0428331,0.324491577" id="Fill-6" fill="#D70C18" mask="url(#mask-4)"></path>
                </g>
                <path d="M58.0738233,18.5124288 L58.0000208,18.5227977 C57.9450106,18.3361558 57.8339651,18.1916811 57.668251,18.0879911 C57.502537,17.9849924 57.2965049,17.9328018 57.049813,17.9328018 C56.6763585,17.9328018 56.3855901,18.0655249 56.1778496,18.3306257 C55.9697674,18.5953807 55.8662388,18.9669365 55.8662388,19.4459842 C55.8662388,19.9620147 55.9721591,20.3560366 56.1839998,20.6270131 C56.3965238,20.8976439 56.7036927,21.0331322 57.1078983,21.0331322 C57.2821544,21.0331322 57.4574354,20.9989145 57.6340832,20.9304791 C57.8107309,20.8623893 57.9706365,20.7663033 58.1144831,20.6432578 L58.178377,20.6588113 L58.0587895,21.0998394 C57.8930754,21.1821001 57.7201861,21.2429315 57.5401216,21.2833706 C57.360057,21.3234641 57.1700838,21.3431652 56.971227,21.3431652 C56.3640643,21.3431652 55.8922064,21.1786438 55.5542864,20.848564 C55.2163664,20.5188299 55.0472356,20.0581007 55.0472356,19.4663766 C55.0472356,18.9057594 55.2293502,18.4571274 55.5935794,18.120135 C55.957467,17.7834882 56.4447005,17.6148192 57.0549382,17.6148192 C57.2476448,17.6148192 57.4393264,17.6362484 57.628958,17.6791069 C57.8192729,17.7219655 58.0119795,17.7876358 58.2087863,17.8764635 C58.178377,17.9725496 58.1513844,18.0731289 58.1284919,18.1775101 C58.1055994,18.2832739 58.0874905,18.3945678 58.0738233,18.5124288" id="Fill-9" fill="#D70C18"></path>
                <path d="M59.1996197,20.0201847 C59.1996197,20.4186999 59.2406211,20.6990085 59.3222823,20.8614561 C59.4046268,21.0235581 59.5412982,21.1051276 59.7340048,21.1051276 C59.9284198,21.1051276 60.0667996,21.0235581 60.1498275,20.8600736 C60.2325137,20.6969347 60.2745401,20.4166261 60.2745401,20.0201847 C60.2745401,19.6220152 60.2325137,19.3403241 60.1498275,19.175457 C60.0667996,19.01059 59.9284198,18.9279836 59.7340048,18.9279836 C59.5412982,18.9279836 59.4046268,19.0095531 59.3222823,19.172692 C59.2406211,19.3361765 59.1996197,19.6185589 59.1996197,20.0201847 M58.43631,20.0201847 C58.43631,19.6012772 58.551114,19.2760363 58.7807219,19.0434251 C59.0106715,18.8108139 59.3301409,18.6946812 59.7398133,18.6946812 C60.155636,18.6946812 60.4751054,18.8097771 60.7002715,19.0392775 C60.9250959,19.2694693 61.0375081,19.5960927 61.0375081,20.0201847 C61.0375081,20.4356359 60.9227042,20.7594943 60.6941213,20.9910686 C60.4645133,21.2226429 60.1453857,21.3380844 59.7340048,21.3380844 C59.3215989,21.3380844 59.0024712,21.2226429 58.7766218,20.9924511 C58.5494056,20.7615681 58.43631,20.4373641 58.43631,20.0201847" id="Fill-11" fill="#D70C18"></path>
                <path d="M61.4955964,21.2741077 C61.5055051,20.9941447 61.5137054,20.7487451 61.5184889,20.5372175 C61.5236141,20.32569 61.5260058,20.1518365 61.5260058,20.0149657 C61.5260058,19.8787862 61.5236141,19.7070064 61.5184889,19.4992809 C61.5137054,19.2925922 61.5055051,19.0471925 61.4955964,18.7637733 C61.5519734,18.7706859 61.608692,18.7755248 61.6681441,18.7789811 C61.7272544,18.7824375 61.7908066,18.7841656 61.858459,18.7841656 C61.9295281,18.7841656 61.9941053,18.7824375 62.0521906,18.7789811 C62.1109593,18.7755248 62.1659696,18.7706859 62.2182464,18.7637733 L62.2182464,19.1104434 C62.3248501,18.9701163 62.4393123,18.8678089 62.5619749,18.8038667 C62.6842958,18.7395789 62.8240423,18.707435 62.9818977,18.707435 C63.1551287,18.707435 63.3037588,18.748911 63.4277881,18.8322086 C63.5507924,18.914815 63.6416788,19.035441 63.7014726,19.1944323 C63.8029511,19.028874 63.9208301,18.9058285 64.0564765,18.8266785 C64.1910978,18.7468372 64.3482699,18.707435 64.5273094,18.707435 C64.6523637,18.707435 64.7654593,18.7285187 64.8659127,18.7703403 C64.9667079,18.8121619 65.0524692,18.8750672 65.1231966,18.9587104 C65.1942657,19.0406255 65.2441508,19.1477718 65.2735351,19.2794581 C65.3015528,19.4107987 65.316245,19.6485944 65.316245,19.9921539 L65.316245,20.3177404 C65.316245,20.4646346 65.318295,20.6177501 65.3220535,20.7757045 C65.326837,20.9340045 65.3329872,21.0999085 65.3415292,21.2741077 C65.2653349,21.2658125 65.1956325,21.2595911 65.1324219,21.2547522 C65.0688697,21.2509502 65.0073676,21.2488764 64.9485989,21.2488764 C64.8891469,21.2488764 64.8290115,21.2509502 64.7671677,21.2547522 C64.7056655,21.2595911 64.6400633,21.2658125 64.5707026,21.2741077 C64.5860781,21.0452984 64.5973535,20.8334253 64.6052121,20.6381425 C64.6123873,20.4435509 64.6164875,20.2614022 64.6164875,20.0920419 C64.6164875,19.7004394 64.5860781,19.4443252 64.5252593,19.3240448 C64.4640989,19.2034188 64.3561285,19.1432786 64.2006648,19.1432786 C64.0469095,19.1432786 63.9375724,19.2034188 63.8723118,19.3240448 C63.8077346,19.4443252 63.7749334,19.6586178 63.7749334,19.966577 L63.7749334,20.7971338 C63.7749334,20.8776663 63.7804003,21.0197216 63.7930424,21.2229539 C63.7940674,21.2468026 63.7950925,21.2640843 63.7950925,21.2741077 C63.7226566,21.2658125 63.6539793,21.2595911 63.5911104,21.2547522 C63.5275582,21.2509502 63.4663978,21.2488764 63.4076291,21.2488764 C63.3478354,21.2488764 63.2873583,21.2509502 63.2258561,21.2557891 C63.164354,21.260628 63.0960183,21.2668494 63.0222158,21.2741077 C63.0351996,21.0774423 63.0451082,20.887344 63.0526252,20.704504 C63.0587754,20.5209728 63.0628755,20.3471193 63.0628755,20.1829434 C63.0628755,19.7242881 63.0328078,19.4367212 62.9736974,19.3192059 C62.9145871,19.2020362 62.8066167,19.1432786 62.6491029,19.1432786 C62.4973977,19.1432786 62.3890856,19.2030731 62.3248501,19.3226623 C62.2606145,19.4422514 62.2284967,19.6568896 62.2284967,19.966577 L62.2284967,20.7971338 C62.2284967,20.8790488 62.2339636,21.022141 62.2459223,21.2253734 C62.2476307,21.2478395 62.2476307,21.2640843 62.2459223,21.2741077 C62.1816868,21.2658125 62.1191596,21.2595911 62.0573158,21.2547522 C61.9958137,21.2509502 61.9343116,21.2488764 61.8734928,21.2488764 C61.8177992,21.2488764 61.7590305,21.2509502 61.6985534,21.2547522 C61.637393,21.2595911 61.5700823,21.2658125 61.4955964,21.2741077" id="Fill-13" fill="#D70C18"></path>
                <path d="M65.9978251,21.2741077 C66.0077338,20.9941447 66.0159341,20.7487451 66.0207176,20.5372175 C66.0258428,20.32569 66.0282345,20.1518365 66.0282345,20.0149657 C66.0282345,19.8787862 66.0258428,19.7070064 66.0207176,19.4992809 C66.0159341,19.2925922 66.0077338,19.0471925 65.9978251,18.7637733 C66.0542021,18.7706859 66.1109207,18.7755248 66.1700311,18.7789811 C66.2294831,18.7824375 66.2926937,18.7841656 66.3606877,18.7841656 C66.4317568,18.7841656 66.496334,18.7824375 66.5544194,18.7789811 C66.6128464,18.7755248 66.6681983,18.7706859 66.7204751,18.7637733 L66.7204751,19.1104434 C66.8270788,18.9701163 66.941541,18.8678089 67.0642036,18.8038667 C67.1865245,18.7395789 67.326271,18.707435 67.4837848,18.707435 C67.6570157,18.707435 67.8059875,18.748911 67.9296751,18.8322086 C68.0530211,18.914815 68.1439075,19.035441 68.2037013,19.1944323 C68.3051798,19.028874 68.4230588,18.9058285 68.5587052,18.8266785 C68.6933265,18.7468372 68.8504986,18.707435 69.0295381,18.707435 C69.1545924,18.707435 69.267688,18.7285187 69.3681415,18.7703403 C69.4689366,18.8121619 69.5543562,18.8750672 69.6254253,18.9587104 C69.6964945,19.0406255 69.7463795,19.1477718 69.7754222,19.2794581 C69.8037815,19.4107987 69.8184737,19.6485944 69.8184737,19.9921539 L69.8184737,20.3177404 C69.8184737,20.4646346 69.8205237,20.6177501 69.8242822,20.7757045 C69.8290657,20.9340045 69.8348742,21.0999085 69.8437579,21.2741077 C69.7675636,21.2658125 69.6975195,21.2595911 69.6346507,21.2547522 C69.5710985,21.2509502 69.5092547,21.2488764 69.4508276,21.2488764 C69.3913756,21.2488764 69.3308985,21.2509502 69.2693964,21.2547522 C69.2078943,21.2595911 69.142292,21.2658125 69.0729313,21.2741077 C69.0883068,21.0452984 69.0992405,20.8334253 69.1074408,20.6381425 C69.114616,20.4435509 69.1187162,20.2614022 69.1187162,20.0920419 C69.1187162,19.7004394 69.0883068,19.4443252 69.0271464,19.3240448 C68.9663276,19.2034188 68.8583572,19.1432786 68.7028935,19.1432786 C68.5491382,19.1432786 68.4394594,19.2034188 68.3745405,19.3240448 C68.3096216,19.4443252 68.2771621,19.6586178 68.2771621,19.966577 L68.2771621,20.7971338 C68.2771621,20.8776663 68.282629,21.0197216 68.2952711,21.2229539 C68.2962961,21.2468026 68.2969795,21.2640843 68.2969795,21.2741077 C68.2248853,21.2658125 68.156208,21.2595911 68.0933391,21.2547522 C68.0294453,21.2509502 67.9682848,21.2488764 67.9098578,21.2488764 C67.8500641,21.2488764 67.789587,21.2509502 67.7280849,21.2557891 C67.6662411,21.260628 67.598247,21.2668494 67.5244445,21.2741077 C67.5374283,21.0774423 67.547337,20.887344 67.5548539,20.704504 C67.5610041,20.5209728 67.5647626,20.3471193 67.5647626,20.1829434 C67.5647626,19.7242881 67.5350365,19.4367212 67.4759262,19.3192059 C67.4168158,19.2020362 67.3085037,19.1432786 67.1513316,19.1432786 C66.9996264,19.1432786 66.8909726,19.2030731 66.8270788,19.3226623 C66.7625015,19.4422514 66.7307254,19.6568896 66.7307254,19.966577 L66.7307254,20.7971338 C66.7307254,20.8790488 66.7361923,21.022141 66.7478094,21.2253734 C66.7498594,21.2478395 66.7498594,21.2640843 66.7478094,21.2741077 C66.6839155,21.2658125 66.6213883,21.2595911 66.5595445,21.2547522 C66.4980424,21.2509502 66.4365403,21.2488764 66.3757215,21.2488764 C66.3196863,21.2488764 66.2612592,21.2509502 66.2007821,21.2547522 C66.1396217,21.2595911 66.072311,21.2658125 65.9978251,21.2741077" id="Fill-15" fill="#D70C18"></path>
                <path d="M71.0906451,20.0201847 C71.0906451,20.4186999 71.1319882,20.6990085 71.2136493,20.8614561 C71.2959938,21.0235581 71.4326652,21.1051276 71.6253719,21.1051276 C71.8197869,21.1051276 71.9581667,21.0235581 72.0411945,20.8600736 C72.1238807,20.6969347 72.1655655,20.4166261 72.1655655,20.0201847 C72.1655655,19.6220152 72.1238807,19.3403241 72.0411945,19.175457 C71.9581667,19.01059 71.8197869,18.9279836 71.6253719,18.9279836 C71.4326652,18.9279836 71.2959938,19.0095531 71.2136493,19.172692 C71.1319882,19.3361765 71.0906451,19.6185589 71.0906451,20.0201847 M70.3276771,20.0201847 C70.3276771,19.6012772 70.442481,19.2760363 70.672089,19.0434251 C70.9020386,18.8108139 71.2215079,18.6946812 71.6311804,18.6946812 C72.0470031,18.6946812 72.3664724,18.8097771 72.5916385,19.0392775 C72.816463,19.2694693 72.9288752,19.5960927 72.9288752,20.0201847 C72.9288752,20.4356359 72.8140712,20.7594943 72.5854883,20.9910686 C72.3558804,21.2226429 72.0367527,21.3380844 71.6253719,21.3380844 C71.212966,21.3380844 70.8938383,21.2226429 70.6679888,20.9924511 C70.4407726,20.7615681 70.3276771,20.4373641 70.3276771,20.0201847" id="Fill-17" fill="#D70C18"></path>
                <path d="M73.3876127,21.2741077 C73.4009381,21.0421877 73.4111885,20.8227106 73.4180221,20.6167132 C73.4245139,20.4100245 73.4279307,20.2123223 73.4279307,20.0229152 C73.4279307,19.8096595 73.4245139,19.5977863 73.4180221,19.3879869 C73.4111885,19.1785332 73.4009381,18.970462 73.3876127,18.7637733 C73.4415979,18.7706859 73.4979748,18.7755248 73.5564018,18.7789811 C73.6144872,18.7824375 73.6776977,18.7841656 73.74535,18.7841656 C73.8126607,18.7841656 73.8748462,18.7824375 73.9315648,18.7789811 C73.9879417,18.7755248 74.0419269,18.7706859 74.0924953,18.7637733 L74.0924953,19.1256513 C74.1987573,18.983596 74.3183448,18.8781779 74.449891,18.8100881 C74.5817789,18.7416527 74.729384,18.707435 74.8937313,18.707435 C75.0198107,18.707435 75.1359813,18.7295556 75.2408766,18.7727597 C75.3454302,18.8166552 75.433925,18.879906 75.5067025,18.9635493 C75.5641044,19.0323303 75.6051059,19.1163192 75.6300484,19.2165528 C75.6543076,19.3160952 75.6669497,19.487875 75.6669497,19.7305095 C75.6669497,19.7647272 75.665583,19.8549375 75.6645579,20.0011404 C75.6621662,20.1469976 75.6614828,20.2759188 75.6614828,20.3872127 C75.6614828,20.5510429 75.6645579,20.7055409 75.6707081,20.8510526 C75.676175,20.9962185 75.6854003,21.1372369 75.697359,21.2741077 C75.6245815,21.2658125 75.5562458,21.2595911 75.493377,21.2547522 C75.4298248,21.2509502 75.3683227,21.2488764 75.309554,21.2488764 C75.2497603,21.2488764 75.1892832,21.2509502 75.1284644,21.2547522 C75.0662789,21.2595911 74.99931,21.2658125 74.9265324,21.2741077 C74.9384912,21.1254854 74.9477165,20.9478299 74.9559168,20.7407955 C74.963092,20.5337612 74.9671922,20.3039151 74.9671922,20.0512572 C74.9671922,19.6696781 74.9371245,19.4239328 74.8766474,19.3140214 C74.817537,19.2034188 74.7085416,19.1484631 74.5513695,19.1484631 C74.3941974,19.1484631 74.2814435,19.2141334 74.2127661,19.3458197 C74.1447721,19.477506 74.1102626,19.6997481 74.1102626,20.0128919 C74.1102626,20.1594404 74.112996,20.3381328 74.1177795,20.5482778 C74.1232464,20.7587685 74.1293966,21.0007118 74.1379386,21.2741077 C74.073703,21.2658125 74.0104925,21.2595911 73.948307,21.2547522 C73.8854382,21.2509502 73.8246194,21.2488764 73.765509,21.2488764 C73.7077654,21.2488764 73.6479717,21.2509502 73.5857862,21.2547522 C73.5229173,21.2595911 73.4566317,21.2658125 73.3876127,21.2741077" id="Fill-19" fill="#D70C18"></path>
                <path d="M77.1037076,21.2741077 C76.9547358,20.6982826 76.7907301,20.1113974 76.6110072,19.5137974 C76.430601,18.9161975 76.2351609,18.3071917 76.0240037,17.68678 C76.0896059,17.6936927 76.1582833,17.6985315 76.2303774,17.7019879 C76.3021299,17.7057898 76.380716,17.707518 76.4651105,17.707518 C76.5477967,17.707518 76.6246744,17.7057898 76.6954018,17.7019879 C76.7664709,17.6985315 76.8351483,17.6936927 76.9007506,17.68678 C77.0005207,18.1264255 77.1091744,18.5646885 77.2253451,19.0022602 C77.3418575,19.4398319 77.4662284,19.8749842 77.5977746,20.3073714 C77.7617803,19.8303975 77.9165606,19.3772723 78.0621157,18.9469589 C78.207329,18.5173367 78.3467338,18.0970467 78.4799884,17.68678 C78.5203065,17.6936927 78.5619912,17.6985315 78.603676,17.7019879 C78.6446774,17.7057898 78.689779,17.707518 78.7389807,17.707518 C78.7898908,17.707518 78.836359,17.7057898 78.8794105,17.7019879 C78.9228037,17.6985315 78.9644885,17.6936927 79.0048065,17.68678 C79.1267857,18.1022312 79.2576486,18.5249407 79.3967117,18.9549085 C79.5361165,19.3848762 79.6833799,19.8238305 79.8388436,20.2717712 C79.984057,19.8511355 80.1197033,19.425661 80.2457827,18.9960388 C80.3715204,18.566071 80.4887161,18.1295362 80.5970281,17.68678 C80.6325627,17.6936927 80.6698057,17.6985315 80.708757,17.7019879 C80.7473667,17.7057898 80.7897348,17.707518 80.835178,17.707518 C80.8809629,17.707518 80.9226477,17.7057898 80.9609157,17.7019879 C80.9985003,17.6985315 81.0354016,17.6936927 81.0712778,17.68678 C80.8864298,18.218364 80.6974816,18.7824375 80.5016999,19.3779636 C80.3069431,19.9738353 80.1039861,20.6056529 79.8952206,21.2741077 C79.8470439,21.2658125 79.8016007,21.2595911 79.7564991,21.2547522 C79.7120809,21.2509502 79.6680044,21.2488764 79.625978,21.2488764 C79.5870266,21.2488764 79.5456835,21.2509502 79.5019487,21.2547522 C79.4582138,21.2595911 79.4093538,21.2658125 79.3577604,21.2741077 C79.2371479,20.8690255 79.1079934,20.4553025 78.9696136,20.0329386 C78.8312339,19.6109204 78.6808953,19.1774963 78.5203065,18.7330119 C78.3648428,19.1332552 78.2134792,19.5449044 78.0658741,19.9689965 C77.9179273,20.3927428 77.7730557,20.8278951 77.6309174,21.2741077 C77.5837658,21.2658125 77.5379809,21.2595911 77.4942461,21.2547522 C77.4505112,21.2509502 77.4081431,21.2488764 77.3671417,21.2488764 C77.3268236,21.2488764 77.2851388,21.2509502 77.2417457,21.2547522 C77.1990359,21.2595911 77.1529093,21.2658125 77.1037076,21.2741077" id="Fill-21" fill="#D70C18"></path>
                <path d="M81.9406103,19.7663517 L82.819749,19.7663517 C82.819749,19.7476875 82.8211157,19.7241844 82.8228241,19.6958425 C82.8245325,19.6678462 82.8255575,19.649182 82.8255575,19.6408868 C82.8255575,19.4030911 82.791048,19.2237074 82.7223707,19.1020445 C82.6543766,18.9810729 82.5528981,18.9202414 82.4199852,18.9202414 C82.2679383,18.9202414 82.1493759,18.9893681 82.0660063,19.127967 C81.9822951,19.266566 81.9406103,19.4639226 81.9406103,19.7200368 L81.9406103,19.7663517 Z M81.9406103,20.0255766 C81.9406103,20.3280057 82.0120211,20.5682208 82.1545011,20.7458763 C82.2976643,20.9238775 82.4896876,21.0127052 82.7312543,21.0127052 C82.8515251,21.0127052 82.9663291,20.9923129 83.0763495,20.9511825 C83.18637,20.9103978 83.292632,20.8478382 83.3958189,20.7641949 L83.4463873,20.8025602 L83.3326084,21.0998048 C83.2239546,21.176881 83.0971919,21.2359843 82.9506119,21.276769 C82.8047152,21.3178994 82.6458347,21.3382918 82.4749955,21.3382918 C82.0714732,21.3382918 81.7550789,21.2176658 81.5258127,20.9767594 C81.2972298,20.735853 81.1827675,20.4023169 81.1827675,19.9764967 C81.1827675,19.5938807 81.2965464,19.2841933 81.5247877,19.0484714 C81.7530289,18.8124039 82.0550726,18.6945429 82.4302356,18.6945429 C82.7862645,18.6945429 83.059949,18.7944309 83.2499222,18.9948982 C83.4402371,19.1946743 83.5352237,19.4818955 83.5352237,19.8562163 C83.5352237,19.900803 83.534882,19.9346751 83.5335153,19.9588694 C83.5331736,19.9827181 83.5314652,20.0038017 83.5297569,20.0228116 L81.9406103,20.0255766 Z" id="Fill-23" fill="#D70C18"></path>
                <path d="M85.2315889,19.8919202 C84.9917306,19.9416914 84.8184997,20.0166938 84.7115543,20.1176188 C84.605634,20.2185437 84.5523321,20.3588708 84.5523321,20.5382544 C84.5523321,20.6889505 84.5793247,20.801627 84.6333099,20.876975 C84.6872951,20.9519775 84.7679312,20.9896515 84.8738516,20.9896515 C84.9886555,20.9896515 85.0771503,20.9478299 85.1389941,20.8641866 C85.2004962,20.7801977 85.2315889,20.6599174 85.2315889,20.5026542 L85.2315889,19.8919202 Z M85.2544814,20.9433366 C85.1799955,21.0698384 85.0822754,21.167307 84.9616629,21.236088 C84.8403671,21.3041778 84.7043791,21.3383955 84.5523321,21.3383955 C84.3339996,21.3383955 84.1628187,21.2730708 84.0391311,21.1420758 C83.9147601,21.0114264 83.8525747,20.8334253 83.8525747,20.6073811 C83.8525747,20.4418228 83.8966512,20.304952 83.9844625,20.19746 C84.0719322,20.0892768 84.210312,20.0039054 84.3972101,19.9410002 C84.4580289,19.9202622 84.5458403,19.8919202 84.6609859,19.8559744 C84.9312536,19.7740593 85.1164433,19.6987112 85.2162134,19.6306215 C85.2179218,19.6202525 85.2192885,19.6088466 85.2203135,19.5960582 C85.2209969,19.5829241 85.2213386,19.5649512 85.2213386,19.5407568 C85.2213386,19.3817655 85.176237,19.2552638 85.0867172,19.1612515 C84.9971975,19.0672393 84.8782934,19.0202331 84.7296633,19.0202331 C84.6128092,19.0202331 84.5072306,19.0534139 84.4115606,19.1204668 C84.3158906,19.1868284 84.2277376,19.2887902 84.1464181,19.4253153 C84.1211339,19.3434002 84.0996082,19.2777299 84.0828659,19.2279587 C84.0661237,19.1785332 84.0490398,19.1322183 84.0319558,19.0897054 C84.1857112,18.9542172 84.3380997,18.8539835 84.4884383,18.7883132 C84.6391185,18.7222973 84.7956072,18.6894621 84.9575628,18.6894621 C85.2684902,18.6894621 85.5076651,18.7620451 85.6737208,18.9072111 C85.8404599,19.0527227 85.9238295,19.2604483 85.9238295,19.5303878 L85.9238295,19.5559647 L85.9081123,20.4715472 L85.9081123,20.5717809 C85.9081123,20.7853822 85.9316881,20.9225986 85.9781563,20.9830845 C86.0246246,21.0439159 86.1155111,21.0743316 86.2504741,21.0743316 L86.2658496,21.0743316 L86.2658496,21.204981 C86.1780382,21.242655 86.0868101,21.2713426 85.9921652,21.2906981 C85.8971786,21.3103992 85.8069754,21.3204225 85.7212141,21.3204225 C85.5954765,21.3204225 85.4936563,21.2886243 85.4140452,21.2239908 C85.3347758,21.1603943 85.2811323,21.0663821 85.2544814,20.9433366 L85.2544814,20.9433366 Z" id="Fill-25" fill="#D70C18"></path>
                <path d="M86.6179834,21.2741077 C86.6309672,20.9785912 86.6408759,20.6699407 86.6483928,20.3485018 C86.6542013,20.0274085 86.6583015,19.6828121 86.6583015,19.3150583 C86.6583015,18.925184 86.6542013,18.5695274 86.6483928,18.2470515 C86.6408759,17.925267 86.6309672,17.6211097 86.6179834,17.335271 C86.6999863,17.3490963 86.7710554,17.3584284 86.8308491,17.3639585 C86.8892761,17.3687974 86.9470198,17.3712168 87.0033967,17.3712168 C87.058407,17.3712168 87.1175173,17.3684518 87.1803862,17.3622304 C87.2425717,17.3563546 87.3129574,17.3473681 87.3908601,17.335271 C87.377193,17.6311331 87.3669426,17.9397836 87.3604507,18.2612225 C87.3536171,18.5826614 87.350542,18.9269122 87.350542,19.2943203 C87.350542,19.6841946 87.3536171,20.0405425 87.3604507,20.3623271 C87.3669426,20.6851486 87.377193,20.9889602 87.3908601,21.2741077 C87.3334581,21.2623561 87.2726394,21.2533697 87.2084038,21.2474939 C87.1441683,21.2412725 87.0771993,21.2381618 87.0078385,21.2381618 C86.9381361,21.2381618 86.8718505,21.2412725 86.8079567,21.2474939 C86.7433794,21.2533697 86.6798272,21.2623561 86.6179834,21.2741077" id="Fill-27" fill="#D70C18"></path>
                <path d="M88.1034647,19.056179 L88.0095031,19.056179 C87.9398007,19.056179 87.8875239,19.0565246 87.8509643,19.0575615 C87.8147464,19.0582528 87.7819453,19.0596353 87.7515359,19.0613635 C87.7542693,19.0423537 87.7563194,19.0243807 87.7573444,19.0070991 C87.7580278,18.9905087 87.7587111,18.962858 87.7587111,18.925184 C87.7587111,18.8878556 87.7573444,18.859168 87.755636,18.8391213 C87.7542693,18.8197659 87.7525609,18.8024842 87.7515359,18.7869307 C87.7573444,18.7886589 87.7679364,18.7900414 87.7819453,18.7917696 C87.9046078,18.8042124 87.9924192,18.8100881 88.0453794,18.8100881 L88.1034647,18.8073231 C88.1051731,18.7834744 88.1061981,18.7578975 88.1075648,18.7305925 C88.1079065,18.7032874 88.1085899,18.6611202 88.1085899,18.604782 C88.1085899,18.5363466 88.1068815,18.4637636 88.1034647,18.3866874 C88.1000479,18.3099568 88.0949227,18.2138707 88.0880892,18.0994661 C88.20836,18.0534969 88.326239,18.0047626 88.4430931,17.9536089 C88.5596054,17.9021095 88.6730427,17.8492276 88.7827215,17.7946176 L88.8384151,17.8381674 C88.8285064,18.038289 88.8206478,18.2052299 88.8158643,18.3396812 C88.8103974,18.4734413 88.8083474,18.5757488 88.8083474,18.6459123 L88.8083474,18.8100881 C88.9026506,18.8100881 88.9911453,18.8080143 89.0728065,18.804558 C89.155151,18.8014473 89.2347621,18.7962628 89.3126648,18.7896958 C89.3071979,18.8287523 89.3044645,18.8570942 89.3041228,18.8740303 C89.3027561,18.8909663 89.3027561,18.908248 89.3027561,18.925184 C89.3027561,18.9542172 89.3051478,18.9946563 89.3099313,19.04581 C89.3133481,19.0527227 89.3140315,19.0579072 89.3126648,19.0613635 C89.2716633,19.0596353 89.2183615,19.0582528 89.1520759,19.0575615 C89.0857903,19.0565246 88.9679112,19.056179 88.7977553,19.056179 C88.7977553,19.0817559 88.7967303,19.122195 88.7957053,19.1771506 C88.7830631,19.5393743 88.777938,19.7975624 88.777938,19.9524061 L88.777938,20.1628967 C88.777938,20.5648682 88.7967303,20.8133785 88.836365,20.9094646 C88.874633,21.0055506 88.9501439,21.0535936 89.0618728,21.0535936 C89.1175664,21.0535936 89.2169948,21.0349294 89.3608414,20.9972554 L89.3635748,20.9944904 L89.3635748,21.1897732 C89.2494542,21.2409269 89.1449006,21.2786009 89.0475223,21.3024496 C88.9504856,21.3262983 88.8572074,21.3383955 88.7673459,21.3383955 C88.54628,21.3383955 88.3771491,21.2789465 88.2606368,21.1597031 C88.1437828,21.0401139 88.0856974,20.8676429 88.0856974,20.6412532 C88.0856974,20.6326123 88.0887725,20.4829531 88.0945811,20.1919299 C88.1003896,19.9012523 88.1034647,19.6154136 88.1034647,19.3344138 L88.1034647,19.056179 Z" id="Fill-29" fill="#D70C18"></path>
                <g id="Group-33" transform="translate(89.696096, 17.335271)">
                    <mask id="mask-6" fill="white">
                        <use xlink:href="#path-5"></use>
                    </mask>
                    <g id="Clip-32"></g>
                    <path d="M0,3.93883669 C0.0146921737,3.75426853 0.0249425275,3.52580494 0.0314344182,3.25310029 C0.0369012735,2.98074128 0.0403180581,2.58602809 0.0403180581,2.06965199 C0.0403180581,1.52251453 0.0369012735,1.09600308 0.0314344182,0.790117644 C0.0249425275,0.483886571 0.0146921737,0.220514023 0,0 C0.0707274409,0.0138253306 0.136671383,0.0241943286 0.198515184,0.0307613606 C0.260017307,0.0380196592 0.320152715,0.0414759918 0.377213018,0.0414759918 C0.438031784,0.0414759918 0.499533906,0.0380196592 0.562061064,0.0307613606 C0.624588222,0.0241943286 0.690190486,0.0138253306 0.757501142,0 C0.740758898,0.143783438 0.727775116,0.297590241 0.718208119,0.461766042 C0.708982801,0.625941843 0.704199303,0.802906075 0.704199303,0.992658738 L0.704199303,1.80800761 C0.798502557,1.66284164 0.912964841,1.55396716 1.04656112,1.48138417 C1.18015739,1.40880119 1.33254599,1.37216406 1.50509361,1.37216406 C1.63014792,1.37216406 1.74495189,1.39428459 1.84848046,1.43748875 C1.95303407,1.48138417 2.04050375,1.54463506 2.11123119,1.62827831 C2.17204996,1.6987875 2.21475977,1.78588708 2.24072733,1.88992269 C2.26566986,1.99430394 2.27865364,2.16262734 2.27865364,2.39523853 C2.27865364,2.42945622 2.27728692,2.5196665 2.27557853,2.66586937 C2.27387014,2.81172661 2.27352846,2.94064782 2.27352846,3.05194173 C2.27352846,3.24480509 2.27557853,3.41140033 2.28138707,3.5503449 C2.28582889,3.68998074 2.29368749,3.81924758 2.30393784,3.93883669 C2.23286872,3.93054149 2.16521639,3.92432009 2.10098084,3.91948123 C2.03674529,3.91567926 1.97695156,3.91360546 1.92057461,3.91360546 C1.86146424,3.91360546 1.80132883,3.91567926 1.74016839,3.91948123 C1.67798291,3.92432009 1.61101393,3.93054149 1.53823642,3.93883669 C1.55019517,3.79021439 1.55907881,3.61255889 1.56591237,3.40552456 C1.57274594,3.19849024 1.57582105,2.96864411 1.57582105,2.7159862 C1.57582105,2.33440707 1.54677838,2.08866182 1.48766801,1.97875044 C1.42855763,1.8681478 1.32024556,1.81319211 1.16307347,1.81319211 C1.00590138,1.81319211 0.89314749,1.87886243 0.82447012,2.0105487 C0.756476107,2.14223498 0.721966582,2.36447717 0.721966582,2.67762091 C0.721966582,2.84145107 0.72470001,3.03051247 0.731191901,3.24411383 C0.736658756,3.45771518 0.744517361,3.68928947 0.754767714,3.93883669 C0.68711538,3.93054149 0.622196473,3.92432009 0.560010993,3.91948123 C0.497142157,3.91567926 0.436323391,3.91360546 0.377213018,3.91360546 C0.320152715,3.91360546 0.259675628,3.91567926 0.196806792,3.91948123 C0.134621313,3.92432009 0.0683356917,3.93054149 0,3.93883669" id="Fill-31" fill="#D70C18" mask="url(#mask-6)"></path>
                </g>
                <path d="M55.1491924,27.1313127 C55.1912189,26.8613731 55.2277785,26.6294532 55.2581878,26.4362442 C55.2885972,26.2433808 55.3090979,26.1054731 55.3193483,26.0235581 L55.6511181,23.5436394 C55.6846026,23.5508977 55.7197954,23.5557365 55.756355,23.5591929 C55.792573,23.5626492 55.831866,23.5643774 55.8738924,23.5643774 C55.9162606,23.5643774 55.9562369,23.5626492 55.9948466,23.5591929 C56.0324312,23.5557365 56.0693325,23.5508977 56.1045254,23.5436394 C56.2903985,23.9625469 56.4834468,24.3759243 56.684012,24.7834259 C56.8842356,25.1916188 57.0909511,25.5960097 57.3038168,25.9979812 C57.5081405,25.609835 57.7093891,25.2113199 57.9068793,24.803127 C58.1047111,24.3942428 58.2981011,23.9742984 58.487391,23.5436394 C58.5246339,23.5508977 58.5629019,23.5557365 58.6015116,23.5591929 C58.6408046,23.5626492 58.681806,23.5643774 58.7262242,23.5643774 C58.7696174,23.5643774 58.8119855,23.5626492 58.8512785,23.5591929 C58.8912549,23.5557365 58.9291812,23.5508977 58.9640324,23.5436394 L59.2606093,26.0543194 C59.2930688,26.3318629 59.3217697,26.5499575 59.347054,26.7082576 C59.3723382,26.8665576 59.3983057,27.0079216 59.4259817,27.1313127 C59.3409037,27.1237087 59.2630011,27.1174873 59.1909069,27.1126485 C59.1194961,27.1081552 59.0508187,27.1057358 58.9845331,27.1057358 C58.9189308,27.1057358 58.8495701,27.1081552 58.7781593,27.1116116 C58.7060652,27.1164504 58.6319209,27.1226718 58.5560683,27.1313127 C58.5543599,27.1192155 58.5526515,27.1012426 58.5509431,27.0773939 C58.5359093,26.7096401 58.5236089,26.482559 58.5133585,26.3951138 L58.3452527,24.7205206 C58.1511793,25.0969153 57.9567643,25.4840245 57.7626909,25.8825397 C57.5679342,26.2807092 57.3697607,26.6968517 57.1668037,27.1313127 C57.1551866,27.1278563 57.1422029,27.1250913 57.1275107,27.1237087 C57.1135019,27.1219806 57.0899261,27.1209437 57.0578083,27.1209437 C57.0287656,27.1209437 57.0079232,27.1219806 56.9945978,27.1237087 C56.9809306,27.1250913 56.9679468,27.1278563 56.9563298,27.1313127 C56.7550812,26.70411 56.5586161,26.2962627 56.3659094,25.9094991 C56.1732028,25.5220442 55.9839129,25.1539448 55.7980398,24.8055464 L55.6740105,25.8953281 L55.6685437,25.9361128 C55.6060165,26.5022601 55.5738987,26.9004296 55.572532,27.1313127 C55.533239,27.1226718 55.4963377,27.1164504 55.4611448,27.1116116 C55.4252686,27.1081552 55.3924675,27.1057358 55.3620581,27.1057358 C55.3282319,27.1057358 55.2944058,27.1081552 55.2605796,27.1116116 C55.2270951,27.1164504 55.1895105,27.1226718 55.1491924,27.1313127" id="Fill-34" fill="#D70C18"></path>
                <path d="M61.1852841,25.7491252 C60.9450841,25.7988964 60.7721948,25.8738989 60.6652494,25.9744781 C60.5593291,26.075403 60.5060273,26.2157301 60.5060273,26.3951138 C60.5060273,26.5458099 60.5330199,26.6584864 60.5870051,26.7338344 C60.6409903,26.8088368 60.7216264,26.8465109 60.8275467,26.8465109 C60.9423507,26.8465109 61.0308454,26.8046892 61.0926892,26.721046 C61.1541913,26.6370571 61.1852841,26.5167767 61.1852841,26.3595136 L61.1852841,25.7491252 Z M61.2081765,26.8005416 C61.1333489,26.9270434 61.0359706,27.0241664 60.9153581,27.0929474 C60.7940622,27.1610371 60.6577325,27.1956005 60.5060273,27.1956005 C60.2876947,27.1956005 60.1165138,27.1299301 59.9924846,26.9989351 C59.8681136,26.8682858 59.8062698,26.6902846 59.8062698,26.4642405 C59.8062698,26.2986821 59.8500046,26.1618114 59.9381577,26.0543194 C60.0256274,25.9464818 60.1640071,25.8611104 60.3509053,25.7978595 C60.411724,25.7771215 60.4995354,25.7491252 60.6143394,25.7131794 C60.8849487,25.6309187 61.0701384,25.5559162 61.1699085,25.4874809 C61.1716169,25.4774575 61.172642,25.465706 61.1740087,25.4532632 C61.174692,25.4397835 61.1750337,25.4218105 61.1750337,25.3976162 C61.1750337,25.2386249 61.1299321,25.1121231 61.0404124,25.0184565 C60.950551,24.9240986 60.8319885,24.8774381 60.6830167,24.8774381 C60.5665044,24.8774381 60.4609257,24.9102733 60.3652558,24.9773262 C60.2695858,25.0440334 60.1814327,25.1456496 60.1001133,25.2821747 C60.0748291,25.2002596 60.0533033,25.1345893 60.0365611,25.0848181 C60.0198188,25.0353925 60.0027349,24.9894233 59.985651,24.9465648 C60.1394063,24.8114222 60.2917949,24.7111885 60.4421334,24.6451726 C60.5928136,24.5795023 60.7493023,24.5466671 60.9112579,24.5466671 C61.2221853,24.5466671 61.4613603,24.6189045 61.627416,24.7640704 C61.7941551,24.909582 61.8775246,25.1173076 61.8775246,25.3875928 L61.8775246,25.4131697 L61.8614657,26.3287522 L61.8614657,26.4286402 C61.8614657,26.6422416 61.8853832,26.779458 61.9318515,26.8399438 C61.9783198,26.9011209 62.0692062,26.931191 62.2041692,26.931191 L62.2192031,26.931191 L62.2192031,27.062186 C62.1317334,27.0995144 62.0401636,27.128202 61.9458603,27.1479031 C61.8508737,27.1676042 61.7603289,27.1776275 61.6749093,27.1776275 C61.5488299,27.1776275 61.4473514,27.1454836 61.3677404,27.0811958 C61.288471,27.0172537 61.2348274,26.9232414 61.2081765,26.8005416 L61.2081765,26.8005416 Z" id="Fill-36" fill="#D70C18"></path>
                <path d="M63.1572813,25.3822355 C63.1572813,25.5979107 63.188374,25.7558651 63.2498761,25.85679 C63.3117199,25.9577149 63.4090983,26.0081774 63.5426946,26.0081774 C63.6810744,26.0081774 63.7808445,25.9549499 63.8420049,25.8491861 C63.9028237,25.7430767 63.9332331,25.5678406 63.9332331,25.3234779 C63.9332331,25.1337252 63.9021403,24.9927068 63.8406382,24.9000771 C63.7784527,24.8081387 63.6848328,24.7618238 63.5580701,24.7618238 C63.4313074,24.7618238 63.3325623,24.815397 63.2628599,24.9235802 C63.1924742,25.0310721 63.1572813,25.1841877 63.1572813,25.3822355 L63.1572813,25.3822355 Z M63.1572813,27.2825272 C63.0728867,27.3271139 63.0072844,27.3903648 62.9597911,27.4722799 C62.9122978,27.554195 62.888722,27.647516 62.888722,27.7515516 C62.888722,27.9312809 62.9485157,28.0750643 63.0670782,28.1829019 C63.1866656,28.2903938 63.3469128,28.343967 63.5478198,28.343967 C63.7825529,28.343967 63.9667175,28.2955783 64.1003138,28.1977641 C64.2339101,28.1006412 64.3005374,27.9654986 64.3005374,27.7930276 C64.3005374,27.637147 64.2571442,27.5213598 64.1703579,27.4453205 C64.0828882,27.3692812 63.9451918,27.326077 63.7555603,27.3160536 L63.1572813,27.2825272 Z M62.9293817,27.2517659 L62.9345069,27.2106355 C62.8296116,27.178146 62.7479505,27.126301 62.6898651,27.0544093 C62.6314381,26.9825175 62.6023955,26.8961092 62.6023955,26.79553 C62.6023955,26.6773234 62.6471553,26.5681033 62.7366751,26.4671783 C62.8261949,26.3662534 62.954666,26.2798451 63.1217467,26.208299 L63.1217467,26.1440112 C62.9006808,26.0994246 62.7339417,26.0143988 62.6211878,25.8889339 C62.5091172,25.7631234 62.4523986,25.5996389 62.4523986,25.397789 C62.4523986,25.1430573 62.549777,24.9384424 62.7428253,24.7835987 C62.936557,24.6291006 63.1962326,24.5516788 63.5221939,24.5516788 C63.5526033,24.5516788 63.6684323,24.5589371 63.8683142,24.5731081 C64.0688794,24.5879703 64.2540691,24.5952286 64.4249084,24.5952286 C64.4942691,24.5952286 64.5673883,24.5938461 64.6449493,24.5914266 C64.722852,24.5886616 64.8051965,24.5848596 64.8912995,24.5796751 L64.8912995,24.836135 C64.7850375,24.8309505 64.6408491,24.8250747 64.4583928,24.818162 C64.4201249,24.8164339 64.394499,24.815397 64.3791234,24.815397 C64.4689849,24.873809 64.5359539,24.9470832 64.5810554,25.0362566 C64.6254736,25.1250844 64.6480244,25.2305025 64.6480244,25.3514742 C64.6480244,25.6234875 64.5451792,25.8357064 64.3398304,25.9888219 C64.1344817,26.1419374 63.8478134,26.2183224 63.4788007,26.2183224 L63.3906477,26.2183224 C63.3229953,26.2248894 63.2676434,26.2518488 63.225617,26.297818 C63.1832488,26.3437873 63.1627481,26.4011624 63.1627481,26.4695978 C63.1627481,26.6285891 63.4080733,26.7174168 63.9004319,26.7364267 L63.9281079,26.7364267 C63.9434834,26.7381548 63.9639841,26.739883 63.9916601,26.7416112 C64.3070293,26.7571647 64.5110113,26.7899998 64.6022395,26.8414992 C64.7071348,26.9030219 64.7874292,26.9870108 64.8417561,27.0927746 C64.897108,27.198884 64.9244423,27.3219294 64.9244423,27.4622565 C64.9244423,27.785078 64.7925544,28.0494874 64.5291203,28.2554849 C64.2653445,28.4614823 63.9229827,28.5648266 63.5023765,28.5648266 C63.1555729,28.5648266 62.8853052,28.5046864 62.6908902,28.3840604 C62.4964751,28.2634344 62.3997801,28.0978761 62.3997801,27.8877311 C62.3997801,27.7339243 62.4431733,27.6050031 62.531668,27.5006218 C62.618796,27.3962406 62.7517089,27.3132886 62.9293817,27.2517659 L62.9293817,27.2517659 Z" id="Fill-38" fill="#D70C18"></path>
                <path d="M66.4702981,25.7491252 C66.2304398,25.7988964 66.0575505,25.8738989 65.9506052,25.9744781 C65.8443432,26.075403 65.7910413,26.2157301 65.7910413,26.3951138 C65.7910413,26.5458099 65.8180339,26.6584864 65.8720191,26.7338344 C65.9260043,26.8088368 66.0069821,26.8465109 66.1125608,26.8465109 C66.2273647,26.8465109 66.3162011,26.8046892 66.3777033,26.721046 C66.4392054,26.6370571 66.4702981,26.5167767 66.4702981,26.3595136 L66.4702981,25.7491252 Z M66.4931906,26.8005416 C66.4187047,26.9270434 66.3209846,27.0241664 66.2007138,27.0929474 C66.0790763,27.1610371 65.9430883,27.1956005 65.7910413,27.1956005 C65.5730505,27.1956005 65.4015279,27.1299301 65.2778403,26.9989351 C65.1534693,26.8682858 65.0912839,26.6902846 65.0912839,26.4642405 C65.0912839,26.2986821 65.1353604,26.1618114 65.2231717,26.0543194 C65.3109831,25.9464818 65.4490212,25.8611104 65.636261,25.7978595 C65.6967381,25.7771215 65.7848911,25.7491252 65.8996951,25.7131794 C66.1699627,25.6309187 66.3554942,25.5559162 66.4552643,25.4874809 C66.4569727,25.4774575 66.4579977,25.465706 66.4590227,25.4532632 C66.4597061,25.4397835 66.4603894,25.4218105 66.4603894,25.3976162 C66.4603894,25.2386249 66.4152879,25.1121231 66.3254264,25.0184565 C66.2359067,24.9240986 66.1173443,24.8774381 65.9683725,24.8774381 C65.8515184,24.8774381 65.7459398,24.9102733 65.6502698,24.9773262 C65.5549415,25.0440334 65.4664468,25.1456496 65.385469,25.2821747 C65.3598431,25.2002596 65.3383174,25.1345893 65.3219168,25.0848181 C65.3048329,25.0353925 65.287749,24.9894233 65.2710067,24.9465648 C65.424762,24.8114222 65.5771506,24.7111885 65.7271475,24.6451726 C65.8778277,24.5795023 66.0343164,24.5466671 66.1966137,24.5466671 C66.5075411,24.5466671 66.7463743,24.6189045 66.91243,24.7640704 C67.0791691,24.909582 67.1625387,25.1173076 67.1625387,25.3875928 L67.1625387,25.4131697 L67.1468215,26.3287522 L67.1468215,26.4286402 C67.1468215,26.6422416 67.170739,26.779458 67.2168655,26.8399438 C67.2633338,26.9011209 67.3542203,26.931191 67.4891833,26.931191 L67.5045588,26.931191 L67.5045588,27.062186 C67.4170891,27.0995144 67.3255193,27.128202 67.2308744,27.1479031 C67.1362294,27.1676042 67.0456846,27.1776275 66.9599233,27.1776275 C66.8341857,27.1776275 66.7323655,27.1454836 66.6527544,27.0811958 C66.573485,27.0172537 66.5201832,26.9232414 66.4931906,26.8005416 L66.4931906,26.8005416 Z" id="Fill-40" fill="#D70C18"></path>
                <path d="M67.5684185,27.1313127 L67.5660268,27.0466325 C67.7604418,26.7507704 68.0628272,26.2852024 68.4735247,25.6492372 L68.9573414,24.9002499 C68.8493711,24.8950654 68.7653182,24.8923004 68.7055244,24.8912635 C68.645389,24.8909178 68.5876454,24.8902266 68.5316101,24.8902266 C68.3911802,24.8902266 68.1694309,24.8957567 67.8649954,24.9078539 C67.8380028,24.9078539 67.8181855,24.9085451 67.8069101,24.9102733 C67.8099852,24.8919547 67.8127186,24.8729449 67.814427,24.8539351 C67.8161354,24.8352709 67.8175021,24.8062377 67.8175021,24.7668355 C67.8175021,24.7277789 67.8161354,24.6977088 67.814427,24.6769709 C67.8127186,24.6565785 67.8099852,24.6379143 67.8069101,24.6206326 C67.9620321,24.6275453 68.1250127,24.6327298 68.2948269,24.6361861 C68.4646411,24.6396425 68.6457307,24.6413706 68.838779,24.6413706 C69.0328524,24.6413706 69.2125753,24.6396425 69.3789727,24.6361861 C69.5436617,24.6327298 69.7008338,24.6275453 69.8498056,24.6206326 L69.8498056,24.6849204 C69.7278264,24.8694886 69.5590372,25.1307873 69.341388,25.4681254 C69.1247639,25.8061547 68.8322871,26.2616994 68.4663495,26.8361419 C68.5907205,26.8413264 68.6843404,26.8447827 68.7461842,26.8451283 C68.8076863,26.8465109 68.8661133,26.8465109 68.9224902,26.8465109 C69.0793207,26.8465109 69.2327343,26.8437458 69.3823894,26.8375244 C69.5320446,26.8319943 69.679308,26.8233534 69.8248631,26.8133301 C69.8211046,26.8458196 69.8187128,26.8741615 69.8170044,26.8976646 C69.8152961,26.9218589 69.8149544,26.9432882 69.8149544,26.9619524 C69.8149544,26.9806166 69.8152961,27.0020458 69.8170044,27.0258945 C69.8187128,27.0500889 69.8211046,27.0849978 69.8248631,27.1313127 C69.6728161,27.1226718 69.5084688,27.1164504 69.3314794,27.1116116 C69.1551733,27.1081552 68.9508496,27.1057358 68.7198749,27.1057358 C68.489242,27.1057358 68.2815015,27.1081552 68.0956284,27.1116116 C67.9097553,27.1164504 67.7337909,27.1226718 67.5684185,27.1313127" id="Fill-42" fill="#D70C18"></path>
                <path d="M70.2858307,27.1313127 C70.2988397,26.8631013 70.3077406,26.6297988 70.3135604,26.4327878 C70.3190379,26.23474 70.3217766,26.0498262 70.3217766,25.8773552 C70.3217766,25.6789617 70.3186955,25.4771119 70.3121911,25.2707688 C70.3056866,25.0647714 70.297128,24.848405 70.2858307,24.6206326 C70.3457405,24.6258171 70.4077044,24.6296191 70.4720646,24.6327298 C70.5364248,24.634458 70.6031815,24.6361861 70.6706228,24.6361861 C70.7390911,24.6361861 70.8058477,24.634458 70.871235,24.6327298 C70.9359375,24.6296191 70.9982437,24.6258171 71.0557571,24.6206326 C71.0437752,24.848405 71.0348743,25.0647714 71.0290545,25.2707688 C71.0228923,25.4771119 71.0201536,25.6789617 71.0201536,25.8773552 C71.0201536,26.0498262 71.0228923,26.2354312 71.0290545,26.4334791 C71.0348743,26.6322182 71.0437752,26.8648294 71.0557571,27.1313127 C70.9896852,27.1226718 70.9239556,27.1164504 70.8609647,27.1116116 C70.7972892,27.1081552 70.733956,27.1057358 70.6706228,27.1057358 C70.6096859,27.1057358 70.5470374,27.1081552 70.4833619,27.1116116 C70.4196863,27.1164504 70.3539567,27.1226718 70.2858307,27.1313127 M70.281038,23.6746344 C70.281038,23.5633405 70.3190379,23.4693282 70.3950377,23.3925976 C70.4713799,23.3155214 70.5655239,23.2771561 70.6778119,23.2771561 C70.7853072,23.2771561 70.8773971,23.3162127 70.9527123,23.3936345 C71.0280274,23.4717477 71.065685,23.5654143 71.065685,23.6746344 C71.065685,23.7855827 71.0273428,23.8795949 70.9516853,23.9556342 C70.8750007,24.0313279 70.7818838,24.0696932 70.6719921,24.0696932 C70.5617581,24.0696932 70.4693259,24.0313279 70.3940107,23.9556342 C70.3186955,23.8795949 70.281038,23.7855827 70.281038,23.6746344" id="Fill-44" fill="#D70C18"></path>
                <path d="M71.7075797,27.1313127 C71.7212468,26.8993927 71.7311555,26.6799156 71.7379891,26.4735726 C71.7448226,26.2668839 71.7482394,26.0695273 71.7482394,25.8797746 C71.7482394,25.6668645 71.7448226,25.4549913 71.7379891,25.2451919 C71.7311555,25.0353925 71.7212468,24.8273213 71.7075797,24.6206326 C71.7615649,24.6275453 71.8179418,24.6327298 71.8767105,24.6361861 C71.9347959,24.6396425 71.9980064,24.6413706 72.065317,24.6413706 C72.1329694,24.6413706 72.1951549,24.6396425 72.2518735,24.6361861 C72.3082504,24.6327298 72.3622356,24.6275453 72.412804,24.6206326 L72.412804,24.9825107 C72.5187244,24.840801 72.6383118,24.7350372 72.769858,24.6669475 C72.9017459,24.5985121 73.0496927,24.5642944 73.21404,24.5642944 C73.3401194,24.5642944 73.45629,24.5864149 73.5611853,24.6296191 C73.6657389,24.6735145 73.7542337,24.737111 73.8270112,24.8207543 C73.8844131,24.8891897 73.9254146,24.9731786 73.9500154,25.0734122 C73.9746163,25.1733002 73.9869167,25.3447343 73.9869167,25.5873689 C73.9869167,25.6219322 73.9858917,25.7117968 73.9845249,25.8579997 C73.9821332,26.003857 73.9817915,26.1327782 73.9817915,26.2440721 C73.9817915,26.4079022 73.9845249,26.5627459 73.9910168,26.7079119 C73.9964837,26.8534235 74.005709,26.9944419 74.0173261,27.1313127 C73.9445486,27.1226718 73.8765545,27.1164504 73.813344,27.1116116 C73.7497918,27.1081552 73.6882897,27.1057358 73.6298627,27.1057358 C73.570069,27.1057358 73.5095919,27.1081552 73.4484314,27.1116116 C73.386246,27.1164504 73.319277,27.1226718 73.2468411,27.1313127 C73.2584582,26.9823447 73.2680252,26.8046892 73.2758838,26.5976549 C73.2830591,26.3909662 73.2871592,26.1607745 73.2871592,25.9081165 C73.2871592,25.5265374 73.2574332,25.2807922 73.1969561,25.1708808 C73.137504,25.0606238 73.0285086,25.0056681 72.8713365,25.0056681 C72.7141644,25.0056681 72.6014105,25.0713384 72.5327332,25.2030247 C72.4647392,25.334711 72.4302296,25.5566075 72.4302296,25.8697513 C72.4302296,26.0162998 72.4333047,26.1953378 72.4377466,26.4054828 C72.4432134,26.6159735 72.4497053,26.8575711 72.4579056,27.1313127 C72.39367,27.1226718 72.3304595,27.1164504 72.268274,27.1116116 C72.2057469,27.1081552 72.1445864,27.1057358 72.0854761,27.1057358 C72.0280741,27.1057358 71.9679387,27.1081552 71.9057532,27.1116116 C71.8428844,27.1164504 71.7769404,27.1226718 71.7075797,27.1313127" id="Fill-46" fill="#D70C18"></path>
                <path d="M75.2515028,25.6235567 L76.1309832,25.6235567 C76.1309832,25.6045468 76.1320082,25.5813894 76.1337166,25.5527019 C76.135425,25.5250512 76.13645,25.506387 76.13645,25.4977462 C76.13645,25.2599505 76.1019405,25.0805668 76.0336048,24.9592495 C75.9652691,24.8379323 75.8637906,24.7771008 75.7308777,24.7771008 C75.5788308,24.7771008 75.4602684,24.8465731 75.3772405,24.9848264 C75.2931876,25.1234253 75.2515028,25.3207819 75.2515028,25.5772418 L75.2515028,25.6235567 Z M75.2515028,25.882436 C75.2515028,26.1848651 75.3232553,26.4250802 75.4657352,26.6030813 C75.6085568,26.7807368 75.8005801,26.8695646 76.0424885,26.8695646 C76.1624176,26.8695646 76.2772216,26.8491722 76.387242,26.8083875 C76.4972625,26.7672572 76.6035245,26.7046975 76.7067114,26.6210543 L76.7572798,26.6594196 L76.6435009,26.9566642 C76.5348471,27.0337404 76.4080844,27.0928437 76.2615044,27.1336284 C76.1156076,27.1747588 75.9567272,27.1954968 75.7858879,27.1954968 C75.3823657,27.1954968 75.0663131,27.0748708 74.8367052,26.8336187 C74.6081223,26.5927124 74.49366,26.2595219 74.49366,25.8337017 C74.49366,25.45074 74.6074389,25.1410526 74.8356801,24.9053308 C75.0639214,24.6692632 75.3659651,24.5514023 75.7411281,24.5514023 C76.097157,24.5514023 76.3708415,24.6512903 76.5608147,24.8517576 C76.7511296,25.0515336 76.8464579,25.3387549 76.8464579,25.7130757 C76.8464579,25.7576624 76.8457745,25.7918801 76.8447495,25.8157288 C76.8440661,25.8395775 76.8423577,25.8610067 76.8406493,25.8796709 L75.2515028,25.882436 Z" id="Fill-48" fill="#D70C18"></path>
                <path d="M51.2936244,13.9388711 C51.0312153,13.636442 50.7486472,13.4553302 50.5986504,13.3734151 C50.5624325,13.3571703 50.5268979,13.3395431 50.4920467,13.3191507 L50.4896549,13.3181138 L50.4903383,13.3181138 C50.3218908,13.2213365 50.163352,13.0899958 49.9767956,13.0409159 C49.6949108,12.967296 49.3938921,13.0028963 49.1096156,12.9413735 C48.7098519,12.8553108 48.3117964,12.7547316 47.9072492,12.6921719 C47.4025901,12.6133676 46.8794804,12.5929752 46.385755,12.7422888 C46.1633223,12.8093416 45.8968131,12.8981694 45.7355409,13.0772074 C45.6016029,13.2258297 45.604678,13.4007201 45.5626516,13.5852883 C45.5230169,13.7584506 45.5008078,13.9347235 45.4994411,14.1127247 C45.4936325,14.7732298 45.7457912,15.4275136 46.0697024,15.9912415 C46.2432751,16.2933249 46.4462321,16.5777811 46.6707148,16.8432275 C46.8760636,17.0865533 47.1183136,17.4086835 47.3827727,17.5877215 C47.64279,17.7636488 47.8218295,17.889805 47.9858352,18.1587077 C48.1016642,18.3481147 48.1149897,18.4037617 48.3340055,18.4891331 C48.6914012,18.6280776 49.0983403,18.6242757 49.4755533,18.6515807 C49.9685953,18.6875266 50.5016137,18.6961674 50.9902139,18.6080309 C51.3616184,18.5409781 51.4323458,18.2758773 51.7343896,18.0975306 C52.0179827,17.9305897 52.1604626,17.9036303 52.2913255,17.5877215 C52.8796958,16.1675144 52.1543124,14.9605631 51.2936244,13.9388711" id="Fill-50" fill="#D70C18"></path>
                <path d="M63.1215759,5.01921715 C63.0259059,4.52392468 62.7511964,3.47354519 62.5007461,2.79714089 L62.8827426,2.60393189 C63.3720262,3.14761302 63.8855689,4.08946367 64.100143,4.64489632 L63.1215759,5.01921715 Z M61.6530419,12.4098933 L62.8109902,12.4098933 L62.8109902,10.3208858 L61.6530419,10.3208858 L61.6530419,12.4098933 Z M61.6530419,9.77720468 L62.8109902,9.77720468 L62.8109902,7.89315775 L61.6530419,7.89315775 L61.6530419,9.77720468 Z M61.6530419,7.35016789 L62.8109902,7.35016789 L62.8109902,5.73156731 L61.6530419,5.73156731 L61.6530419,7.35016789 Z M60.3160541,4.63314479 L55.1703765,4.63314479 L55.1703765,4.08946367 L57.832735,4.08946367 C57.4032452,3.63046269 56.9734137,3.25579623 56.5196647,2.88182104 L56.6867455,2.50715458 C57.3554102,2.70070921 58.1672382,3.0508357 58.6688222,3.41305937 L58.190814,4.08946367 L60.3160541,4.08946367 L60.3160541,4.63314479 Z M55.3019227,8.40054738 L54.9797199,8.12265824 C55.5407559,7.20500192 55.9586287,5.88883045 56.1735444,4.71713368 L57.1404945,4.94663416 C57.0807007,5.24871764 56.9498379,5.59884414 56.7940325,5.9735106 C57.2481232,6.2873456 57.6420784,6.62537493 57.9403637,6.97550143 L57.2600819,7.6277114 C57.068742,7.24129341 56.8418675,6.83033546 56.5914172,6.43216594 C56.2333382,7.16905606 55.75533,7.91769771 55.3019227,8.40054738 L55.3019227,8.40054738 Z M65.664347,12.4098933 L65.664347,12.9653259 L61.6530419,12.9653259 L61.6530419,13.8833279 L60.6023806,13.8833279 L60.6143394,7.55547405 C60.4476003,7.8209204 60.2801778,8.08671238 60.1011383,8.3279644 L59.7669768,8.07461521 C59.9101401,7.77253174 60.0413446,7.48254543 60.1489733,7.18080759 L59.5875956,7.70029439 C59.4088978,7.32597356 59.1936403,6.92745841 58.9308896,6.55279195 C58.7163155,7.01213856 58.4419477,7.45904237 58.1552795,7.85721189 L58.3582365,7.85721189 L58.3582365,8.99227153 L60.3396299,8.99227153 L60.3396299,9.53560703 L58.3582365,9.53560703 L58.3582365,9.97041367 C59.0743945,10.3813716 59.7546764,10.8037355 60.2562603,11.2869308 L59.552061,12.0836155 C59.2175578,11.5765715 58.7163155,10.9730958 58.3582365,10.5503863 L58.3582365,13.9555652 L57.3314927,13.9555652 L57.3314927,10.7916383 C56.8780854,11.4801398 56.0778745,12.4223361 55.0993074,13.1343406 L54.8485154,12.7845597 C55.7078367,11.9146008 56.5196647,10.8521241 57.0807007,9.53560703 L55.1109244,9.53560703 L55.1109244,8.99227153 L57.3314927,8.99227153 L57.3314927,7.85721189 L57.6420784,7.85721189 C58.131362,6.96340427 58.382154,5.86463612 58.5133585,4.76586797 L59.4803086,5.00711999 C59.4208565,5.33305215 59.301269,5.68352429 59.1577641,6.05749948 C59.5756368,6.33573426 59.9576334,6.6374721 60.2323428,6.96340427 C60.6502156,5.73156731 60.7937205,4.427493 60.9724184,2.66441771 L62.0589559,2.88182104 C61.9875451,3.67850571 61.8443818,4.4513417 61.6291244,5.18823182 L65.5088833,5.18823182 L65.5088833,5.73156731 L63.8377339,5.73156731 L63.8377339,7.34982226 L65.210598,7.34982226 L65.210598,7.89315775 L63.8377339,7.89315775 L63.8377339,9.77755031 L65.2225567,9.77755031 L65.2225567,10.3208858 L63.8377339,10.3208858 L63.8377339,12.4098933 L65.664347,12.4098933 Z" id="Fill-52" fill="#D70C18"></path>
                <path d="M79.1203963,11.8063139 L78.1773638,12.2770664 C77.8787368,11.3106758 77.5684928,10.4776996 77.1745375,9.65647498 L77.5086991,9.42697449 C78.1773638,10.1275731 78.7264411,10.9367006 79.1203963,11.8063139 L79.1203963,11.8063139 Z M74.8941755,7.92934555 C75.479129,8.183386 76.5653248,8.78720732 77.0194155,9.25795982 L76.3148745,10.0670873 C75.8970018,9.53584897 75.1449675,8.7267215 74.6796014,8.27981768 L74.8941755,7.92934555 Z M77.2339896,10.8765604 C77.7834085,12.8566934 77.8787368,13.6295294 76.0165892,13.6295294 C74.2733457,13.6295294 74.0345125,13.4971518 74.0345125,12.1923862 L74.0345125,9.05265366 L75.0851738,9.05265366 L75.0851738,11.9995229 C75.0851738,12.4823726 75.1928025,12.6392901 75.9448368,12.6392901 C76.8044998,12.6392901 76.8164585,12.4823726 76.8044998,10.8765604 L77.2339896,10.8765604 Z M75.1090912,5.26105675 L72.6500314,5.26105675 L72.6500314,4.71702999 L75.1090912,4.71702999 L75.1090912,2.68850835 L76.1833283,2.68850835 L76.1833283,4.71702999 L78.6905648,4.71702999 L78.6905648,5.26105675 L76.1833283,5.26105675 L76.1833283,7.34971857 L78.5354428,7.34971857 L78.5354428,7.89339969 L72.9008234,7.89339969 L72.9008234,7.34971857 L75.1090912,7.34971857 L75.1090912,5.26105675 Z M69.7372225,12.4702754 L71.0981278,12.4702754 L71.0981278,10.2723935 L69.7372225,10.2723935 L69.7372225,12.4702754 Z M73.294437,9.69276647 L73.7123097,9.77744662 C73.6408989,11.0573266 73.3661894,12.1198033 72.8171121,12.8566934 L72.0172429,12.2528721 L72.0172429,13.7142095 L71.1100866,13.7142095 L71.1100866,13.0015137 L69.7368808,13.0015137 L69.7368808,13.8835698 L68.8061487,13.8835698 L68.8061487,9.7408095 L72.0172429,9.7408095 L72.0172429,12.1322461 C72.6261139,11.5042304 73.09148,10.7794375 73.294437,9.69276647 L73.294437,9.69276647 Z M68.7699308,8.56980399 L72.1245299,8.56980399 L72.1245299,8.06241436 L68.7699308,8.06241436 L68.7699308,8.56980399 Z M68.7699308,6.90350602 L72.1245299,6.90350602 L72.1245299,6.39611639 L68.7699308,6.39611639 L68.7699308,6.90350602 Z M72.3992394,5.26105675 L68.4238105,5.26105675 L68.4238105,4.71702999 L70.2504236,4.71702999 C69.8564683,4.02887416 69.4146781,3.2802325 69.1399686,2.88206298 L69.4385956,2.57963387 C69.9996316,2.95430033 70.7875421,3.60616467 71.2771673,4.23418031 L70.6563376,4.71702999 L72.3992394,4.71702999 L72.3992394,5.26105675 Z" id="Fill-54" fill="#D70C18"></path>
                <g id="Group-58" transform="translate(81.148087, 2.556027)">
                    <mask id="mask-8" fill="white">
                        <use xlink:href="#path-7"></use>
                    </mask>
                    <g id="Clip-57"></g>
                    <path d="M6.79290943,2.64444011 C6.57799368,1.93174432 6.20795591,1.0016452 5.84987688,0.25300355 L6.2318734,0 C6.85270316,0.615572845 7.4499571,1.4972833 7.78377696,2.16124481 L6.79290943,2.64444011 Z M10.8520495,7.52305365 L10.8520495,8.06673478 L8.51223543,8.06673478 L8.51223543,11.3391905 L7.41339751,11.3391905 L7.41339751,8.06673478 L5.12141841,8.06673478 L5.12141841,7.52305365 L7.41339751,7.52305365 L7.41339751,5.56676937 L5.5276741,5.56676937 L5.5276741,5.02343388 L7.41339751,5.02343388 L7.41339751,3.27211012 L5.63496113,3.27211012 L5.63496113,2.72877463 L8.28536094,2.72877463 C8.54811167,2.02852163 8.94172525,0.748641652 9.06131271,0.0476973906 L10.159809,0.458655343 C9.88509948,1.08632535 9.37155675,2.0167701 8.84639696,2.72877463 L10.6849687,2.72877463 L10.6849687,3.27211012 L8.51223543,3.27211012 L8.51223543,5.02343388 L10.422218,5.02343388 L10.422218,5.56676937 L8.51223543,5.56676937 L8.51223543,7.52305365 L10.8520495,7.52305365 Z M2.71019353,2.88569213 L3.72497855,2.88569213 L3.72497855,1.40050599 L2.72215228,1.40050599 C2.72215228,1.89545283 2.72215228,2.3907453 2.71019353,2.88569213 L2.71019353,2.88569213 Z M2.55507151,5.04728257 L3.72497855,5.04728257 L3.72497855,3.42937326 L2.69823479,3.42937326 C2.67431729,3.97270875 2.62682399,4.51638988 2.55507151,5.04728257 L2.55507151,5.04728257 Z M2.30427952,9.75722708 L3.83260727,9.75722708 L3.83260727,7.36613615 L2.30427952,7.36613615 L2.30427952,9.75722708 Z M2.12524001,6.82280065 L4.85935103,6.82280065 L4.85935103,11.1701759 L3.83260727,11.1701759 L3.83260727,10.3130054 L2.30427952,10.3130054 L2.30427952,11.3149962 L1.30145325,11.3149962 L1.30145325,8.47734709 C1.02674377,8.87551662 0.704540981,9.26193461 0.310585719,9.62415827 L0,9.31032326 C0.859663001,8.25994377 1.27753576,6.9313295 1.48083444,5.5909637 L0.561377707,5.5909637 L0.561377707,5.04728257 L1.54028649,5.04728257 C1.60008022,4.49219555 1.62365603,3.94816879 1.63561478,3.42937326 L0.0837112223,3.42937326 L0.0837112223,2.88569213 L1.64757353,2.88569213 L1.61203897,1.40050599 L0.633130183,1.40050599 L0.633130183,0.856824864 L4.77563981,0.856824864 L4.77563981,2.88569213 L5.43234581,2.88569213 L5.43234581,3.42937326 L4.77563981,3.42937326 L4.77563981,5.5909637 L2.45940154,5.5909637 C2.37569032,6.01367318 2.26840328,6.4242855 2.12524001,6.82280065 L2.12524001,6.82280065 Z" id="Fill-56" fill="#D70C18" mask="url(#mask-8)"></path>
                </g>
                <path d="M81.8875477,26.9510649 C81.6053213,27.0326344 81.3394954,27.0938115 81.0914369,27.1335593 C80.842695,27.1739984 80.6031784,27.1940451 80.371862,27.1940451 C79.8039924,27.1940451 79.3581021,27.0322887 79.0335075,26.7094673 C78.7092547,26.3859545 78.5472991,25.9442352 78.5472991,25.3829268 C78.5472991,24.8167795 78.7236052,24.3719495 79.0769007,24.0480911 C79.4305379,23.7238871 79.918113,23.5621308 80.5406512,23.5621308 C80.7993018,23.5621308 81.03711,23.5880533 81.2523674,23.6398982 C81.4676249,23.6913976 81.6630649,23.7698563 81.8376626,23.8752745 C81.7949528,23.9903704 81.760785,24.098208 81.7351591,24.198096 C81.7095332,24.2983296 81.6910826,24.3937244 81.6794655,24.483589 L81.6394891,24.483589 C81.5308354,24.2751722 81.3859637,24.1186003 81.2052158,24.0142191 C81.0244679,23.9098378 80.8095521,23.8576472 80.5601269,23.8576472 C80.1753969,23.8576472 79.87882,23.9896791 79.6700545,24.2533973 C79.4609473,24.5171155 79.357077,24.8938557 79.357077,25.3829268 C79.357077,25.8706153 79.4602639,26.2445905 79.666296,26.505198 C79.8730115,26.7658055 80.1692467,26.8957636 80.5553434,26.8957636 C80.6677556,26.8957636 80.7719675,26.8864315 80.8686625,26.867076 C80.9650158,26.8477206 81.056244,26.8179961 81.1420053,26.7782483 C81.1471305,26.6980614 81.1508889,26.6189114 81.1532807,26.5411439 C81.1556724,26.463722 81.1566975,26.3849176 81.1566975,26.3047307 C81.1566975,26.1630211 81.1536223,26.029261 81.1471305,25.9041418 C81.1402969,25.7786769 81.1303882,25.6594334 81.1174044,25.5460657 C81.1819817,25.5526327 81.2475839,25.5574716 81.3152363,25.5609279 C81.3828886,25.5640386 81.4556661,25.5657668 81.5332271,25.5657668 C81.6025878,25.5657668 81.6668234,25.5640386 81.7262754,25.5609279 C81.7857275,25.5574716 81.8427878,25.5526327 81.8971147,25.5460657 C81.8906228,25.6642723 81.8858393,25.7893915 81.8824225,25.9203865 C81.8793474,26.0513815 81.877639,26.1937824 81.877639,26.3472436 C81.877639,26.5110738 81.8783224,26.6344649 81.8800308,26.7181081 C81.8813975,26.8014057 81.8841309,26.8791732 81.8875477,26.9510649" id="Fill-59" fill="#D70C18"></path>
                <path d="M82.3203176,27.1289624 C82.331593,26.960639 82.3404766,26.7750339 82.3462852,26.5721472 C82.3520937,26.3696061 82.3551688,26.1452901 82.3551688,25.9002361 C82.3551688,25.5950419 82.3520937,25.3499879 82.3462852,25.1643829 C82.3404766,24.9794691 82.331593,24.8170215 82.3203176,24.6766943 C82.3729361,24.683607 82.428288,24.6881002 82.4860317,24.6915566 C82.5437753,24.6950129 82.6066442,24.6967411 82.6742965,24.6967411 C82.7402404,24.6967411 82.8020842,24.6950129 82.8601696,24.6915566 C82.9179132,24.6881002 82.9722401,24.683607 83.0238336,24.6766943 C83.0149499,24.8346487 83.0091414,24.9652981 83.0050412,25.0682968 C83.0009411,25.1716412 82.998891,25.2590864 82.998891,25.3306325 L83.0238336,25.3306325 C83.0829439,25.0949106 83.1799806,24.9165638 83.3125519,24.7945553 C83.4461481,24.6725467 83.6101538,24.6117153 83.8059355,24.6117153 L83.8305364,24.6117153 C83.8213111,24.6735836 83.8131108,24.7351064 83.8083273,24.7969747 C83.8038855,24.8588431 83.8011521,24.9203658 83.8011521,24.9822342 C83.8011521,25.0458307 83.8038855,25.1094272 83.8083273,25.1740606 C83.8131108,25.2380028 83.8213111,25.3019449 83.8305364,25.3651958 C83.7611757,25.3403102 83.6996735,25.321646 83.6456884,25.3088576 C83.5917032,25.2964148 83.5435265,25.290539 83.5001333,25.290539 C83.3333942,25.290539 83.2117567,25.3479141 83.1365874,25.46301 C83.0610765,25.5781059 83.0238336,25.7630197 83.0238336,26.018097 C83.0238336,26.2147624 83.027592,26.4065888 83.0354506,26.5935764 C83.0429676,26.7802184 83.0549263,26.9589108 83.0703018,27.1289624 C83.0029912,27.1213584 82.9384139,27.1158283 82.8762285,27.1116807 C82.814043,27.1078787 82.7535659,27.1064962 82.6941138,27.1064962 C82.6380786,27.1064962 82.5799932,27.1082244 82.5195162,27.112372 C82.4593807,27.1168652 82.3927534,27.1220497 82.3203176,27.1289624" id="Fill-61" fill="#D70C18"></path>
                <path d="M84.701714,25.9064229 C84.701714,26.295606 84.7413487,26.5693475 84.8219848,26.7279932 C84.9015959,26.8866389 85.0358755,26.9657889 85.2237986,26.9657889 C85.4137719,26.9657889 85.5490765,26.8862932 85.6300543,26.7269563 C85.7110321,26.5672737 85.7513502,26.2938778 85.7513502,25.9064229 C85.7513502,25.5175855 85.7110321,25.2424614 85.6300543,25.0810507 C85.5490765,24.9199856 85.4137719,24.8394531 85.2237986,24.8394531 C85.0358755,24.8394531 84.9015959,24.9192943 84.8219848,25.0786313 C84.7413487,25.2379682 84.701714,25.5141292 84.701714,25.9064229 M83.9561716,25.9064229 C83.9561716,25.4971932 84.0682421,25.1792106 84.2930665,24.9521295 C84.5175493,24.7250484 84.8295017,24.6116807 85.2289238,24.6116807 C85.6348378,24.6116807 85.9478153,24.7240115 86.1675145,24.9486732 C86.3872138,25.1729892 86.4968926,25.4923543 86.4968926,25.9064229 C86.4968926,26.3121964 86.384822,26.6284508 86.1610227,26.854495 C85.9375649,27.0805391 85.6252708,27.1942525 85.2237986,27.1942525 C84.8213014,27.1942525 84.509349,27.0812304 84.2879414,26.8558775 C84.0668754,26.6305246 83.9561716,26.3139246 83.9561716,25.9064229" id="Fill-63" fill="#D70C18"></path>
                <path d="M89.0591052,24.6791483 C89.0495382,24.8844545 89.0416796,25.0887238 89.0368961,25.2926474 C89.0321126,25.4969166 89.0293791,25.6998034 89.0293791,25.9013076 C89.0293791,26.1066137 89.0321126,26.3115743 89.0368961,26.5161891 C89.0416796,26.7214953 89.0495382,26.9264558 89.0591052,27.1314164 C88.9948696,27.1227755 88.9343925,27.1168998 88.8773322,27.1124065 C88.8202719,27.1082589 88.7662867,27.1061851 88.715035,27.1061851 C88.6620748,27.1061851 88.6070646,27.1082589 88.5493209,27.1124065 C88.4912356,27.1168998 88.4300751,27.1227755 88.3658396,27.1314164 L88.3658396,26.7833637 C88.2568442,26.9198888 88.1403318,27.0204681 88.0152775,27.0851015 C87.8909065,27.1490437 87.7484266,27.1811875 87.5881794,27.1811875 C87.3278204,27.1811875 87.1375055,27.107222 87.0175764,26.9589454 C86.8979889,26.8103231 86.8381952,26.572873 86.8381952,26.2459039 L86.8381952,25.9635216 C86.8381952,25.7703126 86.8358034,25.5670802 86.8310199,25.3538245 C86.8258948,25.1405688 86.8183778,24.9159071 86.8084692,24.6791483 C86.8645044,24.686061 86.9239565,24.6908999 86.9868253,24.6943562 C87.0493525,24.6978125 87.1159798,24.6995407 87.1870489,24.6995407 C87.2598264,24.6995407 87.3274787,24.6978125 87.3889809,24.6943562 C87.4511663,24.6908999 87.5092517,24.686061 87.5635786,24.6791483 C87.5505948,24.8941322 87.5406861,25.0987471 87.5338525,25.2926474 C87.5273606,25.4868933 87.5239439,25.6676595 87.5239439,25.8363285 C87.5239439,26.2158338 87.5533282,26.4633073 87.6120969,26.5780575 C87.6705239,26.6931534 87.7757609,26.7505285 87.9274661,26.7505285 C88.0778046,26.7505285 88.183725,26.6921165 88.2459104,26.5756381 C88.3077542,26.458814 88.338847,26.2517797 88.338847,25.9538438 L88.338847,25.1388406 C88.338847,25.0859587 88.3374803,25.0202884 88.3350885,24.9428665 C88.3323551,24.8654447 88.3296217,24.7773082 88.3262049,24.6791483 C88.3825818,24.686061 88.4403255,24.6908999 88.5008026,24.6943562 C88.560938,24.6978125 88.6258569,24.6995407 88.6952176,24.6995407 C88.76287,24.6995407 88.8267638,24.6978125 88.8872409,24.6943562 C88.9473763,24.6908999 89.0047783,24.686061 89.0591052,24.6791483" id="Fill-65" fill="#D70C18"></path>
                <g id="Group-69" transform="translate(89.575996, 24.611784)">
                    <mask id="mask-10" fill="white">
                        <use xlink:href="#path-9"></use>
                    </mask>
                    <g id="Clip-68"></g>
                    <path d="M0.710691193,1.30476558 C0.710691193,1.63208028 0.750325894,1.87298666 0.829595297,2.02748473 C0.908864699,2.18163717 1.0325523,2.25905902 1.20099978,2.25905902 C1.36944726,2.25905902 1.49108479,2.18474787 1.56625405,2.03612557 C1.64142331,1.88784889 1.67866627,1.64348618 1.67866627,1.30476558 C1.67866627,0.972612008 1.63937324,0.729631823 1.55976216,0.576170653 C1.48083444,0.422018217 1.3561218,0.345633265 1.18630761,0.345633265 C1.0277688,0.345633265 0.908864699,0.425128916 0.829595297,0.584811485 C0.750325894,0.74414842 0.710691193,0.984017906 0.710691193,1.30476558 M0.720599869,2.221385 L0.720599869,2.75504276 C0.720599869,2.94859739 0.722991618,3.14215201 0.728116795,3.33605228 C0.732900293,3.5296069 0.740417219,3.72419843 0.750325894,3.91948123 C0.689507129,3.9077297 0.626979971,3.8994345 0.563086099,3.8932131 C0.499875584,3.88768297 0.433248285,3.88457227 0.363887558,3.88457227 C0.297943616,3.88457227 0.234733101,3.88768297 0.174597692,3.8932131 C0.114462284,3.8994345 0.0560352672,3.9077297 0,3.91948123 C0.0133254599,3.74942966 0.0222090998,3.56417023 0.0273342767,3.36404857 C0.0324594535,3.16392691 0.0345095243,2.91161463 0.0345095243,2.60814862 C0.0345095243,2.03094107 0.0317760966,1.53426606 0.0259675628,1.11881488 C0.020159029,0.703363695 0.0116170676,0.352891564 0,0.0673984867 C0.0546685533,0.0725829857 0.111387177,0.0763849516 0.170839229,0.0798412843 C0.230291281,0.0832976169 0.292818439,0.0850257832 0.35910406,0.0850257832 C0.425048002,0.0850257832 0.487233482,0.0836432502 0.544977141,0.0805325508 C0.6027208,0.0777674847 0.658072711,0.0732742522 0.710691193,0.0673984867 L0.710691193,0.380542225 C0.808069554,0.250238484 0.917064982,0.154152436 1.03767748,0.0922840818 C1.15828997,0.0304157273 1.29769478,0 1.45623359,0 C1.74802699,0 1.98276009,0.11751531 2.15906618,0.352891564 C2.33571394,0.588613451 2.42420866,0.902448455 2.42420866,1.29474221 C2.42420866,1.69913313 2.33503058,2.0146963 2.15667443,2.24143172 C1.97831827,2.46851278 1.73060139,2.58222612 1.41386546,2.58222612 C1.24234287,2.58222612 1.10088799,2.5528473 0.989159137,2.49443527 C0.877771959,2.43602325 0.788252203,2.3451217 0.720599869,2.221385" id="Fill-67" fill="#D70C18" mask="url(#mask-10)"></path>
                </g>
            </g>
        </g>
    </g>
</svg>