<?xml version="1.0" encoding="UTF-8"?>
<svg width="90px" height="29px" viewBox="0 0 90 29" version="1.1" xmlns="http://www.w3.org/2000/svg" xmlns:xlink="http://www.w3.org/1999/xlink">
    <title>logo_天下學習</title>
    <defs>
        <polygon id="path-1" points="0.296388026 0.032 14.6227995 0.032 14.6227995 6.44421347 0.296388026 6.44421347"></polygon>
        <polygon id="path-3" points="0.101439584 0.0787521317 24.938626 0.0787521317 24.938626 26.3333333 0.101439584 26.3333333"></polygon>
        <polygon id="path-5" points="0 0.0991468561 29.8097004 0.0991468561 29.8097004 20.9633893 0 20.9633893"></polygon>
        <polygon id="path-7" points="0 28.3014667 89.753 28.3014667 89.753 0.333466667 0 0.333466667"></polygon>
    </defs>
    <g id="Symbols" stroke="none" stroke-width="1" fill="none" fill-rule="evenodd">
        <g id="Slicing" transform="translate(-515.000000, -174.000000)">
            <g id="logo_天下學習" transform="translate(515.000000, 174.000000)">
                <g id="Group-3" transform="translate(3.666667, 0.301467)">
                    <mask id="mask-2" fill="white">
                        <use xlink:href="#path-1"></use>
                    </mask>
                    <g id="Clip-2"></g>
                    <path d="M14.5394,1.18516667 C15.0717333,2.72916667 12.9200667,3.23316667 11.9264,3.63916667 C11.5824,3.7795 11.2397333,3.9235 10.9027333,4.08016667 C10.6720667,4.1875 10.4600667,4.33583333 10.2230667,4.4305 C9.9984,4.5205 9.75306667,4.55216667 9.5174,4.60383333 C8.9864,4.72083333 8.45906667,4.85283333 7.93406667,4.9945 C6.88106667,5.2785 5.83873333,5.5995 4.7904,5.9005 C4.19306667,6.07216667 3.5934,6.23716667 2.98973333,6.3855 C2.35273333,6.54183333 1.70406667,6.3715 1.1504,6.04583333 C0.6364,5.7435 0.602733333,5.26183333 0.3684,4.76516667 C0.249733333,4.51416667 0.267733333,4.24116667 0.497733333,4.04516667 C0.558066667,3.99383333 0.822066667,4.0085 0.9064,3.99683333 C1.0444,3.97783333 1.18173333,3.9565 1.3194,3.93416667 C1.59073333,3.89016667 1.8614,3.84083333 2.1334,3.79983333 C2.40473333,3.7585 2.67706667,3.72483333 2.95106667,3.7075 C3.2514,3.68883333 3.50206667,3.7595 3.7654,3.5835 C4.0464,3.3955 4.31706667,3.2125 4.6264,3.0715 C5.22073333,2.80016667 5.86206667,2.6575 6.50506667,2.55616667 C6.73006667,2.5205 6.95573333,2.4905 7.18173333,2.46116667 C7.2994,2.44583333 7.4284,2.4675 7.54306667,2.43383333 C7.67906667,2.3935 7.71606667,2.3195 7.8274,2.23416667 C8.0574,2.05816667 8.37273333,2.05483333 8.6024,1.87883333 C9.2524,1.3585 10.1187333,1.16316667 10.6390667,0.512833333 C11.0137333,0.2045 11.4900667,0.0755 11.9674,0.0505 C12.4697333,0.0245 12.9810667,-0.0125 13.4350667,0.237166667 C13.8574,0.469166667 14.3740667,0.6895 14.5394,1.18516667" id="Fill-1" fill="#009D95" mask="url(#mask-2)"></path>
                </g>
                <g id="Group-6" transform="translate(22.333333, 1.968133)">
                    <mask id="mask-4" fill="white">
                        <use xlink:href="#path-3"></use>
                    </mask>
                    <g id="Clip-5"></g>
                    <path d="M13.6419667,7.5263 C13.7096333,7.27896667 13.7673,7.0213 13.7666333,6.76363333 C13.7659667,6.49763333 13.6089667,6.2653 13.5909667,6.0023 C13.5763,5.79063333 13.6943,5.56096667 13.4463,5.44596667 C12.9263,5.07763333 12.4496333,5.6633 11.9299667,5.74996667 C11.5039667,5.96263333 11.1859667,6.33363333 10.8279667,6.6373 C10.5776333,6.84963333 10.2653,6.96363333 9.99696667,7.14863333 C9.74096667,7.3253 9.54163333,7.5683 9.29196667,7.7553 C8.75563333,8.1563 8.12996667,8.41296667 7.5743,8.7833 C7.1043,9.09696667 6.04396667,8.97363333 5.52596667,8.87363333 C4.58763333,8.69263333 3.76396667,8.22763333 2.89163333,7.87396667 C2.51063333,7.71996667 2.10896667,7.59896667 1.7603,7.3763 C1.35896667,7.11996667 1.13796667,6.66796667 0.735633333,6.39963333 C0.374633333,6.1583 0.0149666667,5.9453 0.119966667,5.44596667 C0.4453,5.09963333 0.899966667,5.03463333 1.33363333,4.9263 C2.82863333,4.6443 4.45396667,4.8613 5.90596667,4.36263333 C6.72863333,4.1463 7.5953,3.95096667 8.39796667,3.6693 C8.60863333,3.59563333 8.83263333,3.48996667 9.05663333,3.41496667 C9.30163333,3.33296667 9.4543,3.15263333 9.6793,3.03963333 C10.1779667,2.7903 10.7023,2.93696667 11.2059667,2.79996667 C11.9129667,2.60696667 12.6133,2.39063333 13.3103,2.1653 C13.7156333,2.03363333 14.1106333,1.86563333 14.5269667,1.76996667 C14.8569667,1.69396667 15.2029667,1.69963333 15.4963,1.51063333 C16.2093,1.0513 17.1133,1.25496667 17.8676333,0.917633333 C18.5046333,0.632966667 19.2263,0.3513 19.9039667,0.182633333 C20.2579667,0.0946333333 20.6239667,0.0503 20.9873,0.0986333333 C21.6006333,0.1803 22.2353,0.331966667 22.8426333,0.459966667 C23.3586333,0.5693 23.8876333,0.645966667 24.3503,0.916633333 C24.6019667,1.06396667 24.8056333,1.28096667 24.9323,1.54596667 C24.9673,1.88396667 24.8523,2.2073 24.7049667,2.50596667 C24.6303,2.6573 24.5459667,2.8033 24.4649667,2.95096667 C24.2053,3.42296667 23.7813,3.53363333 23.2899667,3.66563333 C22.7973,3.79763333 22.2856333,3.84863333 21.7833,3.7313 C21.5173,3.66896667 21.2453,3.53863333 21.0319667,3.36596667 C20.1706333,2.8153 19.1186333,2.97063333 18.1833,3.21163333 C18.0543,3.24496667 17.9266333,3.28196667 17.8009667,3.32496667 C17.6639667,3.37196667 17.5389667,3.39196667 17.4239667,3.48396667 C17.3166333,3.56996667 17.2049667,3.63863333 17.0839667,3.70363333 C16.7709667,3.8713 16.4996333,4.0143 16.5023,4.4003 C16.5049667,4.85696667 16.4253,5.38296667 16.6099667,5.81463333 C17.0219667,6.68163333 16.4799667,7.54796667 16.8703,8.4153 C17.0443,9.5853 17.3903,11.2319667 17.3473,12.5746333 C17.3473,14.4389667 17.4989667,16.7566333 17.8023,18.5539667 C17.8723,18.9686333 18.0023,19.3739667 18.1003,19.7826333 C18.1616333,20.0379667 18.1766333,20.3026333 18.2373,20.5579667 C18.3686333,21.1086333 18.4963,21.5103 18.4733,22.0853 C18.4466333,22.7406333 18.3689667,23.3926333 18.2749667,24.0413 C18.1716333,24.7556333 17.9506333,25.4559667 17.2386333,25.7709667 C16.5419667,26.5359667 15.3039667,26.3896333 14.4216333,26.0959667 C14.0406333,25.9693 13.5659667,25.4273 13.3726333,25.0819667 C13.2553,24.8719667 13.2723,24.6183 13.2183,24.3866333 C13.0789667,23.7903 12.8339667,23.2253 13.0353,22.6076333 C13.4683,17.6233 13.9009667,12.9003 13.6419667,7.93796667" id="Fill-4" fill="#009D95" mask="url(#mask-4)"></path>
                </g>
                <g id="Group-9" transform="translate(0.000000, 6.968133)">
                    <mask id="mask-6" fill="white">
                        <use xlink:href="#path-5"></use>
                    </mask>
                    <g id="Clip-8"></g>
                    <path d="M11.7487333,0.4124 C12.1820667,0.889066667 12.3767333,1.45273333 12.6370667,2.0164 C12.8597333,2.26006667 13.1397333,2.2464 13.4284,2.13906667 C13.6777333,2.04606667 13.9507333,2.0044 14.1630667,1.8334 C14.3737333,1.66373333 14.5474,1.43806667 14.7497333,1.25673333 C15.1867333,0.8654 15.6540667,0.502066667 16.2194,0.317066667 C16.5544,0.2074 16.9007333,0.1624 17.2530667,0.195733333 C17.8164,0.4124 18.5314,0.391066667 18.8130667,0.975733333 C19.0727333,1.3444 19.0074,1.7774 18.8777333,2.16773333 C18.3797333,3.18606667 17.1444,3.55506667 16.2777333,4.20473333 C15.5837333,4.57273333 14.6524,4.83306667 14.3054,5.61306667 C14.2840667,6.8484 15.2810667,7.8444 16.0607333,8.55973333 C17.2530667,9.7954 18.3577333,11.6794 19.9610667,12.4164 C20.4337333,12.6334 20.8280667,13.0787333 21.2257333,13.4037333 C21.4427333,13.5810667 21.6674,13.7524 21.9104,13.8930667 C22.1827333,14.0514 22.4790667,14.1087333 22.7437333,14.2880667 C23.0070667,14.4664 23.3470667,14.5487333 23.5580667,14.7987333 C23.6427333,14.8990667 23.7867333,14.9197333 23.8970667,14.9784 C24.1307333,15.1017333 24.2880667,15.3534 24.5597333,15.4084 C24.7094,15.4390667 24.8417333,15.4057333 24.9854,15.4707333 C25.1250667,15.5340667 25.2564,15.6544 25.3850667,15.7387333 C25.9870667,16.1340667 26.6090667,16.5084 27.2877333,16.7567333 C27.5500667,16.8527333 27.8357333,16.8670667 28.0964,16.9667333 C28.3474,17.0627333 28.5097333,17.2617333 28.7244,17.4124 C29.0937333,17.6707333 29.5934,17.9037333 29.7697333,18.3494 C29.8847333,18.6400667 29.7334,19.0787333 29.5464,19.3067333 C29.2784,19.6330667 28.7890667,19.7164 28.3967333,19.7777333 C27.9990667,19.8397333 27.5894,20.0240667 27.1897333,20.0690667 C26.9697333,20.0940667 26.7430667,20.0907333 26.5220667,20.1074 C26.0467333,20.1427333 25.5727333,20.1920667 25.0984,20.2404 C24.1400667,20.3380667 23.1777333,20.4377333 22.2130667,20.4204 C21.6860667,20.4110667 21.0680667,20.4907333 20.5917333,20.2170667 C19.9420667,19.8430667 19.3524,19.2817333 18.7557333,18.8270667 C17.9720667,18.2297333 17.4390667,17.4027333 16.8777333,16.5947333 C16.2910667,15.7510667 15.7297333,14.8904 15.1397333,14.0494 C14.6634,13.3704 14.1877333,12.5877333 13.5390667,12.0577333 C13.3100667,11.8707333 13.1590667,11.6067333 12.9327333,11.4137333 C12.7360667,11.2457333 12.5620667,11.0624 12.3897333,10.8697333 C12.0397333,10.4784 11.6707333,10.1257333 11.1207333,10.0767333 C10.9154,10.3840667 10.7737333,10.7310667 10.6917333,11.0907333 C10.6364,11.3344 10.6484,11.5860667 10.6067333,11.8317333 C10.5717333,12.0370667 10.4957333,12.2317333 10.4580667,12.4374 C10.3770667,12.8797333 10.3704,13.3577333 10.1450667,13.7594 C10.0090667,14.0024 9.93306667,14.2010667 9.8674,14.4754 C9.8034,14.7450667 9.67006667,15.0324 9.56306667,15.2887333 C9.50273333,15.4334 9.4074,15.5594 9.34306667,15.7020667 C9.22473333,15.9630667 9.1614,16.2400667 9.02606667,16.4984 C8.8744,16.7874 8.7074,17.0690667 8.52606667,17.3400667 C8.16173333,17.8844 7.74273333,18.3927333 7.2884,18.8640667 C7.03273333,19.1290667 6.76573333,19.3834 6.4894,19.6264 C6.27373333,19.8164 6.08906667,20.0307333 5.83806667,20.1787333 C5.5824,20.3290667 5.29473333,20.3877333 5.01506667,20.4764 C4.42006667,20.6650667 3.88106667,20.9314 3.2444,20.9614 C2.8694,20.9794 2.49873333,20.8740667 2.1704,20.6934 C2.03073333,20.6167333 1.78273333,20.6284 1.62373333,20.5684 C1.4364,20.4977333 1.25273333,20.3994 1.0924,20.2797333 C0.910066667,20.1437333 0.726066667,19.9954 0.591066667,19.8097333 C0.516733333,19.7077333 0.452733333,19.5987333 0.4344,19.4727333 C0.3964,19.2104 0.444066667,19.1207333 0.277066667,18.8990667 C0.0620666667,18.6134 0.178733333,18.4227333 0.115733333,18.1127333 C0.0857333333,17.9644 0.0140666667,17.8224 0.0014,17.6714 C-0.0192666667,17.4224 0.1914,17.2274 0.328733333,17.0440667 C0.481066667,16.8404 0.614066667,16.6184 0.870066667,16.5327333 C1.1604,16.4350667 1.57073333,16.4457333 1.86706667,16.5054 C2.0364,16.5397333 2.19906667,16.6004 2.34606667,16.6917333 C2.5834,16.8390667 2.6894,17.0587333 2.98973333,16.8847333 C3.2144,16.7540667 3.34573333,16.5124 3.53906667,16.3457333 C3.6864,16.2187333 3.7434,16.0084 3.88873333,15.8670667 C4.05173333,15.7084 4.20506667,15.5410667 4.34306667,15.3600667 C4.62673333,14.9887333 4.8404,14.5707333 4.98806667,14.1277333 C5.7684,13.3037333 5.8544,12.1347333 5.5514,11.0080667 C4.74973333,10.9437333 3.90506667,11.3547333 3.05973333,11.0734 C2.49573333,10.6620667 1.6724,10.4454 1.39073333,9.81673333 C1.00073333,9.4054 0.676066667,8.8854 0.6104,8.29973333 C0.849066667,7.65006667 1.75906667,7.8444 2.2794,7.73706667 C2.75606667,7.54206667 3.3194,7.49806667 3.79606667,7.25973333 C4.06473333,7.1254 4.38173333,7.08373333 4.6564,6.93473333 C4.92706667,6.78773333 5.1804,6.6124 5.4374,6.44306667 C5.6934,6.2744 5.95306667,6.10806667 6.23306667,5.98173333 C6.53173333,5.84673333 6.86273333,5.80373333 7.15506667,5.64573333 C7.4054,5.51006667 7.63706667,5.32006667 7.85573333,5.13906667 C8.30973333,4.7634 8.6614,4.23173333 8.58506667,3.61906667 C8.5594,3.41206667 8.46106667,3.2244 8.4614,3.0004 C8.46173333,2.77806667 8.50573333,2.55806667 8.55073333,2.3414 C8.59606667,2.1234 8.64906667,1.90673333 8.67373333,1.6854 C8.71106667,1.35306667 8.62673333,1.13006667 8.82706667,0.833066667 C9.00406667,0.571066667 9.2654,0.353733333 9.5604,0.238733333 C9.7974,0.1464 10.0947333,0.195733333 10.3427333,0.196733333 C10.5440667,0.197066667 10.8004,0.0567333333 10.9967333,0.112066667 C11.1154,0.145733333 11.1990667,0.2524 11.3320667,0.285733333 C11.4754,0.3214 11.6270667,0.314733333 11.7487333,0.4124" id="Fill-7" fill="#009D95" mask="url(#mask-6)"></path>
                </g>
                <path d="M56.6554667,18.1871667 L56.5834667,18.1971667 C56.5298,18.0171667 56.4214667,17.8778333 56.2598,17.7778333 C56.0984667,17.6781667 55.8971333,17.6281667 55.6564667,17.6281667 C55.2921333,17.6281667 55.0084667,17.7561667 54.8058,18.0115 C54.6028,18.2671667 54.5018,18.6255 54.5018,19.0875 C54.5018,19.5851667 54.6051333,19.9648333 54.8118,20.2265 C55.0188,20.4875 55.3191333,20.6181667 55.7131333,20.6181667 C55.8828,20.6181667 56.0541333,20.5851667 56.2261333,20.5191667 C56.3988,20.4531667 56.5548,20.3608333 56.6951333,20.2421667 L56.7571333,20.2571667 L56.6408,20.6825 C56.4791333,20.7615 56.3104667,20.8208333 56.1351333,20.8595 C55.9591333,20.8978333 55.7738,20.9175 55.5801333,20.9175 C54.9874667,20.9175 54.5271333,20.7581667 54.1971333,20.4401667 C53.8674667,20.1218333 53.7028,19.6775 53.7028,19.1071667 C53.7028,18.5665 53.8801333,18.1335 54.2358,17.8088333 C54.5908,17.4841667 55.0661333,17.3215 55.6614667,17.3215 C55.8494667,17.3215 56.0361333,17.3421667 56.2214667,17.3835 C56.4071333,17.4245 56.5951333,17.4881667 56.7868,17.5738333 C56.7571333,17.6661667 56.7308,17.7631667 56.7088,17.8641667 C56.6861333,17.9658333 56.6688,18.0735 56.6554667,18.1871667" id="Fill-10" fill="#009D95"></path>
                <path d="M57.7536,19.6412667 C57.7536,20.0256 57.7936,20.2959333 57.8732667,20.4526 C57.9536,20.6089333 58.0869333,20.6876 58.2749333,20.6876 C58.4646,20.6876 58.5999333,20.6089333 58.6806,20.4512667 C58.7612667,20.2939333 58.8022667,20.0239333 58.8022667,19.6412667 C58.8022667,19.2572667 58.7612667,18.9856 58.6806,18.8266 C58.5999333,18.6676 58.4646,18.5876 58.2749333,18.5876 C58.0869333,18.5876 57.9536,18.6666 57.8732667,18.8239333 C57.7936,18.9816 57.7536,19.2539333 57.7536,19.6412667 M57.0089333,19.6412667 C57.0089333,19.2376 57.1209333,18.9232667 57.3452667,18.6989333 C57.5696,18.4749333 57.8809333,18.3629333 58.2806,18.3629333 C58.6862667,18.3629333 58.9982667,18.4739333 59.2176,18.6952667 C59.4369333,18.9172667 59.5469333,19.2322667 59.5469333,19.6412667 C59.5469333,20.0419333 59.4346,20.3542667 59.2116,20.5776 C58.9879333,20.8009333 58.6762667,20.9122667 58.2749333,20.9122667 C57.8729333,20.9122667 57.5612667,20.8012667 57.3409333,20.5786 C57.1192667,20.3562667 57.0089333,20.0436 57.0089333,19.6412667" id="Fill-12" fill="#009D95"></path>
                <path d="M59.9936667,20.8505667 C60.0033333,20.5809 60.0113333,20.3439 60.016,20.1399 C60.0213333,19.9359 60.0233333,19.7679 60.0233333,19.6362333 C60.0233333,19.5045667 60.0213333,19.3389 60.016,19.1389 C60.0113333,18.9392333 60.0033333,18.7025667 59.9936667,18.4295667 C60.0486667,18.4362333 60.104,18.4409 60.1616667,18.4442333 C60.2193333,18.4475667 60.2816667,18.4492333 60.3476667,18.4492333 C60.417,18.4492333 60.48,18.4475667 60.5366667,18.4442333 C60.5936667,18.4409 60.6476667,18.4362333 60.6986667,18.4295667 L60.6986667,18.7639 C60.8026667,18.6282333 60.914,18.5299 61.034,18.4679 C61.1533333,18.4062333 61.2896667,18.3752333 61.4433333,18.3752333 C61.6126667,18.3752333 61.7576667,18.4152333 61.8786667,18.4952333 C61.9983333,18.5752333 62.0873333,18.6915667 62.1456667,18.8449 C62.2446667,18.6849 62.3596667,18.5665667 62.492,18.4902333 C62.6233333,18.4132333 62.7766667,18.3752333 62.9513333,18.3752333 C63.0733333,18.3752333 63.184,18.3955667 63.2816667,18.4359 C63.38,18.4762333 63.4636667,18.5365667 63.533,18.6175667 C63.602,18.6965667 63.6503333,18.7995667 63.679,18.9265667 C63.7066667,19.0535667 63.721,19.2825667 63.721,19.6142333 L63.721,19.9282333 C63.721,20.0699 63.723,20.2172333 63.727,20.3699 C63.7313333,20.5222333 63.7373333,20.6825667 63.7453333,20.8505667 C63.6713333,20.8425667 63.6033333,20.8365667 63.5416667,20.8319 C63.4796667,20.8282333 63.4196667,20.8259 63.3623333,20.8259 C63.3043333,20.8259 63.2453333,20.8282333 63.1856667,20.8319 C63.125,20.8365667 63.0613333,20.8425667 62.9936667,20.8505667 C63.0086667,20.6295667 63.0196667,20.4252333 63.0273333,20.2372333 C63.0343333,20.0495667 63.0383333,19.8739 63.0383333,19.7105667 C63.0383333,19.3329 63.0086667,19.0859 62.9493333,18.9699 C62.8896667,18.8535667 62.7843333,18.7955667 62.6326667,18.7955667 C62.4826667,18.7955667 62.376,18.8535667 62.3123333,18.9699 C62.249,19.0859 62.217,19.2925667 62.217,19.5892333 L62.217,20.3905667 C62.217,20.4682333 62.2226667,20.6049 62.2346667,20.8012333 C62.236,20.8242333 62.237,20.8409 62.237,20.8505667 C62.166,20.8425667 62.0996667,20.8365667 62.038,20.8319 C61.976,20.8282333 61.916,20.8259 61.859,20.8259 C61.8006667,20.8259 61.742,20.8282333 61.6816667,20.8329 C61.6213333,20.8375667 61.555,20.8432333 61.483,20.8505667 C61.4956667,20.6609 61.5056667,20.4775667 61.5126667,20.3012333 C61.5186667,20.1242333 61.5223333,19.9565667 61.5223333,19.7982333 C61.5223333,19.3559 61.4933333,19.0782333 61.4356667,18.9649 C61.378,18.8519 61.2723333,18.7955667 61.119,18.7955667 C60.9706667,18.7955667 60.8653333,18.8532333 60.8026667,18.9685667 C60.74,19.0839 60.7086667,19.2909 60.7086667,19.5892333 L60.7086667,20.3905667 C60.7086667,20.4695667 60.714,20.6075667 60.7256667,20.8035667 C60.7273333,20.8252333 60.7273333,20.8409 60.7256667,20.8505667 C60.663,20.8425667 60.602,20.8365667 60.5416667,20.8319 C60.4816667,20.8282333 60.4216667,20.8259 60.3623333,20.8259 C60.308,20.8259 60.2506667,20.8282333 60.1913333,20.8319 C60.132,20.8365667 60.0663333,20.8425667 59.9936667,20.8505667" id="Fill-14" fill="#009D95"></path>
                <path d="M64.3857667,20.8505667 C64.3957667,20.5809 64.4034333,20.3439 64.4084333,20.1399 C64.4134333,19.9359 64.4154333,19.7679 64.4154333,19.6362333 C64.4154333,19.5045667 64.4134333,19.3389 64.4084333,19.1389 C64.4034333,18.9392333 64.3957667,18.7025667 64.3857667,18.4295667 C64.4407667,18.4362333 64.4964333,18.4409 64.5541,18.4442333 C64.6117667,18.4475667 64.6737667,18.4492333 64.7397667,18.4492333 C64.8091,18.4492333 64.8721,18.4475667 64.9287667,18.4442333 C64.9857667,18.4409 65.0397667,18.4362333 65.0911,18.4295667 L65.0911,18.7639 C65.1947667,18.6282333 65.3064333,18.5299 65.4261,18.4679 C65.5454333,18.4062333 65.6817667,18.3752333 65.8357667,18.3752333 C66.0047667,18.3752333 66.1497667,18.4152333 66.2707667,18.4952333 C66.3907667,18.5752333 66.4797667,18.6915667 66.5381,18.8449 C66.6367667,18.6849 66.7517667,18.5665667 66.8841,18.4902333 C67.0154333,18.4132333 67.1687667,18.3752333 67.3437667,18.3752333 C67.4657667,18.3752333 67.5761,18.3955667 67.6737667,18.4359 C67.7724333,18.4762333 67.8557667,18.5365667 67.9251,18.6175667 C67.9944333,18.6965667 68.0427667,18.7995667 68.0714333,18.9265667 C68.0987667,19.0535667 68.1131,19.2825667 68.1131,19.6142333 L68.1131,19.9282333 C68.1131,20.0699 68.1151,20.2172333 68.1191,20.3699 C68.1234333,20.5222333 68.1294333,20.6825667 68.1377667,20.8505667 C68.0634333,20.8425667 67.9954333,20.8365667 67.9337667,20.8319 C67.8717667,20.8282333 67.8117667,20.8259 67.7547667,20.8259 C67.6964333,20.8259 67.6377667,20.8282333 67.5777667,20.8319 C67.5174333,20.8365667 67.4534333,20.8425667 67.3857667,20.8505667 C67.4007667,20.6295667 67.4117667,20.4252333 67.4194333,20.2372333 C67.4267667,20.0495667 67.4304333,19.8739 67.4304333,19.7105667 C67.4304333,19.3329 67.4007667,19.0859 67.3414333,18.9699 C67.2821,18.8535667 67.1764333,18.7955667 67.0247667,18.7955667 C66.8747667,18.7955667 66.7681,18.8535667 66.7044333,18.9699 C66.6414333,19.0859 66.6094333,19.2925667 66.6094333,19.5892333 L66.6094333,20.3905667 C66.6094333,20.4682333 66.6147667,20.6049 66.6271,20.8012333 C66.6281,20.8242333 66.6291,20.8409 66.6291,20.8505667 C66.5584333,20.8425667 66.4917667,20.8365667 66.4301,20.8319 C66.3681,20.8282333 66.3081,20.8259 66.2511,20.8259 C66.1927667,20.8259 66.1341,20.8282333 66.0741,20.8329 C66.0137667,20.8375667 65.9471,20.8432333 65.8751,20.8505667 C65.8877667,20.6609 65.8977667,20.4775667 65.9047667,20.3012333 C65.9107667,20.1242333 65.9147667,19.9565667 65.9147667,19.7982333 C65.9147667,19.3559 65.8857667,19.0782333 65.8277667,18.9649 C65.7701,18.8519 65.6647667,18.7955667 65.5111,18.7955667 C65.3631,18.7955667 65.2574333,18.8532333 65.1947667,18.9685667 C65.1321,19.0839 65.1007667,19.2909 65.1007667,19.5892333 L65.1007667,20.3905667 C65.1007667,20.4695667 65.1064333,20.6075667 65.1177667,20.8035667 C65.1194333,20.8252333 65.1194333,20.8409 65.1177667,20.8505667 C65.0551,20.8425667 64.9941,20.8365667 64.9337667,20.8319 C64.8737667,20.8282333 64.8141,20.8259 64.7544333,20.8259 C64.7001,20.8259 64.6431,20.8282333 64.5837667,20.8319 C64.5244333,20.8365667 64.4584333,20.8425667 64.3857667,20.8505667" id="Fill-16" fill="#009D95"></path>
                <path d="M69.3545333,19.6412667 C69.3545333,20.0256 69.3945333,20.2959333 69.4742,20.4526 C69.5545333,20.6089333 69.6878667,20.6876 69.8758667,20.6876 C70.0655333,20.6876 70.2008667,20.6089333 70.2815333,20.4512667 C70.3622,20.2939333 70.4032,20.0239333 70.4032,19.6412667 C70.4032,19.2572667 70.3622,18.9856 70.2815333,18.8266 C70.2008667,18.6676 70.0655333,18.5876 69.8758667,18.5876 C69.6878667,18.5876 69.5545333,18.6666 69.4742,18.8239333 C69.3945333,18.9816 69.3545333,19.2539333 69.3545333,19.6412667 M68.6098667,19.6412667 C68.6098667,19.2376 68.7218667,18.9232667 68.9462,18.6989333 C69.1705333,18.4749333 69.4818667,18.3629333 69.8815333,18.3629333 C70.2872,18.3629333 70.5992,18.4739333 70.8185333,18.6952667 C71.0378667,18.9172667 71.1478667,19.2322667 71.1478667,19.6412667 C71.1478667,20.0419333 71.0355333,20.3542667 70.8125333,20.5776 C70.5888667,20.8009333 70.2772,20.9122667 69.8758667,20.9122667 C69.4735333,20.9122667 69.1622,20.8012667 68.9418667,20.5786 C68.7202,20.3562667 68.6098667,20.0436 68.6098667,19.6412667" id="Fill-18" fill="#009D95"></path>
                <path d="M71.5950667,20.8505667 C71.6084,20.6269 71.6180667,20.4152333 71.6247333,20.2165667 C71.6314,20.0172333 71.6347333,19.8265667 71.6347333,19.6439 C71.6347333,19.4382333 71.6314,19.2339 71.6247333,19.0315667 C71.6180667,18.8292333 71.6084,18.6285667 71.5950667,18.4295667 C71.6477333,18.4362333 71.7027333,18.4409 71.7600667,18.4442333 C71.8167333,18.4475667 71.8780667,18.4492333 71.9440667,18.4492333 C72.0100667,18.4492333 72.0704,18.4475667 72.1260667,18.4442333 C72.1810667,18.4409 72.2337333,18.4362333 72.2830667,18.4295667 L72.2830667,18.7785667 C72.3864,18.6415667 72.5030667,18.5399 72.6314,18.4742333 C72.7600667,18.4079 72.9040667,18.3752333 73.0647333,18.3752333 C73.1877333,18.3752333 73.3010667,18.3962333 73.4030667,18.4379 C73.5054,18.4802333 73.5917333,18.5415667 73.6627333,18.6222333 C73.7187333,18.6882333 73.7587333,18.7695667 73.7827333,18.8662333 C73.8067333,18.9622333 73.8187333,19.1279 73.8187333,19.3619 C73.8187333,19.3949 73.8174,19.4819 73.8164,19.6229 C73.8144,19.7635667 73.8137333,19.8879 73.8137333,19.9949 C73.8137333,20.1532333 73.8164,20.3022333 73.8224,20.4425667 C73.8280667,20.5825667 73.8367333,20.7185667 73.8484,20.8505667 C73.7774,20.8425667 73.7110667,20.8365667 73.6494,20.8319 C73.5874,20.8282333 73.5274,20.8259 73.4700667,20.8259 C73.4120667,20.8259 73.3530667,20.8282333 73.2934,20.8319 C73.2327333,20.8365667 73.1674,20.8425667 73.0964,20.8505667 C73.1080667,20.7072333 73.1174,20.5359 73.1250667,20.3362333 C73.1320667,20.1365667 73.1360667,19.9149 73.1360667,19.6709 C73.1360667,19.3032333 73.1070667,19.0662333 73.0480667,18.9602333 C72.9900667,18.8535667 72.8837333,18.8005667 72.7304,18.8005667 C72.5770667,18.8005667 72.4674,18.8639 72.4004,18.9909 C72.3337333,19.1179 72.3000667,19.3322333 72.3000667,19.6339 C72.3000667,19.7755667 72.3030667,19.9479 72.3074,20.1505667 C72.3127333,20.3535667 72.3187333,20.5869 72.3270667,20.8505667 C72.2644,20.8425667 72.2030667,20.8365667 72.1420667,20.8319 C72.0810667,20.8282333 72.0214,20.8259 71.9637333,20.8259 C71.9077333,20.8259 71.8490667,20.8282333 71.7887333,20.8319 C71.7270667,20.8365667 71.6627333,20.8425667 71.5950667,20.8505667" id="Fill-20" fill="#009D95"></path>
                <path d="M75.2205667,20.8505667 C75.0755667,20.2949 74.9149,19.7289 74.7399,19.1529 C74.5639,18.5765667 74.3732333,17.9892333 74.1669,17.3909 C74.2312333,17.3975667 74.2982333,17.4022333 74.3689,17.4055667 C74.4385667,17.4089 74.5149,17.4105667 74.5972333,17.4105667 C74.6782333,17.4105667 74.7529,17.4089 74.8222333,17.4055667 C74.8915667,17.4022333 74.9585667,17.3975667 75.0229,17.3909 C75.1202333,17.8145667 75.2255667,18.2375667 75.3392333,18.6595667 C75.4529,19.0815667 75.5739,19.5012333 75.7025667,19.9182333 C75.8625667,19.4582333 76.0135667,19.0212333 76.1555667,18.6062333 C76.2972333,18.1919 76.4329,17.7865667 76.5632333,17.3909 C76.6025667,17.3975667 76.6429,17.4022333 76.6835667,17.4055667 C76.7235667,17.4089 76.7675667,17.4105667 76.8159,17.4105667 C76.8655667,17.4105667 76.9112333,17.4089 76.9529,17.4055667 C76.9952333,17.4022333 77.0359,17.3975667 77.0752333,17.3909 C77.1942333,17.7915667 77.3215667,18.1992333 77.4572333,18.6139 C77.5939,19.0285667 77.7372333,19.4519 77.8889,19.8835667 C78.0305667,19.4779 78.1632333,19.0682333 78.2862333,18.6535667 C78.4085667,18.2389 78.5229,17.8179 78.6285667,17.3909 C78.6632333,17.3975667 78.6995667,17.4022333 78.7372333,17.4055667 C78.7752333,17.4089 78.8165667,17.4105667 78.8609,17.4105667 C78.9055667,17.4105667 78.9462333,17.4089 78.9835667,17.4055667 C79.0202333,17.4022333 79.0559,17.3975667 79.0912333,17.3909 C78.9109,17.9035667 78.7265667,18.4475667 78.5355667,19.0215667 C78.3455667,19.5965667 78.1475667,20.2059 77.9435667,20.8505667 C77.8969,20.8425667 77.8525667,20.8365667 77.8085667,20.8319 C77.7652333,20.8282333 77.7222333,20.8259 77.6809,20.8259 C77.6432333,20.8259 77.6029,20.8282333 77.5602333,20.8319 C77.5172333,20.8365667 77.4702333,20.8425667 77.4195667,20.8505667 C77.3019,20.4599 77.1759,20.0609 77.0405667,19.6535667 C76.9055667,19.2465667 76.7595667,18.8285667 76.6025667,18.3999 C76.4512333,18.7855667 76.3032333,19.1829 76.1592333,19.5919 C76.0145667,20.0005667 75.8735667,20.4202333 75.7349,20.8505667 C75.6889,20.8425667 75.6442333,20.8365667 75.6015667,20.8319 C75.5585667,20.8282333 75.5175667,20.8259 75.4779,20.8259 C75.4382333,20.8259 75.3975667,20.8282333 75.3552333,20.8319 C75.3135667,20.8365667 75.2685667,20.8425667 75.2205667,20.8505667" id="Fill-22" fill="#009D95"></path>
                <path d="M79.9391667,19.3964667 L80.7971667,19.3964667 C80.7971667,19.3784667 80.7981667,19.3558 80.7998333,19.3281333 C80.8015,19.3014667 80.8025,19.2834667 80.8025,19.2754667 C80.8025,19.0461333 80.7691667,18.8731333 80.7021667,18.7561333 C80.6355,18.6388 80.5365,18.5804667 80.4068333,18.5804667 C80.2585,18.5804667 80.1431667,18.6471333 80.0618333,18.7808 C79.9798333,18.9141333 79.9391667,19.1048 79.9391667,19.3521333 L79.9391667,19.3964667 Z M79.9391667,19.6464667 C79.9391667,19.9381333 80.0091667,20.1698 80.1481667,20.3411333 C80.2875,20.5128 80.4751667,20.5984667 80.7108333,20.5984667 C80.8278333,20.5984667 80.9398333,20.5784667 81.0471667,20.5391333 C81.1545,20.4994667 81.2581667,20.4391333 81.3588333,20.3584667 L81.4081667,20.3958 L81.2971667,20.6824667 C81.1911667,20.7568 81.0675,20.8134667 80.9248333,20.8531333 C80.7821667,20.8928 80.6271667,20.9124667 80.4608333,20.9124667 C80.0668333,20.9124667 79.7585,20.7961333 79.5348333,20.5638 C79.3118333,20.3311333 79.2001667,20.0098 79.2001667,19.5991333 C79.2001667,19.2298 79.3111667,18.9314667 79.5338333,18.7038 C79.7561667,18.4764667 80.0508333,18.3628 80.4168333,18.3628 C80.7641667,18.3628 81.0311667,18.4591333 81.2165,18.6521333 C81.4021667,18.8451333 81.4951667,19.1218 81.4951667,19.4831333 C81.4951667,19.5258 81.4945,19.5588 81.4935,19.5821333 C81.4928333,19.6048 81.4911667,19.6254667 81.4895,19.6438 L79.9391667,19.6464667 Z" id="Fill-24" fill="#009D95"></path>
                <path d="M83.1497667,19.5175667 C82.9157667,19.5655667 82.7471,19.6379 82.6427667,19.7352333 C82.5391,19.8325667 82.4871,19.9679 82.4871,20.1409 C82.4871,20.2859 82.5134333,20.3945667 82.5664333,20.4672333 C82.6191,20.5399 82.6977667,20.5762333 82.8007667,20.5762333 C82.9131,20.5762333 82.9991,20.5359 83.0597667,20.4549 C83.1197667,20.3742333 83.1497667,20.2579 83.1497667,20.1062333 L83.1497667,19.5175667 Z M83.1724333,20.5315667 C83.0994333,20.6535667 83.0041,20.7475667 82.8864333,20.8135667 C82.7684333,20.8795667 82.6354333,20.9125667 82.4871,20.9125667 C82.2744333,20.9125667 82.1074333,20.8495667 81.9864333,20.7232333 C81.8651,20.5972333 81.8044333,20.4252333 81.8044333,20.2075667 C81.8044333,20.0475667 81.8474333,19.9159 81.9331,19.8119 C82.0187667,19.7082333 82.1534333,19.6255667 82.3361,19.5645667 C82.3954333,19.5449 82.4811,19.5175667 82.5931,19.4829 C82.8571,19.4039 83.0377667,19.3312333 83.1351,19.2655667 C83.1367667,19.2555667 83.1377667,19.2442333 83.1387667,19.2322333 C83.1394333,19.2195667 83.1401,19.2019 83.1401,19.1789 C83.1401,19.0255667 83.0961,18.9035667 83.0087667,18.8129 C82.9211,18.7222333 82.8051,18.6769 82.6601,18.6769 C82.5464333,18.6769 82.4431,18.7089 82.3497667,18.7732333 C82.2567667,18.8375667 82.1704333,18.9355667 82.0914333,19.0675667 C82.0664333,18.9885667 82.0457667,18.9249 82.0294333,18.8772333 C82.0127667,18.8292333 81.9964333,18.7849 81.9797667,18.7435667 C82.1297667,18.6132333 82.2781,18.5165667 82.4251,18.4529 C82.5717667,18.3895667 82.7244333,18.3579 82.8827667,18.3579 C83.1861,18.3579 83.4191,18.4279 83.5811,18.5679 C83.7441,18.7082333 83.8251,18.9085667 83.8251,19.1689 L83.8251,19.1935667 L83.8097667,20.0765667 L83.8097667,20.1729 C83.8097667,20.3789 83.8331,20.5115667 83.8781,20.5699 C83.9237667,20.6285667 84.0121,20.6575667 84.1441,20.6575667 L84.1587667,20.6575667 L84.1587667,20.7839 C84.0731,20.8202333 83.9841,20.8479 83.8917667,20.8665667 C83.7994333,20.8855667 83.7111,20.8952333 83.6274333,20.8952333 C83.5047667,20.8952333 83.4054333,20.8645667 83.3277667,20.8022333 C83.2504333,20.7405667 83.1981,20.6502333 83.1724333,20.5315667 L83.1724333,20.5315667 Z" id="Fill-26" fill="#009D95"></path>
                <path d="M84.5023,20.8505667 C84.5149667,20.5655667 84.5249667,20.2679 84.5319667,19.9579 C84.5379667,19.6479 84.5419667,19.3159 84.5419667,18.9612333 C84.5419667,18.5852333 84.5379667,18.2419 84.5319667,17.9312333 C84.5249667,17.6205667 84.5149667,17.3272333 84.5023,17.0519 C84.5826333,17.0652333 84.6519667,17.0742333 84.7103,17.0792333 C84.7673,17.0842333 84.8233,17.0865667 84.8783,17.0865667 C84.9323,17.0865667 84.9896333,17.0839 85.0509667,17.0779 C85.1119667,17.0722333 85.1806333,17.0635667 85.2563,17.0519 C85.2433,17.3372333 85.2333,17.6349 85.2266333,17.9449 C85.2199667,18.2545667 85.2169667,18.5869 85.2169667,18.9412333 C85.2169667,19.3172333 85.2199667,19.6609 85.2266333,19.9712333 C85.2333,20.2822333 85.2433,20.5752333 85.2563,20.8505667 C85.2003,20.8392333 85.1409667,20.8305667 85.0783,20.8249 C85.0156333,20.8189 84.9503,20.8159 84.8826333,20.8159 C84.8149667,20.8159 84.7503,20.8189 84.6876333,20.8249 C84.6249667,20.8305667 84.5629667,20.8392333 84.5023,20.8505667" id="Fill-28" fill="#009D95"></path>
                <path d="M85.9515333,18.7114 L85.8598667,18.7114 C85.7922,18.7114 85.7412,18.7120667 85.7052,18.7127333 C85.6702,18.7137333 85.6378667,18.7147333 85.6082,18.7164 C85.6108667,18.6980667 85.6128667,18.6810667 85.6142,18.6644 C85.6145333,18.6480667 85.6152,18.6214 85.6152,18.5854 C85.6152,18.5490667 85.6142,18.5214 85.6125333,18.5024 C85.6108667,18.4834 85.6092,18.4667333 85.6082,18.4517333 C85.6142,18.4534 85.6242,18.4550667 85.6378667,18.4567333 C85.7575333,18.4684 85.8432,18.4740667 85.8948667,18.4740667 L85.9515333,18.4714 C85.9532,18.4484 85.9542,18.4237333 85.9555333,18.3974 C85.9558667,18.3710667 85.9565333,18.3304 85.9565333,18.2760667 C85.9565333,18.2104 85.9548667,18.1400667 85.9515333,18.0660667 C85.9482,17.9917333 85.9435333,17.8994 85.9368667,17.7890667 C86.0538667,17.7444 86.1692,17.6974 86.2828667,17.6480667 C86.3965333,17.5987333 86.5072,17.5474 86.6145333,17.4947333 L86.6688667,17.5367333 C86.6592,17.7297333 86.6512,17.8910667 86.6465333,18.0204 C86.6412,18.1497333 86.6392,18.2480667 86.6392,18.3157333 L86.6392,18.4740667 C86.7312,18.4740667 86.8175333,18.4724 86.8972,18.4690667 C86.9778667,18.4657333 87.0552,18.4607333 87.1315333,18.4544 C87.1258667,18.4920667 87.1232,18.5194 87.1225333,18.5357333 C87.1215333,18.5524 87.1215333,18.5687333 87.1215333,18.5854 C87.1215333,18.6134 87.1238667,18.6520667 87.1288667,18.7014 C87.1322,18.7080667 87.1325333,18.7130667 87.1315333,18.7164 C87.0912,18.7147333 87.0392,18.7137333 86.9748667,18.7127333 C86.9098667,18.7120667 86.7952,18.7114 86.6292,18.7114 C86.6292,18.7360667 86.6282,18.7750667 86.6272,18.8284 C86.6148667,19.1774 86.6095333,19.4264 86.6095333,19.5757333 L86.6095333,19.7790667 C86.6095333,20.1664 86.6282,20.4060667 86.6665333,20.4987333 C86.7038667,20.5914 86.7775333,20.6380667 86.8865333,20.6380667 C86.9405333,20.6380667 87.0378667,20.6197333 87.1782,20.5837333 L87.1808667,20.5810667 L87.1808667,20.7690667 C87.0698667,20.8184 86.9675333,20.8547333 86.8725333,20.8777333 C86.7782,20.9010667 86.6872,20.9124 86.5995333,20.9124 C86.3835333,20.9124 86.2185333,20.8550667 86.1048667,20.7400667 C85.9912,20.6250667 85.9345333,20.4584 85.9345333,20.2400667 C85.9345333,20.2320667 85.9372,20.0874 85.9428667,19.8070667 C85.9488667,19.5267333 85.9515333,19.2507333 85.9515333,18.9797333 L85.9515333,18.7114 Z" id="Fill-30" fill="#009D95"></path>
                <path d="M87.5050667,20.8505667 C87.5194,20.6725667 87.5297333,20.4522333 87.5360667,20.1889 C87.5414,19.9262333 87.5447333,19.5455667 87.5447333,19.0479 C87.5447333,18.5202333 87.5414,18.1089 87.5360667,17.8139 C87.5297333,17.5185667 87.5194,17.2645667 87.5050667,17.0519 C87.5744,17.0652333 87.6387333,17.0749 87.6990667,17.0815667 C87.7590667,17.0882333 87.8174,17.0915667 87.8734,17.0915667 C87.9327333,17.0915667 87.9927333,17.0882333 88.0537333,17.0815667 C88.1147333,17.0749 88.1787333,17.0652333 88.2444,17.0519 C88.2277333,17.1905667 88.2154,17.3389 88.2060667,17.4972333 C88.1970667,17.6555667 88.1924,17.8262333 88.1924,18.0092333 L88.1924,18.7955667 C88.2844,18.6555667 88.3960667,18.5505667 88.5260667,18.4802333 C88.6564,18.4102333 88.8054,18.3752333 88.9734,18.3752333 C89.0954,18.3752333 89.2077333,18.3962333 89.3087333,18.4379 C89.4107333,18.4802333 89.4957333,18.5415667 89.5650667,18.6222333 C89.6240667,18.6899 89.6660667,18.7742333 89.6914,18.8745667 C89.7157333,18.9752333 89.7284,19.1375667 89.7284,19.3619 C89.7284,19.3949 89.7270667,19.4819 89.7254,19.6229 C89.7237333,19.7635667 89.7230667,19.8879 89.7230667,19.9949 C89.7230667,20.1812333 89.7254,20.3419 89.7310667,20.4759 C89.7354,20.6105667 89.7430667,20.7352333 89.7527333,20.8505667 C89.6837333,20.8425667 89.6177333,20.8365667 89.5550667,20.8319 C89.4924,20.8282333 89.4340667,20.8259 89.3790667,20.8259 C89.3214,20.8259 89.2627333,20.8282333 89.2030667,20.8319 C89.1424,20.8365667 89.0770667,20.8425667 89.0060667,20.8505667 C89.0177333,20.7072333 89.0264,20.5359 89.0330667,20.3362333 C89.0397333,20.1365667 89.0427333,19.9149 89.0427333,19.6709 C89.0427333,19.3032333 89.0140667,19.0662333 88.9564,18.9602333 C88.8990667,18.8535667 88.7934,18.8005667 88.6400667,18.8005667 C88.4867333,18.8005667 88.3767333,18.8639 88.3097333,18.9909 C88.2434,19.1179 88.2097333,19.3322333 88.2097333,19.6339 C88.2097333,19.7922333 88.2124,19.9745667 88.2187333,20.1805667 C88.2240667,20.3865667 88.2317333,20.6099 88.2417333,20.8505667 C88.1757333,20.8425667 88.1124,20.8365667 88.0517333,20.8319 C87.9904,20.8282333 87.9310667,20.8259 87.8734,20.8259 C87.8174,20.8259 87.7587333,20.8282333 87.6974,20.8319 C87.6367333,20.8365667 87.5720667,20.8425667 87.5050667,20.8505667" id="Fill-32" fill="#009D95"></path>
                <path d="M50.0407,13.7762 C49.7847,13.4845333 49.5093667,13.3098667 49.3627,13.2308667 C49.3273667,13.2155333 49.2930333,13.1982 49.2590333,13.1788667 L49.2567,13.1778667 L49.2573667,13.1778667 C49.0927,13.0842 48.9380333,12.9575333 48.7560333,12.9105333 C48.4813667,12.8392 48.1877,12.8735333 47.9103667,12.8145333 C47.5200333,12.7315333 47.1317,12.6345333 46.7370333,12.5738667 C46.2450333,12.4982 45.7347,12.4782 45.2527,12.6225333 C45.0357,12.6872 44.7760333,12.7728667 44.6187,12.9452 C44.4877,13.0885333 44.4907,13.2575333 44.4497,13.4352 C44.4113667,13.6022 44.3893667,13.7725333 44.3880333,13.9438667 C44.3823667,14.5812 44.6283667,15.2122 44.9443667,15.7555333 C45.1137,16.0472 45.3117,16.3212 45.5307,16.5775333 C45.7313667,16.8122 45.9673667,17.1225333 46.2253667,17.2952 C46.4793667,17.4652 46.6537,17.5865333 46.8140333,17.8462 C46.9267,18.0285333 46.9400333,18.0822 47.1537,18.1645333 C47.5020333,18.2988667 47.8993667,18.2948667 48.2670333,18.3212 C48.7483667,18.3558667 49.2680333,18.3642 49.7450333,18.2792 C50.1070333,18.2148667 50.1763667,17.9588667 50.4710333,17.7872 C50.7473667,17.6258667 50.8867,17.5998667 51.0140333,17.2952 C51.5880333,15.9255333 50.8803667,14.7615333 50.0407,13.7762" id="Fill-34" fill="#009D95"></path>
                <path d="M57.4469667,7.49023333 L59.2469667,7.49023333 C59.0483,7.24456667 58.8379667,7.01123333 58.6273,6.80056667 C58.2649667,7.08123333 57.8679667,7.32656667 57.4469667,7.49023333 L57.4469667,7.49023333 Z M58.1833,4.00756667 C57.9379667,3.7619 57.6809667,3.52823333 57.4469667,3.34156667 L57.6223,3.00256667 C57.9146333,3.14256667 58.2183,3.3299 58.5339667,3.52823333 C58.6859667,3.2829 58.8259667,3.03756667 58.9429667,2.80356667 L59.7259667,3.23623333 C59.5739667,3.4699 59.3753,3.71523333 59.1416333,3.9609 C59.3869667,4.1479 59.6093,4.3349 59.8313,4.53323333 L59.2116333,5.16456667 C59.0599667,4.9659 58.8613,4.70856667 58.6273,4.46323333 C58.2416333,4.79056667 57.8213,5.0829 57.4236333,5.29323333 L57.2133,5.0009 C57.5756333,4.70856667 57.9026333,4.3699 58.1833,4.00756667 L58.1833,4.00756667 Z M54.6306333,9.57056667 L53.6023,9.57056667 L53.6023,7.49023333 L54.6306333,7.49023333 C54.5956333,6.1579 54.5489667,4.8139 54.4786333,3.48156667 L55.4019667,3.68023333 C55.8459667,3.48156667 56.2083,3.21256667 56.6756333,2.76856667 L57.2833,3.42323333 C56.8276333,3.6569 56.0796333,3.9489 55.4253,4.05423333 C55.4253,4.26456667 55.4369667,4.4749 55.4486333,4.68523333 L57.0029667,4.68523333 L57.0029667,5.21123333 L55.4719667,5.21123333 C55.4836333,5.51523333 55.4836333,5.83056667 55.4953,6.13456667 L57.0846333,6.13456667 L57.0846333,6.66056667 L55.5073,6.66056667 C55.5186333,6.9409 55.5306333,7.20956667 55.5306333,7.49023333 L57.2599667,7.49023333 L57.1199667,7.18623333 C57.5169667,6.96423333 57.8679667,6.69556667 58.1599667,6.3799 C57.9263,6.18123333 57.6809667,5.99423333 57.4123,5.80723333 L57.5873,5.48023333 C57.9263,5.6319 58.2416333,5.77223333 58.5456333,5.9359 C58.7446333,5.69056667 58.9196333,5.42156667 59.0833,5.14123333 L59.8079667,5.65523333 C59.6326333,5.86556667 59.4223,6.08756667 59.1766333,6.32156667 C59.4336333,6.4969 59.6793,6.6839 59.9249667,6.9059 L59.3869667,7.49023333 L61.4789667,7.49023333 C61.5023,7.22123333 61.5143,6.96423333 61.5256333,6.69556667 L59.9363,6.69556667 L59.9363,6.16956667 L61.5489667,6.16956667 C61.5609667,5.88923333 61.5843,5.5969 61.5956333,5.31656667 L60.0183,5.31656667 L60.0183,4.79056667 L61.6076333,4.79056667 L61.6423,3.89056667 L59.9363,3.89056667 L59.9363,3.3649 L61.5489667,3.3649 L61.7713,3.14256667 L62.6243,3.3529 C62.5426333,4.70856667 62.4723,6.12256667 62.3669667,7.49023333 L63.4306333,7.49023333 L63.4306333,9.53523333 L62.4023,9.53523333 L62.4023,8.0159 L54.6306333,8.0159 L54.6306333,9.57056667 Z M63.5476333,11.2415667 L59.3053,11.2415667 L59.3053,12.5855667 C59.3053,13.6372333 58.3823,14.2452333 56.3133,13.0299 L56.4186333,12.6322333 C58.1133,13.0062333 58.2533,12.8309 58.2533,12.1415667 L58.2533,11.2415667 L53.5089667,11.2415667 L53.5089667,10.7159 L58.2533,10.7159 L58.2533,9.87423333 L59.0366333,9.99123333 C59.4689667,9.7459 59.9013,9.4069 60.2403,9.11456667 L55.2966333,9.11456667 L55.2966333,8.58856667 L60.5089667,8.58856667 L60.8243,8.44856667 L61.7713,9.20823333 C61.0233,9.7339 60.0183,10.1429 59.3053,10.3535667 L59.3053,10.7159 L63.5476333,10.7159 L63.5476333,11.2415667 Z" id="Fill-36" fill="#009D95"></path>
                <path d="M73.9987333,4.9541 L73.4377333,5.8541 C72.9937333,5.46843333 72.1290667,4.8491 71.5910667,4.53343333 L71.7430667,4.15943333 C72.2924,4.26476667 73.2507333,4.53343333 73.9987333,4.9541 L73.9987333,4.9541 Z M75.8567333,3.36476667 L75.8567333,8.0981 L74.8520667,8.0981 L74.8520667,5.8541 C73.8467333,6.57876667 72.5380667,7.36176667 71.7667333,7.65376667 L71.2637333,6.6371 C72.2807333,6.40343333 73.6014,5.98243333 74.8520667,5.38643333 L74.8520667,3.89076667 L71.5094,3.89076667 L71.5094,3.36476667 L75.8567333,3.36476667 Z M68.7630667,12.5504333 L74.1274,12.5504333 L74.1274,11.3234333 L68.7630667,11.3234333 L68.7630667,12.5504333 Z M68.7630667,10.7974333 L74.1274,10.7974333 L74.1274,9.6521 L68.7630667,9.6521 L68.7630667,10.7974333 Z M71.5327333,9.12643333 L75.1790667,9.12643333 L75.1790667,13.7074333 L74.1274,13.7074333 L74.1274,13.0764333 L68.7630667,13.0764333 L68.7630667,13.7541 L67.7114,13.7541 L67.7114,9.12643333 L70.9014,9.12643333 C71.1120667,8.6121 71.2524,8.1211 71.3457333,7.63043333 L72.4794,8.07443333 C72.1290667,8.5071 71.8367333,8.84576667 71.5327333,9.12643333 L71.5327333,9.12643333 Z M69.2187333,4.97743333 L68.6460667,5.91243333 C68.1904,5.50343333 67.3490667,4.94243333 66.7880667,4.5801 L66.9400667,4.19443333 C67.5360667,4.31143333 68.4240667,4.56843333 69.2187333,4.97743333 L69.2187333,4.97743333 Z M70.0367333,6.37976667 C68.9967333,7.10443333 67.5240667,7.8641 66.7760667,8.15643333 L66.3087333,7.16276667 C67.3840667,6.87076667 68.7864,6.43843333 70.0367333,5.8891 L70.0367333,3.89076667 L66.4137333,3.89076667 L66.4137333,3.36476667 L71.0420667,3.36476667 L71.0420667,7.8291 L70.0367333,7.8291 L70.0367333,6.37976667 Z" id="Fill-38" fill="#009D95"></path>
                <polygon id="Fill-40" fill="#FFF000" points="54.0228 27.2363 54.0228 23.6266333 54.7778 23.6266333 54.7778 26.6363 55.9074667 26.6363 55.9074667 27.2363"></polygon>
                <polygon id="Fill-42" fill="#FFF000" points="58.3379 27.2363 58.3379 23.6266333 60.3075667 23.6266333 60.3075667 24.1813 59.0929 24.1813 59.0929 25.0713 60.2125667 25.0713 60.2125667 25.6263 59.0929 25.6263 59.0929 26.6813 60.3475667 26.6813 60.3475667 27.2363"></polygon>
                <path d="M64.1175333,24.3212667 L64.1078667,24.3212667 L63.7628667,25.8816 L64.4828667,25.8816 L64.1175333,24.3212667 Z M62.6628667,27.2362667 L63.6628667,23.6266 L64.6575333,23.6266 L65.6378667,27.2362667 L64.8428667,27.2362667 L64.6425333,26.4362667 L63.6125333,26.4362667 L63.4075333,27.2362667 L62.6628667,27.2362667 Z" id="Fill-44" fill="#FFF000"></path>
                <path d="M68.8327,25.1865 L69.1677,25.1865 C69.4673667,25.1865 69.5527,24.8865 69.5527,24.6565 C69.5527,24.3115 69.4077,24.1811667 69.1677,24.1811667 L68.8327,24.1811667 L68.8327,25.1865 Z M68.8327,27.2361667 L68.0777,27.2361667 L68.0777,23.6265 L69.4727,23.6265 C69.9877,23.6265 70.3177,23.9565 70.3177,24.5711667 C70.3177,25.0315 70.1377,25.3761667 69.6473667,25.4565 L69.6473667,25.4665 C69.8123667,25.4861667 70.3023667,25.5265 70.3023667,26.1765 C70.3023667,26.4061667 70.3177,27.0861667 70.3877,27.2361667 L69.6473667,27.2361667 C69.5477,27.0161667 69.5677,26.7715 69.5677,26.5365 C69.5677,26.1065 69.6077,25.7415 69.0277,25.7415 L68.8327,25.7415 L68.8327,27.2361667 Z" id="Fill-46" fill="#FFF000"></path>
                <polygon id="Fill-48" fill="#FFF000" points="72.9775667 27.2363 72.9775667 23.6266333 73.9975667 23.6266333 74.9572333 26.1263 74.9675667 26.1263 74.9675667 23.6266333 75.6725667 23.6266333 75.6725667 27.2363 74.6775667 27.2363 73.6925667 24.5963 73.6825667 24.5963 73.6825667 27.2363"></polygon>
                <mask id="mask-8" fill="white">
                    <use xlink:href="#path-7"></use>
                </mask>
                <g id="Clip-51"></g>
                <polygon id="Fill-50" fill="#FFF000" mask="url(#mask-8)" points="78.408 27.2361333 79.163 27.2361333 79.163 23.6264667 78.408 23.6264667"></polygon>
                <polygon id="Fill-52" fill="#FFF000" mask="url(#mask-8)" points="81.9027 27.2363 81.9027 23.6266333 82.9227 23.6266333 83.8823667 26.1263 83.8927 26.1263 83.8927 23.6266333 84.5977 23.6266333 84.5977 27.2363 83.6027 27.2363 82.6177 24.5963 82.6077 24.5963 82.6077 27.2363"></polygon>
                <path d="M88.9823,24.7363 C88.9876333,24.4013 88.9326333,24.1063 88.5323,24.1063 C88.0623,24.1063 88.0623,24.7416333 88.0623,25.4413 C88.0623,26.5713 88.1723,26.7713 88.6023,26.7713 C88.7273,26.7713 88.8626333,26.7413 88.9773,26.7016333 L88.9773,25.9013 L88.5673,25.9013 L88.5673,25.3463 L89.7323,25.3463 L89.7323,27.1763 C89.5273,27.2163 89.0123,27.2963 88.7123,27.2963 C87.4426333,27.2963 87.2973,26.7713 87.2973,25.4013 C87.2973,24.4916333 87.3423,23.5663 88.5773,23.5663 C89.3173,23.5663 89.7773,23.9813 89.7323,24.7363 L88.9823,24.7363 Z" id="Fill-53" fill="#FFF000" mask="url(#mask-8)"></path>
            </g>
        </g>
    </g>
</svg>