<?xml version="1.0" encoding="UTF-8"?>
<svg width="90px" height="29px" viewBox="0 0 90 29" version="1.1" xmlns="http://www.w3.org/2000/svg" xmlns:xlink="http://www.w3.org/1999/xlink">
    <title>logo_天下</title>
    <defs>
        <polygon id="path-1" points="0.296434672 0.032 14.6227432 0.032 14.6227432 6.4442468 0.296434672 6.4442468"></polygon>
    </defs>
    <g id="Symbols" stroke="none" stroke-width="1" fill="none" fill-rule="evenodd">
        <g id="Slicing" transform="translate(-30.000000, -173.000000)">
            <g id="logo_天下" transform="translate(30.000000, 173.000000)">
                <g id="Group-3" transform="translate(3.666667, 0.301467)">
                    <mask id="mask-2" fill="white">
                        <use xlink:href="#path-1"></use>
                    </mask>
                    <g id="Clip-2"></g>
                    <path d="M14.5393333,1.1852 C15.0716667,2.7292 12.9203333,3.2332 11.9263333,3.63886667 C11.5823333,3.77953333 11.24,3.92353333 10.903,4.0802 C10.672,4.18753333 10.46,4.33586667 10.2233333,4.43053333 C9.99833333,4.52053333 9.753,4.5522 9.51766667,4.60386667 C8.98633333,4.72086667 8.459,4.85286667 7.934,4.99453333 C6.881,5.27853333 5.83866667,5.59953333 4.79033333,5.90053333 C4.193,6.0722 3.59366667,6.2372 2.98966667,6.38553333 C2.35266667,6.54186667 1.704,6.37153333 1.15033333,6.04586667 C0.636333333,5.7432 0.602666667,5.26186667 0.368333333,4.7652 C0.249666667,4.5142 0.268,4.2412 0.498,4.0452 C0.558333333,3.99386667 0.822,4.0082 0.906333333,3.99686667 C1.04433333,3.97786667 1.182,3.95653333 1.31933333,3.9342 C1.59066667,3.8902 1.86133333,3.84086667 2.13333333,3.79986667 C2.40466667,3.75853333 2.677,3.72486667 2.951,3.70753333 C3.25133333,3.68886667 3.502,3.75953333 3.76533333,3.58353333 C4.04633333,3.39553333 4.317,3.21253333 4.62633333,3.07153333 C5.22066667,2.8002 5.86233333,2.6572 6.505,2.5562 C6.73,2.52053333 6.956,2.4902 7.18166667,2.4612 C7.29933333,2.44586667 7.42833333,2.46753333 7.543,2.43386667 C7.679,2.39353333 7.71633333,2.31953333 7.82766667,2.2342 C8.05733333,2.0582 8.37266667,2.05486667 8.60233333,1.87886667 C9.25233333,1.35853333 10.1186667,1.1632 10.6393333,0.512866667 C11.0136667,0.204533333 11.49,0.0755333333 11.9673333,0.0505333333 C12.4696667,0.0245333333 12.981,-0.0124666667 13.435,0.2372 C13.8576667,0.4692 14.374,0.689533333 14.5393333,1.1852" id="Fill-1" fill="#D70C18" mask="url(#mask-2)"></path>
                </g>
                <path d="M35.9752,9.49446667 C36.0428667,9.24713333 36.1005333,8.98946667 36.0998667,8.7318 C36.0992,8.4658 35.9422,8.23313333 35.9242,7.97046667 C35.9095333,7.7588 36.0275333,7.52913333 35.7795333,7.41413333 C35.2595333,7.0458 34.7828667,7.63146667 34.2632,7.71813333 C33.8372,7.9308 33.5192,8.3018 33.1612,8.60546667 C32.9108667,8.8178 32.5985333,8.9318 32.3305333,9.1168 C32.0745333,9.29346667 31.8748667,9.53646667 31.6252,9.72346667 C31.0888667,10.1241333 30.4632,10.3811333 29.9075333,10.7514667 C29.4375333,11.0651333 28.3772,10.9414667 27.8592,10.8418 C26.9208667,10.6608 26.0972,10.1958 25.2248667,9.84213333 C24.8442,9.68813333 24.4425333,9.56713333 24.0935333,9.34446667 C23.6925333,9.08813333 23.4712,8.63613333 23.0688667,8.3678 C22.7078667,8.12646667 22.3482,7.91313333 22.4532,7.41413333 C22.7785333,7.0678 23.2332,7.0028 23.6668667,6.89446667 C25.1618667,6.61246667 26.7872,6.82946667 28.2392,6.3308 C29.0618667,6.11446667 29.9288667,5.91913333 30.7315333,5.63746667 C30.9418667,5.56346667 31.1662,5.45813333 31.3902,5.38313333 C31.6348667,5.30113333 31.7875333,5.1208 32.0128667,5.0078 C32.5112,4.75846667 33.0355333,4.90513333 33.5392,4.7678 C34.2462,4.57513333 34.9465333,4.3588 35.6435333,4.13313333 C36.0492,4.0018 36.4438667,3.8338 36.8602,3.73813333 C37.1902,3.66213333 37.5362,3.6678 37.8295333,3.4788 C38.5428667,3.01946667 39.4465333,3.22313333 40.2012,2.8858 C40.8382,2.60113333 41.5595333,2.31946667 42.2375333,2.1508 C42.5912,2.0628 42.9572,2.01846667 43.3205333,2.0668 C43.9338667,2.14846667 44.5685333,2.2998 45.1758667,2.42813333 C45.6918667,2.53713333 46.2208667,2.61413333 46.6835333,2.8848 C46.9355333,3.0318 47.1388667,3.24913333 47.2655333,3.51413333 C47.3005333,3.85213333 47.1855333,4.17546667 47.0382,4.4738 C46.9638667,4.62546667 46.8795333,4.77146667 46.7982,4.9188 C46.5385333,5.39113333 46.1145333,5.5018 45.6232,5.63346667 C45.1308667,5.7658 44.6188667,5.8168 44.1165333,5.69946667 C43.8505333,5.63713333 43.5785333,5.5068 43.3652,5.33413333 C42.5038667,4.78346667 41.4522,4.9388 40.5165333,5.1798 C40.3875333,5.21313333 40.2598667,5.25013333 40.1342,5.29313333 C39.9972,5.34013333 39.8722,5.3598 39.7572,5.45213333 C39.6502,5.53813333 39.5385333,5.6068 39.4172,5.6718 C39.1042,5.83946667 38.8328667,5.98246667 38.8355333,6.36846667 C38.8382,6.8248 38.7585333,7.35113333 38.9432,7.7828 C39.3552,8.6498 38.8132,9.51613333 39.2035333,10.3834667 C39.3775333,11.5534667 39.7238667,13.2001333 39.6805333,14.5428 C39.6805333,16.4068 39.8322,18.7248 40.1355333,20.5221333 C40.2055333,20.9368 40.3355333,21.3421333 40.4335333,21.7508 C40.4948667,22.0061333 40.5098667,22.2704667 40.5708667,22.5264667 C40.7018667,23.0768 40.8295333,23.4784667 40.8065333,24.0534667 C40.7802,24.7088 40.7025333,25.3611333 40.6085333,26.0098 C40.5052,26.7238 40.2838667,27.4238 39.5722,27.7391333 C38.8752,28.5038 37.6372,28.3578 36.7548667,28.0641333 C36.3738667,27.9371333 35.8995333,27.3951333 35.7062,27.0501333 C35.5885333,26.8401333 35.6055333,26.5864667 35.5515333,26.3548 C35.4125333,25.7581333 35.1672,25.1938 35.3685333,24.5754667 C35.8015333,19.5914667 36.2342,14.8684667 35.9752,9.90613333" id="Fill-4" fill="#D70C18"></path>
                <path d="M11.7488,7.38053333 C12.1821333,7.8572 12.3768,8.42086667 12.6371333,8.98453333 C12.8598,9.2282 13.1394667,9.21453333 13.4281333,9.1072 C13.6774667,9.0142 13.9504667,8.97253333 14.1631333,8.80153333 C14.3734667,8.63186667 14.5471333,8.4062 14.7498,8.22486667 C15.1868,7.83353333 15.6541333,7.4702 16.2191333,7.2852 C16.5544667,7.17553333 16.9004667,7.13053333 17.2528,7.16386667 C17.8161333,7.38053333 18.5314667,7.3592 18.8131333,7.94353333 C19.0728,8.31253333 19.0071333,8.74553333 18.8774667,9.13586667 C18.3798,10.1542 17.1444667,10.5232 16.2774667,11.1728667 C15.5838,11.5408667 14.6521333,11.8012 14.3054667,12.5812 C14.2838,13.8165333 15.2811333,14.8125333 16.0608,15.5278667 C17.2528,16.7632 18.3578,18.6475333 19.9611333,19.3845333 C20.4338,19.6015333 20.8281333,20.0465333 21.2258,20.3718667 C21.4428,20.5495333 21.6674667,20.7205333 21.9101333,20.8612 C22.1828,21.0192 22.4791333,21.0768667 22.7438,21.2562 C23.0071333,21.4345333 23.3468,21.5168667 23.5581333,21.7668667 C23.6428,21.8672 23.7864667,21.8878667 23.8971333,21.9465333 C24.1308,22.0698667 24.2881333,22.3212 24.5594667,22.3765333 C24.7094667,22.4068667 24.8418,22.3735333 24.9851333,22.4388667 C25.1251333,22.5018667 25.2561333,22.6228667 25.3851333,22.7068667 C25.9871333,23.1022 26.6091333,23.4762 27.2878,23.7248667 C27.5501333,23.8205333 27.8358,23.8348667 28.0964667,23.9348667 C28.3474667,24.0305333 28.5094667,24.2298667 28.7244667,24.3802 C29.0938,24.6388667 29.5934667,24.8718667 29.7698,25.3175333 C29.8848,25.6082 29.7331333,26.0468667 29.5461333,26.2748667 C29.2784667,26.6012 28.7891333,26.6845333 28.3968,26.7458667 C27.9991333,26.8075333 27.5891333,26.9922 27.1898,27.0375333 C26.9698,27.0622 26.7431333,27.0588667 26.5221333,27.0755333 C26.0468,27.1108667 25.5724667,27.1602 25.0984667,27.2082 C24.1398,27.3062 23.1778,27.4058667 22.2128,27.3885333 C21.6861333,27.3792 21.0678,27.4588667 20.5918,27.1852 C19.9421333,26.8115333 19.3521333,26.2495333 18.7558,25.7952 C17.9721333,25.1978667 17.4391333,24.3708667 16.8774667,23.5628667 C16.2911333,22.7192 15.7298,21.8588667 15.1398,21.0175333 C14.6634667,20.3385333 14.1874667,19.5558667 13.5388,19.0258667 C13.3101333,18.8388667 13.1591333,18.5752 12.9328,18.3818667 C12.7361333,18.2142 12.5618,18.0305333 12.3898,17.8378667 C12.0398,17.4462 11.6708,17.0938667 11.1208,17.0445333 C10.9154667,17.3522 10.7738,17.6988667 10.6918,18.0588667 C10.6364667,18.3025333 10.6481333,18.5542 10.6064667,18.7998667 C10.5718,19.0052 10.4954667,19.1998667 10.4578,19.4055333 C10.3771333,19.8478667 10.3701333,20.3258667 10.1451333,20.7275333 C10.0091333,20.9705333 9.93313333,21.1692 9.86746667,21.4435333 C9.80346667,21.7132 9.67013333,22.0005333 9.56313333,22.2568667 C9.5028,22.4015333 9.40746667,22.5275333 9.3428,22.6702 C9.2248,22.9312 9.16146667,23.2082 9.0258,23.4668667 C8.87446667,23.7552 8.70713333,24.0372 8.52613333,24.3078667 C8.16146667,24.8525333 7.7428,25.3608667 7.28813333,25.8322 C7.0328,26.0972 6.7658,26.3512 6.48946667,26.5948667 C6.2738,26.7845333 6.08913333,26.9985333 5.8378,27.1468667 C5.58246667,27.2972 5.2948,27.3562 5.01513333,27.4445333 C4.42013333,27.6332 3.88113333,27.8995333 3.24446667,27.9295333 C2.86946667,27.9472 2.4988,27.8422 2.17046667,27.6615333 C2.0308,27.5845333 1.7828,27.5962 1.6238,27.5365333 C1.43646667,27.4658667 1.2528,27.3678667 1.09246667,27.2478667 C0.910133333,27.1115333 0.7258,26.9635333 0.591133333,26.7778667 C0.5168,26.6758667 0.452466667,26.5668667 0.434466667,26.4408667 C0.396466667,26.1785333 0.444133333,26.0888667 0.277133333,25.8672 C0.0621333333,25.5815333 0.178466667,25.3905333 0.1158,25.0808667 C0.0858,24.9325333 0.0141333333,24.7905333 0.00146666667,24.6392 C-0.0195333333,24.3905333 0.191133333,24.1955333 0.3288,24.0122 C0.481133333,23.8082 0.614133333,23.5865333 0.870133333,23.5005333 C1.16046667,23.4032 1.5708,23.4138667 1.86713333,23.4735333 C2.03613333,23.5078667 2.19913333,23.5685333 2.3458,23.6598667 C2.58346667,23.8068667 2.68946667,24.0268667 2.9898,23.8525333 C3.21446667,23.7218667 3.3458,23.4805333 3.53913333,23.3138667 C3.68646667,23.1868667 3.74346667,22.9765333 3.8888,22.8352 C4.0518,22.6768667 4.2048,22.5092 4.34313333,22.3282 C4.6268,21.9568667 4.84046667,21.5388667 4.9878,21.0958667 C5.76813333,20.2722 5.85413333,19.1028667 5.55146667,17.9762 C4.7498,17.9118667 3.90513333,18.3225333 3.0598,18.0415333 C2.4958,17.6298667 1.67246667,17.4138667 1.3908,16.7848667 C1.0008,16.3735333 0.6758,15.8535333 0.610466667,15.2675333 C0.849133333,14.6182 1.75913333,14.8125333 2.27946667,14.7052 C2.7558,14.5102 3.31946667,14.4662 3.7958,14.2278667 C4.0648,14.0935333 4.3818,14.0518667 4.65646667,13.9028667 C4.92713333,13.7558667 5.18046667,13.5802 5.43713333,13.4112 C5.69346667,13.2425333 5.9528,13.0762 6.23313333,12.9498667 C6.5318,12.8148667 6.8628,12.7718667 7.15513333,12.6138667 C7.40513333,12.4782 7.6368,12.2882 7.85546667,12.1072 C8.30946667,11.7315333 8.66146667,11.1998667 8.58513333,10.5872 C8.55946667,10.3802 8.46113333,10.1925333 8.46113333,9.96853333 C8.46146667,9.74586667 8.50546667,9.5262 8.5508,9.30953333 C8.59613333,9.09153333 8.64913333,8.87486667 8.6738,8.65353333 C8.71113333,8.3212 8.62646667,8.0982 8.82713333,7.8012 C9.00413333,7.5392 9.26546667,7.32186667 9.56046667,7.20686667 C9.79746667,7.11453333 10.0948,7.16386667 10.3424667,7.16486667 C10.5441333,7.1652 10.8004667,7.02486667 10.9964667,7.0802 C11.1154667,7.11386667 11.1988,7.22053333 11.3321333,7.25386667 C11.4754667,7.28953333 11.6271333,7.28286667 11.7488,7.38053333" id="Fill-6" fill="#D70C18"></path>
                <path d="M56.6555333,18.1872 L56.5835333,18.1968667 C56.5295333,18.0172 56.4215333,17.8775333 56.2598667,17.7778667 C56.0982,17.6785333 55.8972,17.6282 55.6565333,17.6282 C55.2918667,17.6282 55.0085333,17.7558667 54.8055333,18.0118667 C54.6028667,18.2672 54.5018667,18.6255333 54.5018667,19.0872 C54.5018667,19.5852 54.6052,19.9652 54.8118667,20.2262 C55.0188667,20.4875333 55.3188667,20.6182 55.7132,20.6182 C55.8828667,20.6182 56.0542,20.5852 56.2262,20.5192 C56.3985333,20.4532 56.5548667,20.3608667 56.6948667,20.2422 L56.7572,20.2572 L56.6405333,20.6825333 C56.4792,20.7618667 56.3105333,20.8205333 56.1348667,20.8595333 C55.9592,20.8978667 55.7738667,20.9172 55.5798667,20.9172 C54.9875333,20.9172 54.5268667,20.7582 54.1972,20.4402 C53.8675333,20.1222 53.7028667,19.6775333 53.7028667,19.1072 C53.7028667,18.5665333 53.8802,18.1335333 54.2355333,17.8085333 C54.5908667,17.4842 55.0658667,17.3215333 55.6615333,17.3215333 C55.8492,17.3215333 56.0362,17.3422 56.2212,17.3835333 C56.4072,17.4245333 56.5948667,17.4878667 56.7868667,17.5738667 C56.7572,17.6662 56.7308667,17.7632 56.7088667,17.8642 C56.6862,17.9658667 56.6685333,18.0732 56.6555333,18.1872" id="Fill-8" fill="#D70C18"></path>
                <path d="M57.7535333,19.6413 C57.7535333,20.0253 57.7935333,20.2959667 57.8732,20.4526333 C57.9538667,20.6089667 58.0872,20.6876333 58.2748667,20.6876333 C58.4648667,20.6876333 58.5998667,20.6086333 58.6805333,20.4513 C58.7612,20.2939667 58.8022,20.0236333 58.8022,19.6413 C58.8022,19.2573 58.7612,18.9856333 58.6805333,18.8266333 C58.5998667,18.6673 58.4648667,18.5879667 58.2748667,18.5879667 C58.0872,18.5879667 57.9538667,18.6666333 57.8732,18.8239667 C57.7935333,18.9816333 57.7535333,19.2539667 57.7535333,19.6413 M57.0088667,19.6413 C57.0088667,19.2373 57.1212,18.9233 57.3452,18.6993 C57.5692,18.4749667 57.8812,18.3626333 58.2805333,18.3626333 C58.6862,18.3626333 58.9982,18.4736333 59.2178667,18.6953 C59.4368667,18.9173 59.5468667,19.2323 59.5468667,19.6413 C59.5468667,20.0419667 59.4348667,20.3543 59.2115333,20.5776333 C58.9878667,20.8009667 58.6765333,20.9123 58.2748667,20.9123 C57.8725333,20.9123 57.5612,20.8009667 57.3408667,20.5786333 C57.1195333,20.3563 57.0088667,20.0436333 57.0088667,19.6413" id="Fill-10" fill="#D70C18"></path>
                <path d="M59.9934333,20.8506 C60.0034333,20.5806 60.0114333,20.3439333 60.0161,20.1396 C60.0211,19.9359333 60.0234333,19.7679333 60.0234333,19.6362667 C60.0234333,19.5049333 60.0211,19.3392667 60.0161,19.1389333 C60.0114333,18.9392667 60.0034333,18.7026 59.9934333,18.4296 C60.0484333,18.4362667 60.1041,18.4409333 60.1617667,18.4442667 C60.2194333,18.4476 60.2814333,18.4492667 60.3474333,18.4492667 C60.4171,18.4492667 60.4801,18.4476 60.5367667,18.4442667 C60.5937667,18.4409333 60.6477667,18.4362667 60.6987667,18.4296 L60.6987667,18.7639333 C60.8027667,18.6286 60.9141,18.5299333 61.0341,18.4682667 C61.1531,18.4062667 61.2897667,18.3749333 61.4434333,18.3749333 C61.6124333,18.3749333 61.7577667,18.4152667 61.8784333,18.4952667 C61.9984333,18.5752667 62.0874333,18.6916 62.1457667,18.8449333 C62.2447667,18.6852667 62.3597667,18.5666 62.4921,18.4902667 C62.6234333,18.4132667 62.7767667,18.3749333 62.9514333,18.3749333 C63.0734333,18.3749333 63.1837667,18.3956 63.2817667,18.4359333 C63.3801,18.4762667 63.4634333,18.5369333 63.5327667,18.6176 C63.6021,18.6966 63.6504333,18.7999333 63.6791,18.9269333 C63.7067667,19.0532667 63.7211,19.2829333 63.7211,19.6139333 L63.7211,19.9279333 C63.7211,20.0699333 63.7227667,20.2172667 63.7267667,20.3699333 C63.7314333,20.5222667 63.7371,20.6826 63.7454333,20.8506 C63.6714333,20.8426 63.6031,20.8362667 63.5417667,20.8319333 C63.4794333,20.8282667 63.4194333,20.8259333 63.3624333,20.8259333 C63.3044333,20.8259333 63.2454333,20.8282667 63.1854333,20.8319333 C63.1251,20.8362667 63.0614333,20.8426 62.9937667,20.8506 C63.0087667,20.6296 63.0194333,20.4252667 63.0274333,20.2372667 C63.0344333,20.0496 63.0384333,19.8736 63.0384333,19.7106 C63.0384333,19.3329333 63.0087667,19.0859333 62.9491,18.9699333 C62.8897667,18.8536 62.7844333,18.7956 62.6327667,18.7956 C62.4827667,18.7956 62.3757667,18.8536 62.3124333,18.9699333 C62.2491,19.0859333 62.2171,19.2926 62.2171,19.5896 L62.2171,20.3906 C62.2171,20.4682667 62.2224333,20.6052667 62.2347667,20.8012667 C62.2361,20.8242667 62.2367667,20.8409333 62.2367667,20.8506 C62.1661,20.8426 62.0994333,20.8362667 62.0381,20.8319333 C61.9757667,20.8282667 61.9161,20.8259333 61.8591,20.8259333 C61.8007667,20.8259333 61.7417667,20.8282667 61.6817667,20.8326 C61.6214333,20.8376 61.5551,20.8432667 61.4831,20.8506 C61.4957667,20.6609333 61.5054333,20.4776 61.5127667,20.3012667 C61.5187667,20.1242667 61.5224333,19.9566 61.5224333,19.7982667 C61.5224333,19.3559333 61.4934333,19.0782667 61.4357667,18.9652667 C61.3777667,18.8522667 61.2724333,18.7956 61.1191,18.7956 C60.9707667,18.7956 60.8651,18.8532667 60.8027667,18.9686 C60.7397667,19.0839333 60.7087667,19.2909333 60.7087667,19.5896 L60.7087667,20.3906 C60.7087667,20.4696 60.7141,20.6076 60.7254333,20.8036 C60.7274333,20.8252667 60.7274333,20.8409333 60.7254333,20.8506 C60.6631,20.8426 60.6021,20.8362667 60.5417667,20.8319333 C60.4817667,20.8282667 60.4217667,20.8259333 60.3621,20.8259333 C60.3077667,20.8259333 60.2507667,20.8282667 60.1914333,20.8319333 C60.1321,20.8362667 60.0664333,20.8426 59.9934333,20.8506" id="Fill-12" fill="#D70C18"></path>
                <path d="M64.3857,20.8506 C64.3957,20.5806 64.4033667,20.3439333 64.4083667,20.1396 C64.4133667,19.9359333 64.4157,19.7679333 64.4157,19.6362667 C64.4157,19.5049333 64.4133667,19.3392667 64.4083667,19.1389333 C64.4033667,18.9392667 64.3957,18.7026 64.3857,18.4296 C64.4407,18.4362667 64.4963667,18.4409333 64.5540333,18.4442667 C64.6117,18.4476 64.6737,18.4492667 64.7397,18.4492667 C64.8090333,18.4492667 64.8720333,18.4476 64.9287,18.4442667 C64.9860333,18.4409333 65.0397,18.4362667 65.0907,18.4296 L65.0907,18.7639333 C65.1947,18.6286 65.3063667,18.5299333 65.4260333,18.4682667 C65.5453667,18.4062667 65.6817,18.3749333 65.8357,18.3749333 C66.0047,18.3749333 66.1500333,18.4152667 66.2707,18.4952667 C66.3907,18.5752667 66.4797,18.6916 66.5380333,18.8449333 C66.6370333,18.6852667 66.7517,18.5666 66.8840333,18.4902667 C67.0157,18.4132667 67.1690333,18.3749333 67.3437,18.3749333 C67.4657,18.3749333 67.5760333,18.3956 67.6737,18.4359333 C67.7723667,18.4762667 67.8557,18.5369333 67.9250333,18.6176 C67.9943667,18.6966 68.0427,18.7999333 68.0713667,18.9269333 C68.0987,19.0532667 68.1130333,19.2829333 68.1130333,19.6139333 L68.1130333,19.9279333 C68.1130333,20.0699333 68.1150333,20.2172667 68.1190333,20.3699333 C68.1233667,20.5222667 68.1293667,20.6826 68.1377,20.8506 C68.0633667,20.8426 67.9953667,20.8362667 67.9340333,20.8319333 C67.8717,20.8282667 67.8117,20.8259333 67.7547,20.8259333 C67.6967,20.8259333 67.6377,20.8282667 67.5777,20.8319333 C67.5173667,20.8362667 67.4533667,20.8426 67.3860333,20.8506 C67.4007,20.6296 67.4117,20.4252667 67.4197,20.2372667 C67.4267,20.0496 67.4303667,19.8736 67.4303667,19.7106 C67.4303667,19.3329333 67.4007,19.0859333 67.3413667,18.9699333 C67.2820333,18.8536 67.1763667,18.7956 67.0250333,18.7956 C66.8750333,18.7956 66.7680333,18.8536 66.7043667,18.9699333 C66.6413667,19.0859333 66.6093667,19.2926 66.6093667,19.5896 L66.6093667,20.3906 C66.6093667,20.4682667 66.6147,20.6052667 66.6270333,20.8012667 C66.6283667,20.8242667 66.6290333,20.8409333 66.6290333,20.8506 C66.5583667,20.8426 66.4917,20.8362667 66.4303667,20.8319333 C66.3680333,20.8282667 66.3083667,20.8259333 66.2510333,20.8259333 C66.1927,20.8259333 66.1340333,20.8282667 66.0740333,20.8326 C66.0137,20.8376 65.9473667,20.8432667 65.8753667,20.8506 C65.8877,20.6609333 65.8977,20.4776 65.9050333,20.3012667 C65.9107,20.1242667 65.9147,19.9566 65.9147,19.7982667 C65.9147,19.3559333 65.8857,19.0782667 65.8277,18.9652667 C65.7700333,18.8522667 65.6647,18.7956 65.5113667,18.7956 C65.3630333,18.7956 65.2573667,18.8532667 65.1947,18.9686 C65.1320333,19.0839333 65.1010333,19.2909333 65.1010333,19.5896 L65.1010333,20.3906 C65.1010333,20.4696 65.1063667,20.6076 65.1177,20.8036 C65.1193667,20.8252667 65.1193667,20.8409333 65.1177,20.8506 C65.0553667,20.8426 64.9940333,20.8362667 64.9340333,20.8319333 C64.8740333,20.8282667 64.8140333,20.8259333 64.7543667,20.8259333 C64.7000333,20.8259333 64.6430333,20.8282667 64.5837,20.8319333 C64.5243667,20.8362667 64.4583667,20.8426 64.3857,20.8506" id="Fill-14" fill="#D70C18"></path>
                <path d="M69.3544333,19.6413 C69.3544333,20.0253 69.3944333,20.2959667 69.4741,20.4526333 C69.5547667,20.6089667 69.6881,20.6876333 69.8757667,20.6876333 C70.0657667,20.6876333 70.2007667,20.6086333 70.2814333,20.4513 C70.3621,20.2939667 70.4031,20.0236333 70.4031,19.6413 C70.4031,19.2573 70.3621,18.9856333 70.2814333,18.8266333 C70.2007667,18.6673 70.0657667,18.5879667 69.8757667,18.5879667 C69.6881,18.5879667 69.5547667,18.6666333 69.4741,18.8239667 C69.3944333,18.9816333 69.3544333,19.2539667 69.3544333,19.6413 M68.6101,19.6413 C68.6101,19.2373 68.7221,18.9233 68.9461,18.6993 C69.1704333,18.4749667 69.4821,18.3626333 69.8814333,18.3626333 C70.2871,18.3626333 70.5991,18.4736333 70.8187667,18.6953 C71.0377667,18.9173 71.1477667,19.2323 71.1477667,19.6413 C71.1477667,20.0419667 71.0357667,20.3543 70.8124333,20.5776333 C70.5887667,20.8009667 70.2774333,20.9123 69.8757667,20.9123 C69.4734333,20.9123 69.1621,20.8009667 68.9417667,20.5786333 C68.7204333,20.3563 68.6101,20.0436333 68.6101,19.6413" id="Fill-16" fill="#D70C18"></path>
                <path d="M71.595,20.8506 C71.6083333,20.6269333 71.618,20.4152667 71.6246667,20.2166 C71.6313333,20.0172667 71.6346667,19.8266 71.6346667,19.6439333 C71.6346667,19.4382667 71.6313333,19.2339333 71.6246667,19.0316 C71.618,18.8296 71.6083333,18.6286 71.595,18.4296 C71.6476667,18.4362667 71.7026667,18.4409333 71.76,18.4442667 C71.8166667,18.4476 71.8783333,18.4492667 71.944,18.4492667 C72.01,18.4492667 72.0706667,18.4476 72.126,18.4442667 C72.181,18.4409333 72.2336667,18.4362667 72.283,18.4296 L72.283,18.7786 C72.3863333,18.6416 72.503,18.5399333 72.6313333,18.4739333 C72.76,18.4082667 72.9043333,18.3749333 73.0646667,18.3749333 C73.1876667,18.3749333 73.301,18.3962667 73.4033333,18.4382667 C73.5053333,18.4806 73.5916667,18.5416 73.6626667,18.6222667 C73.7186667,18.6886 73.7586667,18.7696 73.7826667,18.8662667 C73.8066667,18.9622667 73.8186667,19.1276 73.8186667,19.3619333 C73.8186667,19.3949333 73.8176667,19.4819333 73.8163333,19.6229333 C73.8143333,19.7636 73.8136667,19.8876 73.8136667,19.9952667 C73.8136667,20.1532667 73.8163333,20.3022667 73.8226667,20.4426 C73.828,20.5826 73.837,20.7186 73.8483333,20.8506 C73.7773333,20.8426 73.711,20.8362667 73.6493333,20.8319333 C73.5873333,20.8282667 73.5273333,20.8259333 73.4703333,20.8259333 C73.412,20.8259333 73.353,20.8282667 73.2933333,20.8319333 C73.2326667,20.8362667 73.1673333,20.8426 73.0966667,20.8506 C73.108,20.7069333 73.1173333,20.5359333 73.125,20.3362667 C73.132,20.1366 73.136,19.9149333 73.136,19.6709333 C73.136,19.3032667 73.107,19.0659333 73.048,18.9599333 C72.99,18.8536 72.8836667,18.8006 72.7303333,18.8006 C72.577,18.8006 72.4673333,18.8639333 72.4003333,18.9909333 C72.3336667,19.1179333 72.3,19.3322667 72.3,19.6339333 C72.3,19.7756 72.303,19.9479333 72.3073333,20.1506 C72.3126667,20.3536 72.319,20.5869333 72.327,20.8506 C72.2646667,20.8426 72.203,20.8362667 72.142,20.8319333 C72.081,20.8282667 72.0213333,20.8259333 71.9636667,20.8259333 C71.9076667,20.8259333 71.849,20.8282667 71.7886667,20.8319333 C71.727,20.8362667 71.6626667,20.8426 71.595,20.8506" id="Fill-18" fill="#D70C18"></path>
                <path d="M75.2206667,20.8506 C75.0753333,20.2949333 74.915,19.7289333 74.74,19.1529333 C74.5636667,18.5766 74.3733333,17.9892667 74.167,17.3906 C74.2313333,17.3976 74.2983333,17.4022667 74.3686667,17.4056 C74.4383333,17.4089333 74.515,17.4106 74.5973333,17.4106 C74.6783333,17.4106 74.753,17.4089333 74.8223333,17.4056 C74.8916667,17.4022667 74.9586667,17.3976 75.0226667,17.3906 C75.12,17.8146 75.2256667,18.2372667 75.3393333,18.6596 C75.453,19.0812667 75.574,19.5009333 75.7026667,19.9182667 C75.8626667,19.4582667 76.0136667,19.0212667 76.1556667,18.6062667 C76.297,18.1916 76.433,17.7866 76.563,17.3906 C76.6026667,17.3976 76.643,17.4022667 76.6836667,17.4056 C76.7236667,17.4089333 76.7676667,17.4106 76.816,17.4106 C76.8656667,17.4106 76.911,17.4089333 76.9526667,17.4056 C76.995,17.4022667 77.0356667,17.3976 77.0753333,17.3906 C77.1943333,17.7912667 77.3216667,18.1992667 77.4573333,18.6139333 C77.5936667,19.0286 77.737,19.4519333 77.889,19.8839333 C78.0306667,19.4782667 78.163,19.0679333 78.286,18.6532667 C78.4086667,18.2389333 78.523,17.8176 78.6286667,17.3906 C78.663,17.3976 78.6996667,17.4022667 78.7373333,17.4056 C78.7753333,17.4089333 78.8163333,17.4106 78.861,17.4106 C78.9056667,17.4106 78.9463333,17.4089333 78.9836667,17.4056 C79.0203333,17.4022667 79.056,17.3976 79.0913333,17.3906 C78.911,17.9036 78.7266667,18.4472667 78.5356667,19.0219333 C78.3453333,19.5966 78.1476667,20.2059333 77.9436667,20.8506 C77.897,20.8426 77.8526667,20.8362667 77.8086667,20.8319333 C77.7653333,20.8282667 77.7223333,20.8259333 77.681,20.8259333 C77.6433333,20.8259333 77.603,20.8282667 77.5603333,20.8319333 C77.5173333,20.8362667 77.47,20.8426 77.4196667,20.8506 C77.3016667,20.4599333 77.176,20.0609333 77.0406667,19.6536 C76.9056667,19.2466 76.7593333,18.8286 76.6026667,18.3996 C76.451,18.7856 76.3033333,19.1829333 76.159,19.5919333 C76.0146667,20.0006 75.8736667,20.4202667 75.735,20.8506 C75.6886667,20.8426 75.6443333,20.8362667 75.6016667,20.8319333 C75.5586667,20.8282667 75.5176667,20.8259333 75.4776667,20.8259333 C75.438,20.8259333 75.3976667,20.8282667 75.355,20.8319333 C75.3133333,20.8362667 75.2686667,20.8426 75.2206667,20.8506" id="Fill-20" fill="#D70C18"></path>
                <path d="M79.9390667,19.3965 L80.7970667,19.3965 C80.7970667,19.3781667 80.7980667,19.3558333 80.7997333,19.3285 C80.8017333,19.3015 80.8027333,19.2835 80.8027333,19.2755 C80.8027333,19.0461667 80.7690667,18.8731667 80.7020667,18.7558333 C80.6357333,18.6391667 80.5367333,18.5805 80.4067333,18.5805 C80.2584,18.5805 80.1430667,18.6471667 80.0617333,18.7805 C79.9797333,18.9145 79.9390667,19.1048333 79.9390667,19.3518333 L79.9390667,19.3965 Z M79.9390667,19.6461667 C79.9390667,19.9381667 80.0090667,20.1695 80.1480667,20.3411667 C80.2877333,20.5128333 80.4750667,20.5981667 80.7107333,20.5981667 C80.8277333,20.5981667 80.9400667,20.5785 81.0470667,20.5391667 C81.1544,20.4995 81.2580667,20.4391667 81.3587333,20.3585 L81.4080667,20.3955 L81.2970667,20.6825 C81.1910667,20.7565 81.0677333,20.8135 80.9247333,20.8531667 C80.7820667,20.8925 80.6270667,20.9125 80.4607333,20.9125 C80.0667333,20.9125 79.7584,20.7961667 79.5347333,20.5638333 C79.3117333,20.3315 79.2000667,20.0098333 79.2000667,19.5991667 C79.2000667,19.2298333 79.3110667,18.9315 79.5337333,18.7041667 C79.7560667,18.4765 80.0507333,18.3625 80.4170667,18.3625 C80.7644,18.3625 81.0310667,18.4591667 81.2164,18.6521667 C81.4024,18.8451667 81.4950667,19.1221667 81.4950667,19.4831667 C81.4950667,19.5261667 81.4944,19.5588333 81.4934,19.5821667 C81.4927333,19.6051667 81.4910667,19.6255 81.4894,19.6438333 L79.9390667,19.6461667 Z" id="Fill-22" fill="#D70C18"></path>
                <path d="M83.1497,19.5176 C82.9157,19.5656 82.7470333,19.6379333 82.6427,19.7352667 C82.5393667,19.8326 82.4870333,19.9679333 82.4870333,20.1409333 C82.4870333,20.2859333 82.5133667,20.3949333 82.5663667,20.4676 C82.6190333,20.5399333 82.6977,20.5762667 82.8007,20.5762667 C82.9130333,20.5762667 82.9993667,20.5359333 83.0597,20.4552667 C83.1197,20.3739333 83.1497,20.2579333 83.1497,20.1062667 L83.1497,19.5176 Z M83.1723667,20.5316 C83.0993667,20.6536 83.0040333,20.7476 82.8867,20.8136 C82.7683667,20.8796 82.6353667,20.9126 82.4870333,20.9126 C82.2743667,20.9126 82.1073667,20.8496 81.9863667,20.7229333 C81.8650333,20.5972667 81.8047,20.4252667 81.8047,20.2076 C81.8047,20.0479333 81.8473667,19.9156 81.9333667,19.8119333 C82.0187,19.7079333 82.1537,19.6256 82.3360333,19.5649333 C82.3950333,19.5449333 82.4810333,19.5176 82.5930333,19.4829333 C82.8570333,19.4039333 83.0377,19.3312667 83.1350333,19.2652667 C83.1367,19.2556 83.1377,19.2442667 83.1390333,19.2322667 C83.1393667,19.2192667 83.1400333,19.2019333 83.1400333,19.1786 C83.1400333,19.0252667 83.0960333,18.9036 83.0087,18.8129333 C82.9210333,18.7219333 82.8053667,18.6769333 82.6600333,18.6769333 C82.5463667,18.6769333 82.4430333,18.7089333 82.3497,18.7732667 C82.2567,18.8376 82.1703667,18.9356 82.0913667,19.0672667 C82.0667,18.9882667 82.0457,18.9249333 82.0293667,18.8772667 C82.0127,18.8296 81.9963667,18.7849333 81.9797,18.7436 C82.1297,18.6132667 82.2783667,18.5166 82.4250333,18.4529333 C82.5717,18.3896 82.7247,18.3579333 82.8827,18.3579333 C83.1860333,18.3579333 83.4193667,18.4276 83.5813667,18.5679333 C83.7440333,18.7079333 83.8250333,18.9086 83.8250333,19.1689333 L83.8250333,19.1936 L83.8097,20.0766 L83.8097,20.1732667 C83.8097,20.3792667 83.8330333,20.5116 83.8783667,20.5696 C83.9237,20.6286 84.0120333,20.6579333 84.1440333,20.6579333 L84.1587,20.6579333 L84.1587,20.7839333 C84.0733667,20.8199333 83.9840333,20.8479333 83.8920333,20.8666 C83.7993667,20.8856 83.7110333,20.8952667 83.6277,20.8952667 C83.5047,20.8952667 83.4057,20.8642667 83.3277,20.8022667 C83.2503667,20.7409333 83.1983667,20.6502667 83.1723667,20.5316 L83.1723667,20.5316 Z" id="Fill-24" fill="#D70C18"></path>
                <path d="M84.5022333,20.8506 C84.5149,20.5656 84.5249,20.2679333 84.5322333,19.9579333 C84.5379,19.6479333 84.5419,19.3159333 84.5419,18.9612667 C84.5419,18.5852667 84.5379,18.2422667 84.5322333,17.9312667 C84.5249,17.6206 84.5149,17.3276 84.5022333,17.0519333 C84.5825667,17.0652667 84.6519,17.0742667 84.7102333,17.0792667 C84.7672333,17.0839333 84.8232333,17.0866 84.8782333,17.0866 C84.9322333,17.0866 84.9899,17.0839333 85.0509,17.0779333 C85.1119,17.0722667 85.1805667,17.0636 85.2565667,17.0519333 C85.2432333,17.3372667 85.2332333,17.6349333 85.2265667,17.9446 C85.2199,18.2549333 85.2169,18.5869333 85.2169,18.9412667 C85.2169,19.3172667 85.2199,19.6609333 85.2265667,19.9712667 C85.2332333,20.2822667 85.2432333,20.5752667 85.2565667,20.8506 C85.2005667,20.8392667 85.1409,20.8306 85.0785667,20.8249333 C85.0155667,20.8189333 84.9502333,20.8159333 84.8829,20.8159333 C84.8149,20.8159333 84.7502333,20.8189333 84.6875667,20.8249333 C84.6249,20.8306 84.5629,20.8392667 84.5022333,20.8506" id="Fill-26" fill="#D70C18"></path>
                <path d="M85.9514333,18.7112667 L85.8597667,18.7112667 C85.7921,18.7112667 85.7411,18.7119333 85.7054333,18.7129333 C85.6701,18.7136 85.6377667,18.7149333 85.6081,18.7166 C85.6111,18.6982667 85.6127667,18.6809333 85.6141,18.6642667 C85.6144333,18.6479333 85.6151,18.6216 85.6151,18.5852667 C85.6151,18.5492667 85.6141,18.5216 85.6124333,18.5022667 C85.6111,18.4836 85.6094333,18.4666 85.6081,18.4519333 C85.6141,18.4536 85.6241,18.4549333 85.6377667,18.4566 C85.7574333,18.4682667 85.8434333,18.4739333 85.8947667,18.4739333 L85.9514333,18.4716 C85.9534333,18.4486 85.9544333,18.4239333 85.9554333,18.3976 C85.9561,18.3709333 85.9567667,18.3306 85.9567667,18.2759333 C85.9567667,18.2102667 85.9551,18.1402667 85.9514333,18.0659333 C85.9481,17.9919333 85.9434333,17.8992667 85.9367667,17.7889333 C86.0537667,17.7446 86.1691,17.6976 86.2827667,17.6482667 C86.3967667,17.5986 86.5071,17.5476 86.6144333,17.4949333 L86.6687667,17.5369333 C86.6587667,17.7296 86.6514333,17.8909333 86.6467667,18.0202667 C86.6411,18.1496 86.6391,18.2479333 86.6391,18.3156 L86.6391,18.4739333 C86.7314333,18.4739333 86.8177667,18.4722667 86.8974333,18.4689333 C86.9774333,18.4659333 87.0554333,18.4609333 87.1314333,18.4542667 C87.1257667,18.4922667 87.1234333,18.5192667 87.1227667,18.5359333 C87.1217667,18.5522667 87.1217667,18.5686 87.1217667,18.5852667 C87.1217667,18.6132667 87.1237667,18.6519333 87.1287667,18.7016 C87.1321,18.7079333 87.1327667,18.7132667 87.1314333,18.7166 C87.0914333,18.7149333 87.0391,18.7136 86.9747667,18.7129333 C86.9101,18.7119333 86.7951,18.7112667 86.6291,18.7112667 C86.6291,18.7362667 86.6281,18.7749333 86.6267667,18.8282667 C86.6147667,19.1772667 86.6094333,19.4266 86.6094333,19.5756 L86.6094333,19.7789333 C86.6094333,20.1662667 86.6281,20.4062667 86.6667667,20.4989333 C86.7041,20.5916 86.7777667,20.6379333 86.8864333,20.6379333 C86.9407667,20.6379333 87.0381,20.6199333 87.1784333,20.5836 L87.1807667,20.5809333 L87.1807667,20.7689333 C87.0697667,20.8182667 86.9677667,20.8549333 86.8727667,20.8779333 C86.7781,20.9009333 86.6867667,20.9126 86.5994333,20.9126 C86.3834333,20.9126 86.2187667,20.8552667 86.1047667,20.7402667 C85.9911,20.6249333 85.9344333,20.4586 85.9344333,20.2399333 C85.9344333,20.2319333 85.9371,20.0876 85.9427667,19.8069333 C85.9487667,19.5266 85.9514333,19.2509333 85.9514333,18.9796 L85.9514333,18.7112667 Z" id="Fill-28" fill="#D70C18"></path>
                <path d="M87.5051667,20.8506 C87.5195,20.6726 87.5298333,20.4522667 87.5361667,20.1889333 C87.5415,19.9262667 87.5448333,19.5456 87.5448333,19.0479333 C87.5448333,18.5202667 87.5415,18.1086 87.5361667,17.8139333 C87.5298333,17.5186 87.5195,17.2646 87.5051667,17.0519333 C87.5745,17.0652667 87.6385,17.0752667 87.6991667,17.0816 C87.7591667,17.0882667 87.8175,17.0916 87.8731667,17.0916 C87.9328333,17.0916 87.9928333,17.0882667 88.0538333,17.0816 C88.1148333,17.0752667 88.1785,17.0652667 88.2445,17.0519333 C88.2278333,17.1906 88.2151667,17.3389333 88.2061667,17.4969333 C88.1971667,17.6556 88.1925,17.8262667 88.1925,18.0092667 L88.1925,18.7956 C88.2845,18.6552667 88.3961667,18.5506 88.5261667,18.4806 C88.6565,18.4102667 88.8055,18.3749333 88.9735,18.3749333 C89.0955,18.3749333 89.2078333,18.3962667 89.3088333,18.4382667 C89.4105,18.4806 89.4958333,18.5416 89.5651667,18.6222667 C89.6241667,18.6902667 89.6658333,18.7742667 89.6915,18.8746 C89.7155,18.9752667 89.7281667,19.1376 89.7281667,19.3619333 C89.7281667,19.3949333 89.7271667,19.4819333 89.7255,19.6229333 C89.7238333,19.7636 89.7231667,19.8876 89.7231667,19.9952667 C89.7231667,20.1812667 89.7255,20.3419333 89.7311667,20.4759333 C89.7351667,20.6102667 89.7431667,20.7352667 89.7528333,20.8506 C89.6838333,20.8426 89.6178333,20.8362667 89.5548333,20.8319333 C89.4925,20.8282667 89.4341667,20.8259333 89.3791667,20.8259333 C89.3215,20.8259333 89.2625,20.8282667 89.2028333,20.8319333 C89.1421667,20.8362667 89.0771667,20.8426 89.0061667,20.8506 C89.0175,20.7069333 89.0261667,20.5359333 89.0331667,20.3362667 C89.0398333,20.1366 89.0428333,19.9149333 89.0428333,19.6709333 C89.0428333,19.3032667 89.0141667,19.0659333 88.9565,18.9599333 C88.8991667,18.8536 88.7931667,18.8006 88.6401667,18.8006 C88.4865,18.8006 88.3768333,18.8639333 88.3098333,18.9909333 C88.2435,19.1179333 88.2098333,19.3322667 88.2098333,19.6339333 C88.2098333,19.7919333 88.2125,19.9742667 88.2185,20.1802667 C88.2238333,20.3862667 88.2318333,20.6099333 88.2418333,20.8506 C88.1758333,20.8426 88.1125,20.8362667 88.0515,20.8319333 C87.9905,20.8282667 87.9311667,20.8259333 87.8731667,20.8259333 C87.8175,20.8259333 87.7588333,20.8282667 87.6975,20.8319333 C87.6368333,20.8362667 87.5721667,20.8426 87.5051667,20.8506" id="Fill-30" fill="#D70C18"></path>
                <path d="M53.8020333,26.4993667 C53.8433667,26.2387 53.8790333,26.0153667 53.9087,25.8290333 C53.9383667,25.6427 53.9583667,25.5100333 53.9680333,25.4310333 L54.2920333,23.0393667 C54.3247,23.0460333 54.3587,23.0507 54.3943667,23.0540333 C54.4297,23.0577 54.4683667,23.0593667 54.5093667,23.0593667 C54.5507,23.0593667 54.5897,23.0577 54.6270333,23.0540333 C54.6640333,23.0507 54.7000333,23.0460333 54.7343667,23.0393667 C54.9157,23.4433667 55.1040333,23.8420333 55.2997,24.2350333 C55.4947,24.6287 55.6967,25.0187 55.9043667,25.4060333 C56.1037,25.0320333 56.2997,24.6477 56.4927,24.2537 C56.6857,23.8597 56.8743667,23.4547 57.0590333,23.0393667 C57.0950333,23.0460333 57.1323667,23.0507 57.1703667,23.0540333 C57.2083667,23.0577 57.2487,23.0593667 57.2920333,23.0593667 C57.3343667,23.0593667 57.3757,23.0577 57.4140333,23.0540333 C57.4530333,23.0507 57.4897,23.0460333 57.5237,23.0393667 L57.8133667,25.4607 C57.8447,25.7283667 57.8727,25.9383667 57.8973667,26.0913667 C57.9220333,26.2440333 57.9477,26.3803667 57.9747,26.4993667 C57.8917,26.4920333 57.8157,26.4860333 57.7453667,26.4813667 C57.6753667,26.4767 57.6083667,26.4747 57.5437,26.4747 C57.4797,26.4747 57.4123667,26.4767 57.3423667,26.4803667 C57.2720333,26.4850333 57.2000333,26.4910333 57.1260333,26.4993667 C57.1243667,26.4877 57.1227,26.4703667 57.1210333,26.4473667 C57.1060333,26.0927 57.0940333,25.8733667 57.0843667,25.7893667 L56.9203667,24.1743667 C56.7307,24.5370333 56.5413667,24.9103667 56.3520333,25.2950333 C56.1620333,25.6790333 55.9687,26.0803667 55.7707,26.4993667 C55.7590333,26.4957 55.7463667,26.4933667 55.7320333,26.4920333 C55.7183667,26.4903667 55.6953667,26.4893667 55.6640333,26.4893667 C55.6360333,26.4893667 55.6157,26.4903667 55.6023667,26.4920333 C55.5893667,26.4933667 55.5767,26.4957 55.5650333,26.4993667 C55.3690333,26.0870333 55.1770333,25.6940333 54.9893667,25.3210333 C54.8013667,24.9473667 54.6163667,24.5923667 54.4350333,24.2563667 L54.3143667,25.3073667 L54.3090333,25.3467 C54.2480333,25.8927 54.2163667,26.2767 54.2153667,26.4993667 C54.1770333,26.4910333 54.1407,26.4850333 54.1067,26.4803667 C54.0717,26.4767 54.0397,26.4747 54.0097,26.4747 C53.9767,26.4747 53.9440333,26.4767 53.9110333,26.4803667 C53.8780333,26.4850333 53.8417,26.4910333 53.8020333,26.4993667" id="Fill-32" fill="#D70C18"></path>
                <path d="M59.6907,25.1663667 C59.4567,25.2140333 59.2880333,25.2863667 59.1837,25.3837 C59.0803667,25.4810333 59.0280333,25.6163667 59.0280333,25.7893667 C59.0280333,25.9347 59.0543667,26.0433667 59.1070333,26.1160333 C59.1597,26.1883667 59.2387,26.2247 59.3417,26.2247 C59.4540333,26.2247 59.5403667,26.1843667 59.6003667,26.1037 C59.6603667,26.0227 59.6907,25.9067 59.6907,25.7550333 L59.6907,25.1663667 Z M59.7133667,26.1800333 C59.6403667,26.3020333 59.5450333,26.3960333 59.4277,26.4623667 C59.3093667,26.5280333 59.1763667,26.5613667 59.0280333,26.5613667 C58.8153667,26.5613667 58.6483667,26.4980333 58.5273667,26.3717 C58.4060333,26.2457 58.3453667,26.0740333 58.3453667,25.8560333 C58.3453667,25.6963667 58.3883667,25.5643667 58.4740333,25.4607 C58.5597,25.3567 58.6943667,25.2740333 58.8770333,25.2133667 C58.9360333,25.1933667 59.0220333,25.1663667 59.1340333,25.1317 C59.3977,25.0523667 59.5787,24.9797 59.6760333,24.9140333 C59.6777,24.9040333 59.6787,24.8930333 59.6800333,24.8807 C59.6803667,24.8680333 59.6810333,24.8507 59.6810333,24.8273667 C59.6810333,24.6740333 59.6370333,24.5520333 59.5493667,24.4613667 C59.4620333,24.3707 59.3463667,24.3253667 59.2010333,24.3253667 C59.0873667,24.3253667 58.9840333,24.3573667 58.8907,24.4220333 C58.7977,24.4860333 58.7113667,24.5843667 58.6323667,24.7160333 C58.6077,24.6370333 58.5863667,24.5737 58.5703667,24.5257 C58.5537,24.4780333 58.5373667,24.4333667 58.5207,24.3923667 C58.6707,24.2617 58.8193667,24.1650333 58.9657,24.1017 C59.1127,24.0380333 59.2657,24.0063667 59.4237,24.0063667 C59.7270333,24.0063667 59.9600333,24.0763667 60.1223667,24.2163667 C60.2847,24.3567 60.3660333,24.5570333 60.3660333,24.8173667 L60.3660333,24.8420333 L60.3507,25.7253667 L60.3507,25.8217 C60.3507,26.0277 60.3740333,26.1600333 60.4190333,26.2183667 C60.4643667,26.2773667 60.5530333,26.3063667 60.6847,26.3063667 L60.6997,26.3063667 L60.6997,26.4323667 C60.6143667,26.4687 60.5250333,26.4963667 60.4327,26.5150333 C60.3403667,26.5343667 60.2520333,26.5437 60.1683667,26.5437 C60.0457,26.5437 59.9463667,26.5130333 59.8687,26.4510333 C59.7913667,26.3893667 59.7393667,26.2987 59.7133667,26.1800333 L59.7133667,26.1800333 Z" id="Fill-34" fill="#D70C18"></path>
                <path d="M61.6148667,24.8125 C61.6148667,25.0201667 61.6452,25.1728333 61.7052,25.2701667 C61.7655333,25.3675 61.8605333,25.4161667 61.9908667,25.4161667 C62.1258667,25.4161667 62.2232,25.3648333 62.2825333,25.2628333 C62.3422,25.1605 62.3718667,24.9915 62.3718667,24.7558333 C62.3718667,24.5725 62.3415333,24.4365 62.2815333,24.3475 C62.2208667,24.2585 62.1292,24.2141667 62.0055333,24.2141667 C61.8818667,24.2141667 61.7858667,24.2658333 61.7178667,24.3698333 C61.6492,24.4735 61.6148667,24.6215 61.6148667,24.8125 L61.6148667,24.8125 Z M61.6148667,26.6451667 C61.5325333,26.6878333 61.4682,26.7491667 61.4218667,26.8281667 C61.3758667,26.9071667 61.3528667,26.9971667 61.3528667,27.0975 C61.3528667,27.2708333 61.4112,27.4091667 61.5268667,27.5131667 C61.6435333,27.6168333 61.7995333,27.6688333 61.9958667,27.6688333 C62.2248667,27.6688333 62.4045333,27.6221667 62.5348667,27.5278333 C62.6648667,27.4338333 62.7298667,27.3038333 62.7298667,27.1375 C62.7298667,26.9871667 62.6875333,26.8751667 62.6028667,26.8021667 C62.5178667,26.7285 62.3832,26.6871667 62.1985333,26.6775 L61.6148667,26.6451667 Z M61.3922,26.6155 L61.3972,26.5758333 C61.2948667,26.5445 61.2155333,26.4941667 61.1588667,26.4251667 C61.1015333,26.3558333 61.0735333,26.2725 61.0735333,26.1751667 C61.0735333,26.0615 61.1168667,25.9561667 61.2045333,25.8588333 C61.2915333,25.7615 61.4168667,25.6781667 61.5802,25.6091667 L61.5802,25.5471667 C61.3642,25.5041667 61.2015333,25.4218333 61.0918667,25.3011667 C60.9825333,25.1798333 60.9272,25.0218333 60.9272,24.8275 C60.9272,24.5818333 61.0218667,24.3845 61.2102,24.2351667 C61.3995333,24.0858333 61.6528667,24.0115 61.9708667,24.0115 C62.0005333,24.0115 62.1132,24.0185 62.3085333,24.0321667 C62.5042,24.0465 62.6848667,24.0535 62.8515333,24.0535 C62.9188667,24.0535 62.9905333,24.0521667 63.0662,24.0498333 C63.1422,24.0468333 63.2222,24.0431667 63.3062,24.0385 L63.3062,24.2858333 C63.2025333,24.2808333 63.0618667,24.2751667 62.8838667,24.2685 C62.8468667,24.2668333 62.8215333,24.2658333 62.8068667,24.2658333 C62.8942,24.3218333 62.9595333,24.3928333 63.0035333,24.4788333 C63.0472,24.5645 63.0688667,24.6658333 63.0688667,24.7828333 C63.0688667,25.0448333 62.9688667,25.2498333 62.7685333,25.3975 C62.5682,25.5451667 62.2882,25.6188333 61.9285333,25.6188333 L61.8425333,25.6188333 C61.7762,25.6251667 61.7225333,25.6511667 61.6812,25.6951667 C61.6402,25.7398333 61.6198667,25.7951667 61.6198667,25.8611667 C61.6198667,26.0145 61.8592,26.1001667 62.3398667,26.1181667 L62.3668667,26.1181667 C62.3815333,26.1201667 62.4018667,26.1218333 62.4285333,26.1235 C62.7365333,26.1381667 62.9355333,26.1701667 63.0245333,26.2198333 C63.1265333,26.2788333 63.2048667,26.3598333 63.2582,26.4621667 C63.3118667,26.5645 63.3388667,26.6828333 63.3388667,26.8185 C63.3388667,27.1298333 63.2102,27.3848333 62.9532,27.5835 C62.6958667,27.7821667 62.3615333,27.8815 61.9512,27.8815 C61.6132,27.8815 61.3495333,27.8235 61.1598667,27.7071667 C60.9702,27.5911667 60.8755333,27.4315 60.8755333,27.2288333 C60.8755333,27.0805 60.9178667,26.9558333 61.0042,26.8555 C61.0895333,26.7548333 61.2192,26.6748333 61.3922,26.6155 L61.3922,26.6155 Z" id="Fill-36" fill="#D70C18"></path>
                <path d="M64.8469667,25.1663667 C64.6129667,25.2140333 64.4439667,25.2863667 64.3399667,25.3837 C64.2363,25.4810333 64.1843,25.6163667 64.1843,25.7893667 C64.1843,25.9347 64.2106333,26.0433667 64.2633,26.1160333 C64.3159667,26.1883667 64.3946333,26.2247 64.4979667,26.2247 C64.6099667,26.2247 64.6963,26.1843667 64.7566333,26.1037 C64.8166333,26.0227 64.8469667,25.9067 64.8469667,25.7550333 L64.8469667,25.1663667 Z M64.8693,26.1800333 C64.7963,26.3020333 64.7013,26.3960333 64.5836333,26.4623667 C64.4653,26.5280333 64.3326333,26.5613667 64.1843,26.5613667 C63.9713,26.5613667 63.8043,26.4980333 63.6836333,26.3717 C63.5619667,26.2457 63.5016333,26.0740333 63.5016333,25.8560333 C63.5016333,25.6963667 63.5446333,25.5643667 63.6303,25.4607 C63.7156333,25.3567 63.8506333,25.2740333 64.0329667,25.2133667 C64.0923,25.1933667 64.1779667,25.1663667 64.2903,25.1317 C64.5539667,25.0523667 64.7346333,24.9797 64.8319667,24.9140333 C64.8336333,24.9040333 64.8349667,24.8930333 64.8359667,24.8807 C64.8366333,24.8680333 64.8369667,24.8507 64.8369667,24.8273667 C64.8369667,24.6740333 64.7929667,24.5520333 64.7056333,24.4613667 C64.6179667,24.3707 64.5023,24.3253667 64.3569667,24.3253667 C64.2433,24.3253667 64.1403,24.3573667 64.0469667,24.4220333 C63.9536333,24.4860333 63.8676333,24.5843667 63.7883,24.7160333 C63.7636333,24.6370333 63.7426333,24.5737 63.7263,24.5257 C63.7099667,24.4780333 63.6933,24.4333667 63.6766333,24.3923667 C63.8266333,24.2617 63.9753,24.1650333 64.1219667,24.1017 C64.2689667,24.0380333 64.4216333,24.0063667 64.5796333,24.0063667 C64.8829667,24.0063667 65.1163,24.0763667 65.2783,24.2163667 C65.4409667,24.3567 65.5223,24.5570333 65.5223,24.8173667 L65.5223,24.8420333 L65.5066333,25.7253667 L65.5066333,25.8217 C65.5066333,26.0277 65.5299667,26.1600333 65.5753,26.2183667 C65.6206333,26.2773667 65.7093,26.3063667 65.8409667,26.3063667 L65.8556333,26.3063667 L65.8556333,26.4323667 C65.7703,26.4687 65.6813,26.4963667 65.5889667,26.5150333 C65.4963,26.5343667 65.4079667,26.5437 65.3246333,26.5437 C65.2016333,26.5437 65.1026333,26.5130333 65.0249667,26.4510333 C64.9476333,26.3893667 64.8953,26.2987 64.8693,26.1800333 L64.8693,26.1800333 Z" id="Fill-38" fill="#D70C18"></path>
                <path d="M65.9179333,26.4993667 L65.9159333,26.4177 C66.1052667,26.1323667 66.4006,25.6830333 66.8009333,25.0697 L67.2732667,24.3477 C67.1676,24.3427 67.0859333,24.3397 67.0276,24.3390333 C66.9686,24.3383667 66.9126,24.3380333 66.8576,24.3380333 C66.7209333,24.3380333 66.5046,24.3433667 66.2076,24.3550333 C66.1812667,24.3550333 66.1619333,24.3557 66.1509333,24.3573667 C66.1539333,24.3397 66.1566,24.3213667 66.1582667,24.3030333 C66.1599333,24.2847 66.1609333,24.2567 66.1609333,24.2190333 C66.1609333,24.1810333 66.1599333,24.1523667 66.1582667,24.1323667 C66.1566,24.1127 66.1539333,24.0943667 66.1509333,24.0780333 C66.3019333,24.0847 66.4609333,24.0897 66.6269333,24.0927 C66.7922667,24.0963667 66.9692667,24.0980333 67.1572667,24.0980333 C67.3469333,24.0980333 67.5219333,24.0963667 67.6842667,24.0927 C67.8452667,24.0897 67.9986,24.0847 68.1439333,24.0780333 L68.1439333,24.1400333 C68.0249333,24.3180333 67.8602667,24.5700333 67.6479333,24.8953667 C67.4366,25.2210333 67.1512667,25.6607 66.7939333,26.2147 C66.9152667,26.2197 67.0069333,26.2227 67.0669333,26.2233667 C67.1269333,26.2243667 67.1842667,26.2247 67.2392667,26.2247 C67.3919333,26.2247 67.5419333,26.2220333 67.6879333,26.2160333 C67.8339333,26.2103667 67.9772667,26.2023667 68.1196,26.1923667 C68.1159333,26.2240333 68.1136,26.2510333 68.1119333,26.2740333 C68.1102667,26.2973667 68.1096,26.3177 68.1096,26.3360333 C68.1096,26.3540333 68.1102667,26.3747 68.1119333,26.3977 C68.1136,26.4210333 68.1159333,26.4547 68.1196,26.4993667 C67.9712667,26.4910333 67.8109333,26.4850333 67.6382667,26.4803667 C67.4662667,26.4767 67.2666,26.4747 67.0412667,26.4747 C66.8166,26.4747 66.6139333,26.4767 66.4322667,26.4803667 C66.2509333,26.4850333 66.0796,26.4910333 65.9179333,26.4993667" id="Fill-40" fill="#D70C18"></path>
                <path d="M68.5693,26.4993667 C68.5816333,26.2403667 68.5903,26.0157 68.5959667,25.8257 C68.6016333,25.6347 68.6043,25.4563667 68.6043,25.2897 C68.6043,25.0987 68.6009667,24.9037 68.5949667,24.7047 C68.5886333,24.5063667 68.5799667,24.2973667 68.5693,24.0780333 C68.6273,24.0830333 68.6876333,24.0867 68.7506333,24.0893667 C68.8129667,24.0913667 68.8779667,24.0927 68.9439667,24.0927 C69.0103,24.0927 69.0753,24.0913667 69.1389667,24.0893667 C69.2019667,24.0867 69.2626333,24.0830333 69.3186333,24.0780333 C69.3073,24.2973667 69.2986333,24.5063667 69.2929667,24.7047 C69.2866333,24.9037 69.2843,25.0987 69.2843,25.2897 C69.2843,25.4563667 69.2866333,25.6350333 69.2929667,25.8263667 C69.2986333,26.0180333 69.3073,26.2420333 69.3186333,26.4993667 C69.2546333,26.4910333 69.1906333,26.4850333 69.1293,26.4803667 C69.0669667,26.4767 69.0056333,26.4747 68.9439667,26.4747 C68.8846333,26.4747 68.8236333,26.4767 68.7613,26.4803667 C68.6996333,26.4850333 68.6356333,26.4910333 68.5693,26.4993667 M68.5646333,23.1653667 C68.5646333,23.0583667 68.6016333,22.9677 68.6756333,22.8937 C68.7499667,22.8193667 68.8416333,22.7823667 68.9506333,22.7823667 C69.0556333,22.7823667 69.1453,22.8197 69.2186333,22.8947 C69.2919667,22.9697 69.3286333,23.0600333 69.3286333,23.1653667 C69.3286333,23.2727 69.2913,23.3630333 69.2176333,23.4367 C69.1429667,23.5097 69.0523,23.5463667 68.9449667,23.5463667 C68.8379667,23.5463667 68.7476333,23.5097 68.6746333,23.4367 C68.6009667,23.3630333 68.5646333,23.2727 68.5646333,23.1653667" id="Fill-42" fill="#D70C18"></path>
                <path d="M69.9563333,26.4993667 C69.9693333,26.2753667 69.9793333,26.0637 69.986,25.8650333 C69.9923333,25.6657 69.9956667,25.4750333 69.9956667,25.2923667 C69.9956667,25.0870333 69.9923333,24.8823667 69.986,24.6800333 C69.9793333,24.4780333 69.9693333,24.2773667 69.9563333,24.0780333 C70.009,24.0847 70.064,24.0897 70.121,24.0927 C70.1776667,24.0963667 70.2393333,24.0980333 70.3053333,24.0980333 C70.371,24.0980333 70.4316667,24.0963667 70.4873333,24.0927 C70.5423333,24.0897 70.595,24.0847 70.6443333,24.0780333 L70.6443333,24.4270333 C70.7476667,24.2900333 70.8643333,24.1883667 70.9926667,24.1227 C71.1213333,24.0567 71.2653333,24.0237 71.4256667,24.0237 C71.5486667,24.0237 71.662,24.0450333 71.7643333,24.0867 C71.8663333,24.1290333 71.9526667,24.1900333 72.0236667,24.2707 C72.0796667,24.3370333 72.12,24.4180333 72.144,24.5147 C72.1676667,24.6110333 72.18,24.7763667 72.18,25.0103667 C72.18,25.0433667 72.1786667,25.1303667 72.1776667,25.2713667 C72.1753333,25.4120333 72.1746667,25.5363667 72.1746667,25.6437 C72.1746667,25.8017 72.1776667,25.9507 72.1836667,26.0910333 C72.189,26.2310333 72.198,26.3673667 72.2096667,26.4993667 C72.1386667,26.4910333 72.0723333,26.4850333 72.0106667,26.4803667 C71.9486667,26.4767 71.8886667,26.4747 71.8313333,26.4747 C71.773,26.4747 71.7143333,26.4767 71.6546667,26.4803667 C71.594,26.4850333 71.5286667,26.4910333 71.4576667,26.4993667 C71.4693333,26.3557 71.4783333,26.1843667 71.4863333,25.9847 C71.4933333,25.7850333 71.4973333,25.5633667 71.4973333,25.3197 C71.4973333,24.9517 71.468,24.7147 71.4093333,24.6087 C71.3513333,24.5020333 71.245,24.4490333 71.0916667,24.4490333 C70.9383333,24.4490333 70.8283333,24.5123667 70.7613333,24.6393667 C70.695,24.7663667 70.6613333,24.9807 70.6613333,25.2827 C70.6613333,25.4240333 70.664,25.5967 70.6686667,25.7990333 C70.674,26.0020333 70.68,26.2353667 70.6883333,26.4993667 C70.6256667,26.4910333 70.564,26.4850333 70.5033333,26.4803667 C70.442,26.4767 70.3826667,26.4747 70.325,26.4747 C70.2686667,26.4747 70.2103333,26.4767 70.1496667,26.4803667 C70.0883333,26.4850333 70.0236667,26.4910333 69.9563333,26.4993667" id="Fill-44" fill="#D70C18"></path>
                <path d="M73.4137,25.0449333 L74.2713667,25.0449333 C74.2713667,25.0269333 74.2727,25.0042667 74.2743667,24.9769333 C74.2760333,24.9499333 74.2770333,24.9319333 74.2770333,24.9239333 C74.2770333,24.6946 74.2433667,24.5216 74.1763667,24.4046 C74.1100333,24.2876 74.0110333,24.2289333 73.8810333,24.2289333 C73.7330333,24.2289333 73.6173667,24.2956 73.5360333,24.4292667 C73.4543667,24.5629333 73.4137,24.7532667 73.4137,25.0006 L73.4137,25.0449333 Z M73.4137,25.2949333 C73.4137,25.5866 73.4833667,25.8182667 73.6223667,25.9896 C73.7620333,26.1612667 73.9493667,26.2469333 74.1850333,26.2469333 C74.3023667,26.2469333 74.4143667,26.2272667 74.5213667,26.1876 C74.6290333,26.1482667 74.7327,26.0879333 74.8333667,26.0072667 L74.8823667,26.0442667 L74.7717,26.3309333 C74.6657,26.4052667 74.5420333,26.4622667 74.3990333,26.5016 C74.2567,26.5412667 74.1013667,26.5612667 73.9350333,26.5612667 C73.5413667,26.5612667 73.2327,26.4446 73.0090333,26.2122667 C72.7860333,25.9799333 72.6743667,25.6586 72.6743667,25.2476 C72.6743667,24.8786 72.7853667,24.5799333 73.0080333,24.3526 C73.2307,24.1249333 73.5250333,24.0112667 73.8913667,24.0112667 C74.2387,24.0112667 74.5053667,24.1076 74.6907,24.3009333 C74.8767,24.4936 74.9693667,24.7706 74.9693667,25.1316 C74.9693667,25.1746 74.9690333,25.2072667 74.9677,25.2306 C74.9670333,25.2536 74.9653667,25.2739333 74.9637,25.2922667 L73.4137,25.2949333 Z" id="Fill-46" fill="#D70C18"></path>
                <path d="M61.7463667,5.1963 C61.6513667,4.70896667 61.3780333,3.67496667 61.1283667,3.00896667 L61.5083667,2.81896667 C61.9960333,3.35396667 62.5070333,4.2813 62.7210333,4.82796667 L61.7463667,5.1963 Z M60.2840333,12.4709667 L61.4370333,12.4709667 L61.4370333,10.4146333 L60.2840333,10.4146333 L60.2840333,12.4709667 Z M60.2840333,9.8793 L61.4370333,9.8793 L61.4370333,8.0253 L60.2840333,8.0253 L60.2840333,9.8793 Z M60.2840333,7.4903 L61.4370333,7.4903 L61.4370333,5.89763333 L60.2840333,5.89763333 L60.2840333,7.4903 Z M58.9530333,4.81596667 L53.8297,4.81596667 L53.8297,4.2813 L56.4803667,4.2813 C56.0527,3.8293 55.6247,3.46096667 55.1730333,3.0923 L55.3393667,2.72396667 C56.0050333,2.91396667 56.8133667,3.25896667 57.3123667,3.61563333 L56.8370333,4.2813 L58.9530333,4.2813 L58.9530333,4.81596667 Z M53.9607,8.52463333 L53.6397,8.2513 C54.1980333,7.34796667 54.6143667,6.05196667 54.8283667,4.89896667 L55.7910333,5.12496667 C55.7317,5.4223 55.6007,5.76696667 55.4463667,6.1353 C55.8980333,6.4443 56.2903667,6.7773 56.5873667,7.12196667 L55.9100333,7.76396667 C55.7197,7.38363333 55.4940333,6.97963333 55.2443667,6.5873 C54.8877,7.3123 54.4123667,8.0493 53.9607,8.52463333 L53.9607,8.52463333 Z M64.2783667,12.4709667 L64.2783667,13.0179667 L60.2840333,13.0179667 L60.2840333,13.9213 L59.2383667,13.9213 L59.2500333,7.69263333 C59.0837,7.95396667 58.9173667,8.21563333 58.7390333,8.4533 L58.4060333,8.20363333 C58.5487,7.90663333 58.6797,7.6213 58.7863667,7.3243 L58.2277,7.8353 C58.0493667,7.46696667 57.8357,7.07463333 57.5740333,6.70596667 C57.3603667,7.15763333 57.0867,7.5973 56.8013667,7.98963333 L57.0033667,7.98963333 L57.0033667,9.10696667 L58.9767,9.10696667 L58.9767,9.64196667 L57.0033667,9.64196667 L57.0033667,10.0699667 C57.7167,10.4739667 58.3940333,10.8899667 58.8933667,11.3656333 L58.1923667,12.1499667 C57.8593667,11.6506333 57.3603667,11.0566333 57.0033667,10.6403 L57.0033667,13.9926333 L55.9813667,13.9926333 L55.9813667,10.8783 C55.5297,11.5556333 54.7333667,12.4826333 53.7583667,13.1843 L53.5087,12.8396333 C54.3647,11.9836333 55.1730333,10.9376333 55.7317,9.64196667 L53.7703667,9.64196667 L53.7703667,9.10696667 L55.9813667,9.10696667 L55.9813667,7.98963333 L56.2903667,7.98963333 C56.7777,7.10996667 57.0273667,6.0283 57.1580333,4.94663333 L58.1210333,5.18463333 C58.0613667,5.50563333 57.9427,5.8503 57.8000333,6.21863333 C58.2160333,6.4923 58.5963667,6.78896667 58.8697,7.10996667 C59.2857,5.89763333 59.4283667,4.61396667 59.6067,2.87863333 L60.6883667,3.0923 C60.6170333,3.87696667 60.4747,4.63763333 60.2603667,5.36296667 L64.1237,5.36296667 L64.1237,5.89763333 L62.4597,5.89763333 L62.4597,7.49063333 L63.8263667,7.49063333 L63.8263667,8.0253 L62.4597,8.0253 L62.4597,9.87963333 L63.8383667,9.87963333 L63.8383667,10.4146333 L62.4597,10.4146333 L62.4597,12.4709667 L64.2783667,12.4709667 Z" id="Fill-48" fill="#D70C18"></path>
                <path d="M77.5214333,11.8766333 L76.5824333,12.3403 C76.2854333,11.3893 75.9761,10.5689667 75.5841,9.76063333 L75.9171,9.5353 C76.5824333,10.2243 77.1291,11.0209667 77.5214333,11.8766333 L77.5214333,11.8766333 Z M73.3137667,8.0613 C73.8961,8.31063333 74.9777667,8.90496667 75.4294333,9.36863333 L74.7281,10.1649667 C74.3121,9.64196667 73.5631,8.84563333 73.0994333,8.40596667 L73.3137667,8.0613 Z M75.6434333,10.9613 C76.1901,12.9109667 76.2854333,13.6716333 74.4311,13.6716333 C72.6954333,13.6716333 72.4581,13.5406333 72.4581,12.2573 L72.4581,9.16663333 L73.5037667,9.16663333 L73.5037667,12.0666333 C73.5037667,12.5423 73.6111,12.6969667 74.3597667,12.6969667 C75.2154333,12.6969667 75.2274333,12.5423 75.2154333,10.9613 L75.6434333,10.9613 Z M73.5277667,5.4343 L71.0791,5.4343 L71.0791,4.89896667 L73.5277667,4.89896667 L73.5277667,2.9023 L74.5974333,2.9023 L74.5974333,4.89896667 L77.0937667,4.89896667 L77.0937667,5.4343 L74.5974333,5.4343 L74.5974333,7.49063333 L76.9391,7.49063333 L76.9391,8.0253 L71.3287667,8.0253 L71.3287667,7.49063333 L73.5277667,7.49063333 L73.5277667,5.4343 Z M68.1787667,12.5303 L69.5337667,12.5303 L69.5337667,10.3673 L68.1787667,10.3673 L68.1787667,12.5303 Z M71.7211,9.79663333 L72.1371,9.87963333 C72.0654333,11.1396333 71.7924333,12.1859667 71.2454333,12.9109667 L70.4487667,12.3163 L70.4487667,13.7549667 L69.5454333,13.7549667 L69.5454333,13.0533 L68.1787667,13.0533 L68.1787667,13.9213 L67.2514333,13.9213 L67.2514333,9.84396667 L70.4487667,9.84396667 L70.4487667,12.1976333 C71.0554333,11.5793 71.5187667,10.8663 71.7211,9.79663333 L71.7211,9.79663333 Z M67.2157667,8.69096667 L70.5561,8.69096667 L70.5561,8.19163333 L67.2157667,8.19163333 L67.2157667,8.69096667 Z M67.2157667,7.05063333 L70.5561,7.05063333 L70.5561,6.5513 L67.2157667,6.5513 L67.2157667,7.05063333 Z M70.8294333,5.4343 L66.8711,5.4343 L66.8711,4.89896667 L68.6897667,4.89896667 C68.2974333,4.22163333 67.8577667,3.48463333 67.5841,3.0923 L67.8814333,2.7953 C68.4401,3.16363333 69.2244333,3.80563333 69.7117667,4.42396667 L69.0941,4.89896667 L70.8294333,4.89896667 L70.8294333,5.4343 Z" id="Fill-50" fill="#D70C18"></path>
                <path d="M50.0406333,13.7762 C49.7846333,13.4845333 49.5093,13.3098667 49.3626333,13.2308667 C49.3273,13.2155333 49.2929667,13.1982 49.2586333,13.1788667 L49.2566333,13.1778667 L49.2573,13.1778667 C49.0926333,13.0842 48.9379667,12.9575333 48.7559667,12.9102 C48.4813,12.8392 48.1876333,12.8735333 47.9103,12.8145333 C47.5199667,12.7315333 47.1316333,12.6345333 46.7373,12.5735333 C46.2449667,12.4978667 45.7346333,12.4782 45.2529667,12.6222 C45.0356333,12.6872 44.7759667,12.7728667 44.6186333,12.9452 C44.4879667,13.0885333 44.4906333,13.2575333 44.4499667,13.4352 C44.4113,13.6022 44.3896333,13.7725333 44.3879667,13.9438667 C44.3823,14.5812 44.6286333,15.2118667 44.9443,15.7555333 C45.1136333,16.0472 45.3116333,16.3212 45.5309667,16.5775333 C45.7313,16.8122 45.9673,17.1228667 46.2256333,17.2952 C46.4793,17.4652 46.6536333,17.5865333 46.8139667,17.8458667 C46.9266333,18.0282 46.9399667,18.0822 47.1536333,18.1648667 C47.5023,18.2988667 47.8993,18.2948667 48.2673,18.3212 C48.7483,18.3558667 49.2683,18.3642 49.7449667,18.2792 C50.1069667,18.2148667 50.1763,17.9588667 50.4709667,17.7872 C50.7473,17.6258667 50.8866333,17.5998667 51.0143,17.2952 C51.5883,15.9255333 50.8803,14.7618667 50.0406333,13.7762" id="Fill-52" fill="#D70C18"></path>
            </g>
        </g>
    </g>
</svg>