<svg id="圖層_1" data-name="圖層 1" xmlns="http://www.w3.org/2000/svg" viewBox="0 0 400 125"><defs><style>.cls-1{fill:#fff;}.cls-2{fill:#002851;}</style></defs><polygon class="cls-1" points="400 90 0 125 0 34.99 400 0 400 90"/><path class="cls-2" d="M45.92,60.55a66.53,66.53,0,0,1-4,7.85L69.44,66V95.45c0,6.42-6.36,8.78-16.32,4.37l.6-2.16c8.88.61,10.2.25,10.2-3.29V88.19L42.14,90.1v14.22l-5.52.48V75.94a54.51,54.51,0,0,1-12.36,11.4L23,85.65A65.35,65.35,0,0,0,40,61.07L24.74,62.4V59.1l16.5-1.44A82.41,82.41,0,0,0,44,47.7l6,.67a79.44,79.44,0,0,1-2.64,8.75L76,54.61v3.3ZM42.14,77.92,63.92,76V69.47L42.14,71.38Zm0,9.48,21.78-1.91V78.71L42.14,80.62Z"/><path class="cls-2" d="M96.38,58v41.7l-5.16.45V66.91A50.09,50.09,0,0,1,84.14,75L82.7,73.53c6.48-8.91,10.32-19,12.78-30.4l5.88,1.23A84.19,84.19,0,0,1,96.38,58Zm24.18-3.19V91.34c0,5.94-4.74,8.93-16.14,3.93l.54-2.09c9.66.84,10.2.07,10.2-3.35V55.27l-7.26.64a72.86,72.86,0,0,1-7.92,13l-1.86-1.1c4.26-7.57,6.54-15.09,7.74-24.85l6.12.78a55.66,55.66,0,0,1-2.88,9.37l20.22-1.77,1.74-1.41,5.7,2.74a51.31,51.31,0,0,1-9,11.11L126,62.48A47.56,47.56,0,0,0,129.5,54Zm-8.94,14.4c-2.16,7-5.94,15.58-11.58,22.49L98.3,90.53a74.22,74.22,0,0,0,7.62-22.63ZM137.18,85l-5.88,3.16a154.81,154.81,0,0,0-7.5-21l1.8-1.29A84.19,84.19,0,0,1,137.18,85Z"/><path class="cls-2" d="M164.42,76A13.3,13.3,0,0,0,172,65.71a6.41,6.41,0,0,1-2,.48,4.1,4.1,0,0,1-4.8-4.38,5.08,5.08,0,0,1,4.86-5.22c3.66-.32,6.06,1.69,6.06,6.19,0,6.66-4.26,13-10.44,14.77Z"/><path class="cls-2" d="M257.18,77.83l-1.86,6.4c-8.88.83-19.5.5-29-4-4.8,5.52-11.94,8.43-20.52,10.2l-.54-2.17c7.68-2.54,13.32-5.43,17-10.26a35.06,35.06,0,0,1-9.06-8.14l1.56-1.64a46.2,46.2,0,0,0,9.66,6.36,31.57,31.57,0,0,0,2.52-8.5l-15.6,1.36V46.07l16.08-1.41V38.54l-21.6,1.89v-3L256,33.05v3l-22.92,2v6.12l16.38-1.43V64.16l-16.92,1.48A29.36,29.36,0,0,1,229,76.45C236.9,79,245.72,79.13,257.18,77.83ZM216.8,54.72l10.68-.94V47.36l-10.68.94Zm10.5,8.68c.12-1.57.18-3.2.18-4.94v-2l-10.68.94v6.9ZM244.1,55l-11,1v2.1c0,1.68-.06,3.31-.18,4.82l11.16-1Zm-11-8.16v6.42l11-1V45.91Z"/><path class="cls-2" d="M285.92,63.49l-3.6,3c-1.62-2.8-3.3-5.48-4.74-7.75V83.84l-5,.44V62.62a61.83,61.83,0,0,1-7.8,14.3l-1.62-1.3a98.72,98.72,0,0,0,8.82-23.69l-7.2.63v-2.7l7.8-.68V28.54l5-.44V48.74l6.42-.56v2.7l-6.42.56V55A36.52,36.52,0,0,1,285.92,63.49ZM267,47.09a124.42,124.42,0,0,0-2.4-12.51l2-.9a50.07,50.07,0,0,1,4.86,11.88Zm13-1.44L278.36,45a114.12,114.12,0,0,0,2.76-13.56l4.56,1A65.91,65.91,0,0,1,280,45.65Zm36.78-.94v2.7l-31.68,2.77v-2.7l13.14-1.14V41.9l-10.62.92v-2.7l10.62-.92V34.88l-12,1v-2.7l12-1v-6l5.28-.47v6l12.12-1.06v2.7L303.5,34.41v4.32l10.14-.88v2.7l-10.14.88v4.44Zm-29.82,8.73,26.46-2.31V75.55c0,5.52-5.34,8-13.5,4.3l.42-2.08c7.14.4,8,.32,8-3.94V68.67L292,70.1V82.58l-5,.44Zm5,2.26v4.44l16.38-1.43V54.27ZM308.36,66V61.41L292,62.84V67.4Z"/><path class="cls-2" d="M342.62,59v19.2l-5.34.47V61a57,57,0,0,1-13.5,13.72l-1.26-1.51c4.8-4.62,10.86-12.29,13.92-20.42l-11.4,1v-3l12.3-1.08V43.81l5.28-.46v5.94l12.12-1.06v3l-12.12,1.06v3.12a48,48,0,0,1,10.92,7.32l-4,4.26C348,65,345.38,62.13,342.62,59Zm-18.48-26.7-.24-2.14c12.12-2.32,23.34-6.66,28.26-9.25l4,4.45A170.1,170.1,0,0,1,324.14,32.31Zm2.28,2.2,1.8-1.12a44,44,0,0,1,6.84,9.06l-4.8,2.64A60.12,60.12,0,0,0,326.42,34.51Zm10.14-2.27,1.8-.88a38.55,38.55,0,0,1,5.28,8.78l-4.56,2.08C338.48,39.57,337.34,35.05,336.56,32.24ZM348.74,29l5.7,1.54a68.82,68.82,0,0,1-8.52,13.28L344.3,43A63.51,63.51,0,0,0,348.74,29ZM377,53.36c-6.06,10-16.74,19.83-26.4,24.15l-1.2-1.75c8-5.21,17.28-15.26,22.14-25ZM370.52,34,376,36.71c-4.74,7.61-13.44,14.73-21.12,19L353.72,54C359.54,49.13,366.8,41.89,370.52,34Zm-16.2,3c5.82-4.71,10.2-10.91,13.8-17.47L373.46,22a57.92,57.92,0,0,1-17.82,16.74Z"/></svg>