<svg id="圖層_1" data-name="圖層 1" xmlns="http://www.w3.org/2000/svg" viewBox="0 0 456 155.85"><defs><style>.cls-1{fill:#fff;}.cls-2{fill:#002851;}</style></defs><polygon class="cls-1" points="227.8 90 67.8 104 67.8 14 227.8 0 227.8 90"/><path class="cls-2" d="M110.21,41.73a53.18,53.18,0,0,1-6.78,10.49v32l-5.4.47V58.39A57,57,0,0,1,89,66l-1.2-1.69a79.81,79.81,0,0,0,17.22-24.91ZM90.89,48.52,89.57,47a65.25,65.25,0,0,0,13.14-19.38l5.1,2.37A65.48,65.48,0,0,1,90.89,48.52Zm52-1.85-11,1V75.36c0,6.36-5.1,9.38-17.28,4.51l.54-2.15c9.9.94,11.1-.19,11.1-3.43V48.13l-14.82,1.3v-2.7L142.85,44Zm-2.7-14.34L115,34.53v-2.7l25.2-2.2Z"/><path class="cls-2" d="M168,28.51a49.4,49.4,0,0,1-7.62,11.17l15.12-1.32v2.7l-6.24.54v7.2l7.86-.69v2.7l-7.86.69V68.72c3.18-.88,6.06-1.73,8-2.38l.6,2c-3.78,2.37-15.3,7.28-21.18,9.11L155.09,72c2.34-.32,5.64-1.09,9.06-1.93V52l-8.1.71V50l8.1-.71v-7.2l-5.64.49v-.9c-.84.86-1.74,1.71-2.64,2.57l-1.38-1.5c5-6.26,7.92-12.81,10.14-20.5l5.52,1.49c-.36.88-.72,1.69-1,2.49a34.71,34.71,0,0,1,9.6,6.84L174.83,37A55.44,55.44,0,0,0,168,28.51Zm-4.8,37.56-4.44,1.59c-.48-3.44-1.44-8.27-2.34-12.09l2-.84A44.87,44.87,0,0,1,163.19,66.07Zm7-.61a72.21,72.21,0,0,0,2-12.12l4.74,1a57.38,57.38,0,0,1-4.86,11.52Zm13.32-27.27a87.77,87.77,0,0,0-5.28-12.91L180.17,24a39.67,39.67,0,0,1,8.46,11.26Zm12,.21,10.62-.93V68.73c0,5.64-5.22,9.16-15.06,3.78l.66-2.1c8.52.94,9.3-.21,9.3-2.67V59.46L184.61,60.9V76.74l-5.16.45V39.81l10.8-.94V20.75l5.28-.47Zm5.52,2.22-16.44,1.44v6.48l16.44-1.44Zm0,16.14v-7l-16.44,1.44v7Zm-2.28-20.32-1.8-1a83.25,83.25,0,0,0,5.58-13.81l5.22,2.06A63.5,63.5,0,0,1,198.77,36.44Z"/><polygon class="cls-1" points="456 115.96 0 155.85 0 95.85 456 55.96 456 115.96"/><path class="cls-2" d="M18.51,112.53l7.62-.66v22.88l-2.58.23v-2.46l-2.46.22v3.63l-2.58.22Zm2.58,5.78,2.46-.22v-4.65l-2.46.22Zm0,6.24,2.46-.22v-4.89l-2.46.22Zm0,6.84,2.46-.22v-5.49l-2.46.22Zm22.59-18.6v1.35l-4,.35v4.26l-2.52.22v-4.26l-4.14.36v4.26l-2.52.22v-4.26l-3.54.31v-1.35l3.54-.31v-4.35l2.52-.22v4.35l4.14-.36V109l2.52-.22v4.35Zm-16,8.33,14.91-1.31v16.11l-2.58.23v-2l-9.75.85v2.19l-2.58.23ZM30.27,127l3.48-.3v-4.71l-3.48.3Zm0,6.69,3.48-.3V128l-3.48.3Zm6-7.21L40,126.1v-4.71l-3.75.33Zm0,6.69,3.75-.33v-5.34l-3.75.33Z"/><path class="cls-2" d="M50.37,112.53l.54-1a35.84,35.84,0,0,1,6,2.38l-1.62,2.36A37,37,0,0,0,50.37,112.53Zm26.46,13.56v1.35l-11.91,1v5.79l-2.7.24v-5.79l-11.82,1V128.4l11.82-1v-2.49l2.7-.24v2.49Zm-18.78-9,.87.62a64.78,64.78,0,0,1-6,8.56l-2-1.87A62.53,62.53,0,0,0,58.05,117.08Zm-.84-5.65a44.42,44.42,0,0,0-4.2-3.15l.45-1A19.85,19.85,0,0,1,58.68,109Zm5.1-5.4L65,107a25.59,25.59,0,0,1-2.13,3.7l5.91-.52A39.55,39.55,0,0,0,65.64,107l.57-1A18,18,0,0,1,71,108.36l-1.35,1.71,6.39-.56v1.35l-6.06.53v2.16l5-.43v1.29l-5,.43v2.34l5-.44V118l-5,.44v2.46l6.48-.56v1.35l-13.83,1.21v1.29l-2.64.23v-9.93a26.5,26.5,0,0,1-3,3.14l-.75-.74A35.68,35.68,0,0,0,62.31,106Zm5,5.59-4.77.42v2.16l4.77-.42Zm0,3.45-4.77.42v2.34l4.77-.42Zm0,3.63-4.77.42v2.46l4.77-.42Z"/><path class="cls-2" d="M85.32,111.85c-.63-1.84-1.5-4.07-2.07-5.34l.87-.65a18.81,18.81,0,0,1,3.39,4.68ZM99,126.46a79.54,79.54,0,0,1-15,5.21l-.6-2.77c1.86-.25,4.11-.66,6.36-1.16v-4l-4.86.43v-1.35l4.86-.43v-3.09l-5.85.52v-1.35l4.11-.36c-.69-1.5-1.47-2.9-2.16-4.1l.51-.44-3,.26v-1.35l4.77-.42v-7.53l2.34-.2v7.53l1.41-.12v-7.53l2.4-.21v7.53l3.72-.33v1.35l-3.84.34,2.07.63a31.76,31.76,0,0,1-2.76,4.11l4.74-.42v1.35l-5.85.51v3.09l5-.43v1.35l-5,.43v3.57c2.46-.57,4.77-1.19,6.3-1.69ZM90.27,117l-1.5,1.09,3.42-.29a48.85,48.85,0,0,0,1.35-4.8l-6.51.57A15.58,15.58,0,0,1,90.27,117Zm5.58-5.7-.9-.44a38.25,38.25,0,0,0,1.89-6.16l2.64.7A28.9,28.9,0,0,1,95.85,111.29Zm14.22.31-2.94.26v16c0,3-3.66,4.43-8.49,1.85l.3-1.11c4.89.57,5.49.12,5.49-1.74V112.09l-5.73.51v-1.35l5.73-.51v-7.65l2.7-.23v7.65l2.94-.26Zm-9.69,10.24a63.49,63.49,0,0,0-1.44-7l1-.5a26.62,26.62,0,0,1,3.09,6.62Z"/><path class="cls-2" d="M122.58,107.15l5.43-.48v21.06l-2.64.23v-2.73l-5.16.45V129l-2.64.23V107.58l3.57-.31a60.59,60.59,0,0,0,.93-6.11l3.24.41A40.45,40.45,0,0,1,122.58,107.15Zm2.79,1.1-5.16.45v6.63l5.16-.45Zm0,15.63v-7.65l-5.16.45v7.65Zm16.83-18.39a172.29,172.29,0,0,1-.72,18.36c-.45,3.94-3.69,5.52-9.75,2.42l.33-1.08c5.73.79,6.42.21,6.69-2.24a158.14,158.14,0,0,0,.66-15.87l-6.42.57a31.6,31.6,0,0,1-4,7.33l-.87-.58c2.16-4.42,3.21-10,3.69-14l3.15.35a40.7,40.7,0,0,1-1.5,5.5Zm-7.71,14.35a49.25,49.25,0,0,0-3.42-7.44l.87-.76a24.41,24.41,0,0,1,5.28,6.44Z"/><path class="cls-2" d="M164,103.82v4.71l8.67-.76V118.9c0,3.06-3,3.78-7.23,2.31l.24-1.07c3.69.13,4.23-.22,4.23-1.63v-9.15l-5.91.52v15.9l-2.82.25v-15.9l-5.79.5V123.5l-2.76.24V109.52l8.55-.74v-4.71l-11.73,1v-1.5l13.2-1.15a50.35,50.35,0,0,0-4.32-3.7l.48-1a23.56,23.56,0,0,1,6.36,2.63l-1.47,2,12-1v1.5Z"/><path class="cls-2" d="M192.27,111.37a47.77,47.77,0,0,1-9.09,6.25l-1.29-2.7a36.64,36.64,0,0,0,4.11-1.56v-8.91l-3.57.31v-1.35l3.57-.31v-7l2.58-.23v7l3.42-.3v1.35l-3.42.3v7.92c1.14-.58,2.22-1.15,3.12-1.71Zm5.46-3.12a14.23,14.23,0,0,1-1.53,2.42l11.94-1a63.36,63.36,0,0,1-.75,9.94c-.54,2.71-3.18,4-7.5,1l.39-1c3.42.87,4.26.44,4.5-.64a46,46,0,0,0,.69-7.71l-1.53.14c-1.77,5.55-6.9,9.51-11.43,11.53L192,122c3.42-2,7.8-5.63,9.36-10.39l-1.83.16c-1.86,3.92-5.88,6.94-9.6,8.7l-.48-.94c2.91-1.67,6.12-4.68,7.47-7.53l-1.92.17a24.93,24.93,0,0,1-5.58,4.57l-.54-.91a19.35,19.35,0,0,0,6.06-7.28l-4.44.38v-1.35L209,105.92v1.35Zm8.46-4-13,1.14V96.62l13-1.14Zm-10.47-6.55v2.37l7.95-.7V97.05Zm7.95,5.42v-2.46l-7.95.7v2.46Z"/><path class="cls-2" d="M225.78,111.41a6.65,6.65,0,0,0,3.81-5.14,3.08,3.08,0,0,1-1,.24,2,2,0,0,1-2.4-2.19,2.54,2.54,0,0,1,2.43-2.61c1.83-.16,3,.85,3,3.1a7.67,7.67,0,0,1-5.22,7.38Z"/><path class="cls-2" d="M259.05,107.72a49.56,49.56,0,0,1-9.81,6.64L248,111.8c1.32-.47,2.76-1,4.23-1.69v-8.28l-3.33.29v-1.35l3.33-.29V93.82l-3.66.32V92.79l9.84-.86v1.35l-3.48.31v6.66l3.18-.28v1.35l-3.18.28v7.23c1.23-.62,2.43-1.3,3.51-2Zm16.11,5.67v1.38l-18.57,1.62V115l8.28-.72v-4.83l-5.82.51v-1.35l5.82-.51v-4.35l-3.21.28v1.86l-2.61.23V90.83l14.64-1.28v15.18l-2.61.22v-1.74l-3.39.3v4.35l5.88-.51v1.35l-5.88.51V114ZM264.87,91.67l-3.24.28V96.6l3.24-.28Zm0,5.94-3.24.28v4.8l3.24-.28Zm2.82-1.54,3.39-.3V91.12l-3.39.3Zm0,6.09,3.39-.3v-4.8l-3.39.3Z"/><path class="cls-2" d="M284,92.07c.45,2.6.39,7-.39,8.85l-2.73-.78a17,17,0,0,0,2-8Zm1-4.77,2.58-.22v27.78l-2.58.22Zm23.13,22.85v1.35l-18.48,1.61v-1.35l8.13-.71v-7.74l-6.3.55v-1.35l6.3-.55v-6.9l-3.9.35a33.06,33.06,0,0,1-3.6,6l-.9-.55a23.16,23.16,0,0,0,1.8-4.09l-1.8.76a55.27,55.27,0,0,0-1.41-6.06l.93-.44a19.5,19.5,0,0,1,2.67,4.6,49.23,49.23,0,0,0,1.59-7.19l3,.43A29.89,29.89,0,0,1,294.45,94l3.27-.29V86.24l2.64-.23v7.47l6.87-.6v1.35l-6.87.6v6.9l6.54-.57v1.35l-6.54.57v7.74Z"/><path class="cls-2" d="M338.55,101.18a6.54,6.54,0,0,1-4.95-2.84,21.57,21.57,0,0,1-4.05,3.48l-.63-.82a24.22,24.22,0,0,0,3.72-4.16A25.67,25.67,0,0,1,330,88l-10.86,1v2.28c0,7.53-1.41,10.42-4.35,13.28l-.78-.71c2.37-3.36,2.43-6.93,2.37-12.72V87.82l13.44-1.17c-.12-1.13-.21-2.26-.24-3.4l2.55-.16c.06,1.13.15,2.23.27,3.33l4.92-.43c-1.17-.95-2.46-1.91-3.33-2.59l.57-1a19.07,19.07,0,0,1,4.74,2l-1.08,1.5,2.58-.22V87l-8.25.72a25.22,25.22,0,0,0,1.65,6.57,28.85,28.85,0,0,0,2.22-5.53l2.31.7a27.83,27.83,0,0,1-3.45,6.84,4.69,4.69,0,0,0,3.09,2.07c.9.13,1.08-.54,1.05-4.32l1.08-.1C341.58,98.28,341.46,101.32,338.55,101.18Zm-19.77,1.88,1.05.18a12.73,12.73,0,0,1-3.6,8l-1.86-1.78A12,12,0,0,0,318.78,103.06Zm10.74-11.38-9.6.84V91.17l9.6-.84ZM329,99.55l-8.79.77V94.5l8.79-.77Zm5,3.74c1.29,4.83.48,6.17-2,6.59a59.1,59.1,0,0,1-6.51.66c-3.39.18-4.41-.42-4.41-2.55v-5.85l2.58-.23v4.71c0,1.26.3,1.54,2,1.5a31.48,31.48,0,0,0,5.67-.58c1.2-.29,1.56-.74,1.56-4.16Zm-7.35-8-4.08.36v3.12l4.08-.36Zm2.58,11.08c-1.47-1.67-2.67-2.85-3.93-4.09l.6-.89a18.46,18.46,0,0,1,5,3Zm11.7,1-2.4,1.5a44.94,44.94,0,0,0-3.3-6.58l.84-.73A23.1,23.1,0,0,1,341,107.42Z"/><path class="cls-2" d="M350,86.29c.45,2.61.39,7-.39,8.86l-2.73-.78a17,17,0,0,0,2-8Zm1-4.76,2.58-.23v27.78l-2.58.23Zm23.13,22.84v1.35l-18.48,1.62V106l8.13-.71V97.54l-6.3.55V96.74l6.3-.55v-6.9l-3.9.34a33.18,33.18,0,0,1-3.6,6l-.9-.56a23,23,0,0,0,1.8-4.08l-1.8.75a55.12,55.12,0,0,0-1.41-6.05l.93-.44a19.63,19.63,0,0,1,2.67,4.59,49,49,0,0,0,1.59-7.19l3,.43a30,30,0,0,1-1.65,5.13l3.27-.29V80.47l2.64-.23v7.47l6.87-.6v1.35l-6.87.6V96l6.54-.57v1.35l-6.54.57v7.74Z"/><path class="cls-2" d="M406.86,101.38V103l-26.43,2.32V103.7l8.7-.76V86.17l-7.8.68V85.2l7.47-.65a54.47,54.47,0,0,0-3.6-5.63l.75-.85A23.7,23.7,0,0,1,391.86,83l-1.74,1.47,5.07-.44a38.12,38.12,0,0,0,2.88-7l3.18,1.14a41.15,41.15,0,0,1-4.35,5.72l9-.79V84.7l-8,.7v16.77Zm-18.78-2.85-3.21,1.15a46.41,46.41,0,0,0-2.25-10.06l1-.57A31.79,31.79,0,0,1,388.08,98.53Zm7.14-12.9-3.39.3V102.7l3.39-.3Zm3.39,12.43a61.49,61.49,0,0,0,3.09-10.59l3.15,1a50.33,50.33,0,0,1-5.28,10.06Z"/><path class="cls-2" d="M437.49,75.61v22.8c0,3.15-2.64,4.58-7.95,2.37l.24-1.1c4.32.37,5,.13,5-1.73V91.23l-6.66.58v9.87l-2.64.23V92l-6.6.58c-.45,6.82-2,9.11-4.14,11.31l-.81-.62c2.43-3.84,2.4-6.87,2.4-15V77.45Zm-12,9.2-6.45.57v2.49c0,1.23,0,2.37-.06,3.39l6.51-.57Zm0-6.81-6.45.57V84l6.45-.57Zm9.27-.81-6.63.58v5.46l6.63-.58Zm0,6.81-6.63.58v5.88l6.63-.58Z"/></svg>