<svg id="圖層_1" data-name="圖層 1" xmlns="http://www.w3.org/2000/svg" viewBox="0 0 325.32 156.2"><defs><style>.cls-1{fill:#fff;}.cls-2{fill:#002851;}</style></defs><polygon class="cls-1" points="325.32 132.58 55.32 156.2 55.32 96.2 325.32 72.58 325.32 132.58"/><path class="cls-2" d="M87.61,115.92l-9.78.85v-1.35l4.44-.38c-1-1.57-2.25-3.29-3-4.18L80,110a19.85,19.85,0,0,1,4.74,3.55l-1.41,1.38,4.26-.37Zm-.72,7.83-8.16.71v-1.29l8.16-.71Zm-8.13-3.22v-1.29l8.16-.71v1.29Zm25.92,12.94-1.53,2.78a10.47,10.47,0,0,1-7.41-8.41l-.69.06a14.3,14.3,0,0,1-2.16,2.17v3.72c1.35-.45,2.58-.89,3.66-1.35l.39.93a42.25,42.25,0,0,1-8.73,4.09l-.87-2.2c1-.24,2.07-.48,3.09-.78v-2.82c-1.05.57-2.22,1.09-3.57,1.66l-.36-.75V137l-2.37.21v-2.07l-2.79.25v2.4l-2.4.21V127.45l7.56-.67v5.49a17.67,17.67,0,0,0,5.46-4.1l-4.65.4v-1.35l4.11-.36v-1.53l-2.94.26v-1.26l2.94-.26V122.6l-3.84.34v-1.29l3.84-.34v-1.86l2.46-.21v1.86l3.45-.3v-1.86l2.46-.22v1.86l4.26-.37v1.29l-4.26.37v1.47l3.39-.29v1.26l-3.39.29v1.53l4.74-.41v1.35l-7.77.68a7.24,7.24,0,0,0,1.86,3,21.71,21.71,0,0,0,2.94-3.1l2,1.47a25.52,25.52,0,0,1-4.14,2.37A12,12,0,0,0,104.68,133.47Zm-20.55.33v-5.46l-2.79.25v5.46Zm20-21.4-17,1.49v-1.35l8.67-.76c-1.17-.59-2.76-1.26-4.11-1.8l.3-1a25,25,0,0,1,5.85.78l-1,2,7.26-.63Zm-16,6.71V115l6.87-.61v4.14Zm2.28-1.34,2.37-.21V115.7l-2.37.21Zm3.39,6.09,3.45-.3v-1.47l-3.45.3Zm0,2.79,3.45-.3v-1.53l-3.45.3Zm2.55-8.26v-4.14l6.87-.6v4.14Zm2.22-1.34,2.37-.21V115l-2.37.21Z"/><path class="cls-2" d="M116.92,123.7v-7.62a22.65,22.65,0,0,1-5.58,7.24l-.66-.81a29.79,29.79,0,0,0,5.55-9.73l-4.44.39v-1.35l5.13-.45v-4.14l2.58-.22v4.14l4.17-.37v1.35l-4.17.37V114a20.25,20.25,0,0,1,4.32,2.77l-1.8,2.14c-.9-1.27-1.71-2.28-2.52-3.26v7.86Zm-1.68,1.71,1,.24a15.48,15.48,0,0,1-3.09,8.13l-2.43-2A15,15,0,0,0,115.24,125.41Zm16.53.74c1.2,4.43.84,6.29-1.86,6.8a48.28,48.28,0,0,1-9.24.8c-2.58,0-3.12-.92-3.12-2.9v-6.18l2.64-.23v5.19c0,1.08.24,1.57,2,1.59a34.51,34.51,0,0,0,6.87-.63c1.53-.31,1.74-1.26,1.65-4.34Zm-8.79-3a19.24,19.24,0,0,1,5.4,3.37l-2.16,2.2a28.8,28.8,0,0,0-3.9-4.64Zm3.78-.3-2.52.22v-15l11.16-1v15.09l-2.58.22V120.9l-6.06.53Zm0-10.89,6.06-.53v-2.73l-6.06.53Zm0,4,6.06-.53v-2.76l-6.06.53Zm0,1.26v2.79l6.06-.53v-2.79Zm11,12.06-2.67,1.7a28.82,28.82,0,0,0-3.09-6.57l.84-.79A19.41,19.41,0,0,1,137.8,129.35Z"/><path class="cls-2" d="M149.47,112.55V132l-2.52.22V117a28.75,28.75,0,0,1-2.94,3.61l-.75-.71c3.12-4.29,5.19-11.38,6-15.89l3,.49A52.39,52.39,0,0,1,149.47,112.55Zm21.57,14-1.86,2.26c-2.4-1.92-3.78-5.13-4.68-8.92-.54.29-1.08.54-1.59.77a17.9,17.9,0,0,1,.78,5.57c0,4.92-3.36,6-7.77,4l.3-1c3.87.39,4.62.35,5-3.16a15.79,15.79,0,0,0,0-2.07,25.48,25.48,0,0,1-10.35,5.19l-.33-1a30.51,30.51,0,0,0,10.35-6.75,6.55,6.55,0,0,0-.27-1.12,28.58,28.58,0,0,1-9.57,5.13l-.36-1a27.15,27.15,0,0,0,9.15-6.14,6.73,6.73,0,0,0-.39-.81,28.86,28.86,0,0,1-8.28,4.27l-.33-.91a24.54,24.54,0,0,0,7.47-5.12l-5.64.49v-3.69c-.48.38-1,.75-1.47,1.12l-.63-.84a26.59,26.59,0,0,0,6.09-9.44l2.73.75c-.39.72-.81,1.42-1.2,2l3.84-.33.78-.55,2.31,1.15a23.84,23.84,0,0,1-2.46,3.09l6.54-.57v5.82l-7.44.65a12.75,12.75,0,0,1-1.35,1.26,9.54,9.54,0,0,1,2.1,3.08,24.48,24.48,0,0,0,4.5-4.08l1.89,1.57a31.73,31.73,0,0,1-3.42,2.22C167.44,123.42,169.09,125.11,171,126.5Zm-13.83-19a25.94,25.94,0,0,1-2.07,2.58l5.82-.51a13.71,13.71,0,0,0,1.11-2.5Zm-2,7,4.38-.38V111l-4.38.38Zm11.37-4.12-4.47.4v3.12l4.47-.4Z"/><path class="cls-2" d="M202.48,127.35a27.77,27.77,0,0,1-11.43-1.58c-3.18,1.75-7.68,3.13-14,4l-.27-1.15a39.28,39.28,0,0,0,12-4,10.92,10.92,0,0,1-3.81-3.57,21.32,21.32,0,0,1-6.33,4.07l-.48-.92a20.58,20.58,0,0,0,7.29-7.75l2.64,1c-.3.45-.63.9-1,1.34l14.67-1.28v1.35l-4.47.39a12.34,12.34,0,0,1-3.75,4.89,50.36,50.36,0,0,0,10.26.18Zm-23.31-8.28-2-.39a38.78,38.78,0,0,0,1.83-5.11l.87.1A34.61,34.61,0,0,1,179.17,119.07Zm-.06-8a27.55,27.55,0,0,0,2.82-3.93,25.68,25.68,0,0,1-3.75,1.31l-.63-2.07c.48,0,1,0,1.44-.07a29.37,29.37,0,0,0,1.77-4.89l2.25.55a23.82,23.82,0,0,1-2.76,4.2,16,16,0,0,0,2.4-.39c.3-.59.6-1.22.9-1.94l2.1,1a26.63,26.63,0,0,1-5,6,30.11,30.11,0,0,0,3.3-.65l-.63-1.44.66-.51a10.65,10.65,0,0,1,2.43,3.57l-1.68.89c-.12-.5-.27-1-.45-1.55a37.58,37.58,0,0,1-6.24,2.23l-.48-2.24C178,111.13,178.57,111.08,179.11,111Zm2.4,2.07a27.09,27.09,0,0,1,1.62,4.45l-2,.69c-.06-1.35-.24-3.16-.42-4.85Zm2.73,3.66a36.9,36.9,0,0,0-1.47-4l.72-.45a13.27,13.27,0,0,1,2.46,3.44Zm10.65-12.69-9.12.8v-1.35l4-.35a14.24,14.24,0,0,0-2.19-2l.51-.83a13,13,0,0,1,4.08,1.81l-.75.87,3.42-.3Zm-4.29,19.37a11.33,11.33,0,0,0,3.36-3.9l-8.16.72h0A11.27,11.27,0,0,0,190.6,123.44Zm-3.87-12.5,7.08-.62V116l-7.08.62Zm7-4.22-6.9.61v-1.26l6.9-.61Zm-6.9,1.75,6.9-.61v1.26l-6.9.61Zm2,6.66,2.88-.25v-3.09l-2.88.25Zm5.46,1.62a46.08,46.08,0,0,0,1.8-4.8l.93.1a37.41,37.41,0,0,1-.69,5.1Zm1.5-11.86a37,37,0,0,0,1.68-5l2.25.61a24.75,24.75,0,0,1-2.73,4.26c.9-.14,1.77-.31,2.58-.47.3-.62.6-1.31.93-2.06l2.22,1a29.17,29.17,0,0,1-5,6.08c1.11-.16,2.19-.34,3.15-.58-.18-.43-.39-.83-.6-1.23l.66-.51a10.73,10.73,0,0,1,2.67,3.3l-1.71,1c-.15-.49-.36-1.08-.6-1.65a31.12,31.12,0,0,1-6.36,2.14l-.45-2.27a16.87,16.87,0,0,0,1.71-.06,27.46,27.46,0,0,0,2.67-3.8,25.47,25.47,0,0,1-3.6,1.3l-.57-2A10.9,10.9,0,0,0,195.79,104.89Zm2.82,6.66A26.48,26.48,0,0,1,200.2,116l-2,.62c0-1.34-.21-3.07-.42-4.76Zm2.64,3.88a22.56,22.56,0,0,0-1.44-4.14l.75-.45a19.17,19.17,0,0,1,2.58,3.55Z"/><path class="cls-2" d="M233.11,124.37c-2.64-.52-4.5-2.31-5.79-4.9a28.79,28.79,0,0,1-9.36,6l-.48-1a29,29,0,0,0,8.94-7.2,44.76,44.76,0,0,1-1.8-12.35l-9.36.82V110l7.59-.66c-.09,4.62-.18,7.06-.36,8.67-.33,2.85-3.27,3.91-7.35,1.63l.3-1.11c3.93.56,4.35.22,4.41-1.1.06-1.09.15-3,.27-6.45l-4.86.43v.15c0,9.42-2,12.36-4.89,15.19l-.78-.68c2-3.12,2.79-4.84,2.79-14.26v-7.32l12.21-1.07c-.06-1.82-.09-3.89-.12-5.66l2.73-.23c0,1.73,0,3.83.06,5.66l4.71-.41c-1.14-1.61-2.31-3.13-3.33-4.45l.75-.88a28.08,28.08,0,0,1,4.92,3.62l-1.68,1.65,3.9-.34v1.5l-9.24.81a45.31,45.31,0,0,0,1.23,9.64,34.84,34.84,0,0,0,3.63-8.09l2.73,1a31,31,0,0,1-5.43,10c1,2.37,2.28,3.91,3.93,4.36,1.17.32,1.41-.06,1.38-5.88l1.08-.09C237.34,121.24,237.34,125.17,233.11,124.37Z"/><path class="cls-2" d="M256.15,120.07c5.49.15,6.06-.14,6.06-2.45v-20L243,99.29v-1.5l26.43-2.31V97l-4.41.39V118.6c0,3.69-3.33,4.68-9.12,2.6Zm-9.24-16.86,10.59-.93v13l-2.7.24v-2.64l-5.19.45v3.27l-2.7.24Zm7.89,8.28v-7.62l-5.19.45v7.62Z"/><path class="cls-2" d="M286.09,95.7a22.58,22.58,0,0,1,4,5.83l-2.49,1.3c-.24-.82-.51-1.72-.87-2.62a68.1,68.1,0,0,1-10.47,3.46l-.72-2.81c1-.06,2.13-.19,3.33-.35a55.67,55.67,0,0,0,2.85-8l3,.93a51.93,51.93,0,0,1-4.26,6.82c2-.29,4-.71,5.85-1.11-.39-.92-.78-1.85-1.2-2.77Zm-8.73,8.87,11.31-1V117.2c0,2.61-2.82,4-6.72,2l.21-1.06c3.42.24,3.81,0,3.81-1.81v-3.09l-6,.53v6.81l-2.64.23Zm2.64,1.12v2.64l6-.53v-2.64Zm6,6.22v-2.79l-6,.53v2.79Zm13.95,6.34a52.68,52.68,0,0,1-5.34.47c-3.21.1-4-.82-4-3.67v-9.3l2.64-.23v5.61a34.26,34.26,0,0,0,6.06-4.76l2.1,2a43.3,43.3,0,0,1-8.16,4.11v2.13c0,1.23.45,1.49,2,1.5a23.56,23.56,0,0,0,4.11-.36c1.56-.29,1.68-.78,1.74-4.5l1.08-.1C303.16,115.3,303.37,117.77,299.92,118.25Zm-9.3-17.3v-9l2.64-.23v5.67a31.09,31.09,0,0,0,5.94-4.54l2.1,1.91a38.38,38.38,0,0,1-8,4v1.74c0,1.2.39,1.46,1.95,1.47a23.66,23.66,0,0,0,3.6-.31c1.74-.3,1.8-.91,1.83-4l1.14-.1c1.11,4.4.6,6.13-2.25,6.56a45.51,45.51,0,0,1-4.89.42C291.46,104.56,290.62,103.86,290.62,101Z"/><polygon class="cls-1" points="290 90 0 115.37 0 25.37 290 0 290 90"/><path class="cls-2" d="M22.75,65.62l-3.24-4a94.08,94.08,0,0,0,13-11l1.56,1.18A77.34,77.34,0,0,1,22.75,65.62Zm15.9,19.19,5,3.1C39.07,91,29.41,95,20.53,97l-.66-2A63.25,63.25,0,0,0,38.65,84.81ZM31.51,49.32a96.52,96.52,0,0,0-9.9-5.74l.72-2.1a39.45,39.45,0,0,1,12.18,3ZM27.19,63.43l37.26-3.26V82L27.19,85.27Zm5.28,6,26.7-2.34V63.34l-26.7,2.33Zm0,6.06,26.7-2.34V69.57l-26.7,2.34Zm0,6.66,26.7-2.34V75.63L32.47,78ZM36,54.26l-1.44-1.37C38,48.69,39.91,44.5,41.83,38l5,.95a35.21,35.21,0,0,1-1.5,3.67L63.07,41.1l1.5-1,4.86,2.34a32.64,32.64,0,0,1-8.46,9l-1.56-1.19A29,29,0,0,0,63,43.62l-7.86.69a19,19,0,0,1-1.32,4c5,4.9,11.46,6,17.88,6.54l-2.28,5.36a25.29,25.29,0,0,1-16.86-9.69c-3.84,5.92-11,10.27-18.78,11.67l-.6-2c9.36-3,14.1-8,16-15.38l-5.34.46A34.5,34.5,0,0,1,36,54.26ZM72.73,87.53,70,92.93c-5.52-2.34-15.66-5-22.08-6.53l.54-2.27C54.91,84.35,65.65,85.57,72.73,87.53Z"/><path class="cls-2" d="M107.29,46.05,84.85,48v-2.7l10.32-.9a87.49,87.49,0,0,0-5.28-8.72l1.68-1.47a36.08,36.08,0,0,1,8.52,7.48l-3.24,2.56,10.5-.92Zm-19.8,8.09,17.88-1.57v2.52L87.49,56.66Zm17.7,8.71L87.49,64.4V61.88l17.7-1.55ZM87.73,70.56,105.37,69V87.73l-4.74.42v-3.3l-8.28.72v4.2l-4.62.41Zm4.62,12.37,8.22-.72V72.07l-8.22.72Zm41.28,2.75c-6.42-2.14-6.9-15.42-6.9-35.34V37.69l-8.22.71V57l6.9-.6v2.7l-6.9.6v28l-5.4.47v-28l-6.48.56V58l6.48-.56V38.88l-6.54.57v-2.7l25.62-2.24L132,49.94c-.24,19,1.2,28.34,2.52,29.18s1.44-1.15,1.32-10L138,69C142.09,83.5,137.65,87,133.63,85.68Z"/><path class="cls-2" d="M203.35,72.08v3.3l-51.42,4.5v-3.3l22.86-2V36.9l-19.68,1.72V35.5l44.82-3.92V34.7l-19.26,1.69V74.06Z"/><path class="cls-2" d="M234.73,56.92c-1-2.26-2.16-5-3.42-7.75V77.79l-5.16.46V52.09a58.69,58.69,0,0,1-8.4,15.43l-1.68-1.23a92.31,92.31,0,0,0,9.06-24.55l-7.86.68v-2.7l8.88-.77V30c-3,.86-6,1.6-8.64,2.19l-.42-2c6.72-2.39,12.6-5,17.76-8.69l4.62,3.79c-2.52,1.12-5.28,2.14-8.16,3.12V38.49l8-.69v2.7l-8,.7v4a42.43,42.43,0,0,1,7.8,8.74Zm35.76,11.81v2.7l-35,3.06v-2.7l15-1.32v-9.3l-12.66,1.11v-2.7l12.66-1.11v-8c-4,.84-7.86,1.47-11,1.93L239,50.36c9-1.92,19.2-5.34,24.18-8.47l5,3.82a93.2,93.2,0,0,1-12.24,3.65V58l12.72-1.11v2.7L255.91,60.7V70Zm-4.86-28.44-24.72,2.16V25.12L265.63,23Zm-5-14.2L246,27.37V39.31L260.59,38Z"/></svg>