<svg id="圖層_1" data-name="圖層 1" xmlns="http://www.w3.org/2000/svg" viewBox="0 0 430 156"><defs><style>.cls-1{fill:#fff;}.cls-2{fill:#002851;}</style></defs><polygon class="cls-1" points="430 118.38 0 156 0 96 430 58.38 430 118.38"/><path class="cls-2" d="M21.38,122l-.63-.85a28.46,28.46,0,0,0,6.42-11.81l3.21.62a23.73,23.73,0,0,1-1.41,3l17.58-1.53v1.35l-18.39,1.61A27.32,27.32,0,0,1,21.38,122Zm21.93,8.16,3.75-.33v1.35l-3.9.34c-.09.61-.15,1.12-.24,1.61-.54,3.41-3.33,5.48-9.27,2.13l.36-1c4.74.76,5.79.43,6.18-1.83l.09-.67L26.9,132.89c-.18.8-.33,1.5-.45,2.11l-2.76,0c.51-2.23,1.17-5.71,1.77-9.15l-4,.35v-1.35l4.23-.37c.45-2.71.84-5.29,1.05-7l17.7-1.55c-.09,1.87-.27,4.37-.48,7l3.81-.33,0,1.34-3.93.35C43.7,126.26,43.52,128.35,43.31,130.11Zm-2.82.25c.18-1.7.39-3.82.57-5.9l-12.81,1.12c-.36,2-.72,4.11-1.08,5.94Zm-12-6.15,12.69-1.11c.15-2.21.27-4.29.33-5.64l-12.12,1.06C29.18,119.94,28.88,122,28.49,124.21Zm9.78,3.58-1.41,2.58a71.92,71.92,0,0,0-6.3-3.53l.36-1A33.3,33.3,0,0,1,38.27,127.79Zm0-7.32-1.44,2.47a48,48,0,0,0-5.58-3.14l.39-1A28.41,28.41,0,0,1,38.24,120.47Z"/><path class="cls-2" d="M63.68,121.37a56.49,56.49,0,0,1-7.53,11.31l-2.25-2.15a68.08,68.08,0,0,0,8.88-9.71Zm-4.23-4.22a66,66,0,0,0-5.1-5.92l.66-.89a27.66,27.66,0,0,1,6.66,4.42Zm21.78,12.7-1.89,3.26c-4.29-2.21-7.41-6.56-8.4-12.26-.93,5.51-4.23,11-12.27,14.24l-.45-.92c8.61-4.44,10.44-11.26,10.44-16.63v-2.49l2.88-.25c0,1.2,0,2.43-.09,3.67C73,125.14,76.46,128.05,81.23,129.85ZM61.34,119.56c2.19-3.43,3.51-7.72,4.23-13.48l3.27.23a43.9,43.9,0,0,1-1.62,5.75l9.09-.8,1-.78,3,1.45a30.67,30.67,0,0,1-5.13,7.8l-.87-.53a30.76,30.76,0,0,0,2.43-6.63l-10.11.89a21.54,21.54,0,0,1-4.47,6.75Z"/><path class="cls-2" d="M114.17,125.74l-1.08,3.06c-3.21.49-8.16,1-11.79,1.18-6.15.3-7.86-1-9.12-3.19a24.84,24.84,0,0,1-3.66,5.66l-1.83-1.7a23.5,23.5,0,0,0,4.08-4.25v-7l-3.63.31v-1.35l6.21-.54v8.34c2,2,3.48,2,8.1,1.54A124.08,124.08,0,0,0,114.17,125.74ZM87.65,111.38l.57-1a19.82,19.82,0,0,1,5.52,3.12l-1.92,2.3A37.26,37.26,0,0,0,87.65,111.38Zm1.44-6,.54-.91a19.09,19.09,0,0,1,5.52,2.84l-1.89,2.3A39.27,39.27,0,0,0,89.09,105.4ZM93.89,116a37.12,37.12,0,0,0,4.71-12.68l2.79.54a26.38,26.38,0,0,1-1.68,4.77l5.37-.47a35.72,35.72,0,0,0-2.1-4.47l.9-.74a14.51,14.51,0,0,1,3.78,4l-1.59,1.07,6.33-.56v1.35l-5.37.47v3.42l4.83-.42v1.35l-4.83.42v3.57l4.83-.42v1.35L107,119v4l6-.52v1.35l-13.32,1.17v1.62l-2.64.23V113.59a19.53,19.53,0,0,1-2.37,3.09Zm10.56-6.44-4.77.42v3.42l4.77-.42Zm0,4.77-4.77.42v3.57l4.77-.42Zm0,4.92-4.77.42v4l4.77-.42Z"/><path class="cls-2" d="M126.08,112.85l-5.64.49v-1.2l5.64-.49v-1l-4.47.39v-5.4l4.47-.39v-1.17l-5.46.48v-1.26l5.46-.48v-1.71l2.28-.2v1.71l5.43-.48v1.26l-5.43.48V105l4.5-.4V110l-4.5.4v1L134,111v1.2l-5.61.49v2.49l2.37-.21v-1.8l2.25-.2v3l-11.43,1v-3l2.22-.19v1.8l2.31-.2Zm8.73,9,11.37-1v1.29l-11.37,1v2.55c0,2.31-1.86,3.89-7.41,1.82l.27-1c4.38.24,4.62.16,4.62-1.25v-1.86l-11.82,1v-1.29l11.82-1v-1.32l-10,.87v-1.25l10-.88v-1.23c-3.06.45-6.21.79-8.94,1l-.06-1c8-.91,12.36-2.07,16.32-3.56l2.13,1.86c-2,.47-4.38,1-6.93,1.35v1.41l9.15-.8v1.26l-9.15.8Zm-11.1-14.24,2.43-.21v-1.14l-2.43.21Zm2.43,1.95V108.4l-2.43.21v1.17Zm2.16-2.35,2.46-.21v-1.14l-2.46.21Zm0,2.16,2.46-.21V108l-2.46.21Zm4.65-.79c2.43-2,2.49-3.1,2.49-7l7.08-.62v3.42c0,.72.27.79,1.59.67a3.09,3.09,0,0,0,1.68-.63l.78,1.61a4.7,4.7,0,0,1-2.49.94c-3,.27-3.78-.15-3.78-1.92v-2.61l-2.58.23a6.36,6.36,0,0,1-2.67,5.63l6.24-.54.6-.42,2.13.9a13.83,13.83,0,0,1-3.12,4.11,15.14,15.14,0,0,0,5.1.87l-1,2.4a16,16,0,0,1-5.67-2,17.88,17.88,0,0,1-6,2.66l-.24-.91a17.23,17.23,0,0,0,5-2.72,10,10,0,0,1-2.28-3.22l-1.35.12v-.78a8.66,8.66,0,0,1-1,.57Zm8.25.32-4.38.39a8.46,8.46,0,0,0,2.43,2.25A13,13,0,0,0,141.2,108.91Z"/><path class="cls-2" d="M163.49,116.89a6.65,6.65,0,0,0,3.81-5.13,3.34,3.34,0,0,1-1,.24,2.05,2.05,0,0,1-2.4-2.19,2.54,2.54,0,0,1,2.43-2.61c1.83-.16,3,.84,3,3.09a7.69,7.69,0,0,1-5.22,7.39Z"/><path class="cls-2" d="M200.36,111.33l-2.25,2.06c-.93-1.57-2-3.16-2.88-4.37v13.8l-2.7.23V110.24a32.91,32.91,0,0,1-6.06,8.93l-.78-.71a41.07,41.07,0,0,0,6.24-13.14l-5.13.45v-1.35l5.73-.51V99c-1.92.5-3.78.9-5.46,1.17l-.21-1a29.54,29.54,0,0,0,10.53-4.7l2.28,2.14a39.47,39.47,0,0,1-4.44,1.65v5.43l4.86-.43v1.35l-4.86.43v2.13A22.7,22.7,0,0,1,200.36,111.33Zm10.8-14.09v22.92l-2.64.23v-3l-5.19.46v3.45l-2.58.22V98.16Zm-2.64,1.58-5.19.46v17.25l5.19-.46Z"/><path class="cls-2" d="M244.58,110.4c-1.59-.13-3.09-.3-4.53-.56v9l-2.67.23v-1.65l-10,.88V120l-2.64.23v-8.73q-2.61.94-5.22,1.63l-.33-1a43,43,0,0,0,11.67-5.89,19,19,0,0,1-3.6-3.16,26.7,26.7,0,0,1-5.43,4.7l-.63-.84c2.13-1.6,5.52-6.15,6.9-9.63l-4.83.42v4.41l-2.64.23V96.63l12-1c-1.56-1-3.33-1.93-4.74-2.65l.39-1.08a33,33,0,0,1,6.81,1.59l-1.11,2,10.14-.89v5.76l-2.64.23V96.15l-12.54,1.1,2.16.59a16.83,16.83,0,0,1-1.17,1.87l6.72-.58,1.08-.64,2.55,1.34a31.08,31.08,0,0,1-5.61,6.16,42.3,42.3,0,0,0,11.16,1.33Zm-4.77-.6a25.53,25.53,0,0,1-7.08-2.35A33.19,33.19,0,0,1,226.1,111Zm-2.43,1.56-10,.88V117l10-.88Zm-5.1-6.24a23.29,23.29,0,0,0,4.23-4.63l-7.65.67c-.3.38-.6.77-.93,1.13A17.73,17.73,0,0,0,232.28,105.12Z"/><path class="cls-2" d="M276.35,95.65v9.69l-2.76.24V103.9L259,105.18c-.51,6.11-2.25,9.74-5.22,12.88l-.84-.62c2.16-3.4,3.42-6.93,3.42-15.51V92.36l2.79.45c5.64-1,11-2.58,14-4.5l3,2.2a71.9,71.9,0,0,1-17,3.32v3.33Zm-2.76,6.87V97.27l-14.46,1.27v2.4c0,1,0,2-.06,2.85Z"/><path class="cls-2" d="M285.83,98.75l25-2.18v1.94l-25,2.19Z"/><path class="cls-2" d="M344.9,105.55l-1,3.27c-3.78.57-7.35.92-11.13,1.13-6.63.37-9.6-1.68-10.89-5a15.61,15.61,0,0,1-3.06,7.11l-.93-.52c1.5-3,2.22-7,2-13.74l2.58-.16a48,48,0,0,1-.27,5.33,8.75,8.75,0,0,0,2.07,2.85V95.21l-5.73.5V94.39l5.67-.49v-4l-4.95.43V89l4.95-.43V83.88l2.64-.23v4.71l4.35-.38v1.29l-4.35.38v4l5.13-.45v1.32l-5.07.44v4.38l4.53-.4v1.29l-4.53.4v6.54a18,18,0,0,0,5.85.18A88.47,88.47,0,0,0,344.9,105.55ZM332.42,101V85.5l9.69-.85V95.27l-2.52.22V94.05l-4.59.4v5.91c0,1.71.12,1.88,1.56,1.9a14.14,14.14,0,0,0,3.36-.29c1.59-.32,1.86-.64,1.77-4.87l1-.08c1.83,5.81.87,6.64-2.43,7.2a24.88,24.88,0,0,1-4.2.4C333.14,104.63,332.42,104.09,332.42,101ZM335,93.13l4.59-.4V86.16l-4.59.4Z"/><path class="cls-2" d="M374.21,106.92c-2.64-.52-4.5-2.31-5.79-4.9a28.79,28.79,0,0,1-9.36,6l-.48-1a29.15,29.15,0,0,0,8.94-7.21,44.76,44.76,0,0,1-1.8-12.35l-9.36.82v4.26l7.59-.66c-.09,4.62-.18,7.06-.36,8.67-.33,2.85-3.27,3.91-7.35,1.63l.3-1.11c3.93.56,4.35.22,4.41-1.1.06-1.09.15-3,.27-6.44l-4.86.42v.15c0,9.42-2,12.36-4.89,15.19l-.78-.68c2-3.12,2.79-4.84,2.79-14.26V87L365.69,86c-.06-1.82-.09-3.89-.12-5.65l2.73-.24c0,1.73,0,3.83.06,5.66l4.71-.41c-1.14-1.61-2.31-3.13-3.33-4.45l.75-.88a28.08,28.08,0,0,1,4.92,3.62l-1.68,1.65,3.9-.34v1.5l-9.24.81a45.31,45.31,0,0,0,1.23,9.64,34.84,34.84,0,0,0,3.63-8.09l2.73,1a31,31,0,0,1-5.43,10c1,2.37,2.28,3.91,3.93,4.36,1.17.32,1.41-.06,1.38-5.88l1.08-.09C378.44,103.79,378.44,107.72,374.21,106.92Z"/><path class="cls-2" d="M396.74,94.36a53.18,53.18,0,0,1-12,6.62l-1.2-3.22c1.59-.35,3.3-.83,5.1-1.41V84l-4.65.41V83L396.2,82v1.35l-4.71.41V95.39c1.53-.59,3.15-1.27,4.8-2.07Zm12.51-11c-.3,10-.78,15.49-1.2,17.72-.51,2.62-3.78,4.35-8.79,1l.45-1.06c4.41.93,5.34.73,5.64-1.46s.72-7.17.9-14.53l-4.2.36c-.54,8.45-2.61,15.89-10.74,20.53l-.6-.85c6.36-4.81,8.07-11.62,8.46-19.42l-5.46.47V84.72l5.52-.48c.06-2.25.06-4.57,0-6.93l2.94-.26c0,2.34,0,4.68-.09,6.94Z"/><polygon class="cls-1" points="229.6 90 69.6 104 69.6 14 229.6 0 229.6 90"/><path class="cls-2" d="M144.26,72l-2.16,6.36c-7.74-1-17.88-5.39-23-10.34V82.51L113.9,83V69.1c-4.26,4.69-13.5,10.54-23.76,13.6l-.72-2c7-3.07,15.48-7.89,20.76-14.35L91.16,68v-2.7l22.74-2v-4.2l-17,1.49V58.05l17-1.49V52.72L93.56,54.5V51.8l14.22-1.24c-1.44-2.22-3.12-4.71-4.68-6.73l.54-.65-11.58,1v-2.7l9.36-.81a105.88,105.88,0,0,0-5-9.4l1.74-1.48a40.18,40.18,0,0,1,8,8.25l-3.48,2.52,6.3-.55V27.78l5.16-.45V39.57l5.28-.46V26.87l5.16-.46V38.65l2.16-.18a83.09,83.09,0,0,0,4.38-11.55l5.46,2.16a68.11,68.11,0,0,1-6.72,9.11l11.58-1v2.7l-15.24,1.33,3.9,1.58a49,49,0,0,1-5.64,6.31l15.3-1.33v2.69l-20.64,1.81v3.84l17.34-1.52v2.58l-17.34,1.52v4.2l22.86-2v2.7l-21.3,1.86C128.24,70,137.78,71.45,144.26,72Zm-31.2-23.61-2.28,1.94L121,49.4a59,59,0,0,0,3.24-8L106.16,43A36.53,36.53,0,0,1,113.06,48.36Z"/><path class="cls-2" d="M173.24,52.09a34.46,34.46,0,0,0,3-7.46l-3.6.31V71.82c0,4.74-3.66,9.32-13.8,3.91l.6-2.09c6.72.91,8.16.42,8.16-2.46V55.64a47.91,47.91,0,0,1-10.68,14.74l-1.44-1.62A55.54,55.54,0,0,0,167,45.44l-10.68.93v-2.7L169,42.56A67.79,67.79,0,0,0,161.6,33l1.32-1.62a41.41,41.41,0,0,1,6.18,3.9,38,38,0,0,0,5.28-7.6L157.7,29.15v-2.7L174.56,25l1.5-1,5.1,2.86a44.26,44.26,0,0,1-10.26,10c1,.87,2,1.86,3.06,2.91l-3.12,2.73,5.34-.47,1.56-1.21,4.92,2.39c-1.92,4.12-5.22,7.59-7.86,10.1Zm20.64,1.31,12.78-1.11c-.36,8-1,13.76-1.92,17.86-1.08,4.72-6.36,7.1-14.52,1.27l.9-2c7,1.91,8.22,1.32,8.82-1.44a81.54,81.54,0,0,0,1.32-12.47l-7.92.69c-2.4,11.31-8.7,18.4-18.24,22.06l-.9-1.84c8.4-4.82,12.3-10.74,13.86-19.76l-11,1v-2.7l11.46-1c.18-1.7.36-3.51.42-5.44l5.46-.18C194.24,50.07,194.12,51.76,193.88,53.4Zm15.9-10-2.76,6a29.28,29.28,0,0,1-12.78-5.67,48.78,48.78,0,0,1-15.66,9l-.72-2a41.48,41.48,0,0,0,13.62-9.6,29.52,29.52,0,0,1-5.1-8.07,47,47,0,0,1-5.16,6.27l-1.56-1.18a50.79,50.79,0,0,0,7.08-17.84l5.34,1a48.17,48.17,0,0,1-2.28,5.84l18.9-1.65v2.7l-5.16.45a29.81,29.81,0,0,1-6.24,12C200.42,42,204.44,42.88,209.78,43.43Zm-16.14-4.94A25.13,25.13,0,0,0,198,29.16L188.3,30l-.54.95A22.26,22.26,0,0,0,193.64,38.49Z"/></svg>