<svg id="圖層_1" data-name="圖層 1" xmlns="http://www.w3.org/2000/svg" viewBox="0 0 401.52 156.59"><defs><style>.cls-1{fill:#fff;}.cls-2{fill:#002851;}</style></defs><polygon class="cls-1" points="290 90 0 115.37 0 25.37 290 0 290 90"/><path class="cls-2" d="M26.26,78.54a53.18,53.18,0,0,1-2,17.1l-5.46-2a40.88,40.88,0,0,0,5.34-15.1ZM24,70.34a73.64,73.64,0,0,0,7.8-12,98.13,98.13,0,0,1-10.32,3.24l-1.08-5.13c1.2,0,2.4,0,3.6-.07A79.22,79.22,0,0,0,29.5,39.68L34.6,41a83.61,83.61,0,0,1-8.1,15.28c2.22-.19,4.44-.44,6.78-.83,1.14-2.44,2.28-5,3.24-7.66l5,1.72A91.6,91.6,0,0,1,28,69.81c2.58-.4,5.22-.93,7.8-1.46-.6-1.63-1.2-3.19-1.8-4.58l1.62-1a34.63,34.63,0,0,1,6.66,9.37l-4.62,2.51c-.3-1.24-.72-2.64-1.14-4.1a92.38,92.38,0,0,1-15.3,5.54l-1.38-5.4C21.16,70.59,22.6,70.46,24,70.34Zm7,6.89A95.38,95.38,0,0,1,35,91.1l-5.4,1.25c.12-3.79-.24-9.75-.54-14.59Zm5.16-2.07A50.66,50.66,0,0,1,42.52,86.6L37.66,89c-.84-3.89-2.28-9.28-3.36-12.91Zm36.6,11.68L48.64,89v4.86l-5.16.45V58.32a40.12,40.12,0,0,1-4.74,5.45L37.3,62.46c4.32-6.32,7.92-14,10.5-24.56l5.76,1.54A73.47,73.47,0,0,1,48.7,50.12l9.48-.83A98.9,98.9,0,0,0,54.4,38.7l1.74-1.17A37.68,37.68,0,0,1,63.34,47l-4,2.21,12.84-1.12v2.7l-10.32.9v8.4l8.76-.76V62l-8.76.76V72l8.76-.76v2.69l-8.76.77V85.09l10.92-1Zm-16-34.73-8.16.72v8.4l8.16-.72Zm0,11.1-8.16.72v9.18l8.16-.72Zm-8.16,23,8.16-.72V75.09l-8.16.72Z"/><path class="cls-2" d="M85.18,87.55a56.19,56.19,0,0,0,8.4-9.62V64.79l-7.5.66v-2.7l12.66-1.11V77.36c3.3,4.63,10.86,4.39,16.2,3.93A229.75,229.75,0,0,0,140,77.59l-2.16,6.07c-6.42,1-16,1.88-23.22,2.33-10.86.71-15.72-3-18.24-7.46A58.77,58.77,0,0,1,88.84,91Zm1.56-38.84,1.14-2a45.08,45.08,0,0,1,11,6.24l-3.84,4.59A76,76,0,0,0,86.74,48.71ZM88.6,36.49l1.08-1.83a38.47,38.47,0,0,1,11,5.69l-3.78,4.59A90.33,90.33,0,0,0,88.6,36.49Zm28.56,36.74L102.1,74.55v-2.7l15.06-1.32V66.81l-11.7,1V52l11.7-1v-3.6l-13.5,1.18v-2.7l13.5-1.18V40.05l5.16-.45v4.62l13.08-1.14v2.7l-13.08,1.14v3.6l11.82-1V65.33l-11.82,1v3.72l15.6-1.36v2.69l-15.6,1.37v6.3l-5.16.45ZM102.4,36.6l34.26-3v8.16l-5,.44V36.75l-24.18,2.11v5.46l-5,.44Zm14.76,20.85v-4l-6.9.61v4Zm0,6.84V59.85l-6.9.61V64.9Zm12.18-7.9v-4l-7,.61v4Zm0,6.84V58.79l-7,.61v4.44Z"/><path class="cls-2" d="M152.14,48.33l-1.44-1.55A51.22,51.22,0,0,0,160.3,28l5.7,1.3c-.72,1.62-1.44,3.13-2.16,4.51l15.48-1.36v2.7l-10.74.94a31.26,31.26,0,0,1,4.5,7L168,45.39a57.63,57.63,0,0,0-2.28-9l-3.54.31A45.55,45.55,0,0,1,152.14,48.33ZM204.28,33l-11.82,1a27.13,27.13,0,0,1,4.92,6.41L192.46,43a65.28,65.28,0,0,0-3-8.67l-5,.43a31.93,31.93,0,0,1-4.86,5.77,23.17,23.17,0,0,1,4.08,2.94L181.3,46,203,44.07V54.51L197.8,55V47.22l-39.24,3.43v7.74l-5.16.45V48.4l25.44-2.22c-1.68-2.14-3.78-4.35-5.4-6.13l1.2-1.91,3,1.3a42.61,42.61,0,0,0,5.46-13l5.46,1.21c-.78,1.5-1.5,2.95-2.28,4.22l18-1.58Zm-37,35.4,30.3-2.65V80.72l-5.28.46V77.7l-25,2.19v3.78l-5.28.46V54.37l31.44-2.75V62.06l-26.16,2.29Zm0-6.78,21-1.84v-5l-21,1.84Zm0,9.48v6.06l25-2.19V68.94Z"/><path class="cls-2" d="M239,58.14a99.6,99.6,0,0,1-19.62,13.29l-2.46-5.12c2.64-1,5.52-2.11,8.46-3.38V46.37l-6.66.58v-2.7l6.66-.58V30.35L218,31v-2.7l19.68-1.72v2.7l-7,.61V43.2l6.36-.56v2.7l-6.36.55V60.35c2.46-1.23,4.86-2.58,7-3.91Zm32.22,11.34v2.76L234,75.48V72.72l16.56-1.44V61.62l-11.64,1v-2.7l11.64-1v-8.7l-6.42.56V54.5L239,55V24.36l29.28-2.56V52.15l-5.22.46V49.13l-6.78.59v8.7l11.76-1v2.7l-11.76,1v9.66ZM250.6,26l-6.48.56v9.3l6.48-.56Zm0,11.88-6.48.56v9.6l6.48-.56Zm5.64-3.08,6.78-.59V25l-6.78.59Zm0,12.18,6.78-.59v-9.6l-6.78.59Z"/><polygon class="cls-1" points="401.52 126.84 61.52 156.59 61.52 96.59 401.52 66.84 401.52 126.84"/><path class="cls-2" d="M90.71,131a21.43,21.43,0,0,1-6.34,7.31l-.64-.85A21.37,21.37,0,0,0,89,129.57c-.7-.51-1.4-1-2.1-1.43-.18.73-.4,1.41-.58,2l-2.43-.33A92.74,92.74,0,0,0,86.72,118l-2.71.24V116.9l3-.26c.43-2.5.79-4.78,1-6.48l2.55.11c-.18,1.43-.52,3.64-1,6.15l4.75-.42a44,44,0,0,1-2.59,12.89,20.7,20.7,0,0,1,2.8,2l-1.7,2C92.08,132.18,91.38,131.52,90.71,131Zm-1.07-3.14a43.9,43.9,0,0,0,1.8-10.21l-2.2.19c-.57,3-1.27,6.23-2,9C88,127.08,88.79,127.4,89.64,127.81Zm21.89,4-1.62,2.72a17.93,17.93,0,0,1-6.69-6.49v8.58l-2.62.23v-8a25.69,25.69,0,0,1-9,7.47l-.52-.91a28.19,28.19,0,0,0,8.46-8.69l-6.11.53v-1.35l7.15-.62V123l-4.35.38v-8.61l-2.74.24v-1.35l2.74-.24v-3.81l2.55-.22v3.8l6.3-.55v-3.81l2.56-.22v3.81l2.74-.24v1.35l-2.74.24v8.61l-4.44.39V125l7.52-.66v1.35l-7,.61A23.16,23.16,0,0,0,111.53,131.77ZM98.8,117.34l6.3-.55V114l-6.3.55Zm6.3,4v-3.21l-6.3.55v3.21Z"/><path class="cls-2" d="M127.66,120.67V132.1c0,2.52-2.19,3.46-5.11,1.68l.24-1c2.53.32,2.59-.13,2.59-1.24V128l-4.11.36v6.87l-2.31.2v-14l-1.4.12v-4.86l1.67-.14v-7.89l8.34-.73v7.89l1.55-.14v4.86Zm-7.85-2.82v2l7.12-.63v-2Zm5.57,2.81-4.11.36v2.4l4.11-.36Zm0,6.18v-2.58l-4.11.36v2.58Zm-4-10.48,1.19-.11v-4.38l2.77-.24v-2.16l-4,.35Zm2.83-3.43v3.18l1.13-.1v-3.18Zm20,17.87v1.34l-15.73,1.38v-1.35l4.62-.4a32.88,32.88,0,0,0-1.64-3.67l.82-.64a14,14,0,0,1,3.17,3.44l-1.22.77,3.56-.31a20.13,20.13,0,0,0,1.49-4.48l2.47.8a29.28,29.28,0,0,1-2.5,3.55Zm-.42-11.28-14.34,1.26v-1.35l14.34-1.26Zm-.76-2.84L130,117.83v-8.4l3.8-.33v-2.82l1.89-.17v2.82l1.61-.14V106l1.89-.16v2.82l4-.35Zm-12.67,10.53v-4.95l12.15-1.07v5Zm1.77-16.69v2.13l1.55-.13v-2.13Zm0,5.82,1.55-.13v-2.43l-1.55.13Zm.73,9.39,7.09-.62v-2.43l-7.09.62Zm2.71-15.51v2.13l1.61-.14v-2.13Zm0,3.39V116l1.61-.14v-2.43Zm3.5-3.69v2.13l1.64-.15v-2.13Zm1.64,5.67v-2.43l-1.64.15v2.43Z"/><path class="cls-2" d="M158,124.71l5-.44v1.35l-5,.44v5.64l-2.55.22v-5.64l-4.81.42v-1.35l4.81-.42v-2.88l-4.05.35v-9.92l4.05-.36v-2.31l-4.54.4v-1.35l4.54-.4V104l2.55-.22v4.47l4.51-.4v1.35l-4.51.4v2.31l4.05-.36v9.93l-4.05.36Zm-2.46-11.25-1.77.16v2.79l1.77-.16Zm0,4.05-1.77.16v3.18l1.77-.16Zm2.34-1.46,1.8-.16V113.1l-1.8.16Zm1.8,4.28v-3.18l-1.8.16v3.18ZM174,121.59l3.65-.32v1.35l-3.65.32v5c0,2.91-2.65,3.86-6.58,2.11l.31-1.08c3.41.3,3.71,0,3.71-1.46v-4.29l-9,.79v-1.35l9-.79v-2l2.56-.23Zm-5.67-3v-2l-4.9.43v-7.65l4.9-.43v-1.59l-5.66.49V106.5l5.66-.49V103.1l2.62-.23v2.91l6.58-.58v1.36l-6.58.57v1.59l5.12-.45v7.65l-2.19.19a16.63,16.63,0,0,1,3.92,2.3l-1.43,1.72a20.63,20.63,0,0,0-1.55-1.58A101.71,101.71,0,0,1,163,121.14l-.4-2C164.25,119,166.29,118.82,168.36,118.55Zm.31,8.07-1.71,1.8c-1-1.2-2-2.28-3.1-3.51l.67-.87A19.24,19.24,0,0,1,168.67,126.62Zm-2.89-14.38,2.58-.23V110.3l-2.58.23Zm2.58,3v-2l-2.58.23v2Zm2.62-3.47,2.8-.25v-1.71l-2.8.25Zm0,3.24,2.8-.24v-2l-2.8.25Zm0,3.15c1-.18,2-.32,2.9-.49l-1.28-1.06.24-.41-1.86.16Z"/><path class="cls-2" d="M211.32,124.84v1.44l-26.85,2.35v-1.44l12.05-1.06v-4.41l-8.88.78v-1.35l8.88-.78v-2l-2.06.19v-7.8L192,111c-.24,5.42-2.89,8-6.61,10l-.58-.88c2.5-1.84,4.39-4.25,4.57-8.92l-4,.35v-1.35l4-.35V104.5l-3.26.29v-1.35l14.07-1.23v1.35l-3.11.27v5.34l4.11-.36v1.35l-4.11.36v6.54l2.19-.19v3.26l8.74-.76v1.35l-8.74.77v4.4ZM194.46,109.4v-5.34l-2.47.21v5.34Zm9.86,3.75-2.44.22V101.7l2.44-.22ZM203,115.4c3.53.17,4.23,0,4.23-1.66V99.94l2.62-.23V114.2c0,3.18-3.23,3.86-7.13,2.28Z"/><path class="cls-2" d="M224.23,104.06l5.51-.48v21.06l-2.68.23v-2.73l-5.24.46v3.3l-2.68.24V104.51l3.63-.32a61.25,61.25,0,0,0,.94-6.11l3.29.4A39.65,39.65,0,0,1,224.23,104.06Zm2.83,1.1-5.24.46v6.63l5.24-.46Zm0,15.63v-7.65l-5.24.46v7.65Zm17.08-18.41a171.66,171.66,0,0,1-.73,18.36c-.46,3.94-3.75,5.52-9.9,2.43l.34-1.08c5.81.78,6.51.21,6.79-2.24.33-3,.57-6.9.67-15.87l-6.52.57a31.44,31.44,0,0,1-4,7.34l-.88-.58a45.9,45.9,0,0,0,3.74-14l3.2.35a39.75,39.75,0,0,1-1.52,5.5Zm-7.83,14.36a48.22,48.22,0,0,0-3.47-7.43l.89-.77a24.4,24.4,0,0,1,5.35,6.43Z"/><path class="cls-2" d="M266.3,116.7a66.7,66.7,0,0,1-14.22,5.65l-.85-2.89a55.4,55.4,0,0,0,5.76-1.07v-5.07l-5.18.45v-1.35L257,112v-3.78l2.74-.24v3.78l5.54-.49v1.35l-5.54.49v4.62c2.49-.64,4.74-1.38,6.27-1.93Zm12.76,1.55-2,3.24a13.54,13.54,0,0,1-6.27-4.73,24.45,24.45,0,0,1-9.68,6.39l-.46-.88c4.38-2.22,7.18-4.59,9-7.36a22.08,22.08,0,0,1-2.1-9.21,19,19,0,0,1-2.89,4.36l-.83-.55a19,19,0,0,0,1.44-3L263,107.78a15.88,15.88,0,0,0-.85-2.65,59.39,59.39,0,0,1-9.71,3.61l-.73-2.94c.79-.07,1.58-.14,2.4-.27a26.27,26.27,0,0,0,2.32-6.71l-4.72.41V97.88l14.18-1.24V98l-6.27.55a27.48,27.48,0,0,1-4,6.77c2-.32,4.15-.78,6.15-1.25-.36-.84-.73-1.62-1.06-2.25l.82-.58a16.57,16.57,0,0,1,4,4.9,40.86,40.86,0,0,0,2-11.63l3,.15a36.76,36.76,0,0,1-1.06,6l8.82-.77v1.35l-2.49.22c-.16,4.24-.64,9-3.32,13.19A15.28,15.28,0,0,0,279.06,118.25Zm-8.19-5.55c1.37-3.12,1.82-6.7,2-11L269,102c-.12.37-.24.77-.4,1.14C268.8,107.15,269.38,110.25,270.87,112.7Z"/><path class="cls-2" d="M295.86,109.07l4-.35c.09-1.06.18-2.2.21-3.47l2.68-.23a31.17,31.17,0,0,1-.24,3.47l6.33-.55c-.15,3.52-.3,6.71-.61,8.6-.39,2.34-3.17,3.73-7.24,1.35l.36-1c3.38.46,4.17.18,4.45-1.23a48.51,48.51,0,0,0,.39-6.09l-3.9.34a13.77,13.77,0,0,1-7.85,10.44l-.55-.86c3.69-2.72,5.18-5.34,5.79-9.35l-3.87.34v-1.32c-.49.34-1,.68-1.49,1l-.37-.57V117c0,2.64-2.77,3.87-6.18,2l.37-1c2.86.29,3.32.1,3.32-1.4V109l-2.53.22c-.33,5.67-1.49,9.43-3.53,11.83l-.88-.56c1.21-2.47,2-5,2-15.71V94.38l7.42-.65v15.33a17.23,17.23,0,0,0,4.91-5.86l-4.21.37v-1.35l4.81-.42a18.36,18.36,0,0,0,.77-2.44l-4.72.41V98.42l5-.43a44.41,44.41,0,0,0,.58-6.56l2.86-.25a35.41,35.41,0,0,1-.79,6.58l7.76-.68v1.35l-8.13.71a20.08,20.08,0,0,1-.88,2.44l9.5-.83v1.35l-5.79.51a12.14,12.14,0,0,0,6.79,3.28l-1.28,2.75a12.74,12.74,0,0,1-6.82-5.92l-3.07.27A18.14,18.14,0,0,1,295.86,109.07Zm-4.38-1.47v-5.88l-2.44.21v3.54c0,.81,0,1.59,0,2.34Zm-2.44-7,2.44-.21V95.3l-2.44.21ZM297.47,98c-.51-1.51-1.33-3.39-2-4.8l.91-.65a17.48,17.48,0,0,1,3.29,4.18Zm8.56-.62-.91-.41a39.63,39.63,0,0,0,2-5.27l2.53.86A24.54,24.54,0,0,1,306,97.33Z"/><path class="cls-2" d="M329.87,102.8a10.53,10.53,0,0,1,2.19,3.08l-1.71.84c-.12-.5-.27-1-.42-1.44a42.35,42.35,0,0,1-6.58,2.11l-.58-1.93,1.71-.15c.79-.76,1.67-1.68,2.46-2.59a26.75,26.75,0,0,1-3.5,1.09L323,102c.42,0,.82,0,1.18,0a20.91,20.91,0,0,0,2.07-3.9l-3.89.34v19.17l-2.62.23V91.18l10.87-1v7.41l-4.14.36,1.95.79a25.89,25.89,0,0,1-3.08,3c.82-.07,1.64-.21,2.71-.36a16.17,16.17,0,0,0,1.25-1.73l2,.91a33.83,33.83,0,0,1-5.27,4.45c1.22-.17,2.44-.37,3.62-.59a13,13,0,0,0-.48-1.22ZM322.32,94l5.69-.5V91.8l-5.69.5Zm0,3,5.69-.5V94.8l-5.69.5Zm6.57,10.1,2.19-.19v3.6c0,4.32-3.95,5.81-7,6.52l-.33-1c2.19-.82,4-1.67,4.75-3.71l-4.2.36V107.9l2.19-.19v3.6l2.31-.2c0-.36.06-.73.06-1.15Zm14.95-18.07v24.15c0,2.43-2.59,3.64-6.94,1.38l.3-1.07c3.56.5,4,.31,4-1.28V96.74l-5.87.51,2,.76a30.33,30.33,0,0,1-2.95,3.11c.76-.07,1.52-.14,2.5-.28.48-.74.85-1.37,1.06-1.78l2,1a27.07,27.07,0,0,1-4.59,4.21c1.09-.16,2.13-.34,3.19-.52a7.21,7.21,0,0,0-.52-1.18l.7-.52a11.21,11.21,0,0,1,2.35,3.16l-1.8.88-.45-1.55a36.11,36.11,0,0,1-6.15,1.82l-.52-1.78c.61,0,1.19-.07,1.73-.12A22.64,22.64,0,0,0,336,102a32,32,0,0,1-3.51,1.09l-.51-1.88c.45,0,.85,0,1.21,0a17.4,17.4,0,0,0,2-3.93l-2.07.18V90Zm-4.2,22.32-4.63.41V116l-2.25.2v-9.36l2.25-.2v3.93l2.44-.21V106.7l2.19-.2Zm1.58-20.74-5.54.48v1.74l5.54-.48Zm0,3-5.54.48V95.9l5.54-.48Z"/><path class="cls-2" d="M361.92,108.57a49.4,49.4,0,0,1-9.74,5l-.85-2.69c1.16-.22,2.68-.59,4.23-1v-8.73l-3.68.32v-1.35l3.68-.32V96.32l-2.37.21v-.12c-.37.39-.77.76-1.16,1.12l-.67-.75c1.8-2.08,3.62-6,4.72-10l2.68.57c-.19.44-.37.87-.52,1.28a16.72,16.72,0,0,1,4,3.7l-1.89,1.57a41.26,41.26,0,0,0-2.65-4.15,24.87,24.87,0,0,1-3.32,5.36l6.21-.54v1.35l-2.61.23v3.42l3.34-.3v1.36l-3.34.29v8.22c1.4-.45,2.67-.93,3.62-1.34ZM355,108.1l-2.28.53a51.52,51.52,0,0,0-.55-6l1-.3A20.53,20.53,0,0,1,355,108.1Zm24.32,1-.76,2.65a33.42,33.42,0,0,1-4.53.58c-3.59.16-7.25-.24-9.65-3.15A18.89,18.89,0,0,1,358.6,115l-.63-.81a17.84,17.84,0,0,0,5.26-6.79,16.56,16.56,0,0,1-1.49-6.29l1.1-.13a16.72,16.72,0,0,0,1.12,4.47,29.34,29.34,0,0,0,1.16-7.13l-1.58.14c-.06.22-.16.41-.22.59l-2.25-.25a64.45,64.45,0,0,0,2.5-8.56l-2.62.23V89.1l5.42-.47c-.76,3.09-1.65,6.2-2.35,8.42l1-.08.45-.46,2.13.44a30.5,30.5,0,0,1-2.34,10.58c2.1,2.52,5.21,2.61,8.19,2.38A54.31,54.31,0,0,0,379.3,109.09Zm-19.87-7.38,2.1.42a21.69,21.69,0,0,1-2.2,5.56l-.88-.19A39.38,39.38,0,0,0,359.43,101.71Zm11.05-11.43-3,.26V89.19l3-.26v-3.3l2.43-.22v3.3l4-.35v3.78l1.86-.16v1.35l-1.86.16v4.08l-4,.35v2.34l4.26-.37v1.35l-4.26.37V104l5.36-.47v1.35l-5.36.47v3.81l-2.43.22v-3.81l-3.87.33V104.5l3.87-.33v-2.34l-3,.26v-1.35l3-.26V98.14l-2.5.21V97l2.5-.21V94.06l-4.2.36V93.07l4.2-.36Zm2.43,2.21,1.74-.15V89.91l-1.74.15Zm0,4.08,1.74-.15V93.69l-1.74.15Z"/></svg>