<svg id="圖層_1" data-name="圖層 1" xmlns="http://www.w3.org/2000/svg" viewBox="0 0 360.93 158.83"><defs><style>.cls-1{fill:#fff;}.cls-2{fill:#002851;}</style></defs><polygon class="cls-1" points="360.93 129.96 30.93 158.83 30.93 98.83 360.93 69.95 360.93 129.96"/><path class="cls-2" d="M74.31,112.73v22.8c0,3.15-2.64,4.58-8,2.38l.24-1.11c4.32.38,5,.14,5-1.73v-6.72l-6.66.59v9.87l-2.64.23v-9.87l-6.6.58c-.45,6.81-2,9.11-4.14,11.31l-.81-.62c2.43-3.84,2.4-6.87,2.4-15V114.58Zm-12,9.21-6.45.56V125c0,1.23,0,2.38-.06,3.4l6.51-.57Zm0-6.81-6.45.56v5.46l6.45-.56Zm9.27-.81L65,114.9v5.46l6.63-.58Zm0,6.81-6.63.58v5.88l6.63-.58Z"/><path class="cls-2" d="M110.07,133.15,108.15,136a15,15,0,0,1-4.77-5.25,20.74,20.74,0,0,1-5.52,6l-.72-.72a22.77,22.77,0,0,0,5.19-7.41,28.89,28.89,0,0,1-2-9.21,32.65,32.65,0,0,1-2.07,3.69l-.69-.39v2.4l-7.44.65,1.68.42c-.18.44-.45,1-.78,1.66l8.28-.72v1.35l-2.79.24a9.32,9.32,0,0,1-2,4.44,21.86,21.86,0,0,1,3.09,1.14l-1.32,2.3a35.08,35.08,0,0,0-3.45-1.83,18.18,18.18,0,0,1-8.85,3.36l-.21-1a15.58,15.58,0,0,0,7.17-3.18c-.87-.34-1.74-.66-2.64-.94-.42.76-.81,1.42-1.11,1.9l-2.07-.93c.48-.73,1.53-2.6,2.52-4.48l-4.08.35v-1.34l4.8-.42c.42-.85.81-1.67,1.05-2.26l-4.5.4v-4.74l5-.44v-1.56l-4.44.38v-3l-2.4.21v-1.36l2.4-.21v-3l4.44-.38v-2.28l2.58-.23v2.28l4.53-.4v3l2.22-.19v1.35l-2.22.19v3l-4.53.4v1.56l5-.44v1.74a47.88,47.88,0,0,0,3-13.5l2.88.14a33.28,33.28,0,0,1-1.44,6.34l7-.62v1.35L107,116a34,34,0,0,1-2.34,12.3A15.32,15.32,0,0,0,110.07,133.15Zm-22.68-8.54,2.52-.22v-2l-2.52.22Zm.54-9.38,2-.17v-1.65l-2,.17Zm2,2.86v-1.68l-2,.17v1.68Zm.39,11.12c-.45.85-.93,1.76-1.38,2.58,1,.18,2.19.41,3.3.67a8.63,8.63,0,0,0,1.62-3.56Zm2.19-14.38,2.07-.18V113l-2.07.18Zm0,3,2.07-.18V116l-2.07.18Zm2.52,4-2.52.22v2l2.52-.22Zm8.28,3.87a40.15,40.15,0,0,0,1.17-9.59l-3,.26-.18.53A30,30,0,0,0,103.29,125.77Z"/><path class="cls-2" d="M122.13,122.23v9.9c0,2.46-2.82,3.63-6.27,1.39l.24-1.05c3,.49,3.51.18,3.51-1.11V124c-.84.55-1.68,1-2.52,1.51L116,122.74a33.32,33.32,0,0,0,3.66-1.34v-6.09l-3.48.3v-1.35l3.48-.3v-6.72l2.52-.22v6.72l2.79-.25v1.35l-2.79.25v5.16c.81-.37,1.59-.8,2.43-1.24l.48.92C124.08,120.74,123.12,121.51,122.13,122.23ZM128,118.6c0,7.73-1.92,12-4.47,15.27l-.81-.62c1.86-3.23,2.76-6.78,2.76-14.22V111.2l2.4.39,3.69-.33v-5.13l2.58-.22v2.28l6-.53V109l-6,.53V111l5.79-.51.63-.5,2.31,1.14a16.73,16.73,0,0,1-3,3.51l-.87-.5a15.17,15.17,0,0,0,.9-2.32l-6.57.57V114c1.74-.33,3.45-.66,5.16-1l.15,1.13c-1.71.39-3.51.72-5.31,1.06v.24c0,.93.39,1.29,2.43,1,2.37-.27,3.06-.6,3.87-1.27l1,1.65c-.9.8-1.89,1.19-5,1.43-3.81.3-4.62-.05-4.62-2.33v-.33l-3,.54Zm14.94,10.18-1.8,2.44a15.54,15.54,0,0,1-4-6.62c-.33.18-.69.33-1,.48a11.19,11.19,0,0,1,.87,3.53c.18,2.92-1,4.64-2.88,4.81a6.62,6.62,0,0,1-4.23-1.4l.36-1a13.8,13.8,0,0,0,2.85.35c1.2-.11,1.62-.93,1.56-2.66,0-.27,0-.51,0-.78a33.7,33.7,0,0,1-8.25,4.35l-.36-.89a28.79,28.79,0,0,0,8.25-5.74c-.06-.29-.12-.59-.21-.88a29,29,0,0,1-6.48,3.75l-.39-.87a23.17,23.17,0,0,0,6.21-4.65l-.27-.58a29.93,29.93,0,0,1-5,2.78l-.33-.93a19,19,0,0,0,4.77-3.47l-4.11.36v-1.26l13.23-1.16V120l-6.12.53a12.16,12.16,0,0,1-1.47,1.21,14,14,0,0,1,1.65,2.5,18.91,18.91,0,0,0,3.42-3.39l2,1.42a19.65,19.65,0,0,1-3.06,1.92A11.84,11.84,0,0,0,142.92,128.78ZM131,112.63l-3,.27v2c1-.15,2-.33,3-.51Z"/><path class="cls-2" d="M151.23,122.53a23.74,23.74,0,0,1-.24,6.56l-2.34-.54a19.82,19.82,0,0,0,1.68-6Zm5.61-4.12,4-.35c-.36,7.62-.45,9-.81,10.84-.57,2.93-3.36,3.41-6.66,1.21l.42-1c3.27.65,3.84.18,4.11-1.53a27.06,27.06,0,0,0,.27-2.75l-1,.66c-.45-1.46-1-2.79-1.62-4.3l.81-.43a20.41,20.41,0,0,1,1.89,2.77c.06-1,.09-2.25.15-3.91l-5.85.51v1.23l-2.4.21v-16l10-.88V106l-3.39.3v3.09l3.09-.27v1.35l-3.09.27v3.12l3.09-.27v1.32l-3.09.27Zm-4.74,9.65c0-1.86,0-3.68-.15-5.56l.84-.23a41.73,41.73,0,0,1,1.29,5.26Zm.48-18.31,2-.17v-3.09l-2,.17Zm0,4.47,2-.17v-3.12l-2,.17Zm0,4.56,2-.17v-3.24l-2,.17Zm2.1,8.07c-.21-1.57-.57-3.25-.93-5l.84-.31a36.58,36.58,0,0,1,1.92,4.48Zm21.48.49a7.31,7.31,0,0,1-3.93,1.72,48.21,48.21,0,0,1-6.6.64c-4.14.09-4.32-1.12-4.32-4.15V106.11l-.66.06v-1.35l14.7-1.29v1.35l-11.58,1v19.37c0,1.65.15,2.12,2.46,2.1a32.76,32.76,0,0,0,5.34-.5,6,6,0,0,0,3.39-1.41Zm-11.88-11,4.89-.43v8.82l-4.89.43Zm9.48-3.11-8.28.72v-6.2l8.28-.73Zm-7.56,10.41,1.11-.1V117.4l-1.11.1Zm5.28-15.07-3.78.33v3.51l3.78-.33Zm3.45,15.66-4.92.43v-8.82l4.92-.43Zm-1.92-7.3-1.14.1v6.11L173,123Z"/><path class="cls-2" d="M207.45,106.42c-.21,9.47-.66,15.39-1,17.73s-3,3.83-7.32,1.33l.39-1.06c3.63.5,4.17.24,4.38-1.52.27-2.12.72-8.28.78-14.89l-2.58.23c-.27,10-1.68,15.78-7.35,20.2l-.69-.78a15.85,15.85,0,0,0,2.7-3.89,66.26,66.26,0,0,1-14,4.67l-.66-2.7c2.16-.31,4.32-.65,6.42-1.07v-2.55l-6,.52v-1.35l6-.52v-2.25l-5.16.45v-9l5.16-.45v-2l-6.48.57v-1.35l6.48-.57v-1.92c-2,.38-3.93.64-5.88.84l-.12-1.07a51.72,51.72,0,0,0,12.21-3.91l1.89,2a45.39,45.39,0,0,1-5.46,1.59V106l6.24-.55v1.35l-6.24.55v2l5.19-.46v9l-5.19.46v2.25l5.49-.48v1.35l-5.49.48v2.22c1.89-.41,3.69-.9,5.34-1.4l.3,1c1.8-3.72,2.43-8.46,2.61-15.22l-2.58.22v-1.35l2.61-.23c0-2.13,0-4.5,0-7.05l2.7-.23c0,2.55,0,4.88,0,7Zm-21.57,7.11,2.64-.23v-2.4l-2.64.23Zm2.64,3.64v-2.52l-2.64.23v2.52Zm2.64-6.5v2.4l2.73-.24v-2.4Zm2.73,3.51-2.73.24v2.52l2.73-.24Z"/><path class="cls-2" d="M226.5,111.39a10.44,10.44,0,0,1,2.16,3.08l-1.68.83c-.12-.5-.27-1-.42-1.43a42.11,42.11,0,0,1-6.48,2.1l-.57-1.93,1.68-.15c.78-.76,1.65-1.67,2.43-2.58a27.78,27.78,0,0,1-3.45,1.08l-.48-1.85c.42,0,.81,0,1.17,0a21.43,21.43,0,0,0,2-3.9l-3.84.34v19.17l-2.58.22V99.75l10.71-.93v7.41l-4.08.35,1.92.79a24.78,24.78,0,0,1-3,3c.81-.07,1.62-.2,2.67-.35a15.44,15.44,0,0,0,1.23-1.73l2,.91a33,33,0,0,1-5.19,4.44c1.2-.17,2.4-.36,3.57-.58a13,13,0,0,0-.48-1.22Zm-7.44-8.77,5.61-.49v-1.74l-5.61.49Zm0,3,5.61-.49v-1.74l-5.61.49Zm6.48,10.11,2.16-.19v3.6c0,4.32-3.9,5.8-6.87,6.51l-.33-1c2.16-.82,3.93-1.66,4.68-3.71l-4.14.36v-4.83l2.16-.19v3.6l2.28-.19c0-.37.06-.73.06-1.15Zm14.73-18.06v24.15c0,2.43-2.55,3.64-6.84,1.38l.3-1.08c3.51.51,4,.32,4-1.27V105.34l-5.79.5,1.95.76a29.87,29.87,0,0,1-2.91,3.11c.75-.07,1.5-.13,2.46-.28a20,20,0,0,0,1-1.77l2,1a26.22,26.22,0,0,1-4.53,4.2c1.08-.15,2.1-.33,3.15-.51a8.86,8.86,0,0,0-.51-1.19l.69-.51a11.24,11.24,0,0,1,2.31,3.16l-1.77.87-.45-1.55a34.17,34.17,0,0,1-6.06,1.82l-.51-1.78c.6,0,1.17-.07,1.71-.12a22.37,22.37,0,0,0,2.1-2.46,33.2,33.2,0,0,1-3.45,1.08l-.51-1.88c.45,0,.84,0,1.2,0a18.15,18.15,0,0,0,1.95-3.92l-2,.18V98.6ZM236.13,120l-4.56.4v4.2l-2.22.2v-9.36l2.22-.2v3.93L234,119v-3.66l2.16-.19Zm1.56-20.74-5.46.47v1.75l5.46-.48Zm0,3-5.46.47v1.78l5.46-.48Z"/><path class="cls-2" d="M258.09,117.2a48.55,48.55,0,0,1-9.6,5l-.84-2.68c1.14-.22,2.64-.6,4.17-1v-8.73l-3.63.32v-1.35l3.63-.32v-3.42l-2.34.21V105c-.36.39-.75.75-1.14,1.12l-.66-.76c1.77-2.07,3.57-6,4.65-10l2.64.58c-.18.43-.36.87-.51,1.27a16.44,16.44,0,0,1,4,3.7l-1.86,1.58A40.27,40.27,0,0,0,254,98.33a25.19,25.19,0,0,1-3.27,5.36l6.12-.53v1.35l-2.58.22v3.42l3.3-.29v1.35l-3.3.29v8.22c1.38-.45,2.64-.92,3.57-1.33Zm-6.84-.48-2.25.53a51.84,51.84,0,0,0-.54-6l1-.29A21.11,21.11,0,0,1,251.25,116.72Zm24,1-.75,2.65A34.15,34.15,0,0,1,270,121c-3.54.16-7.14-.25-9.51-3.16a18.86,18.86,0,0,1-5.67,5.81l-.63-.82a17.74,17.74,0,0,0,5.19-6.78,16.78,16.78,0,0,1-1.47-6.29l1.08-.13a17.13,17.13,0,0,0,1.11,4.47,29.89,29.89,0,0,0,1.14-7.12l-1.56.13c-.06.22-.15.41-.21.59l-2.22-.25a66.19,66.19,0,0,0,2.46-8.56l-2.58.23V97.73l5.34-.47c-.75,3.09-1.62,6.2-2.31,8.42l1-.08.45-.46,2.1.44a31.07,31.07,0,0,1-2.31,10.59c2.07,2.51,5.13,2.61,8.07,2.38A53.52,53.52,0,0,0,275.22,117.74Zm-19.59-7.4,2.07.42a21.87,21.87,0,0,1-2.16,5.56l-.87-.2A39.32,39.32,0,0,0,255.63,110.34Zm10.89-11.42-3,.26V97.82l3-.26v-3.3l2.4-.2v3.29l4-.34v3.78l1.83-.16V102l-1.83.16v4.08l-4,.34v2.34l4.2-.36v1.35l-4.2.36v2.34l5.28-.46v1.35l-5.28.46v3.81l-2.4.21v-3.81l-3.81.34v-1.35l3.81-.34v-2.34l-2.94.26v-1.35l2.94-.26v-2.34l-2.46.22v-1.35l2.46-.21v-2.74l-4.14.37v-1.35l4.14-.36Zm2.4,2.22,1.71-.15V98.56l-1.71.15Zm0,4.08,1.71-.15v-2.73l-1.71.14Z"/><path class="cls-2" d="M285.57,105.17c-1.26-1.54-3.24-3.77-4.44-5l.6-1a32.42,32.42,0,0,1,5.88,3.54Zm1.71,1.17a104.24,104.24,0,0,1-2.79,13l-3.06-1.14a111.33,111.33,0,0,0,4.83-12Zm0-8.16c-1.32-1.38-3.48-3.44-4.71-4.57l.57-1a28.32,28.32,0,0,1,6,3ZM308,115.44l-1.89,3.5c-3.48-1.5-7.14-5.2-8.46-12l-.33,0c-1.32,7.25-5.22,11.26-10.8,13.78l-.45-.95c4.08-2.78,7.23-5.94,8.4-12.58l-6.3.55v-1.35l6.48-.57a35.87,35.87,0,0,0,.3-5V98.59l-5.52.48V97.72l5.52-.48V91.66l2.88-.26V97l7-.6v8.55l2.34-.21v1.35l-8.34.73C300.9,112.32,303.87,114.13,308,115.44Zm-10.47-9.88,4.5-.39V98l-4.2.36v2.56A32.45,32.45,0,0,1,297.54,105.56Z"/><path class="cls-2" d="M341.07,111.44l-1.44,3.19c-3.3-1-8.22-3.75-10.89-8.41v10.71l-2.64.23v-9.09a31.54,31.54,0,0,1-11.88,8.75l-.48-1a30.25,30.25,0,0,0,12.36-11.43v-1.26l-5.91.52v6.57l-2.58.23v-7.92l8.49-.75V99.7l-11.31,1V99.34l11.31-1V95.89l1.41-.12-.39-.33a23.28,23.28,0,0,0,2.43-7l2.79.6a24.72,24.72,0,0,1-1.2,2.65l9.45-.82v1.34l-5.91.52a17.48,17.48,0,0,1,2.25,3l-2.31,1.13c-.45-1.46-.9-2.71-1.41-4l-2.88.25a14.07,14.07,0,0,1-2.13,2.65l.54,0v2.46l11.43-1v1.35l-11.43,1v2.1l9.21-.8v4.38c0,2.48-2.55,3.79-6.39,2l.3-1.07c3.06.21,3.51,0,3.51-1.39v-2.31l-6.63.58v1.41C331.86,108.92,337.62,111,341.07,111.44ZM314.91,98.7l-.69-.66a23.42,23.42,0,0,0,4.38-8.6l3,.57a23.76,23.76,0,0,1-1.41,2.65l7.53-.66v1.35l-5.07.44a18.73,18.73,0,0,1,2.22,2.93l-2.37,1.16a40.81,40.81,0,0,0-1.32-4l-1.95.17A21.87,21.87,0,0,1,314.91,98.7Z"/><polygon class="cls-1" points="290 90 0 115.37 0 25.37 290 0 290 90"/><path class="cls-2" d="M73.18,86.74l-3.84,5.67a30,30,0,0,1-9.54-10.5,41.35,41.35,0,0,1-11,11.94l-1.44-1.43A45.58,45.58,0,0,0,57.7,77.59a57.72,57.72,0,0,1-4.08-18.42,63.59,63.59,0,0,1-4.14,7.38l-1.38-.78v4.8l-14.88,1.3,3.36.85c-.36.87-.9,2-1.56,3.32l16.56-1.45v2.7L46,77.78a18.6,18.6,0,0,1-4,8.87,43.72,43.72,0,0,1,6.18,2.28l-2.64,4.61a70.16,70.16,0,0,0-6.9-3.66c-4.56,3.58-10.8,5.81-17.7,6.71l-.42-2c5.76-1.17,10.74-3.22,14.34-6.36-1.74-.69-3.48-1.31-5.28-1.88-.84,1.52-1.62,2.85-2.22,3.8L23.2,88.29c1-1.46,3.06-5.19,5-9L20.08,80v-2.7l9.6-.84c.84-1.69,1.62-3.32,2.1-4.5l-9,.79V63.31l10.08-.88V59.31L24,60.08V54l-4.8.42v-2.7l4.8-.42v-6l8.88-.77V40L38,39.54V44.1l9.06-.8v6l4.44-.39v2.7L47.08,52v6.06l-9.06.8V62l10.08-.89v3.48c3.36-7.67,5.28-18.58,6.06-27l5.76.28A66.31,66.31,0,0,1,57,50.53l14.1-1.23V52L67,52.36c-.3,8.67-1.44,17-4.68,24.59A30.59,30.59,0,0,0,73.18,86.74ZM27.82,69.65l5-.44V65.13l-5,.44ZM28.9,50.89l4-.34v-3.3l-4,.34Zm4,5.72V53.25l-4,.34V57Zm.78,22.25c-.9,1.7-1.86,3.52-2.76,5.16,2.1.36,4.38.82,6.6,1.34a17.43,17.43,0,0,0,3.24-7.12ZM38,50.1l4.14-.37v-3.3L38,46.8Zm0,6.06,4.14-.37V52.43L38,52.8Zm5,8.07-5,.44v4.08l5-.44ZM59.62,72A80.06,80.06,0,0,0,62,52.8L56,53.32l-.36,1C56.38,61.87,57.76,67.57,59.62,72Z"/><path class="cls-2" d="M97.3,64.89v19.8c0,4.92-5.64,7.27-12.54,2.77l.48-2.08c6.06,1,7,.35,7-2.23V68.39c-1.68,1.11-3.36,2.09-5,3l-2.28-5.5a64.65,64.65,0,0,0,7.32-2.68V51.05l-7,.61V49l7-.61V34.91l5-.44V47.91l5.58-.49v2.7l-5.58.49V60.93c1.62-.74,3.18-1.6,4.86-2.47l1,1.84C101.2,61.91,99.28,63.46,97.3,64.89ZM109,57.62c0,15.48-3.84,23.92-8.94,30.55l-1.62-1.24c3.72-6.45,5.52-13.56,5.52-28.44V42.83l4.8.78,7.38-.65V32.7l5.16-.45v4.56l12-1.05v2.58l-12,1v3.12l11.58-1,1.26-1,4.62,2.29a33.11,33.11,0,0,1-6.06,7l-1.74-1a30.45,30.45,0,0,0,1.8-4.65L119.62,45.3v3.18c3.48-.67,6.9-1.33,10.32-2.11l.3,2.26c-3.42.78-7,1.45-10.62,2.13v.48c0,1.86.78,2.57,4.86,2.09,4.74-.53,6.12-1.19,7.74-2.54l2,3.31c-1.8,1.6-3.78,2.37-10,2.85-7.62.61-9.24-.09-9.24-4.65v-.66l-6,1.07ZM138.88,78l-3.6,4.87c-3.36-2.94-6.06-7.74-7.92-13.22-.66.36-1.38.66-2,1a22.28,22.28,0,0,1,1.74,7c.36,5.85-2,9.3-5.76,9.63a13.18,13.18,0,0,1-8.46-2.8l.72-2a26.29,26.29,0,0,0,5.7.7c2.4-.21,3.24-1.85,3.12-5.32,0-.54-.06-1-.06-1.55a67.4,67.4,0,0,1-16.5,8.7l-.72-1.79A57.75,57.75,0,0,0,121.6,71.7a18,18,0,0,0-.42-1.76,57.9,57.9,0,0,1-13,7.49l-.78-1.73a46.37,46.37,0,0,0,12.42-9.31l-.54-1.15a61.3,61.3,0,0,1-10.08,5.56l-.66-1.86A37.77,37.77,0,0,0,118.12,62l-8.22.72V60.19l26.46-2.32v2.52l-12.24,1.07a25.3,25.3,0,0,1-2.94,2.42,27.28,27.28,0,0,1,3.3,5,37.82,37.82,0,0,0,6.84-6.78l3.9,2.84a39.3,39.3,0,0,1-6.12,3.84C131.5,73.36,135.64,76.17,138.88,78ZM115,45.7l-6,.53v4.08c2-.3,4-.66,6-1Z"/><path class="cls-2" d="M203.68,72.26v3.3l-51.42,4.5v-3.3l22.86-2V37.08L155.44,38.8V35.68l44.82-3.92v3.12L181,36.57V74.24Z"/><path class="cls-2" d="M235.06,57.1c-1-2.26-2.16-5-3.42-7.74V78l-5.16.46V52.27a58.69,58.69,0,0,1-8.4,15.43l-1.68-1.23a92.31,92.31,0,0,0,9.06-24.55l-7.86.68V39.9l8.88-.77V30.19c-3,.86-6,1.6-8.64,2.19l-.42-2c6.72-2.39,12.6-5,17.76-8.69l4.62,3.79c-2.52,1.12-5.28,2.14-8.16,3.12V38.68l8-.7v2.7l-8,.7v4a42.39,42.39,0,0,1,7.8,8.73Zm35.76,11.81v2.7l-35,3.06V72l15-1.31v-9.3l-12.66,1.1v-2.7l12.66-1.1v-8c-4,.83-7.86,1.46-11,1.92l-.48-2.06c9-1.92,19.2-5.34,24.18-8.47l5,3.82a91.69,91.69,0,0,1-12.24,3.65v8.64L269,57.07v2.7l-12.72,1.11v9.3ZM266,40.47l-24.72,2.17V25.3L266,23.13Zm-5-14.19-14.64,1.28V39.5l14.64-1.29Z"/></svg>