<svg id="圖層_1" data-name="圖層 1" xmlns="http://www.w3.org/2000/svg" viewBox="0 0 456 164.15"><defs><style>.cls-1{fill:#fff;}.cls-2{fill:#002851;}</style></defs><polygon class="cls-1" points="320.23 90 30.23 115.37 30.23 25.37 320.23 0 320.23 90"/><path class="cls-2" d="M104.85,86.7,101,92.38a30.1,30.1,0,0,1-9.54-10.51,41.38,41.38,0,0,1-11,11.95L79,92.38A45.65,45.65,0,0,0,89.37,77.56a57.78,57.78,0,0,1-4.08-18.43,63.74,63.74,0,0,1-4.14,7.39l-1.38-.78v4.8l-14.88,1.3,3.36.84c-.36.88-.9,2-1.56,3.32l16.56-1.45v2.7l-5.58.49a18.56,18.56,0,0,1-4,8.87,45,45,0,0,1,6.18,2.28L77.19,93.5a72.22,72.22,0,0,0-6.9-3.65c-4.56,3.57-10.8,5.8-17.7,6.7l-.42-2c5.76-1.16,10.74-3.22,14.34-6.35-1.74-.69-3.48-1.32-5.28-1.88-.84,1.51-1.62,2.84-2.22,3.79l-4.14-1.86c1-1.46,3.06-5.18,5-9L51.75,80v-2.7l9.6-.84c.84-1.69,1.62-3.32,2.1-4.51l-9,.79V63.27l10.08-.88V59.27l-8.88.78V54l-4.8.42v-2.7l4.8-.42v-6l8.88-.78V40l5.16-.45v4.56l9.06-.79v6l4.44-.39v2.7L78.75,52V58l-9.06.79v3.12l10.08-.88v3.48c3.36-7.68,5.28-18.58,6.06-27l5.76.27A66.56,66.56,0,0,1,88.71,50.5l14.1-1.24V52l-4.14.36C98.37,61,97.23,69.37,94,76.91A30.59,30.59,0,0,0,104.85,86.7ZM59.49,69.61l5-.44V65.09l-5,.44Zm1.08-18.75,4-.35v-3.3l-4,.35Zm4,5.71V53.21l-4,.35v3.36Zm.78,22.25c-.9,1.7-1.86,3.52-2.76,5.16,2.1.36,4.38.82,6.6,1.35a17.47,17.47,0,0,0,3.24-7.13Zm4.38-28.76,4.14-.36V46.4l-4.14.36Zm0,6.06,4.14-.36V52.4l-4.14.36Zm5,8.08-5,.44v4.08l5-.44Zm16.56,7.73a80.21,80.21,0,0,0,2.34-19.17l-5.94.52-.36,1.06C88.05,61.83,89.43,67.53,91.29,71.93Z"/><path class="cls-2" d="M130.11,48.19V89.77l-5.28.46V58.13a45.92,45.92,0,0,1-7.44,9.3L116,65.93c4.44-5.73,10.56-19.88,13.08-32.46l6,1.33A109.27,109.27,0,0,1,130.11,48.19Zm39.9,32V83.1l-37.92,3.32V83.54l20.76-1.82c1.86-8.14,4.26-20.47,4.86-30.54l6.66.86a152.46,152.46,0,0,1-8.82,29.45ZM168.45,47.3l-35,3.06V47.48l35-3.06Zm-31.08,7.28,2.16-.91c3.84,7.4,7.38,18,8.28,24.17l-6.3,1.75A140.6,140.6,0,0,0,137.37,54.58Zm13-9a122.2,122.2,0,0,0-7-11.87L145,32.07a45.9,45.9,0,0,1,10.62,9.33Z"/><path class="cls-2" d="M236.07,44.62v2.7l-43.62,3.82v8.1c0,11-1.62,19.22-7.68,25.93l-1.68-1.23c3.3-5.87,4.08-12.06,4.08-23.88V48.9l8.28-.72-.3-1.24a95.1,95.1,0,0,0,13.5-5c-4-.91-7.8-1.66-11.16-2.14l.48-2a145.07,145.07,0,0,1,15.42,1.71A38.39,38.39,0,0,0,219.75,35l-32.4,2.84v-2.7L211,33c-2.7-1.39-6.6-3-8.88-4l.54-2a59.34,59.34,0,0,1,12.84,2.29l-1.92,3.53L234.45,31v2.7l-9.84.86,1,.57a43.6,43.6,0,0,1-7.32,5.2c3.54.71,7,1.43,9.72,2.27l-1.62,2.9Zm-20,32.53,19.74-1.73v2.7l-44,3.86v-2.7l19.38-1.7V70.14l-13.32,1.17v-2.7l13.32-1.17V61.26l-9.9.87a44.82,44.82,0,0,1-7.86,10.1L192,70.74a46.9,46.9,0,0,0,7.86-18.09l5,1.18a52.85,52.85,0,0,1-2.16,5.47l8.46-.74V51.3l4.92-.43v7.26l16.14-1.41v2.7l-16.14,1.41V67l14.22-1.24v2.7l-14.22,1.24ZM199.47,47.83l22.86-2c-3.12-1-6.3-2-9.36-2.79A89.37,89.37,0,0,1,199.47,47.83Z"/><path class="cls-2" d="M251.61,52.32l21.12-1.84V76.69l-5.28.47v-5L257,73.09v5.28l-5.4.47Zm15.84,17.16V53.64L257,54.55V70.39Zm-7.56-44.22,31-2.71V42.29l-31,2.71Zm25.44,14.81V25.73l-19.92,1.75V41.82Zm-7,9.91,21.24-1.86V74.34l-5.4.48v-5l-10.56.92V76.1l-5.28.46Zm15.84,17.16V51.3l-10.56.92V68.06Z"/><polygon class="cls-1" points="456 124.25 0 164.15 0 104.15 456 64.25 456 124.25"/><path class="cls-2" d="M28.08,139.19l.45.95a53.85,53.85,0,0,1-11.25,5.51l-.9-2.92c.54-.1,1.08-.24,1.62-.38V132.24l2.34-.2v9.72c.51-.14,1-.27,1.5-.44V128.94l-3.54.31v-9l8.94-.79v9l-2.82.25v5.07l3.81-.33v1.35l-3.81.33v5.4C25.77,140.08,27,139.64,28.08,139.19Zm-7.32-11.51,4-.35V121l-4,.35Zm23.19-1-1.53,2.71c-2.79-.83-5.34-3.22-6.81-6.9l-1.29.11a18.3,18.3,0,0,1-2.88,4.67l6.51-.57V128l-6.66.58v-1.17a18.83,18.83,0,0,1-4.71,3.8l-.51-.73a15.61,15.61,0,0,0,5.7-7.7l-3.66.32v-1.35l4.11-.36a28.89,28.89,0,0,0,.84-4.13l2.76.18a24.58,24.58,0,0,1-1,3.72l7.74-.68v1.35l-5.79.51C38.61,124.92,40.77,126,44,126.67Zm-15.48,4.9,13.11-1.15v1.35l-7.29.64c-.36,1-.78,2-1.23,3.07l8.22-.72a40.79,40.79,0,0,1-1.11,7c-.87,3-3.45,4.44-8,1.06l.42-1c4,1.06,4.62.8,5.07-.68a28.3,28.3,0,0,0,.78-4.75l-6,.53a29.34,29.34,0,0,1-1.35,2.69l-2.37-.6a42.17,42.17,0,0,0,2.76-6.33l-3,.27Z"/><path class="cls-2" d="M75,114.83v26.52l-2.64.23v-1.5l-18.63,1.63v1.5l-2.64.23V116.92Zm-2.64,1.58L53.76,118v22.32l18.63-1.63Zm-7,17.45-10.86.95v-1.35l10.86-1v-1.59l2.46-.22v1.59l4.08-.35v1.35l-4.08.35v2.55c0,2.13-2,3.11-5.85,1.93l.21-1.1c2.76.09,3.18-.22,3.18-1.12Zm-3.42-13-7.38.65v-1.36l7.38-.64v-1.62l2.4-.21v1.62l7.32-.64V120l-7.32.64v1.17l5.91-.52v6.09l-2.25.2a15.84,15.84,0,0,1,3.6,2.5L70,131.69a21.27,21.27,0,0,0-1.47-1.8,103.33,103.33,0,0,1-13.35,2.4l-.39-1.94c2.4-.12,4.71-.33,7.17-.6V128.1l-5.82.51v-6.09l5.82-.51Zm-4.74,14a18.4,18.4,0,0,1,4.14,1.86l-1.44,2a23.77,23.77,0,0,0-3.24-2.93Zm1.2-10.09,3.54-.31v-1.23l-3.54.31Zm3.54,2.09v-1.26l-3.54.31v1.26Zm2.4-2.61,3.63-.32v-1.23l-3.63.32Zm0,2.4,3.63-.32v-1.26l-3.63.32Zm0,1.26v1.56c1.05-.12,2.16-.28,3.3-.44-.3-.33-.63-.63-.93-.91l.36-.45Z"/><path class="cls-2" d="M89.58,130a12,12,0,0,0-2.37-6.72,45.64,45.64,0,0,0,1.62-7.85l-2.43.21v24.81l-2.52.22V114l2.28.4,2.58-.23.57-.56,2.61.89A39.94,39.94,0,0,1,88.23,123c2.1,2.18,3.78,4.8,3.81,7.34.06,3.84-2.73,4.71-5.43,3.09l.3-1.08C89,132.69,89.58,132.16,89.58,130Zm13.26-4.64-1.14.64a19.76,19.76,0,0,1,1.38,6.84c.21,6.13-3,8.24-8.19,4.76l.42-1c4.5,1.1,5.19.2,5-4.31,0-.63-.06-1.32-.12-2.06a29.31,29.31,0,0,1-10.62,7.41l-.42-1a28.24,28.24,0,0,0,10.53-9.65c-.06-.38-.18-.76-.27-1.17a23,23,0,0,1-6.57,5l-.45-.95a21.78,21.78,0,0,0,6.12-6.45l-.36-.71A24.41,24.41,0,0,1,92,126.49l-.45-.95A20.05,20.05,0,0,0,98.4,119l-6.72.59v-1.35l9.12-.8a46.59,46.59,0,0,0,2-6.41l3.09,1a42.57,42.57,0,0,1-3.57,5.32l7-.61v1.35l-7.5.65a17.08,17.08,0,0,1-2.64,3.11,13.16,13.16,0,0,1,2.07,3.09,22.85,22.85,0,0,0,4-5.21l2.73,1.62a25.75,25.75,0,0,1-4.14,3.39c1.23,4.48,3.24,6.62,5.76,8.29l-2.4,2.79C105.6,134.18,103.68,130.36,102.84,125.33Zm-5.79-7.92a36.49,36.49,0,0,0-2.85-5l.84-.8a19.38,19.38,0,0,1,4.35,3.94Z"/><path class="cls-2" d="M142.83,118.56l-1.74,3.57a22.5,22.5,0,0,1-11.7-9.89,37.44,37.44,0,0,1-13.53,12.52l-.57-.94a33.64,33.64,0,0,0,12.09-15.07l3.36.85a14.61,14.61,0,0,1-.63,1.34A21.87,21.87,0,0,0,142.83,118.56Zm-22.5,7.61,17.4-1.52v11.22l-2.82.24V134l-11.76,1v2.1l-2.82.25Zm15.27-6.56V121l-13.53,1.19V120.8Zm-12.45,14.11,11.76-1v-6.45l-11.76,1Z"/><path class="cls-2" d="M155.76,114v20.28l-2.58.22V118.2a27.65,27.65,0,0,1-4.14,4.56l-.72-.75c2.34-2.75,5.28-7.66,7.41-15.5l2.85.74A38.16,38.16,0,0,1,155.76,114Zm11-1.59v5l7.65-.67v1.35l-7.65.67v5.25l7.74-.68v1.35l-7.74.68v8l-2.64.23V112.68l-1.86.16a29.4,29.4,0,0,1-4.89,6.73l-.78-.68a29.22,29.22,0,0,0,5.1-12.66l2.94.65a24.6,24.6,0,0,1-1.65,4.55l12.39-1.08v1.35Z"/><path class="cls-2" d="M192.3,122.42a6.65,6.65,0,0,0,3.81-5.13,3.34,3.34,0,0,1-1,.24,2.05,2.05,0,0,1-2.4-2.19,2.54,2.54,0,0,1,2.43-2.61c1.83-.16,3,.84,3,3.09a7.69,7.69,0,0,1-5.22,7.39Z"/><path class="cls-2" d="M241.05,123.74v1.35l-25.74,2.25V126l11.31-1v-4.35l-9.78.85v-1.34l9.78-.86v-3.66c-3,.47-6,.83-8.88,1.11l-.18-1.1c6.84-1.17,12.69-2.58,17.22-4.65l3.24,2.08a68.88,68.88,0,0,1-8.58,2.07v3.9l10-.87v1.35l-10,.87v4.35Zm-3.84-13.86-18.09,1.59v-8.55l18.09-1.59Zm-2.7-7L221.82,104v5.85l12.69-1.11Z"/><path class="cls-2" d="M258.75,116.49a47.64,47.64,0,0,1-10.2,6l-1.2-3c1.53-.38,3-.84,4.53-1.36v-8.31l-3.57.31v-1.35l3.57-.31v-7l-3.93.34v-1.35l10.35-.9v1.35l-3.84.33v7l3.36-.29v1.35l-3.36.29v7.59c1.35-.5,2.64-1.07,3.84-1.65Zm13.8,6.92a14.44,14.44,0,0,1-4.26.37c-1.74,0-2.28-1-2.28-2.62V114l-1.26.11c-.21,5.9-3.6,10.1-10.08,11.9l-.39-1c5.58-2.17,7.68-5.8,7.83-10.68l-3,.27V98.76l12.75-1.12v15.87l-3.27.29v6.3c0,.78.15,1.18,1,1.23a9.14,9.14,0,0,0,2.19-.19c1.08-.22,1.08-1.27,1-5.22l1-.09C275.55,121.77,274.2,123,272.55,123.41Zm-10.92-20.25,7.71-.68V99.21l-7.71.68Zm0,4.89,7.71-.68v-3.6l-7.71.68Zm0,5,7.71-.68v-3.72l-7.71.68Z"/><path class="cls-2" d="M293.67,107v15.36l-2.58.23v-5.1a50.2,50.2,0,0,1-8.91,3.57l-.78-2.81c.75-.07,1.56-.2,2.43-.34v-10l-2.88.26v-1.35l26.31-2.3v1.34Zm9.18-4.16-17.43,1.53V96.64l17.43-1.53Zm-11.76,4.39-4.74.41v2.19l4.74-.41Zm-4.74,6.2,4.74-.41v-2.31l-4.74.41Zm4.74,2.86v-2l-4.74.41v2.76C288.09,117.1,289.8,116.68,291.09,116.3ZM288,97.73v1.89l12.27-1.07V96.66Zm12.27,4V99.9L288,101v1.86Zm5.91,19.34a16.58,16.58,0,0,1-5.91-3.26,21.26,21.26,0,0,1-5.94,4.33l-.48-.89a23.25,23.25,0,0,0,5.07-4.8,14.31,14.31,0,0,1-3.12-6.56l-1.53.13v-1.29l7.92-.69.6-.56,2.61.88a21.87,21.87,0,0,1-3.63,7.66,20.63,20.63,0,0,0,5.91,2.1Zm-6.12-6.25a16.93,16.93,0,0,0,2.19-5.5l-5.4.48A11.72,11.72,0,0,0,300.06,114.85Z"/><path class="cls-2" d="M325.17,116c-1.23-1.1-2.46-2.07-3.66-3a24.16,24.16,0,0,1-7.35,7.6l-.63-.81a24.65,24.65,0,0,0,6.24-8c-.81-.53-1.59-1-2.34-1.44l-.57,2-2.43-.53a111.11,111.11,0,0,0,2.82-11.59l-3.36.3V99.24l3.63-.31c.48-2.47.87-4.73,1.11-6.43l2.61.16c-.21,1.43-.63,3.6-1.11,6l5.25-.46A32.82,32.82,0,0,1,322.62,111a22.08,22.08,0,0,1,4.41,2.52Zm-4.65-5.9a33.8,33.8,0,0,0,2.1-10.29l-2.79.25c-.6,3-1.35,6.26-2.07,9.06C318.63,109.42,319.56,109.73,320.52,110.12Zm19.92-5.49-6.42.56v10.53c0,3-2.34,4.65-8.52,2.37l.24-1.1c5.07.3,5.52,0,5.52-1.89v-9.67l-6.18.55v-1.35l6.18-.54V98.78L333,99a30.88,30.88,0,0,0,2.88-4.75l-10.44.91V93.79l10.35-.9,1.08-.61L339.63,94A33.1,33.1,0,0,1,334,99.64v4.2l6.42-.56Z"/><path class="cls-2" d="M353.1,95.06l5.43-.47v21.06l-2.64.23v-2.73l-5.16.45v3.3l-2.64.23V95.5l3.57-.31a61,61,0,0,0,.93-6.11l3.24.41A39.8,39.8,0,0,1,353.1,95.06Zm2.79,1.11-5.16.45v6.63l5.16-.45Zm0,15.63v-7.65l-5.16.45v7.65Zm16.83-18.39a172.43,172.43,0,0,1-.72,18.36c-.45,3.94-3.69,5.51-9.75,2.41l.33-1.08c5.73.79,6.42.22,6.69-2.23A158.14,158.14,0,0,0,369.93,95l-6.42.56a31.46,31.46,0,0,1-4,7.34l-.87-.58c2.16-4.42,3.21-10,3.69-14l3.15.36a41.1,41.1,0,0,1-1.5,5.5ZM365,107.76a49.25,49.25,0,0,0-3.42-7.44l.87-.76a24.53,24.53,0,0,1,5.28,6.43Z"/><path class="cls-2" d="M379.2,94.79l.6-1a28.2,28.2,0,0,1,6,2.75l-1.92,2.65A49.94,49.94,0,0,0,379.2,94.79Zm7.56,6.06a128.56,128.56,0,0,1-4.32,13l-2.73-1.35a94.22,94.22,0,0,0,6-12Zm-1.95-8.77a33.91,33.91,0,0,0-3.93-4.4l.63-1a19.79,19.79,0,0,1,5.4,3Zm7.74,15.67,2.52,1.34a29.76,29.76,0,0,1-9.75,5.59l-.51-.91A25.58,25.58,0,0,0,392.55,107.75Zm3.69-18c-1.2-.88-3.21-2.21-4.53-3l.39-1a22.54,22.54,0,0,1,6,1.64l-1.41,2.34,8.91-.78v5.64l-2.52.22V90.45l-14,1.23V96l-2.58.23V90.56Zm-1.53,7.57V94.81l-4.83.43V93.89l12.45-1.09v1.35l-5,.43V97l6.78-.59v10L388,107.91v-10Zm0,1.35-4.2.37v2.94l4.2-.37Zm0,4.23-4.2.37v3.12l4.2-.37Zm2.64-1.52,4.35-.38V98l-4.35.38Zm0,4.41,4.35-.38v-3.12l-4.35.38Zm9.6,4.44-1.65,2.73a72.19,72.19,0,0,0-7.47-4.66l.51-1A35.52,35.52,0,0,1,407,110.18Z"/><path class="cls-2" d="M416,103.09a26,26,0,0,1-1,8.34l-2.73-.93a19.77,19.77,0,0,0,2.7-7.44Zm-1.47-3.56a43.11,43.11,0,0,0,3.66-6.14A33.32,33.32,0,0,1,413.49,95L413,92.65l1.65-.15a50.7,50.7,0,0,0,2.85-8.89l2.52.59a47.63,47.63,0,0,1-4.2,8.14c1.08-.13,2.13-.31,3.09-.48.54-1.25,1.11-2.62,1.68-4.17l2.37,1a43.25,43.25,0,0,1-7,10.51c1.53-.34,3.06-.81,4.38-1.22-.21-.73-.48-1.43-.75-2.15l.87-.5a15.53,15.53,0,0,1,2.85,4.82l-2.1,1c-.15-.7-.33-1.35-.51-2a48.25,48.25,0,0,1-7.47,3.29l-.72-2.58C413.16,99.77,413.85,99.65,414.51,99.53Zm3.57,3a57.32,57.32,0,0,1,2,6.87l-2.7.75c0-1.89-.09-4.94-.27-7.36Zm21.54.45v1.35L432,105v5.19l-2.58.23v-5.19l-6.54.57c.24.55.48,1,.66,1.5l-2.4,1.08a56.5,56.5,0,0,0-1.65-6.36l.9-.44c.6.87,1.23,1.9,1.8,2.93l7.23-.63v-2.16l-6,.52v-1.35l3.81-.33a35.07,35.07,0,0,0-1.74-3.21l.42-.37-3.06.27V95.86l6.63-.58V93.39l-5.55.48V92.52l5.55-.48V90.33l-6,.53V84.35l14.79-1.3v6.51l-6.24.55v1.71l5.58-.49v1.35l-5.58.49v1.89l6.69-.59v1.35l-4.59.41,1.59.49a19.8,19.8,0,0,1-2.31,3.26l4.59-.4v1.35l-6,.52v2.16ZM427.77,85.32l-1.95.17V89.3l1.95-.17ZM432,100.1a20.3,20.3,0,0,0,1.05-3.78l-6.27.55a15.59,15.59,0,0,1,2.88,2.69l-1.23.85ZM429.84,89l2-.17V85l-2,.17Zm4.05-.35,2-.18V84.61l-2,.18Z"/></svg>