<svg id="圖層_1" data-name="圖層 1" xmlns="http://www.w3.org/2000/svg" viewBox="0 0 490 153.51"><defs><style>.cls-1{fill:#fff;}.cls-2{fill:#002851;}</style></defs><polygon class="cls-1" points="490 110.64 0 153.51 0 93.51 490 50.64 490 110.64"/><polygon class="cls-1" points="200.22 90 40.22 104 40.22 14 200.22 0 200.22 90"/><path class="cls-2" d="M74.62,38.44l11-1v2.7L60.7,42.36v-2.7L72.76,38.6a63.74,63.74,0,0,0-5.82-8.49l1.44-1.68a42.11,42.11,0,0,1,9.54,7ZM63.46,64.37l19.38-1.69v18.9l-4.56.4V78.32l-10.14.88v4.62l-4.68.41ZM82.78,48.53,63.52,50.21V47.63L82.78,46ZM63.52,55.91l19.26-1.68V56.8L63.52,58.49Zm4.62,20.6,10.08-.89V65.78l-10.08.89ZM107.8,79a76.7,76.7,0,0,1-12.72,1.35c-7.62.12-8.76-.74-8.76-9V49.9l18.24-1.6V33L84.64,34.74V32l25.2-2.2V55.1l-5.28.46V51L91.72,52.12v18c0,4.44.3,5.26,4.44,5.19a69.06,69.06,0,0,0,9.9-1c4.44-.87,4.8-1.44,4.68-11.27l2.16-.19C116,74.06,115.42,77.59,107.8,79Z"/><path class="cls-2" d="M161.14,42.81a86.3,86.3,0,0,1-10.38,7.57l21.84-1.91V75.29l-5.28.46V71.61l-22.44,2V78l-5.28.46v-22a107.22,107.22,0,0,1-12.66,4.83l-.66-2a89.4,89.4,0,0,0,27.24-15.7L127.9,45.72V42.9l20.46-1.79V32.35l-14,1.22v-2.7l14-1.22v-8l5.52-.48v8l12.6-1.11v1.62c1.5-2,2.94-4,4.26-6.19L175.9,26a68.77,68.77,0,0,1-11.22,13.7l15.06-1.32v2.82Zm-15.9,10.75-.36.21v6.72l22.44-2v-6.9Zm22.08,7.67-22.44,2v7.68l22.44-2ZM157,40.35a84.67,84.67,0,0,0,8.58-9.51l-11.7,1v8.75Z"/><path class="cls-2" d="M18.38,119.67l-.63-.85A28.46,28.46,0,0,0,24.17,107l3.21.62a23.85,23.85,0,0,1-1.41,3l17.58-1.54v1.35l-18.39,1.61A27.32,27.32,0,0,1,18.38,119.67Zm21.93,8.16,3.75-.33v1.35l-3.9.34c-.09.61-.15,1.13-.24,1.61-.54,3.41-3.33,5.49-9.27,2.14l.36-1c4.74.76,5.79.43,6.18-1.83l.09-.66L23.9,130.62c-.18.79-.33,1.5-.45,2.11l-2.76,0c.51-2.24,1.17-5.72,1.77-9.16l-4,.35v-1.35l4.23-.37c.45-2.71.84-5.29,1.05-7l17.7-1.55c-.09,1.87-.27,4.38-.48,7l3.81-.33,0,1.35-3.93.34C40.7,124,40.52,126.07,40.31,127.83Zm-2.82.25c.18-1.7.39-3.82.57-5.9L25.25,123.3c-.36,2-.72,4.11-1.08,5.94Zm-12-6.15,12.69-1.11c.15-2.21.27-4.29.33-5.64l-12.12,1.06C26.18,117.67,25.88,119.7,25.49,121.93Zm9.78,3.58-1.41,2.59a67.09,67.09,0,0,0-6.3-3.53l.36-1A33.87,33.87,0,0,1,35.27,125.51Zm0-7.32-1.44,2.47a48,48,0,0,0-5.58-3.14l.39-1A28.37,28.37,0,0,1,35.24,118.19Z"/><path class="cls-2" d="M51.83,116.68l25-2.18v2l-25,2.18Z"/><path class="cls-2" d="M91.94,102.28a50.38,50.38,0,0,1-2,6.87v20.43l-2.52.22V114.17a30.08,30.08,0,0,1-3.24,4.15l-.78-.65c3-4.73,4.47-9.3,5.58-15.82Zm17.7-.19v25.76l-2.7.24V126l-11.82,1v2.1l-2.64.23V103.59Zm-2.7,1.58-11.82,1v21l11.82-1Zm-7.23,7L96,111v-1.35l3.75-.33v-3.93l2.52-.22v3.93l3.9-.34v1.35l-3.9.34v4l3.12-.27V122l-8.7.76V115l3.06-.27ZM99,116.13v5.1l4-.35v-5.1Z"/><path class="cls-2" d="M129.44,122.16l-8.4.74v2.88l-2.52.22V113.37l4.11-.36v-6.15l-5.55.48V106l5.55-.48V99.09l2.64-.23v6.42l5.52-.48v1.35l-5.52.48v6.15l4.17-.37ZM126.92,114l-5.88.52v7l5.88-.52ZM144,122.27l-1.92,3a15.7,15.7,0,0,1-5.91-5.46,21.94,21.94,0,0,1-8.67,6.55l-.48-1a21.83,21.83,0,0,0,8-7.63,24.75,24.75,0,0,1-2.37-9,17.15,17.15,0,0,1-2.37,3.5l-.84-.55c1.59-2.84,3.3-8.3,4-14l2.94.28a41.32,41.32,0,0,1-1.77,6.34l8.64-.76v1.35l-2,.17a26.42,26.42,0,0,1-3.42,12.39A17.6,17.6,0,0,0,144,122.27Zm-7.68-7a27.84,27.84,0,0,0,2.19-9.94l-4.5.39c-.12.34-.27.66-.39,1A22.13,22.13,0,0,0,136.31,115.26Z"/><path class="cls-2" d="M176.54,112.28l-3.12.28V118l-2.7.24v-1.77l-6,.52v3.12c0,3.27-2.79,4.69-8.25,2l.3-1.08c4.62.52,5.19.26,5.19-1.57v-2.21l-9.39.82v-1.35l9.39-.82v-2.28l-11.85,1v-1.35l11.85-1V110.1l-8.88.78v-1.35l8.88-.77v-2l-8.28.72V102.4l8.28-.72V99.76l-11.82,1V99.44l11.82-1V95.26l2.76-.25v3.15l11.7-1v1.35l-11.7,1v1.92l8.25-.72v5.13l-8.25.72v2l8.67-.75v3.45l3.12-.28ZM162,105.55v-2.61l-5.76.5v2.61Zm2.76-2.86v2.61l5.61-.49V102.2Zm0,9.27,6-.52v-2.1l-6,.52Zm6,.83-6,.52v2.28l6-.52Z"/><path class="cls-2" d="M193.49,111.73a6.65,6.65,0,0,0,3.81-5.13,3.67,3.67,0,0,1-1,.24,2.05,2.05,0,0,1-2.4-2.19,2.55,2.55,0,0,1,2.43-2.62c1.83-.16,3,.85,3,3.1a7.67,7.67,0,0,1-5.22,7.38Z"/><path class="cls-2" d="M227.39,99.58l4.38-.38v1.35l-5.46.48a27.21,27.21,0,0,1-3,3.26l6.69-.58v13.5l-2.58.22v-2.16l-5.16.45V118l-2.58.23v-11c-1.26.89-2.55,1.69-3.78,2.4l-.51-.91a35.61,35.61,0,0,0,8.13-7.43l-7.2.63v-1.36l5.31-.46v-4l-4.08.36V95.08l4.08-.36V90.37l2.64-.23v4.35l3.48-.3a28.26,28.26,0,0,0,1-2.7l2.43.77A31.36,31.36,0,0,1,227.39,99.58Zm0,5.7-5.16.46v3.5l5.16-.45Zm0,4.77-5.16.45v3.87l5.16-.45Zm-2.82-10.22a35.88,35.88,0,0,0,2.52-4.24l-2.85.25v4Zm11.31,11.25.36-1c3.24.59,3.66-.17,3.36-3.17a14.14,14.14,0,0,0-2.85-6.6,47.79,47.79,0,0,0,2.16-8.37l-3.72.32v24.72l-2.58.23V90.43l2.58.43,3.36-.29.75-.55,2.55,1a35.84,35.84,0,0,1-4,9c2.25,2.35,3.75,4.26,4.23,6.8C243.17,112.81,238.49,113.34,235.88,111.08Z"/><path class="cls-2" d="M276,109.19l-1,3.3a71.6,71.6,0,0,1-8,.74c-5,.16-9.06-1.25-10.92-5.29a15.91,15.91,0,0,1-6.57,8.14l-.6-.88c3.51-3.16,4.8-7.08,5.25-11.71l3.06.09a20.59,20.59,0,0,1-.69,3.06,7.57,7.57,0,0,0,4.89,3.74v-9l-11.76,1v-1.5l25.74-2.25v1.5l-11.1,1v3.57L273,104v1.35l-8.82.77v4.59a22.76,22.76,0,0,0,3-.17A72,72,0,0,0,276,109.19ZM271.07,96.9l-16.68,1.46v-9.6l16.68-1.46Zm-2.7-8-11.28,1v2.76l11.28-1Zm0,4.11-11.28,1v2.79l11.28-1Z"/><path class="cls-2" d="M282.2,110.93l-.63-.82a21,21,0,0,0,4-5.21l2.34,1.06A25.17,25.17,0,0,1,282.2,110.93Zm16.74-14.7L282,97.71V96.36l7.77-.68c-.54-.79-1.17-1.57-1.77-2.3l-3.93.34v-7.8l12.18-1.06v7.8l-6.15.54a11.43,11.43,0,0,1,2,1.41l-1,1,7.83-.69Zm-7.23,7.42v5.58c0,2.88-2.52,4.15-6.42,1.79l.33-1.08c3.15.59,3.57.29,3.57-1.39v-4.68l-4.95.43V98.87l12-1.05v5.43Zm-5.16-14.73,7.32-.64V86.42l-7.32.64Zm0,3.24,7.32-.64V89.63l-7.32.64Zm.15,10.66,7.14-.62V99.29l-7.14.62Zm9.18,6.64a35.67,35.67,0,0,0-3.27-4.57l.72-.88a21.92,21.92,0,0,1,4.65,3.44Zm12.9-9.86a30,30,0,0,1-12.6,12l-.6-.87c4.05-2.64,8.79-8,10.56-12.36Zm-3.3-9.25L308,91.66a33,33,0,0,1-10,9.63l-.63-.81A32.81,32.81,0,0,0,305.48,90.35Zm-7.08,2.48-.6-.82a29.6,29.6,0,0,0,6.84-9l2.67,1.23A32,32,0,0,1,298.4,92.83Z"/><path class="cls-2" d="M341.57,97.6v1.2l-26.46,2.32v-1.2l8.46-.74c-.72-.72-1.53-1.49-2.16-2l-3.6.31v-1.2l10.59-.92c-.72-.54-1.62-1.18-2.31-1.66a23.57,23.57,0,0,1-2.58.64l-.51-2,1.53-.13V83.71l3.63-.32c-.78-.56-1.74-1.23-2.49-1.67l.39-.88A14.78,14.78,0,0,1,330,82.15l-.72,1.17,3.12-.27v5.82l-5.7.5v2.55c1.2-.2,2.4-.39,3.42-.63-.33-.48-.66-.94-.93-1.3l.6-.62a13.36,13.36,0,0,1,3.45,2.9l-1.62,1.41a19.19,19.19,0,0,0-1-1.65c-.81.34-1.74.72-2.7,1.07a13.42,13.42,0,0,1,2.46.9l-.78,1.23,9.42-.82v1.2l-4.86.42.9.35a20.07,20.07,0,0,1-2.22,2ZM321,91.07a26,26,0,0,1-4.77,1.73l-.51-2c.6,0,1.2-.11,1.8-.19a29.77,29.77,0,0,0,2.19-3.1,17.73,17.73,0,0,1-3.48,1.29l-.45-2.06,1.32,0A25.59,25.59,0,0,0,319,81.49l2.16.68a30.63,30.63,0,0,1-3,4.37c.75-.09,1.5-.22,2.25-.34a24,24,0,0,0,1.2-2.45l2,.93a31.74,31.74,0,0,1-4.83,5.71c.9-.14,1.77-.31,2.67-.51.21-.65.39-1.38.57-2.15l2,.34c-.63,3-2.19,6.49-8.34,8.47l-.36-.87C318.44,94.47,320,93,321,91.07ZM319.61,102l17.52-1.53V108l-2.58.23V107l-12.36,1.08v1.29l-2.58.22Zm2.58,2.39,12.36-1.08v-1.47l-12.36,1.08Zm0,2.58,12.36-1.08v-1.5l-12.36,1.08Zm3.51-8.74-.72.88,6.33-.56a21.94,21.94,0,0,0,1.17-2.32l-9.09.79A12.2,12.2,0,0,1,325.7,98.18Zm1-12.26,3.6-.32V84.34l-3.6.32Zm0,2.31,3.6-.32V86.68l-3.6.32Zm9,5.51-2.1.18V81.38l2.1.24,2.25-.2.54-.44,2,1a20,20,0,0,1-3,3.8c1.77,1,2.88,2.24,3,3.67.15,2.45-1.83,3.79-4.41,1.86l.33-1c2,.42,2.22.07,2.13-1.42a4.84,4.84,0,0,0-1.92-2.8,23.78,23.78,0,0,0,1.32-3.54l-2.22.2Z"/><path class="cls-2" d="M372.71,84.11a141.11,141.11,0,0,1-1.29,16.61c-.6,4.11-4.5,5.23-10.8,2l.42-1.12c6.39,1.21,7.23.63,7.62-2.17a122.41,122.41,0,0,0,1-13.43l-8.82.77c-.75,8.88-3.33,16-12.27,20.27l-.57-1c6.81-4.43,9.12-10.34,9.81-19l-7.5.66V86.07l7.59-.66c.12-2.14.15-4.49.15-7l3.06-.26c0,2.4,0,4.74-.15,7Z"/><path class="cls-2" d="M387.29,81.48l5.43-.47v21.06l-2.64.23V99.57l-5.16.45v3.3l-2.64.23V81.92l3.57-.31a61,61,0,0,0,.93-6.11l3.24.41A39.8,39.8,0,0,1,387.29,81.48Zm2.79,1.11-5.16.45v6.63l5.16-.45Zm0,15.63V90.57l-5.16.45v7.65Zm16.83-18.39a172.43,172.43,0,0,1-.72,18.36c-.45,3.94-3.69,5.51-9.75,2.41l.33-1.08c5.73.79,6.42.22,6.69-2.23a158.14,158.14,0,0,0,.66-15.87L397.7,82a31.66,31.66,0,0,1-4,7.34l-.87-.58c2.16-4.42,3.21-10,3.69-14l3.15.36a41.1,41.1,0,0,1-1.5,5.5ZM399.2,94.18a49.25,49.25,0,0,0-3.42-7.44l.87-.76a24.53,24.53,0,0,1,5.28,6.43Z"/><path class="cls-2" d="M441.11,94.32l-1,3.36c-2.43.4-5.13.72-7.68.92-5.88.39-10.05-.26-12.81-2.75a18.93,18.93,0,0,1-5.25,5.23l-.66-.85a21,21,0,0,0,4.65-5.8,15.73,15.73,0,0,1-2.52-6.62l1.05-.39a13.46,13.46,0,0,0,2.37,5.16,25.07,25.07,0,0,0,1.83-7.87l-2.88.25c-.33.63-.63,1.14-.87,1.52L415,86.17a63.31,63.31,0,0,0,4.5-9.87l-4.86.42V75.43l8.31-.72c-.9,2.41-2.61,6.1-4,8.84l1.86-.17.69-.69,2.34.58A27.91,27.91,0,0,1,420.71,94c2.49,1.91,6,2.24,10.83,1.81A88.43,88.43,0,0,0,441.11,94.32Zm-16.74-17.1-.12-1.07C429,75.23,435,73,437.33,71.47l1.92,2.14a35.51,35.51,0,0,1-5.64,1.84v6.63l5.52-.48V83l-5.52.48v8.13L440,91v1.35l-16.74,1.46V92.46l2.28-.2V81.11l2.16-.19V92.08l3.54-.31V76A65.85,65.85,0,0,1,424.37,77.22Z"/><path class="cls-2" d="M455.57,70.26a36.28,36.28,0,0,1-2.22,7v20.4l-2.58.23V82.23a25,25,0,0,1-3.51,4.48l-.78-.71c2-3,4.68-8.3,6.15-16.26Zm16.68,3.46V89l-2.64.23v-2l-4.17.37v9l-2.76.24v-9l-4.17.36v2.16l-2.58.23V75.15l6.75-.59V69.28l2.76-.24v5.28Zm-13.74,7,4.17-.36V75.91l-4.17.36Zm4.17,5.82V81.67l-4.17.36v4.83Zm6.93-11.2-4.17.37v4.41l4.17-.37Zm0,5.76-4.17.37v4.83l4.17-.37Z"/></svg>