<svg id="圖層_1" data-name="圖層 1" xmlns="http://www.w3.org/2000/svg" viewBox="0 0 430 167.4"><defs><style>.cls-1{fill:#fff;}.cls-2{fill:#002851;}</style></defs><polygon class="cls-1" points="430 129.78 0 167.4 0 107.4 430 69.78 430 129.78"/><path class="cls-2" d="M30.06,123.8a23.06,23.06,0,0,1-1.77,2.47,17.75,17.75,0,0,1,3.45,2.79l-1.56,1.39,5.16-.45v8.07l-9.39.82c-.12.82-.24,1.58-.39,2.32l10.14-.89v7.74l-2.58.22v-1.53l-5.82.51v1.68l-2.4.21v-5.46a14,14,0,0,1-3.72,5.94L20.4,149c2.55-3.5,3.15-7,3.15-14.65v-3.36a28,28,0,0,1-2.76,2l-.63-.81c3.42-3.06,6.9-7.59,8.28-11.46l2.82.86a10.13,10.13,0,0,1-.54,1.1,38.18,38.18,0,0,1,6.18,4L35,128.83A53.11,53.11,0,0,0,30.06,123.8Zm-2.67,3.54A32.13,32.13,0,0,1,24,130.57l2,.24,3.54-.3C28.89,129.43,28.11,128.29,27.39,127.34ZM32.82,137v-2.1l-6.63.58c0,.72-.06,1.45-.12,2.11Zm0-5.4-6.63.58v1.95l6.63-.58ZM27.3,142.4V146l5.82-.51v-3.63Zm18.39-22.81v24.53c0,3.21-2.94,4.16-8.07,2.33l.24-1.1c4.59.2,5.16,0,5.16-1.65V119.82Zm-5.22,21.24-2.46.22V123.38l2.46-.22Z"/><path class="cls-2" d="M62.28,137.33v8.52l-2.64.23v-7.71A22.57,22.57,0,0,1,54,144.51l-.66-.79A26,26,0,0,0,59,135.1l-4.8.42v-1.29l5.43-.48v-2.93l2.64-.24v2.94l5-.44v1.29l-5,.44v1a20,20,0,0,1,4.83,3.33l-1.92,2C64.23,139.68,63.21,138.48,62.28,137.33Zm5.55-7.83-14,1.23v-1.35l3.93-.35a43.31,43.31,0,0,0-1.89-4.51l.9-.68a18.46,18.46,0,0,1,3.39,4.08L58.38,129l3.51-.31a32.15,32.15,0,0,0,1.2-5.45l2.7.64a29.57,29.57,0,0,1-2.73,4.71l4.77-.42Zm-.72-6.78-12.87,1.13v-1.32l6.27-.55a37.33,37.33,0,0,0-3.33-3l.54-1a18.91,18.91,0,0,1,5,2.09l-1.23,1.72,5.61-.49Zm13.17,4.94-3.09.27v16.5l-2.64.23v-16.5l-3.42.3v1.2c0,7.74-1.56,12.71-5.28,16.21l-.81-.65c2.85-3.76,3.39-8,3.39-14.33v-11.1l2.49.44a23.51,23.51,0,0,0,6.39-3.56l2.22,1.94a26.25,26.25,0,0,1-8.4,2.71v5.79l9.15-.8Z"/><path class="cls-2" d="M91.83,132.41a25.39,25.39,0,0,1-4.77,7.44l-.84-.62a25.65,25.65,0,0,0,3.09-7.53Zm3.78-2.82v10.32c0,2.64-2.49,4.27-7.32,2l.27-1.11c3.87.39,4.53.06,4.53-1.47v-9.54l-5.64.49V129l5.64-.49V125l-3.27.28v-.93A29.66,29.66,0,0,1,87,126.83l-.63-.75a31.08,31.08,0,0,0,6.6-11.14l3.15.84c-.24.44-.48.88-.72,1.29a31.49,31.49,0,0,1,5.88,3.68l-1.83,2.18a42.9,42.9,0,0,0-4.74-4.66,30.67,30.67,0,0,1-4.38,5.66l8.49-.74v1.35l-3.18.28v3.42l4.71-.41v1.35Zm4,8.14c-1-2.34-2.37-5-3.09-6.33l.81-.7a33,33,0,0,1,4.56,5.27Zm14.1.84-2,3.11a14.82,14.82,0,0,1-5.61-5.3,20,20,0,0,1-9,6.42l-.36-1a18.48,18.48,0,0,0,8.19-7.55,29.37,29.37,0,0,1-2.37-9.58,21,21,0,0,1-1.77,3l-.84-.47a44.41,44.41,0,0,0,3.09-13l2.91.32a47,47,0,0,1-1.68,5.93l8.31-.72v1.35l-2.07.18c-.15,4.3-.78,8.71-2.82,12.54A14.41,14.41,0,0,0,113.7,138.57Zm-7.47-7.06a33.58,33.58,0,0,0,1.62-9.92l-4,.35-.18.47A24.73,24.73,0,0,0,106.23,131.51Z"/><path class="cls-2" d="M146.19,128.76l-3.12.28v5.4l-2.7.23V132.9l-6,.52v3.12c0,3.27-2.79,4.69-8.25,2l.3-1.08c4.62.53,5.19.27,5.19-1.56v-2.22l-9.39.82v-1.35l9.39-.82V130l-11.85,1v-1.35l11.85-1v-2.1l-8.88.77V126l8.88-.77v-1.95l-8.28.72v-5.13l8.28-.72v-1.92l-11.82,1v-1.35l11.82-1v-3.15l2.76-.24v3.14l11.7-1V115l-11.7,1v1.92l8.25-.72v5.13l-8.25.72V125l8.67-.75v3.45l3.12-.28ZM131.64,122v-2.61l-5.76.5v2.61Zm2.76-2.86v2.61l5.61-.49v-2.61Zm0,9.27,6-.52v-2.1l-6,.52Zm6,.83-6,.52v2.28l6-.52Z"/><path class="cls-2" d="M163.14,128.21a6.65,6.65,0,0,0,3.81-5.13,3.34,3.34,0,0,1-1,.24,2.05,2.05,0,0,1-2.4-2.19,2.55,2.55,0,0,1,2.43-2.62c1.83-.16,3,.85,3,3.1a7.67,7.67,0,0,1-5.22,7.38Z"/><path class="cls-2" d="M195.36,112.67l-9.78.86v-1.35l4.44-.39c-1-1.56-2.25-3.28-3-4.18l.72-.84a19.54,19.54,0,0,1,4.74,3.54l-1.41,1.38,4.26-.37Zm-.72,7.83-8.16.72v-1.29l8.16-.72Zm-8.13-3.21V116l8.16-.72v1.29Zm25.92,12.94L210.9,133a10.47,10.47,0,0,1-7.41-8.41l-.69.06a13.86,13.86,0,0,1-2.16,2.17v3.72c1.35-.45,2.58-.89,3.66-1.34l.39.92a41.79,41.79,0,0,1-8.73,4.1l-.87-2.21c1-.24,2.07-.48,3.09-.78v-2.82a38,38,0,0,1-3.57,1.67l-.36-.75v4.47l-2.37.2v-2.07l-2.79.25v2.4l-2.4.21V124.2l7.56-.66V129a17.84,17.84,0,0,0,5.46-4.11l-4.65.41V124l4.11-.36v-1.53l-2.94.25v-1.26l2.94-.25v-1.47l-3.84.33V118.4l3.84-.33v-1.86l2.46-.22v1.86l3.45-.3v-1.86l2.46-.21v1.86l4.26-.38v1.29l-4.26.38v1.47l3.39-.3v1.26l-3.39.3v1.53l4.74-.42v1.35l-7.77.68a7.28,7.28,0,0,0,1.86,3,21.28,21.28,0,0,0,2.94-3.11l2,1.47a24.8,24.8,0,0,1-4.14,2.37A12.14,12.14,0,0,0,212.43,130.23Zm-20.55.33V125.1l-2.79.24v5.46Zm20-21.41-17,1.49v-1.35l8.67-.76c-1.17-.59-2.76-1.26-4.11-1.8l.3-1a24.4,24.4,0,0,1,5.85.77l-1,2,7.26-.64Zm-16,6.71v-4.14l6.87-.6v4.14Zm2.28-1.34,2.37-.21v-1.86l-2.37.21Zm3.39,6.09,3.45-.3v-1.47l-3.45.3Zm0,2.79,3.45-.3v-1.53l-3.45.3Zm2.55-8.26V111l6.87-.6v4.14Zm2.22-1.33,2.37-.21v-1.86l-2.37.21Z"/><path class="cls-2" d="M230,127.58c-1.23-1.09-2.46-2.07-3.66-3a24.16,24.16,0,0,1-7.35,7.6l-.63-.81a24.65,24.65,0,0,0,6.24-8c-.81-.53-1.59-1-2.34-1.44l-.57,2-2.43-.54a111.11,111.11,0,0,0,2.82-11.59l-3.36.3v-1.35l3.63-.32c.48-2.47.87-4.73,1.11-6.43l2.61.16c-.21,1.43-.63,3.6-1.11,6l5.25-.46a32.82,32.82,0,0,1-2.76,12.75,22.58,22.58,0,0,1,4.41,2.53Zm-4.65-5.89a33.93,33.93,0,0,0,2.1-10.3l-2.79.25c-.6,3-1.35,6.27-2.07,9.06C223.47,121,224.4,121.29,225.36,121.69Zm19.92-5.5-6.42.57v10.52c0,3-2.34,4.65-8.52,2.37l.24-1.1c5.07.31,5.52,0,5.52-1.89V117l-6.18.54v-1.35l6.18-.54v-5.31l1.74.2a30.88,30.88,0,0,0,2.88-4.75l-10.44.92v-1.35l10.35-.91,1.08-.6,2.76,1.67a33.21,33.21,0,0,1-5.61,5.69v4.2l6.42-.57Z"/><path class="cls-2" d="M276.06,106.27V124c0,3-3.21,4.27-9,2.38l.21-1.1c5,0,6-.34,6-1.87v-4.65L271.53,121a19,19,0,0,1-6.06-9.7,24.13,24.13,0,0,1-8.31,11.34l-.51-.64v6.84l-2.76.24V108.21l10.38-.91c-.15-1.33-.3-3.21-.33-4.32l-7.08.62v-1.35l8.49-.74a26.62,26.62,0,0,0,.69,5.64Zm-12.42,2.59-7,.61v12.15A26.48,26.48,0,0,0,263.64,108.86Zm9.6,9.15V108l-6.81.59A16.09,16.09,0,0,0,273.24,118Z"/><path class="cls-2" d="M310.5,117.15a18.62,18.62,0,0,1-4.89-1.79v9.15l-2.7.23V123l-9.75.85v1.92l-2.7.24v-9.45a36.8,36.8,0,0,1-5.76,2.81l-.42-1a33.24,33.24,0,0,0,13.23-12.14l2.85,1.22c-.3.45-.63.9-1,1.32a23.37,23.37,0,0,0,12.51,5.08ZM286.08,113l-.57-.88a34.9,34.9,0,0,0,7.8-8.12l2.58,1.28A33.61,33.61,0,0,1,286.08,113Zm2.52-5-2.64.23v-5.82l12.39-1.08c-1.53-.92-3.69-2.14-5.22-2.87l.42-1a25.05,25.05,0,0,1,6.81,1.87l-1.08,2,10.71-.94v5.52l-2.64.23v-4.17l-18.75,1.64ZM304.92,115a25.71,25.71,0,0,1-6.36-5.15,33.51,33.51,0,0,1-7.56,6.36Zm-2,1.52-9.75.85v5.13l9.75-.85ZM300,104a38.57,38.57,0,0,1,9.09,3.8l-1.83,2.53a59.52,59.52,0,0,0-7.74-5.29Z"/><path class="cls-2" d="M324.36,110.35v12.54l-2.58.23V111a26.25,26.25,0,0,1-4.11,3.54l-.6-.85a27,27,0,0,0,7.44-11.12l-6.27.55v-1.35l6.36-.56.69-.66,2.52,1.07a45.71,45.71,0,0,1-3.45,6.19v.81l.63.39a17.81,17.81,0,0,0,2-3.75l2.16,1.31a20.52,20.52,0,0,1-3.33,3,23,23,0,0,1,3.06,2.43L326.94,114C326.16,112.9,325.29,111.53,324.36,110.35ZM323.07,101a36,36,0,0,0-3-5.29l.84-.73a19.67,19.67,0,0,1,4.47,4.23Zm21.42,17.26-1.86,3.23a16.44,16.44,0,0,1-5.82-3.63,22.64,22.64,0,0,1-7.2,4.83l-.48-.92a21.41,21.41,0,0,0,6.39-5.45,18.12,18.12,0,0,1-3-7.84l-.48,0c-.24,6.41-1.8,10.69-5.49,14.52l-.84-.62c2.43-3.63,3.72-6.47,3.72-15.92V99.26l2.64.31,3-.26V94.18l2.64-.23v5.13l2.94-.26.66-.63,2.79,1.32a22.92,22.92,0,0,1-3.93,5l-.87-.46a22.59,22.59,0,0,0,1.38-3.9l-3,.26v6.24l1.56-.14.72-.63,2.52.89a26.35,26.35,0,0,1-4.08,9.14A16.26,16.26,0,0,0,344.49,118.25ZM332.1,107.16l3-.26v-6.24l-3,.26v6.24Zm4.65,7.36a22.93,22.93,0,0,0,2.58-6.64l-5.76.5A12.7,12.7,0,0,0,336.75,114.52Z"/><path class="cls-2" d="M362,102.39c-.57.89-1.17,1.75-1.83,2.59l13.53-1.19v14.67l-2.7.24v-1.92l-11.31,1v2.07l-2.7.23V108.58A32.74,32.74,0,0,1,351,113.3l-.57-.94a34,34,0,0,0,8.61-9.72l-7.62.66V102l8.4-.74c.36-.69.69-1.41,1-2.13l-7.83.69V98.43l8.37-.73a20.23,20.23,0,0,0,.66-2.1c-3.18.49-6.42.89-9.24,1.08l-.15-1.07c8.85-1.34,14.73-3.09,19.14-5l2.76,2.09a61.23,61.23,0,0,1-9.36,2.38,20,20,0,0,1-.72,2.38l10.74-.94v1.35l-11.31,1c-.33.71-.69,1.44-1.08,2.13L377,99.72v1.35Zm9,3-11.31,1v2.43l11.31-1Zm0,3.72-11.31,1v2.49l11.31-1Zm0,3.78-11.31,1v2.55l11.31-1Z"/><path class="cls-2" d="M406.83,114.84a38.18,38.18,0,0,1-5.1.51c-2.94.1-4-.41-4-2.72v-6.21l-1.8.16c-.48,4.06-2.94,8.81-11.91,11.57l-.42-1c6.48-2.61,9.09-6.77,9.51-10.34l-5,.44V90.74l17.49-1.53v16.53l-5.07.44v5.25c0,1.2.45,1.37,1.8,1.34a16.67,16.67,0,0,0,3.3-.32c1.74-.3,2.13-.78,2.07-6l1.08-.09C410,111.83,410.19,114.34,406.83,114.84Zm-16-19.39,12.09-1.06v-3.6l-12.09,1.06Zm0,5.07,12.09-1.06V95.74L390.81,96.8Zm0,5.16,12.09-1.06v-3.81l-12.09,1.06Z"/><polygon class="cls-1" points="356.19 90 66.19 115.37 66.19 25.37 356.19 0 356.19 90"/><path class="cls-2" d="M132.23,50.88V86.34c0,6-6.42,8.54-18.06,4.76l.42-2.19c10,.08,12-.69,12-3.75v-9.3l-3.42,4.38a38,38,0,0,1-12.12-19.4c-1.68,6-8.1,16.72-16.62,22.69l-1-1.29V95.92l-5.52.48V54.76L108.65,53c-.3-2.68-.6-6.43-.66-8.64L93.83,45.54v-2.7l17-1.48a53.24,53.24,0,0,0,1.38,11.28Zm-24.84,5.18-14,1.22v24.3C101.09,74.25,105.65,63.83,107.39,56.06Zm19.2,18.3v-20L113,55.57C115.43,63.63,119.93,70.32,126.59,74.36Z"/><path class="cls-2" d="M201.11,72.64a36.58,36.58,0,0,1-9.78-3.59v18.3l-5.4.47V84.28L166.43,86v3.84l-5.4.47V71.4A75.48,75.48,0,0,1,149.51,77l-.84-2a66.39,66.39,0,0,0,26.46-24.27l5.7,2.44c-.6.89-1.26,1.79-1.92,2.63,5.88,4.53,12.48,8.57,25,10.17Zm-48.84-8.21-1.14-1.76a70,70,0,0,0,15.6-16.24L171.89,49A67.48,67.48,0,0,1,152.27,64.43Zm5-10-5.28.46V43.27l24.78-2.17c-3.06-1.83-7.38-4.27-10.44-5.74l.84-2.06A50.79,50.79,0,0,1,180.83,37l-2.16,3.91,21.42-1.87v11l-5.28.46V42.23l-37.5,3.28ZM190,68.27A50.89,50.89,0,0,1,177.23,58a67.8,67.8,0,0,1-15.12,12.72Zm-4,3.06L166.43,73V83.29l19.5-1.7Zm-5.76-25a77.11,77.11,0,0,1,18.18,7.59L194.69,59a120.09,120.09,0,0,0-15.48-10.59Z"/><path class="cls-2" d="M268.91,75.29l-2.76,5.82c-13.26-2-20.34-9.5-23-18.33l-1.56.13a34.64,34.64,0,0,1-6.36,5.66v8c4-1,7.86-2,11.22-3l.72,2c-4.92,3-15.84,6.84-23.22,8.69l-1.74-5.13c2.52-.4,5.16-.87,7.86-1.41V71.66a82.82,82.82,0,0,1-14.46,5.59l-.66-2c11.22-4.22,15.6-7.54,19.86-11.75l-19.08,1.67v-2.7l27.6-2.42A46.48,46.48,0,0,0,239.57,56l.3-.38a8.93,8.93,0,0,1-4.14-1.08l.42-2c3.12.27,4-.05,4-1.73V46.6l-5.58.49V58.55l-5,.44V47.53l-5,.44V57.8l-4.44.39V45.83l9.42-.82V42.43l-13,1.13V41l13-1.13V36.49l-6.48.57a24,24,0,0,1-3.18,3.58l-1.62-1.18a40.91,40.91,0,0,0,4.32-10.52l4.68,1.27A23.75,23.75,0,0,1,225,34.37l4.56-.4V28.33l5-.44v5.64l10-.88v2.52l-10,.88v3.42l11.76-1V41l-11.76,1v2.58l10.14-.89V51.3A3.89,3.89,0,0,1,242.57,55a23.39,23.39,0,0,1,5.28,3.38l-1.26,1.37,21.9-1.92v2.7l-23.1,2A17.3,17.3,0,0,0,251.45,70a47.25,47.25,0,0,0,7.68-8.17l4.5,3.57a64.79,64.79,0,0,1-10.2,5.87C258.11,73.89,263.81,74.77,268.91,75.29ZM253.49,49.34l-4.56.39V28.92l4.56-.4ZM253,51.48c5.64.29,6.78,0,6.78-2.51V26l4.8-.42V50.29c0,5.34-6.24,6-12.06,3.45Z"/><path class="cls-2" d="M295.31,37.58V78.14l-5.16.45V45.89A54.49,54.49,0,0,1,281.87,55l-1.44-1.49c4.68-5.51,10.56-15.33,14.82-31L301,24A76,76,0,0,1,295.31,37.58Zm22-3.18v10l15.3-1.34v2.7l-15.3,1.34V57.61l15.48-1.35V59l-15.48,1.35v15.9l-5.28.47V34.86l-3.72.32a58.81,58.81,0,0,1-9.78,13.46l-1.56-1.37c5-6.5,8.64-15.93,10.2-25.31L313,23.25a49.54,49.54,0,0,1-3.3,9.11l24.78-2.17v2.7Z"/></svg>