<?xml version="1.0" encoding="UTF-8"?>
<svg width="187px" height="230px" viewBox="0 0 187 230" version="1.1" xmlns="http://www.w3.org/2000/svg" xmlns:xlink="http://www.w3.org/1999/xlink">
    <title>index_slogan</title>
    <g id="Symbols" stroke="none" stroke-width="1" fill="none" fill-rule="evenodd">
        <g id="Slicing" transform="translate(-30.000000, -284.000000)">
            <g id="index_slogan" transform="translate(30.000000, 284.000000)">
                <g id="slogan" transform="translate(0.000000, 36.500000)">
                    <path d="M39.0947662,185.340841 L39.0947662,185.223839 C40.8362975,184.990833 42.1701201,183.558312 42.2791995,181.803768 C42.2791995,179.355717 40.3091688,178.446698 37.6914566,178.635702 C36.2283223,178.748823 34.7720667,178.938083 33.328603,179.202714 L33.328603,193 C34.8848374,192.936999 36.4590629,192.837997 37.9883106,192.648993 C40.8758899,192.279985 42.9178853,191.208963 42.9178853,188.328903 C42.8998942,186.582867 41.3796421,185.27784 39.0947662,185.340841 Z M35.2806427,180.210735 C35.9351303,180.061196 36.5995171,179.95893 37.2686646,179.904729 C38.9778237,179.751725 40.2282086,180.291737 40.2282086,182.109774 C40.2282086,184.215818 39.013806,184.737829 37.4035982,184.881832 L35.2806427,185.070836 L35.2806427,180.210735 Z M37.3856071,191.469968 C36.6878703,191.561159 35.9840428,191.597271 35.2806427,191.577971 L35.2806427,186.177859 L37.4395805,185.988855 C39.2836733,185.826851 40.8758899,186.330862 40.8758899,188.517907 C40.8758899,190.704952 39.4905715,191.163962 37.3856071,191.469968 Z" id="Shape" stroke="#002851" stroke-width="0.5" fill="#002851" fill-rule="nonzero"></path>
                    <path d="M49.3137387,181.42576 C46.5358767,181.755666 44.4703064,184.154362 44.5550799,186.951875 C44.5550799,190.650951 46.5610929,192.04598 49.4486723,191.892977 C50.6949936,191.888799 51.9111929,191.509326 52.9389552,190.803954 L52.9389552,189.444926 C52.0718706,190.288541 50.9186292,190.773858 49.709544,190.803954 C47.5506061,190.902957 46.390177,189.480927 46.390177,186.960875 L53.5056764,186.339862 C53.5667604,186.043986 53.5909331,185.741672 53.5776409,185.439843 C53.5776409,183.405801 52.2552915,181.173755 49.3137387,181.42576 Z M46.4711372,185.988855 C46.4711372,184.368821 47.4786415,182.505783 49.1698095,182.38878 C50.9689244,182.235777 51.8055128,184.098816 51.7515393,185.565846 L46.4711372,185.988855 Z" id="Shape" stroke="#002851" stroke-width="0.5" fill="#002851" fill-rule="nonzero"></path>
                    <path d="M58.246344,187.950895 L58.246344,182.028773 L60.5582067,181.830769 L60.5582067,180.768747 L58.246344,180.966751 L58.246344,178.311696 L56.4472292,178.473699 L56.4472292,181.128754 L54.8730037,181.263757 L54.8730037,182.325779 L56.429238,182.190776 L56.429238,188.031897 C56.3741844,188.778969 56.5534254,189.524616 56.9419858,190.164941 C57.2838176,190.650951 57.8415432,190.983958 59.1009236,190.866956 C59.6272671,190.834827 60.1401197,190.687345 60.6031845,190.434947 L60.6031845,189.300923 C60.279704,189.520109 59.9043645,189.650459 59.51472,189.678931 C58.3183086,189.786933 58.246344,189.003917 58.246344,187.950895 Z" id="Path" stroke="#002851" stroke-width="0.5" fill="#002851" fill-rule="nonzero"></path>
                    <path d="M65.1099673,187.347883 L65.1099673,181.43476 L67.4218299,181.227756 L67.4218299,180.165734 L65.1099673,180.372738 L65.1099673,177.717683 L63.3108524,177.870686 L63.3108524,180.570742 L61.754618,180.705745 L61.754618,181.767767 L63.3108524,181.632764 L63.3108524,187.473885 C63.2626751,188.223235 63.4413624,188.969716 63.8236002,189.61593 C64.165432,190.09294 64.7231576,190.425947 65.982538,190.317944 C66.508769,190.278561 67.020725,190.128269 67.4847989,189.876935 L67.4847989,188.742912 C67.1639185,188.960621 66.7918697,189.090905 66.40533,189.12092 C65.1909275,189.183921 65.1099673,188.355904 65.1099673,187.347883 Z" id="Path" stroke="#002851" stroke-width="0.5" fill="#002851" fill-rule="nonzero"></path>
                    <path d="M73.4938426,179.310716 C70.7159806,179.640622 68.6504103,182.039318 68.7351838,184.836831 C68.7351838,188.535907 70.7411968,189.930936 73.6287762,189.777933 C74.8719419,189.771399 76.0845898,189.392056 77.1100635,188.688911 L77.1100635,187.320882 C76.2564366,188.185011 75.1034225,188.687699 73.8896479,188.724911 C71.73071,188.823913 70.5702809,187.401884 70.5702809,184.881832 L77.6857803,184.260819 C77.7465005,183.964891 77.7706696,183.662623 77.7577449,183.3608 C77.7577449,181.290757 76.4623821,179.103712 73.4938426,179.310716 Z M70.6512411,183.864811 C70.6512411,182.253777 71.6497499,180.381738 73.3499134,180.264736 C75.1490283,180.102733 75.9856167,181.974771 75.9316433,183.432802 L70.6512411,183.864811 Z" id="Shape" stroke="#002851" stroke-width="0.5" fill="#002851" fill-rule="nonzero"></path>
                    <path d="M84.0546469,178.410698 C82.8162463,178.790243 81.8629652,179.784889 81.5358861,181.038752 C81.5358861,180.408739 81.5358861,179.553721 81.5358861,178.887708 L79.9076871,179.031711 L79.9076871,188.931916 L81.706802,188.778913 L81.706802,183.603805 C81.6181979,182.171256 82.403628,180.827162 83.6948239,180.201735 C84.1257535,179.981251 84.6309975,179.958274 85.0801424,180.138733 L85.0801424,178.338696 C84.7368572,178.296732 84.3887098,178.321176 84.0546469,178.410698 L84.0546469,178.410698 Z" id="Path" stroke="#002851" stroke-width="0.5" fill="#002851" fill-rule="nonzero"></path>
                    <path d="M99.5630171,173.262591 L97.7639023,177.006669 C97.2331634,178.104691 96.6034732,179.292716 96.1087166,180.282736 L96.0007697,180.282736 C95.5373378,179.263382 95.0208847,178.269 94.4535309,177.303675 L92.654416,173.910604 L90.5674428,174.090608 L94.9302963,181.641765 L94.9302963,187.617888 L96.8643448,187.446885 L96.8643448,181.470761 L101.470079,173.136588 L99.5630171,173.262591 Z" id="Path" stroke="#002851" stroke-width="0.5" fill="#002851" fill-rule="nonzero"></path>
                    <path d="M105.482105,176.484658 C102.42361,176.772664 100.831393,179.49072 100.831393,182.316779 C100.831393,185.29584 102.468588,187.239881 105.32918,186.987875 C108.189773,186.73587 109.970897,184.566825 109.970897,181.533762 C109.988888,178.707704 108.630556,176.232652 105.482105,176.484658 Z M105.482105,186.024855 C103.60203,186.195859 102.783433,183.83781 102.783433,182.145775 C102.783433,180.45374 103.29618,177.645682 105.32918,177.447678 C107.36218,177.249674 108.07283,179.97673 108.07283,181.704766 C108.07283,183.432802 107.506109,185.853852 105.464114,186.024855 L105.482105,186.024855 Z" id="Shape" stroke="#002851" stroke-width="0.5" fill="#002851" fill-rule="nonzero"></path>
                    <path d="M118.354772,181.146754 C118.354772,182.86579 117.689099,184.692828 115.6561,184.872832 C114.063883,185.007834 113.587118,183.972813 113.587118,182.685786 L113.587118,176.079649 L111.788003,176.232652 L111.788003,183.045794 C111.788003,185.097836 112.921445,186.303861 115.161343,186.105857 C116.635437,185.970559 117.916743,185.037593 118.498701,183.675807 L118.498701,185.475844 L120.1269,185.331841 L120.1269,175.503637 L118.327785,175.665641 L118.354772,181.146754 Z" id="Path" stroke="#002851" stroke-width="0.5" fill="#002851" fill-rule="nonzero"></path>
                    <path d="M126.999519,174.603619 C125.766697,174.992191 124.817085,175.983008 124.480758,177.231673 C124.480758,176.60166 124.480758,175.755643 124.480758,175.089629 L122.852559,175.224632 L122.852559,185.124837 L124.651674,184.962833 L124.651674,179.805727 C124.566243,178.368976 125.359472,177.02371 126.657687,176.403656 C127.089818,176.18775 127.59308,176.164863 128.043006,176.340655 L128.043006,174.540617 C127.694397,174.493369 127.339919,174.514771 126.999519,174.603619 L126.999519,174.603619 Z" id="Path" stroke="#002851" stroke-width="0.5" fill="#002851" fill-rule="nonzero"></path>
                    <path d="M132.846642,178.491699 C131.272417,177.942688 130.930585,177.708683 130.930585,176.745663 C130.930585,175.998648 131.722195,175.341634 132.900616,175.242632 C133.759263,175.139812 134.625358,175.361261 135.329421,175.863645 L135.329421,174.495616 C134.515406,174.173513 133.637962,174.044139 132.765682,174.117609 C130.741678,174.288612 129.221426,175.503637 129.221426,177.249674 C129.221426,178.860707 130.210939,179.427719 132.252934,180.039731 C133.413363,180.399739 134.052049,180.885749 134.052049,181.641765 C134.052049,182.39778 133.836155,183.3698 132.055032,183.504803 C131.00877,183.608397 129.957246,183.368286 129.059505,182.820789 L129.059505,184.152817 C129.993642,184.568977 131.018585,184.739372 132.037041,184.647827 C134.879642,184.422822 135.797191,183.090795 135.797191,181.281757 C135.833173,179.841727 134.645757,179.103712 132.846642,178.491699 Z" id="Path" stroke="#002851" stroke-width="0.5" fill="#002851" fill-rule="nonzero"></path>
                    <path d="M141.905186,173.316592 C139.130858,173.646217 137.066501,176.0396 137.146527,178.833706 C137.146527,182.541783 139.161536,183.936812 142.040119,183.774809 C143.285918,183.776085 144.502845,183.399522 145.530402,182.694786 L145.530402,181.326758 C144.668881,182.175633 143.518602,182.667485 142.309987,182.703787 C140.142053,182.793788 138.99062,181.380759 138.99062,178.851707 L146.097123,178.230694 C146.161785,177.935281 146.188986,177.632893 146.178084,177.330675 C146.178084,175.296633 144.828747,173.055587 141.905186,173.316592 Z M139.062584,177.870686 C139.062584,176.250653 140.070089,174.387614 141.761256,174.270612 C143.560371,174.108608 144.39696,175.971647 144.342986,177.438677 L139.062584,177.870686 Z" id="Shape" stroke="#002851" stroke-width="0.5" fill="#002851" fill-rule="nonzero"></path>
                    <path d="M150.136136,179.913729 L150.136136,168.213486 L148.337021,168.366489 L148.337021,180.228735 C148.337021,181.533762 148.606889,182.343779 149.137627,182.730787 C149.857273,183.279799 151.143641,183.108795 152.151145,182.604785 L152.151145,181.44376 C151.831821,181.634411 151.476563,181.756976 151.107658,181.803768 C150.172119,181.88477 150.136136,181.362759 150.136136,179.913729 Z" id="Path" stroke="#002851" stroke-width="0.5" fill="#002851" fill-rule="nonzero"></path>
                    <path d="M157.593467,168.303488 C158.095584,168.277089 158.596378,168.376062 159.05075,168.591494 L159.05075,167.340468 C158.54521,167.16722 158.007448,167.108804 157.476525,167.169465 C155.425534,167.349468 154.463008,168.456491 154.463008,170.373531 L154.463008,172.479575 L152.960747,172.614578 L152.960747,173.7036 L154.463008,173.568597 L154.463008,182.38878 L156.262122,182.235777 L156.262122,173.415594 L158.313113,173.23559 L158.313113,172.173568 L156.262122,172.353572 L156.262122,170.463533 C156.244131,169.104505 156.522994,168.39349 157.593467,168.303488 Z" id="Path" stroke="#002851" stroke-width="0.5" fill="#002851" fill-rule="nonzero"></path>
                    <line x1="83.4969213" y1="136.262824" x2="103.467096" y2="134.516788" id="Path" stroke="#002851" stroke-width="1.8"></line>
                    <path d="M62.7351357,20.0074147 L62.9690206,21.9244544 C65.5147681,21.4024436 68.0245334,20.8804328 70.5702809,20.313421 C70.9370548,24.7932757 71.8586624,29.2101907 73.3139311,33.4626935 C69.9890103,36.8699269 66.1786251,39.7663338 62.0064941,42.0578717 L62.6901578,43.4259 C66.9311552,41.6020996 70.8877759,39.1771996 74.4383779,36.2257508 C76.3004618,40.0418299 78.9361651,43.0028913 82.5343948,44.1549151 C88.0846642,45.9009513 89.2990668,40.5008394 86.9602174,31.8336598 L85.4039831,31.9776627 C85.4039831,39.708823 84.8462575,40.7528446 83.2450452,39.9788286 C80.7892534,38.7728036 78.9271695,36.4687558 77.5058688,33.3996922 C80.7258361,30.2068375 83.4732667,26.570005 85.6648547,22.5994684 L82.066625,20.7994311 C80.4567708,24.1054435 78.5189871,27.2412573 76.2824707,30.1596251 C75.2416123,26.7111842 74.5603152,23.1642103 74.2494708,19.5754057 C78.3514528,18.6753871 82.4534347,17.7753684 86.5554166,16.8753497 L86.3035405,14.95831 C82.2375409,15.8583287 78.2075236,16.7583473 74.0785549,17.658366 C73.8176833,13.6172822 73.6917452,9.5581981 73.6917452,5.6791177 L69.976573,6.00312442 C69.976573,9.84620407 70.1025111,14.1662936 70.4083606,18.4593826 C67.8356263,18.9543928 65.2898788,19.4764037 62.7351357,20.0074147 Z" id="Path" fill="#002851" fill-rule="nonzero"></path>
                    <path d="M84.5044256,11.6192408 C82.1643064,9.48258725 79.5506906,7.66664565 76.7322494,6.21912889 L75.6887627,7.47915501 C77.7146067,9.75430519 79.5896815,12.1594797 81.3020012,14.6793042 L84.5044256,11.6192408 Z" id="Path" fill="#002851" fill-rule="nonzero"></path>
                    <path d="M49.7005484,29.961621 L51.1218491,33.9847043 C53.0877562,33.2464118 55.0046918,32.3836491 56.8610256,31.4016508 L56.8610256,41.5178605 C56.8610256,43.5429024 56.1323841,44.0379127 50.3482297,43.5519026 L49.9524245,45.0549338 C57.0409371,48.5020052 60.6661536,45.9549524 60.6661536,42.1298732 L60.6661536,29.43061 C62.9960073,28.1885842 65.2449009,26.9105577 66.9630556,25.9475378 L66.40533,24.5255083 C64.9750337,25.1285208 62.9420339,25.911537 60.7021358,26.6675527 L60.7021358,17.7213673 L66.828122,17.1813561 L66.828122,15.2373158 L60.7021358,15.777327 L60.7021358,6.83114158 L56.8610256,7.20014923 L56.8610256,16.1103339 L50.0873581,16.7043462 L50.0873581,18.6483865 L56.8610256,18.0543742 L56.8610256,27.9005783 C54.2703002,28.7375956 51.6795748,29.4846111 49.7005484,29.961621 Z" id="Path" fill="#002851" fill-rule="nonzero"></path>
                    <polygon id="Path" fill="#002851" fill-rule="nonzero" points="129.707187 5.11210595 126.08197 5.42711248 126.08197 31.4376516 129.707187 31.122645"></polygon>
                    <path d="M124.480758,32.0496642 C121.503223,32.8776814 118.354772,33.6246969 115.197325,34.2907107 L115.197325,27.50457 L123.401289,26.7935553 L123.401289,24.849515 L115.197325,25.5605298 L115.197325,19.9894143 L111.230277,20.3404216 L111.230277,25.911537 L103.13426,26.6225518 L103.13426,28.5665921 L111.230277,27.8555773 L111.230277,35.0557265 C107.946892,35.6407387 104.753464,36.0997482 101.811911,36.3967543 L102.981335,40.6538426 C110.483035,39.0047091 117.802404,36.6139165 124.831586,33.5166946 L124.480758,32.0496642 Z" id="Path" fill="#002851" fill-rule="nonzero"></path>
                    <path d="M107.047335,16.9023503 C105.24822,17.1003544 103.638012,17.2443574 102.252694,17.3253591 L103.422119,21.6724492 C109.015864,20.3477248 114.534995,18.7253861 119.955984,16.8123484 C120.603666,18.0903749 121.215365,19.3324007 121.755099,20.5834266 L125.470271,18.0543742 C123.37643,14.7353808 120.682755,11.8358299 117.527179,9.50419698 L116.312777,10.6472207 C117.266307,12.0332494 118.255821,13.5902817 119.164374,15.2373158 C116.231816,15.7593266 112.516644,16.2993378 109.017366,16.6863458 C111.365292,13.5137245 113.470251,10.1681313 115.314268,6.67813841 L124.90355,5.84112106 L124.90355,3.89708077 L102.270685,5.87712181 L102.270685,7.8211621 L110.438667,7.11014736 C109.570368,10.4592763 108.436325,13.7337373 107.047335,16.9023503 Z" id="Path" fill="#002851" fill-rule="nonzero"></path>
                    <path d="M137.263469,34.9477243 L137.263469,0 L133.377381,0.342007088 L133.377381,34.4707144 C133.377381,37.0177672 132.297912,37.3327737 126.08197,36.4957564 L125.560227,38.0077877 C133.377381,41.8148666 137.263469,39.8348256 137.263469,34.9477243 Z" id="Path" fill="#002851" fill-rule="nonzero"></path>
                    <path d="M29.0647008,102.098116 C28.3270637,102.026115 27.4634886,101.936113 26.4739754,101.80111 L25.9522321,103.27714 C33.076727,107.057219 36.3151337,104.69917 36.7019434,101.171097 C36.9178372,99.1190543 37.2686646,95.5459802 37.3946027,88.1928278 L15.8052242,90.082867 C16.3186139,89.4868325 16.7933511,88.8585354 17.2265249,88.201828 L35.4965365,86.5817944 L35.4965365,80.4886682 L8.72570714,82.8017161 L8.72570714,88.8948424 L12.9086492,88.5258347 C11.0850526,91.4003961 8.67196072,93.8546061 5.82913219,95.725984 C6.52757152,90.3554276 6.82824333,84.9405603 6.72868963,79.5256482 L6.72868963,75.1515575 L20.0691264,73.9815333 L20.0691264,81.0016788 L23.6133827,80.6866723 L23.6133827,73.675527 L36.6119877,72.5325033 L36.6119877,66.1423708 L2.93255724,69.0854318 L2.93255724,78.9316359 C2.93255724,94.3129547 2.68068116,101.513104 0,107.318224 L1.25038484,108.119241 C3.36138836,105.019969 4.79023937,101.507365 5.44232249,97.8140272 C7.04398796,97.048644 8.57602,96.1452152 10.0210698,95.1139713 L10.0210698,99.6140645 L18.6118434,98.8670491 L18.6118434,101.3241 C14.4199057,101.864111 10.1919858,102.224119 6.99855686,102.431123 L7.72719838,105.608189 C13.5203483,104.70817 21.8502501,103.286141 28.3270637,100.991093 C28.5879353,101.360101 28.848807,101.702108 29.0647008,102.098116 Z M27.8053204,82.8017161 L32.3031076,82.4057079 L32.3031076,85.2137661 L27.8053204,85.6097743 L27.8053204,82.8017161 Z M19.952184,83.4857303 L24.7828074,83.0627215 L24.7828074,85.8707797 L19.952184,86.2937885 L19.952184,83.4857303 Z M6.69270733,70.6154635 L32.8608332,68.320416 L32.8608332,71.0204719 L6.69270733,73.2885189 L6.69270733,70.6154635 Z M11.919136,87.0048032 L11.919136,84.196745 L16.929671,83.7557359 L16.929671,86.5637941 L11.919136,87.0048032 Z M18.6118434,97.2020145 L12.8636713,97.706025 L12.8636713,95.4559784 L18.6118434,94.9609681 L18.6118434,97.2020145 Z M18.6118434,93.313934 L11.5323263,93.9349468 C12.3059457,93.3049338 13.124543,92.6299198 13.8621801,91.9549058 L18.6118434,91.5408972 L18.6118434,93.313934 Z M21.8502501,100.84709 L21.8502501,98.5610427 L26.2580816,98.1740347 C26.7144162,98.7203451 27.1322193,99.2977503 27.5084664,99.9020705 C25.7813161,100.226077 23.88325,100.559084 21.8502501,100.86509 L21.8502501,100.84709 Z M27.6793823,96.4099981 L21.8502501,96.9230088 L21.8502501,94.6729621 L27.6793823,94.1599515 L27.6793823,96.4099981 Z M21.8502501,93.0349282 L21.8502501,91.2348909 L33.7693862,90.1908692 C33.7970279,93.6262757 33.6348602,97.0605849 33.2836252,100.478082 C33.1127093,101.82811 32.5549836,102.27812 30.1351741,102.179118 L31.8623244,100.685087 C30.7680205,99.6527813 29.5610051,98.7470556 28.2640947,97.9850308 L30.6839042,97.7690263 L30.6839042,92.2429118 L21.8502501,93.0349282 Z" id="Shape" fill="#002851" fill-rule="nonzero"></path>
                    <polygon id="Path" fill="#002851" fill-rule="nonzero" points="8.03304791 76.5465865 8.03304791 78.2746223 18.7377814 77.3386029 18.7377814 75.6105671"></polygon>
                    <polygon id="Path" fill="#002851" fill-rule="nonzero" points="24.8277853 79.8226544 35.928324 78.8596344 35.928324 77.1315986 24.8277853 78.1036187"></polygon>
                    <polygon id="Path" fill="#002851" fill-rule="nonzero" points="35.928324 74.0985357 24.8727631 75.0705559 24.8727631 76.7985917 35.928324 75.8265715"></polygon>
                    <polygon id="Path" fill="#002851" fill-rule="nonzero" points="7.98807004 81.2986849 18.8277372 80.3536654 18.8277372 78.6256295 7.98807004 79.5706491"></polygon>
                    <path d="M72.3244179,90.22687 C76.8183599,93.2579941 81.0628094,96.643858 85.0171734,100.35208 L87.9137483,96.644003 C83.2724911,93.5014564 78.3087074,90.8644143 73.1070329,88.77784 L72.3244179,90.22687 Z" id="Path" fill="#002851" fill-rule="nonzero"></path>
                    <path d="M80.9601693,64.2883324 C81.2660189,63.3883137 81.5268905,62.5512964 81.7427843,61.7142791 L77.5958245,60.9492632 C76.1904263,68.040356 73.3695044,74.7748572 69.3019049,80.7496736 C69.3019049,79.9666573 69.3019049,79.1836411 69.3019049,78.4096251 L60.5402155,79.2016415 C60.5402155,77.4016042 60.6211757,75.4755643 60.6211757,73.4055214 L71.4158649,72.5055027 L71.4158649,70.5254617 L63.5177506,71.218476 L65.7666442,69.1214326 C63.5077852,66.6878856 60.8823199,64.6228777 57.9854724,63.0013057 L56.8700212,64.2253311 C58.7349697,66.4810458 60.4507744,68.8561433 62.0064941,71.3354785 L52.0304022,72.2354971 L52.0304022,74.161537 L56.7350876,73.7475284 C56.7350876,88.7508394 56.5191938,94.8979668 51.8594862,102.431123 L53.0199153,103.412143 C58.0754281,97.9130293 59.9285165,92.3059131 60.4502598,80.9116769 L65.4607947,80.4706678 C65.3708389,84.7097556 65.1549452,92.3779146 64.7681355,96.3829976 C64.5522417,98.6060436 63.9495382,99.0020519 57.8145565,98.6330442 L57.337791,100.235077 C63.6346931,102.701129 68.1324803,101.927112 68.5282855,97.0940123 C68.8701174,93.3949356 69.0860112,87.670817 69.2569271,82.2527047 L69.6887146,82.6937139 C74.0268423,78.1008716 77.4954202,72.7581087 79.9256783,66.9253871 C81.6990601,72.12792 84.4466996,76.9448634 88.0216952,81.1186812 L91.2960843,77.1585991 C86.8256035,73.8045833 83.2710552,69.3784648 80.9601693,64.2883324 L80.9601693,64.2883324 Z" id="Path" fill="#002851" fill-rule="nonzero"></path>
                    <path d="M86.0156821,83.3327271 C82.9543904,81.116957 79.5959208,79.3444484 76.0395901,78.067618 L75.2659708,79.4266461 C78.0665852,81.7198326 80.7055681,84.2037934 83.164085,86.8608002 L86.0156821,83.3327271 Z" id="Path" fill="#002851" fill-rule="nonzero"></path>
                    <path d="M120.036944,75.2955605 C119.101209,80.9870448 117.247994,86.4887488 114.549644,91.5858982 L115.809024,92.4319157 C119.568664,87.5972168 122.393642,82.1030839 124.138926,76.2315799 L120.036944,75.2955605 Z" id="Path" fill="#002851" fill-rule="nonzero"></path>
                    <path d="M112.52564,57.4571908 C110.726525,65.6923615 108.027853,72.9375117 103.323167,79.3546447 L104.348663,80.4256669 C106.254283,78.6675262 107.961635,76.7057809 109.440158,74.5755456 L109.440158,98.5160418 L113.15533,98.1920351 L113.15533,68.1584126 C114.634673,64.9980388 115.838552,61.7157847 116.75356,58.3482093 L112.52564,57.4571908 Z" id="Path" fill="#002851" fill-rule="nonzero"></path>
                    <path d="M132.909611,74.8185506 C135.064089,79.7091082 136.867765,84.7469523 138.306956,89.8938631 L142.534876,87.6258161 C140.376603,82.6970001 137.575635,78.0757566 134.204974,73.8825312 L132.909611,74.8185506 Z" id="Path" fill="#002851" fill-rule="nonzero"></path>
                    <path d="M130.570762,92.1709103 L130.570762,65.863365 L137.011593,65.2963533 C136.374541,67.4040431 135.533991,69.4447029 134.501828,71.3894796 L135.752213,72.2894982 C138.278174,69.9430466 140.46152,67.2526094 142.238022,64.2973326 L138.127044,62.3172916 L136.87666,63.3343126 L122.339811,64.6393397 C123.222712,62.4531884 123.914953,60.194724 124.408794,57.8891998 L120.000962,57.322188 C119.395626,63.6090531 117.500004,69.7032794 114.432702,75.223559 L115.773042,76.0155755 C117.985731,73.1035074 119.885306,69.9660927 121.440254,66.6553815 L126.666683,66.2053721 L126.666683,91.0908879 C126.666683,93.5479388 126.279873,94.1059504 119.326294,93.5029379 L118.939484,95.005969 C127.161439,98.6060436 130.570762,96.4459989 130.570762,92.1709103 Z" id="Path" fill="#002851" fill-rule="nonzero"></path>
                    <path d="M179.794545,79.3906454 C177.804679,75.8915772 175.234242,72.756776 172.193285,70.1204533 L170.915913,71.2274762 C172.858911,74.6417059 174.513838,78.2121611 175.863479,81.9016974 L179.794545,79.3906454 Z" id="Path" fill="#002851" fill-rule="nonzero"></path>
                    <path d="M174.442178,62.3622925 C175.343273,59.775134 176.064636,57.1287782 176.601116,54.4421283 L172.103329,53.9291177 C171.41067,59.6532363 169.899413,67.7354038 166.786944,74.0985357 L168.037329,74.9355531 C170.398832,71.6824355 172.316759,68.1291218 173.740523,64.3693341 L182.978978,63.5683175 C182.85304,76.4925853 182.511208,82.1447025 182.034443,86.4197911 C181.638638,89.9478642 180.649124,90.7668812 172.400183,89.6328577 L171.923417,91.1898899 C180.649124,95.6899832 185.317828,93.3859355 185.965509,87.7158179 C186.649173,81.8206958 186.910044,74.6655475 187,61.2642697 L174.442178,62.3622925 Z" id="Path" fill="#002851" fill-rule="nonzero"></path>
                    <path d="M162.64898,55.6211528 L157.989273,55.0361406 C157.690661,57.9908782 157.243313,60.9286697 156.648932,63.8383231 L151.512459,64.2883324 L151.512459,95.4019772 L155.308591,95.0689703 L155.308591,90.3168719 L162.738936,89.6598582 L162.738936,93.6019399 L166.535068,93.268933 L166.535068,63.0013057 L158.717914,63.6853199 C160.237987,61.104768 161.552412,58.4083634 162.64898,55.6211528 Z M162.738936,87.7518187 L155.308591,88.4088323 L155.308591,77.4016042 L162.738936,76.7445906 L162.738936,87.7518187 Z M162.738936,65.2513524 L162.738936,74.7915501 L155.308591,75.4485637 L155.308591,65.8993658 L162.738936,65.2513524 Z" id="Shape" fill="#002851" fill-rule="nonzero"></path>
                    <polygon id="Path" fill="#002851" fill-rule="nonzero" points="58.8940254 128.153656 33.6794304 130.358702 33.6794304 132.437745 58.8940254 130.223699"></polygon>
                    <path d="M49.6555705,126.002611 C47.4693414,123.379743 44.8899745,121.111773 42.0093323,119.279472 L40.8938811,120.458497 C42.7186352,123.213311 44.3884078,126.067802 45.8954204,129.008674 L49.6555705,126.002611 Z" id="Path" fill="#002851" fill-rule="nonzero"></path>
                    <path d="M55.9614682,133.63477 L51.166827,133.022757 C50.5565368,140.432125 49.3898148,147.785039 47.6765442,155.019213 L32.7348951,156.32424 L32.7348951,158.403283 L60.0274678,156.018234 L60.0274678,153.90319 L49.6195882,154.803208 C52.4404849,147.978684 54.5652278,140.886546 55.9614682,133.63477 L55.9614682,133.63477 Z" id="Path" fill="#002851" fill-rule="nonzero"></path>
                    <path d="M30.5219838,120.269493 C28.722869,129.32368 24.3060419,139.520892 21.112613,143.669978 L22.1471041,144.75 C24.2171811,142.762613 26.0167629,140.511226 27.4994708,138.053861 L27.4994708,161.17534 L31.3045988,160.842334 L31.3045988,130.871712 C32.6901614,127.738532 33.8710625,124.518702 34.8398595,121.232513 L30.5219838,120.269493 Z" id="Path" fill="#002851" fill-rule="nonzero"></path>
                    <path d="M39.5085626,153.480181 L44.0063498,152.220155 C43.3586685,147.720062 40.8129209,140.150905 38.0512796,134.813794 L36.4950452,135.470808 C38.0372453,141.371383 39.0458151,147.398795 39.5085626,153.480181 L39.5085626,153.480181 Z" id="Path" fill="#002851" fill-rule="nonzero"></path>
                    <path d="M158.987781,126.90263 L147.761305,127.88365 L148.013181,125.012591 L164.98783,123.52756 L164.98783,121.58352 L148.184097,123.05055 L148.444968,120.269493 L162.612998,119.027467 L162.612998,110.927299 L131.00255,113.699356 L131.00255,121.799524 L144.738792,120.6025 L144.47792,123.383557 L128.636713,124.724585 L128.636713,126.668625 L144.262026,125.300597 L144.01015,128.171656 L134.465846,129.008674 L134.465846,148.197071 L127.854099,148.773083 L127.854099,150.717124 L165.815422,147.396055 L165.815422,145.452015 L158.951799,146.046027 L158.987781,126.90263 Z M153.194632,113.672356 L158.897826,113.168345 L158.897826,117.407433 L153.194632,117.902444 L153.194632,113.672356 Z M140.285982,119.072468 L134.717722,119.558478 L134.717722,115.32839 L140.285982,114.83338 L140.285982,119.072468 Z M143.884212,118.757461 L143.884212,114.518373 L149.542428,114.023363 L149.542428,118.262451 L143.884212,118.757461 Z M155.155667,146.451035 L138.270974,147.936066 L138.270974,144.822001 L155.155667,143.345971 L155.155667,146.451035 Z M155.155667,141.527933 L138.270974,143.003964 L138.270974,139.952901 L155.155667,138.47687 L155.155667,141.527933 Z M155.155667,136.730834 L138.270974,138.215865 L138.270974,135.272804 L155.155667,133.796773 L155.155667,136.730834 Z M155.155667,131.978735 L138.270974,133.463766 L138.270974,130.691709 L155.155667,129.215678 L155.155667,131.978735 Z" id="Shape" fill="#002851" fill-rule="nonzero"></path>
                </g>
                <g id="icon/coordinate" transform="translate(84.500000, 0.000000)">
                    <path d="M9,26.0907953 C15,18.0106403 18,12.3137085 18,9 C18,4.02943725 13.9705627,0 9,0 C4.02943725,0 0,4.02943725 0,9 C0,12.3137085 3,18.0106403 9,26.0907953 Z" id="Oval" fill="#D94030"></path>
                    <circle id="Oval" stroke="#9E170C" stroke-width="2" fill="#FFFFFF" cx="9" cy="9" r="4.5"></circle>
                </g>
            </g>
        </g>
    </g>
</svg>